<!-- Generated by IcoMoon.io -->
<svg version="1.1" xmlns="http://www.w3.org/2000/svg" width="24" height="24" viewBox="0 0 24 24">
<title>company-b</title>
<path fill="none" stroke="#c0c0cd" stroke-linejoin="round" stroke-linecap="round" stroke-miterlimit="4" stroke-width="1.5" d="M20.282 9.789l-6.5-1.912c-0.53-0.156-1.086 0.147-1.242 0.677-0.027 0.092-0.041 0.187-0.041 0.282v12.164c0 0.552 0.448 1 1 1h6.5c0.552 0 1-0.448 1-1v-10.252c0-0.444-0.292-0.834-0.718-0.959z"></path>
<path fill="#fff" stroke="#c0c0cd" stroke-linejoin="round" stroke-linecap="round" stroke-miterlimit="4" stroke-width="1.5" d="M3.9 2.91l8-0.8c0.55-0.055 1.040 0.346 1.095 0.896 0.003 0.033 0.005 0.066 0.005 0.099v17.895c0 0.552-0.448 1-1 1h-8c-0.552 0-1-0.448-1-1v-17.095c0-0.514 0.389-0.944 0.9-0.995z"></path>
<path fill="none" stroke="#e0e0e6" stroke-linejoin="round" stroke-linecap="round" stroke-miterlimit="4" stroke-width="1.5" d="M6.5 7.5l3-0.3"></path>
<path fill="none" stroke="#e0e0e6" stroke-linejoin="round" stroke-linecap="round" stroke-miterlimit="4" stroke-width="1.5" d="M6.5 11.5l3-0.3"></path>
<path fill="none" stroke="#e0e0e6" stroke-linejoin="round" stroke-linecap="round" stroke-miterlimit="4" stroke-width="1.5" d="M6.5 15.5l3-0.3"></path>
<path fill="none" stroke="#e0e0e6" stroke-linejoin="round" stroke-linecap="round" stroke-miterlimit="4" stroke-width="1.5" d="M16.5 12.5v1"></path>
<path fill="none" stroke="#e0e0e6" stroke-linejoin="round" stroke-linecap="round" stroke-miterlimit="4" stroke-width="1.5" d="M16.5 15.5v1"></path>
</svg>
