<!-- Generated by IcoMoon.io -->
<svg version="1.1" xmlns="http://www.w3.org/2000/svg" width="24" height="24" viewBox="0 0 24 24">
<title>users</title>
<path d="M15.984 12.984c2.344 0 7.031 1.172 7.031 3.516v2.484h-6v-2.484c0-1.5-0.797-2.625-1.969-3.469 0.328-0.047 0.656-0.047 0.938-0.047zM8.016 12.984c2.344 0 6.984 1.172 6.984 3.516v2.484h-14.016v-2.484c0-2.344 4.688-3.516 7.031-3.516zM8.016 11.016c-1.641 0-3-1.359-3-3s1.359-3 3-3 2.953 1.359 2.953 3-1.313 3-2.953 3zM15.984 11.016c-1.641 0-3-1.359-3-3s1.359-3 3-3 3 1.359 3 3-1.359 3-3 3z"></path>
</svg>
