<svg aria-hidden="true" style="position: absolute; width: 0; height: 0; overflow: hidden;" version="1.1" xmlns="http://www.w3.org/2000/svg" xmlns:xlink="http://www.w3.org/1999/xlink">
<defs>
<symbol id="icon-arrow_down" viewBox="0 0 24 24">
<path fill="#0d10f3" style="fill: var(--color1, #0d10f3)" d="M2.8 4l-2.8 2.8 12 12 12-12-2.8-2.8-9.2 9.2z"></path>
</symbol>
<symbol id="icon-arrow_left" viewBox="0 0 24 24">
<path fill="#3d40f5" style="fill: var(--color2, #3d40f5)" d="M18.8 21.2l-2.8 2.8-12-12 12-12 2.8 2.8-9.2 9.2z"></path>
</symbol>
<symbol id="icon-arrow_up" viewBox="0 0 24 24">
<path fill="#0d10f3" style="fill: var(--color1, #0d10f3)" d="M2.8 18.8l-2.8-2.8 12-12 12 12-2.8 2.8-9.2-9.2z"></path>
</symbol>
<symbol id="icon-arrow_right" viewBox="0 0 16 24">
<path fill="#3d40f5" style="fill: var(--color2, #3d40f5)" d="M0 21.2l2.8 2.8 12-12-12-12-2.8 2.8 9.2 9.2z"></path>
</symbol>
<symbol id="icon-add" viewBox="0 0 24 24">
<path fill="none" stroke="#0d10f3" stroke-width="1.5652" stroke-miterlimit="4" stroke-linecap="round" stroke-linejoin="miter" style="stroke: var(--color1, #0d10f3)" d="M12.167 1.454v21.426"></path>
<path fill="none" stroke="#0d10f3" stroke-width="1.5652" stroke-miterlimit="4" stroke-linecap="round" stroke-linejoin="miter" style="stroke: var(--color1, #0d10f3)" d="M1.454 12.167h21.426"></path>
</symbol>
<symbol id="icon-back_arrow" viewBox="0 0 24 24">
<path fill="none" stroke="#0d10f3" stroke-width="2" stroke-miterlimit="4" stroke-linecap="round" stroke-linejoin="round" style="stroke: var(--color1, #0d10f3)" d="M1.333 12h21.333"></path>
<path fill="none" stroke="#0d10f3" stroke-width="2" stroke-miterlimit="4" stroke-linecap="round" stroke-linejoin="round" style="stroke: var(--color1, #0d10f3)" d="M10.222 3.333l-8.889 8.667 8.889 8.667"></path>
</symbol>
<symbol id="icon-birthday" viewBox="0 0 19 24">
<path fill="none" stroke="#0d10f3" stroke-width="1.3846" stroke-miterlimit="4" stroke-linecap="butt" stroke-linejoin="miter" style="stroke: var(--color1, #0d10f3)" d="M0.923 17.322c1.465-0.471 2.589-0.707 3.372-0.707 1.175 0 2.24 2.121 4.997 2.121s3.105-2.121 5.214-2.121c1.406 0 2.807 0.726 4.202 2.179"></path>
<path fill="none" stroke="#0d10f3" stroke-width="1.3846" stroke-miterlimit="4" stroke-linecap="round" stroke-linejoin="round" style="stroke: var(--color1, #0d10f3)" d="M0.923 12.431h17.723v10.462h-17.723v-10.462z"></path>
<path fill="none" stroke="#0d10f3" stroke-width="1.3846" stroke-miterlimit="4" stroke-linecap="round" stroke-linejoin="round" style="stroke: var(--color1, #0d10f3)" d="M8.246 8.246h2.954v4.185h-2.954v-4.185z"></path>
<path fill="none" stroke="#0d10f3" stroke-width="1.3846" stroke-miterlimit="4" stroke-linecap="round" stroke-linejoin="round" style="stroke: var(--color1, #0d10f3)" d="M9.723 0.923c-1.969 3.109-1.969 4.664 0 4.664s1.969-1.555 0-4.664z"></path>
</symbol>
<symbol id="icon-calendar" viewBox="0 0 24 24">
<path fill="none" stroke="#0d10f3" stroke-width="1.2857" stroke-miterlimit="4" stroke-linecap="butt" stroke-linejoin="round" style="stroke: var(--color1, #0d10f3)" d="M22.929 3.729h-21.857v18.771h21.857v-18.771z"></path>
<path fill="none" stroke="#0d10f3" stroke-width="1.2857" stroke-miterlimit="4" stroke-linecap="round" stroke-linejoin="miter" style="stroke: var(--color1, #0d10f3)" d="M5.314 1.629v3.429"></path>
<path fill="none" stroke="#0d10f3" stroke-width="1.2857" stroke-miterlimit="4" stroke-linecap="round" stroke-linejoin="miter" style="stroke: var(--color1, #0d10f3)" d="M18.686 1.629v3.429"></path>
<path fill="none" stroke="#0d10f3" stroke-width="1.2857" stroke-miterlimit="4" stroke-linecap="round" stroke-linejoin="miter" style="stroke: var(--color1, #0d10f3)" d="M1.714 7.971h20.571"></path>
<path fill="none" stroke="#0d10f3" stroke-width="1.2857" stroke-miterlimit="4" stroke-linecap="round" stroke-linejoin="miter" style="stroke: var(--color1, #0d10f3)" d="M6.343 11.571h1.029"></path>
<path fill="none" stroke="#0d10f3" stroke-width="1.2857" stroke-miterlimit="4" stroke-linecap="round" stroke-linejoin="miter" style="stroke: var(--color1, #0d10f3)" d="M6.343 13.629h1.029"></path>
<path fill="none" stroke="#0d10f3" stroke-width="1.2857" stroke-miterlimit="4" stroke-linecap="round" stroke-linejoin="miter" style="stroke: var(--color1, #0d10f3)" d="M6.343 15.686h1.029"></path>
<path fill="none" stroke="#0d10f3" stroke-width="1.2857" stroke-miterlimit="4" stroke-linecap="round" stroke-linejoin="miter" style="stroke: var(--color1, #0d10f3)" d="M6.343 17.743h1.029"></path>
<path fill="none" stroke="#0d10f3" stroke-width="1.2857" stroke-miterlimit="4" stroke-linecap="round" stroke-linejoin="miter" style="stroke: var(--color1, #0d10f3)" d="M11.486 11.571h1.029"></path>
<path fill="none" stroke="#0d10f3" stroke-width="1.2857" stroke-miterlimit="4" stroke-linecap="round" stroke-linejoin="miter" style="stroke: var(--color1, #0d10f3)" d="M11.486 13.629h1.029"></path>
<path fill="none" stroke="#0d10f3" stroke-width="1.2857" stroke-miterlimit="4" stroke-linecap="round" stroke-linejoin="miter" style="stroke: var(--color1, #0d10f3)" d="M11.486 15.686h1.029"></path>
<path fill="none" stroke="#0d10f3" stroke-width="1.2857" stroke-miterlimit="4" stroke-linecap="round" stroke-linejoin="miter" style="stroke: var(--color1, #0d10f3)" d="M11.486 17.743h1.029"></path>
<path fill="none" stroke="#0d10f3" stroke-width="1.2857" stroke-miterlimit="4" stroke-linecap="round" stroke-linejoin="miter" style="stroke: var(--color1, #0d10f3)" d="M16.629 11.571h1.029"></path>
<path fill="none" stroke="#0d10f3" stroke-width="1.2857" stroke-miterlimit="4" stroke-linecap="round" stroke-linejoin="miter" style="stroke: var(--color1, #0d10f3)" d="M16.629 13.629h1.029"></path>
<path fill="none" stroke="#0d10f3" stroke-width="1.2857" stroke-miterlimit="4" stroke-linecap="round" stroke-linejoin="miter" style="stroke: var(--color1, #0d10f3)" d="M16.629 15.686h1.029"></path>
<path fill="none" stroke="#0d10f3" stroke-width="1.2857" stroke-miterlimit="4" stroke-linecap="round" stroke-linejoin="miter" style="stroke: var(--color1, #0d10f3)" d="M16.629 17.743h1.029"></path>
</symbol>
<symbol id="icon-call" viewBox="0 0 24 24">
<path fill="#0d10f3" style="fill: var(--color1, #0d10f3)" d="M18.473 2.235c4.032 2.775 5.871 7.851 4.574 12.617-0.109 0.4-0.521 0.636-0.921 0.527s-0.636-0.521-0.527-0.921c1.13-4.153-0.472-8.575-3.977-10.987-3.5-2.408-8.119-2.278-11.482 0.325-3.369 2.607-4.727 7.113-3.371 11.196 1.322 3.982 4.937 6.69 9.040 6.814l0.299 0.004c4.63 0 7.057-2.54 5.368-4.258-0.29-0.295-0.287-0.77 0.009-1.061s0.77-0.287 1.061 0.009c2.886 2.934-0.606 6.685-6.158 6.807l-0.279 0.003c-4.876 0.002-9.206-3.157-10.763-7.846-1.556-4.685 0.003-9.857 3.877-12.855 3.879-3.002 9.213-3.153 13.25-0.374z"></path>
<path fill="#0d10f3" style="fill: var(--color1, #0d10f3)" d="M8.039 4.194l-0.141 0.031c-1.572 0.507-2.643 1.977-2.662 3.646 0 2.085 1.411 4.539 3.781 6.991 2.336 2.416 4.818 3.895 6.894 3.895 1.661-0.019 3.111-1.111 3.608-2.705 0.149-0.818-0.149-1.36-0.685-1.762l-0.12-0.085c-0.041-0.028-0.088-0.058-0.152-0.099l-2.224-1.544c-0.789-0.497-1.777-0.328-2.342 0.355l-0.25 0.331c-0.020 0.029-0.031 0.047-0.037 0.059l-0.005 0.012c-0.277-0.072-0.856-0.512-1.757-1.429-0.838-0.852-1.267-1.421-1.38-1.734l-0.024-0.072c-0.001-0.004 0.011-0.005 0.085-0.063l0.23-0.188c0.724-0.514 0.937-1.572 0.445-2.381l-1.501-2.306c0 0-0.115-0.161-0.159-0.217-0.405-0.532-0.893-0.821-1.605-0.735zM8.275 5.682l0.018 0.003c0.044 0.012 0.081 0.053 0.158 0.154l0.119 0.162 1.464 2.251c0.073 0.12 0.036 0.305-0.093 0.396l-0.213 0.172c-1.17 0.962-0.906 2.032 1.15 4.122 2.011 2.045 3.086 2.378 4.009 1.278l0.228-0.295c0.109-0.156 0.272-0.19 0.397-0.111l2.221 1.542 0.202 0.135c0.127 0.095 0.144 0.125 0.129 0.209-0.281 0.881-1.163 1.545-2.162 1.556-1.569 0-3.727-1.286-5.807-3.438-2.125-2.197-3.36-4.346-3.36-5.94 0.011-0.958 0.592-1.812 1.457-2.166l0.082-0.031z"></path>
</symbol>
<symbol id="icon-camera" viewBox="0 0 24 24">
<path fill="none" stroke="#0d10f3" stroke-width="1.7143" stroke-miterlimit="4" stroke-linecap="round" stroke-linejoin="round" style="stroke: var(--color1, #0d10f3)" d="M22.857 20.571v0l-4.544-1.721"></path>
<path fill="none" stroke="#0d10f3" stroke-width="1.7143" stroke-miterlimit="4" stroke-linecap="round" stroke-linejoin="round" style="stroke: var(--color1, #0d10f3)" d="M2.286 12h12.571c0.631 0 1.143 0.512 1.143 1.143v6.857c0 0.631-0.512 1.143-1.143 1.143h-12.571c-0.631 0-1.143-0.512-1.143-1.143v-6.857c0-0.631 0.512-1.143 1.143-1.143z"></path>
<path fill="none" stroke="#0d10f3" stroke-width="1.7143" stroke-miterlimit="4" stroke-linecap="round" stroke-linejoin="round" style="stroke: var(--color1, #0d10f3)" d="M6.857 5.714c0 1.578-1.279 2.857-2.857 2.857s-2.857-1.279-2.857-2.857c0-1.578 1.279-2.857 2.857-2.857s2.857 1.279 2.857 2.857z"></path>
<path fill="none" stroke="#0d10f3" stroke-width="1.7143" stroke-miterlimit="4" stroke-linecap="round" stroke-linejoin="round" style="stroke: var(--color1, #0d10f3)" d="M16 5.714c0 1.578-1.279 2.857-2.857 2.857s-2.857-1.279-2.857-2.857c0-1.578 1.279-2.857 2.857-2.857s2.857 1.279 2.857 2.857z"></path>
</symbol>
<symbol id="icon-cart" viewBox="0 0 24 24">
<path fill="none" stroke="#0d10f3" stroke-width="1.44" stroke-miterlimit="4" stroke-linecap="round" stroke-linejoin="round" style="stroke: var(--color1, #0d10f3)" d="M5.568 6.528l1.728 5.184"></path>
<path fill="none" stroke="#0d10f3" stroke-width="1.44" stroke-miterlimit="4" stroke-linecap="round" stroke-linejoin="round" style="stroke: var(--color1, #0d10f3)" d="M0.96 1.92h3.019l1.589 4.608h17.28l-3.019 9.216h-11.266c-0.834 0-1.565 0.975-1.565 1.809s0.731 1.647 1.565 1.647h9.717"></path>
<path fill="none" stroke="#0d10f3" stroke-width="1.44" stroke-miterlimit="4" stroke-linecap="round" stroke-linejoin="round" style="stroke: var(--color1, #0d10f3)" d="M10.017 20.71c0 0.834-0.676 1.51-1.51 1.51s-1.51-0.676-1.51-1.51c0-0.834 0.676-1.51 1.51-1.51s1.51 0.676 1.51 1.51z"></path>
<path fill="none" stroke="#0d10f3" stroke-width="1.44" stroke-miterlimit="4" stroke-linecap="round" stroke-linejoin="round" style="stroke: var(--color1, #0d10f3)" d="M19.829 20.71c0 0.834-0.676 1.51-1.51 1.51s-1.51-0.676-1.51-1.51c0-0.834 0.676-1.51 1.51-1.51s1.51 0.676 1.51 1.51z"></path>
</symbol>
<symbol id="icon-chat" viewBox="0 0 23 24">
<path fill="none" stroke="#0d10f3" stroke-width="1.3846" stroke-miterlimit="4" stroke-linecap="round" stroke-linejoin="round" style="stroke: var(--color1, #0d10f3)" d="M7.126 7.374v-6.451h14.474v11.468h-6.203"></path>
<path fill="none" stroke="#0d10f3" stroke-width="1.3846" stroke-miterlimit="4" stroke-linecap="round" stroke-linejoin="round" style="stroke: var(--color1, #0d10f3)" d="M0.923 8.221h14.474v11.468h-6.203l-4.135 3.128v-3.128h-4.135z"></path>
</symbol>
<symbol id="icon-checkmark" viewBox="0 0 24 24">
<path fill="#0d10f3" style="fill: var(--color1, #0d10f3)" d="M21.295 4.266l1.991 1.732-11.946 10.395-5.973-5.197 1.991-1.732 3.982 3.465 9.955-8.662z"></path>
<path fill="none" stroke="#0d10f3" stroke-width="1.5652" stroke-miterlimit="4" stroke-linecap="butt" stroke-linejoin="miter" style="stroke: var(--color1, #0d10f3)" d="M15.777 2.843c-3.010-1.463-6.67-1.454-9.786 0.346-4.991 2.881-6.701 9.263-3.819 14.254s9.263 6.701 14.254 3.819c3.046-1.759 4.87-4.822 5.174-8.076"></path>
</symbol>
<symbol id="icon-close" viewBox="0 0 24 24">
<path fill="none" stroke="#0d10f3" stroke-width="1.5" stroke-miterlimit="4" stroke-linecap="round" stroke-linejoin="miter" style="stroke: var(--color1, #0d10f3)" d="M1.7 1.7l21 21"></path>
<path fill="none" stroke="#0d10f3" stroke-width="1.5" stroke-miterlimit="4" stroke-linecap="round" stroke-linejoin="miter" style="stroke: var(--color1, #0d10f3)" d="M22.7 1.7l-21 21"></path>
</symbol>
<symbol id="icon-cloud" viewBox="0 0 24 24">
<path fill="none" stroke="#0d10f3" stroke-width="1.44" stroke-miterlimit="4" stroke-linecap="round" stroke-linejoin="round" style="stroke: var(--color1, #0d10f3)" d="M4.992 18.912c-2.227 0-4.032-1.805-4.032-4.032 0-1.899 1.312-3.491 3.079-3.919-0.037-0.2-0.055-0.406-0.055-0.617 0-1.948 1.58-3.528 3.528-3.528 1.083 0 2.052 0.488 2.7 1.257l0.039-0.133c0.589-1.822 2.299-3.14 4.317-3.14v0l0.208 0.005c2.409 0.109 4.328 2.096 4.328 4.531 0 0.179-0.010 0.356-0.031 0.529 2.282 0.235 4.063 2.165 4.063 4.511 0 2.505-2.031 4.536-4.536 4.536v0z"></path>
<path fill="none" stroke="#0d10f3" stroke-width="1.44" stroke-miterlimit="4" stroke-linecap="round" stroke-linejoin="round" style="stroke: var(--color1, #0d10f3)" d="M18.107 12.174c0.624-0.777 0.997-1.764 0.997-2.838 0-2.505-2.031-4.536-4.536-4.536-1.885 0-3.501 1.15-4.186 2.786-0.225 0.539-0.35 1.13-0.35 1.75"></path>
</symbol>
<symbol id="icon-company" viewBox="0 0 24 24">
<path fill="none" stroke="#0d10f3" stroke-width="1.44" stroke-miterlimit="4" stroke-linecap="butt" stroke-linejoin="miter" style="stroke: var(--color1, #0d10f3)" d="M11.974 8.12l9.482 2.982v12.058h-9.504l0.022-15.039z"></path>
<path fill="none" stroke="#0d10f3" stroke-width="1.44" stroke-miterlimit="4" stroke-linecap="butt" stroke-linejoin="miter" style="stroke: var(--color1, #0d10f3)" d="M12.237 1.635l-10.077 1.008v20.516h10.080l-0.003-21.524z"></path>
<path fill="none" stroke="#0d10f3" stroke-width="1.44" stroke-miterlimit="4" stroke-linecap="round" stroke-linejoin="round" style="stroke: var(--color1, #0d10f3)" d="M5.472 7.175l3.456-0.346"></path>
<path fill="none" stroke="#0d10f3" stroke-width="1.44" stroke-miterlimit="4" stroke-linecap="round" stroke-linejoin="round" style="stroke: var(--color1, #0d10f3)" d="M5.472 11.783l3.456-0.346"></path>
<path fill="none" stroke="#0d10f3" stroke-width="1.44" stroke-miterlimit="4" stroke-linecap="round" stroke-linejoin="round" style="stroke: var(--color1, #0d10f3)" d="M5.472 16.391l3.456-0.346"></path>
<path fill="none" stroke="#0d10f3" stroke-width="1.44" stroke-miterlimit="4" stroke-linecap="round" stroke-linejoin="round" style="stroke: var(--color1, #0d10f3)" d="M16.992 12.935v1.152"></path>
<path fill="none" stroke="#0d10f3" stroke-width="1.44" stroke-miterlimit="4" stroke-linecap="round" stroke-linejoin="round" style="stroke: var(--color1, #0d10f3)" d="M16.992 16.391v1.152"></path>
</symbol>
<symbol id="icon-copy" viewBox="0 0 24 24">
<path fill="#0d10f3" style="fill: var(--color1, #0d10f3)" d="M6.357 3.261c0.049 0.025 0.095 0.055 0.136 0.090-0.040-0.035-0.086-0.065-0.136-0.090zM6.737 1.728h13.697v9.848c0 0.424 0.342 0.768 0.765 0.768s0.765-0.344 0.765-0.768v-10.54c0-0.467-0.377-0.845-0.841-0.845h-15.073c-0.465 0-0.841 0.378-0.841 0.845v2.843c0 0.32 0.18 0.612 0.465 0.756 0.378 0.19 0.837 0.036 1.026-0.343 0.096-0.193 0.104-0.407 0.039-0.595v-1.969z"></path>
<path fill="#0d10f3" style="fill: var(--color1, #0d10f3)" d="M20.434 19.392h-2.003c-0.422 0-0.765 0.344-0.765 0.768s0.342 0.768 0.765 0.768h2.691c0.465 0 0.841-0.378 0.841-0.845v-5.683c0-0.424-0.342-0.768-0.765-0.768s-0.765 0.344-0.765 0.768v4.992z"></path>
<path fill="#0d10f3" style="fill: var(--color1, #0d10f3)" d="M5.208 12.928h4.205c0.422 0 0.765-0.358 0.765-0.8s-0.342-0.8-0.765-0.8h-4.205c-0.422 0-0.765 0.358-0.765 0.8s0.342 0.8 0.765 0.8z"></path>
<path fill="#0d10f3" style="fill: var(--color1, #0d10f3)" d="M3.029 22.209v-17.325h14.637v9.516c0 0.424 0.342 0.768 0.765 0.768s0.765-0.344 0.765-0.768v-10.207c0-0.467-0.377-0.845-0.841-0.845h-16.014c-0.465 0-0.841 0.378-0.841 0.845v18.708c0 0.467 0.377 0.845 0.841 0.845h16.014c0.465 0 0.841-0.378 0.841-0.845v-5.621c0-0.424-0.342-0.768-0.765-0.768s-0.765 0.344-0.765 0.768v4.929h-14.637z"></path>
<path fill="#0d10f3" style="fill: var(--color1, #0d10f3)" d="M5.208 9.856h8.736c0.422 0 0.765-0.358 0.765-0.8s-0.342-0.8-0.765-0.8h-8.736c-0.422 0-0.765 0.358-0.765 0.8s0.342 0.8 0.765 0.8z"></path>
</symbol>
<symbol id="icon-remove" viewBox="0 0 24 24">
<path fill="#0d10f3" style="fill: var(--color1, #0d10f3)" d="M1.92 4.54c-0.398 0-0.72-0.322-0.72-0.72 0-0.365 0.271-0.666 0.622-0.713l0.098-0.007 5.278-0.001 0-0.771c0-1.137 0.902-2.059 2.033-2.134l0.149-0.005h4.574c1.15 0 2.1 0.875 2.177 1.992l0.005 0.147-0 0.771 5.279 0.001c0.398 0 0.72 0.322 0.72 0.72 0 0.365-0.271 0.666-0.622 0.713l-0.098 0.007h-19.495zM13.955 1.629h-4.574c-0.38 0-0.687 0.267-0.735 0.605l-0.007 0.094-0 0.771h6.059l0-0.771c0-0.349-0.275-0.645-0.64-0.692l-0.102-0.006z"></path>
<path fill="#0d10f3" style="fill: var(--color1, #0d10f3)" d="M4.066 3.404c-0.364 0.023-0.647 0.312-0.673 0.666l-0 0.098 1.086 17.104c0.027 1.313 1.066 2.373 2.39 2.48l0.167 0.008h9.537c1.333-0.026 2.425-1.035 2.533-2.298l0.895-14.136c0.025-0.397-0.276-0.739-0.673-0.764s-0.739 0.276-0.764 0.673l-0.888 14.008c-0.011 0.546-0.443 1.001-0.997 1.069l-0.12 0.009-9.509 0c-0.583-0.011-1.053-0.43-1.123-0.987l-1.096-17.256c-0.025-0.397-0.367-0.698-0.764-0.673z"></path>
<path fill="#0d10f3" style="fill: var(--color1, #0d10f3)" d="M9.231 7.768c0.364 0 0.666 0.271 0.713 0.622l0.007 0.098v9.701c0 0.398-0.322 0.72-0.72 0.72-0.364 0-0.666-0.271-0.713-0.622l-0.007-0.098v-9.701c0-0.398 0.322-0.72 0.72-0.72z"></path>
<path fill="#0d10f3" style="fill: var(--color1, #0d10f3)" d="M14.105 7.768c0.364 0 0.666 0.271 0.713 0.622l0.007 0.098v9.701c0 0.398-0.322 0.72-0.72 0.72-0.364 0-0.666-0.271-0.713-0.622l-0.007-0.098v-9.701c0-0.398 0.322-0.72 0.72-0.72z"></path>
</symbol>
<symbol id="icon-developer" viewBox="0 0 24 24">
<path fill="none" stroke="#0d10f3" stroke-width="1.5" stroke-miterlimit="4" stroke-linecap="round" stroke-linejoin="round" style="stroke: var(--color1, #0d10f3)" d="M15.087 15.5h4.611l2.802-5h-7.413l-2.944 5h-8.285c-0.759 0-1.374-0.615-1.374-1.374 0-0.535 0.311-1.022 0.797-1.247 0 0 0 0 0 0l2.143-1.197-0.38-0.553c-0.469-0.684-0.715-1.554-0.715-2.061v-1.468c0-1.1 1.19-2.102 2.497-2.102 1.288 0 2.461 1.002 2.461 2.102v1.468c0 0.521-0.212 1.394-0.678 2.077l-0.373 0.547 2.166 1.237"></path>
<path fill="none" stroke="#0d10f3" stroke-width="1.5" stroke-miterlimit="4" stroke-linecap="round" stroke-linejoin="miter" style="stroke: var(--color1, #0d10f3)" d="M1 18.5h14"></path>
</symbol>
<symbol id="icon-display" viewBox="0 0 24 24">
<path fill="#0d10f3" style="fill: var(--color1, #0d10f3)" d="M12.415 20.125l-0.427 0.001c-2.401-0.042-4.769 0.519-6.865 1.624-0.338 0.178-0.757 0.049-0.935-0.289s-0.049-0.757 0.289-0.935c2.102-1.109 4.452-1.718 6.83-1.781l0.001-2.037c0-0.382 0.31-0.692 0.692-0.692 0.35 0 0.64 0.26 0.686 0.598l0.006 0.094-0 2.038c2.391 0.065 4.734 0.674 6.831 1.78 0.338 0.178 0.468 0.597 0.289 0.935s-0.597 0.468-0.935 0.289c-1.972-1.040-4.187-1.598-6.462-1.625z"></path>
<path fill="#0d10f3" style="fill: var(--color1, #0d10f3)" d="M23.077 1.615h-22.154c-0.382 0-0.692 0.31-0.692 0.692v13.292c0 0.382 0.31 0.692 0.692 0.692h22.154c0.382 0 0.692-0.31 0.692-0.692v-13.292c0-0.382-0.31-0.692-0.692-0.692zM22.385 3v11.908h-20.769v-11.908h20.769z"></path>
</symbol>
<symbol id="icon-download" viewBox="0 0 24 24">
<path fill="none" stroke="#0d10f3" stroke-width="1.44" stroke-miterlimit="4" stroke-linecap="round" stroke-linejoin="round" style="stroke: var(--color1, #0d10f3)" d="M22.711 15.305v5.76c0 0.636-0.471 1.152-1.060 1.152h-19.763c-0.589 0-1.066-0.516-1.066-1.152v-5.76"></path>
<path fill="none" stroke="#0d10f3" stroke-width="1.44" stroke-miterlimit="4" stroke-linecap="round" stroke-linejoin="round" style="stroke: var(--color1, #0d10f3)" d="M12.178 17.774v-16.128"></path>
<path fill="none" stroke="#0d10f3" stroke-width="1.44" stroke-miterlimit="4" stroke-linecap="round" stroke-linejoin="round" style="stroke: var(--color1, #0d10f3)" d="M19.666 10.862l-7.488 7.68-7.488-7.68"></path>
</symbol>
<symbol id="icon-edit" viewBox="0 0 24 24">
<path fill="#0d10f3" style="fill: var(--color1, #0d10f3)" d="M18.848 5.209c0.268 0.265 0.294 0.681 0.078 0.976l-0.072 0.085-11.022 11.146c-1.042 1.060-1.042 2.783 0 3.843 0.29 0.295 0.286 0.77-0.009 1.061s-0.77 0.286-1.061-0.009c-0.97-0.986-1.357-2.338-1.163-3.617l0.019-0.106-0.026 0.006c-0.153 0.027-0.309 0.045-0.465 0.054l-0.236 0.007c-1.104 0-2.163-0.446-2.942-1.238-0.29-0.295-0.286-0.77 0.009-1.061s0.77-0.287 1.061 0.009c0.498 0.506 1.171 0.79 1.872 0.79 0.638 0 1.252-0.234 1.733-0.657l0.149-0.142 11.015-11.14c0.291-0.295 0.766-0.297 1.061-0.006z"></path>
<path fill="#0d10f3" style="fill: var(--color1, #0d10f3)" d="M16.736 1.328c1.587-1.612 3.859-1.358 5.542 0.351 0.657 0.667 1.11 1.445 1.301 2.253 0.095 0.403-0.155 0.807-0.558 0.902s-0.807-0.155-0.902-0.558c-0.124-0.528-0.438-1.066-0.91-1.545-1.094-1.11-2.354-1.292-3.284-0.465l-0.119 0.114-14.64 14.884-1.161 5.016 4.911-1.176 6.947-7.022 5.705-5.83c0.29-0.296 0.765-0.301 1.061-0.011s0.301 0.765 0.011 1.061l-5.708 5.833-7.101 7.177c-0.074 0.075-0.162 0.133-0.259 0.171l-0.1 0.031-6.297 1.508c-0.508 0.122-0.97-0.298-0.922-0.798l0.017-0.101 1.483-6.403c0.023-0.101 0.067-0.196 0.129-0.278l0.067-0.078 14.787-15.035z"></path>
</symbol>
<symbol id="icon-employee" viewBox="0 0 24 24">
<path fill="none" stroke="#0d10f3" stroke-width="1.3846" stroke-miterlimit="4" stroke-linecap="round" stroke-linejoin="round" style="stroke: var(--color1, #0d10f3)" d="M8.526 14.955c-0.778 0.26-1.615 0.392-2.505 0.392-1.95 0-3.693-0.651-5.039-1.882-0.030-0.027-0.055-0.079-0.059-0.1 0.001-0.058 0.015-0.098 0.020-0.105 0.245-0.216 0.466-0.331 0.508-0.35l2.765-1.57-0.49-0.725c-0.605-0.897-0.922-2.039-0.922-2.702v-1.925c0-1.443 1.535-2.756 3.221-2.756 1.661 0 3.175 1.314 3.175 2.756 0 0.383 0 0.671 0 0.862"></path>
<path fill="none" stroke="#0d10f3" stroke-width="1.3846" stroke-miterlimit="4" stroke-linecap="round" stroke-linejoin="round" style="stroke: var(--color1, #0d10f3)" d="M15.327 14.955c0.778 0.26 1.615 0.392 2.505 0.392 1.95 0 3.693-0.651 5.039-1.882 0.030-0.027 0.055-0.079 0.059-0.1-0.001-0.058-0.015-0.098-0.020-0.105-0.245-0.216-0.466-0.331-0.508-0.35l-2.765-1.57 0.491-0.725c0.605-0.897 0.922-2.039 0.922-2.702v-1.925c0-1.443-1.535-2.756-3.221-2.756-1.661 0-3.175 1.314-3.175 2.756 0 0.383 0 0.671 0 0.862"></path>
<path fill="none" stroke="#0d10f3" stroke-width="1.3846" stroke-miterlimit="4" stroke-linecap="round" stroke-linejoin="round" style="stroke: var(--color1, #0d10f3)" d="M11.906 20.251c-2.325 0-4.403-0.756-6.009-2.186-0.036-0.032-0.066-0.092-0.070-0.116 0.001-0.067 0.018-0.113 0.024-0.123 0.292-0.251 0.556-0.384 0.606-0.407l3.297-1.824-0.585-0.842c-0.722-1.042-1.1-2.369-1.1-3.14v-2.237c0-1.677 1.831-3.203 3.841-3.203 1.981 0 3.787 1.526 3.787 3.203v2.237c0 0.794-0.326 2.123-1.043 3.165l-0.574 0.833 3.332 1.885c0.15 0.073 0.314 0.159 0.486 0.297 0.039 0.032 0.074 0.093 0.078 0.118 0.001 0.067-0.015 0.114-0.021 0.126-1.653 1.461-3.696 2.215-6.050 2.215z"></path>
</symbol>
<symbol id="icon-favorite" viewBox="0 0 24 24">
<path fill="none" stroke="#0d10f3" stroke-width="1.44" stroke-miterlimit="4" stroke-linecap="round" stroke-linejoin="miter" style="stroke: var(--color1, #0d10f3)" d="M12 6.087c-0.939-2.062-2.364-4.647-5.28-4.647s-5.28 3.727-5.28 7.454"></path>
<path fill="none" stroke="#0d10f3" stroke-width="1.44" stroke-miterlimit="4" stroke-linecap="round" stroke-linejoin="miter" style="stroke: var(--color1, #0d10f3)" d="M22.56 8.894c0-4.117-2.364-7.454-5.28-7.454-2.011 0-4.389 2.31-5.28 4.647"></path>
<path fill="none" stroke="#0d10f3" stroke-width="1.44" stroke-miterlimit="4" stroke-linecap="round" stroke-linejoin="miter" style="stroke: var(--color1, #0d10f3)" d="M22.56 8.894c0 4.413-3.52 8.969-10.56 13.666"></path>
<path fill="none" stroke="#0d10f3" stroke-width="1.44" stroke-miterlimit="4" stroke-linecap="round" stroke-linejoin="miter" style="stroke: var(--color1, #0d10f3)" d="M1.44 8.894c0 4.413 3.52 8.969 10.56 13.666"></path>
</symbol>
<symbol id="icon-filter" viewBox="0 0 24 24">
<path fill="none" stroke="#0d10f3" stroke-width="1.5" stroke-miterlimit="4" stroke-linecap="round" stroke-linejoin="miter" style="stroke: var(--color1, #0d10f3)" d="M1 3.786h22"></path>
<path fill="none" stroke="#0d10f3" stroke-width="1.5" stroke-miterlimit="4" stroke-linecap="round" stroke-linejoin="miter" style="stroke: var(--color1, #0d10f3)" d="M3.933 11.643h16.133"></path>
<path fill="none" stroke="#0d10f3" stroke-width="1.5" stroke-miterlimit="4" stroke-linecap="round" stroke-linejoin="miter" style="stroke: var(--color1, #0d10f3)" d="M8.333 19.5h7.333"></path>
</symbol>
<symbol id="icon-folder" viewBox="0 0 24 24">
<path fill="#0d10f3" stroke="#0d10f3" stroke-width="1.5" stroke-miterlimit="4" stroke-linecap="butt" stroke-linejoin="miter" style="fill: var(--color1, #0d10f3); stroke: var(--color1, #0d10f3)" d="M0.75 4.25l10.034-0.006-1.494-1.494-8.539 0.65v0.85z"></path>
<path fill="none" stroke="#0d10f3" stroke-width="1.5" stroke-miterlimit="4" stroke-linecap="butt" stroke-linejoin="miter" style="stroke: var(--color1, #0d10f3)" d="M2.15 5.15h19.7c0.773 0 1.4 0.627 1.4 1.4v12.5c0 0.773-0.627 1.4-1.4 1.4h-19.7c-0.773 0-1.4-0.627-1.4-1.4v-12.5c0-0.773 0.627-1.4 1.4-1.4z"></path>
</symbol>
<symbol id="icon-help" viewBox="0 0 24 24">
<path fill="#0d10f3" style="fill: var(--color1, #0d10f3)" d="M1.93 15.741c0.365 0 0.666 0.271 0.713 0.622l0.007 0.098v2.724c-0 0.748 0.292 1.465 0.811 1.993 0.47 0.477 1.090 0.764 1.746 0.812l0.198 0.007h2.697c0.398 0 0.72 0.322 0.72 0.72 0 0.364-0.271 0.666-0.622 0.713l-0.098 0.007h-2.697c-1.115 0-2.183-0.45-2.97-1.25-0.732-0.744-1.164-1.735-1.218-2.778l-0.006-0.224v-2.724c0-0.398 0.322-0.72 0.72-0.72zM22.37 15.73c0.364 0 0.666 0.271 0.713 0.622l0.007 0.098v2.734c0 1.125-0.44 2.205-1.224 3.002-0.734 0.746-1.714 1.188-2.747 1.244l-0.222 0.006h-2.667c-0.398 0-0.72-0.322-0.72-0.72 0-0.364 0.271-0.666 0.622-0.713l0.098-0.007h2.667c0.728-0 1.427-0.294 1.943-0.82 0.472-0.479 0.756-1.116 0.803-1.79l0.007-0.203v-2.734c0-0.398 0.322-0.72 0.72-0.72zM8.135 1.209c0.398 0 0.72 0.322 0.72 0.72 0 0.364-0.271 0.666-0.622 0.713l-0.098 0.007h-2.731c-1.464 0-2.665 1.168-2.749 2.647l-0.005 0.165v2.731c0 0.398-0.322 0.72-0.72 0.72-0.364 0-0.666-0.271-0.713-0.622l-0.007-0.098v-2.731c0-2.277 1.766-4.139 3.991-4.247l0.203-0.005h2.731zM18.896 1.209c2.251 0 4.083 1.796 4.189 4.046l0.005 0.206v2.684c0 0.398-0.322 0.72-0.72 0.72-0.364 0-0.666-0.271-0.713-0.622l-0.007-0.098v-2.684c0-1.5-1.149-2.722-2.592-2.807l-0.162-0.005h-2.645c-0.398 0-0.72-0.322-0.72-0.72 0-0.365 0.271-0.666 0.622-0.713l0.098-0.007h2.646z"></path>
<path fill="#0d10f3" style="fill: var(--color1, #0d10f3)" d="M10.077 17.718l0.097 0.010c0.36 0.060 0.612 0.377 0.602 0.731l-0.010 0.097-0.707 4.245c-0.065 0.392-0.436 0.657-0.828 0.592-0.36-0.060-0.612-0.377-0.602-0.731l0.010-0.097 0.707-4.245c0.054-0.327 0.321-0.565 0.635-0.598l0.096-0.003zM14.931 18.221l0.023 0.095 0.725 4.225c0.067 0.392-0.196 0.764-0.588 0.831-0.359 0.062-0.702-0.154-0.808-0.493l-0.023-0.095-0.725-4.225c-0.067-0.392 0.196-0.764 0.588-0.831 0.327-0.056 0.64 0.117 0.774 0.403l0.035 0.089zM18.212 13.752l0.097 0.011 4.124 0.732c0.392 0.070 0.653 0.443 0.583 0.835-0.064 0.359-0.383 0.608-0.737 0.594l-0.097-0.011-4.124-0.732c-0.392-0.070-0.653-0.443-0.583-0.835 0.058-0.326 0.327-0.562 0.642-0.591l0.096-0.002zM6.827 14.346c0.064 0.359-0.15 0.703-0.488 0.811l-0.095 0.024-4.124 0.732c-0.392 0.070-0.765-0.192-0.835-0.583-0.064-0.359 0.15-0.703 0.488-0.811l0.095-0.024 4.124-0.732c0.392-0.070 0.765 0.192 0.835 0.583zM23.034 9.368c0.062 0.359-0.154 0.702-0.492 0.809l-0.095 0.023-4.148 0.713c-0.392 0.067-0.764-0.196-0.832-0.588-0.062-0.359 0.154-0.702 0.492-0.809l0.095-0.023 4.148-0.713c0.392-0.067 0.764 0.196 0.832 0.588zM1.973 8.765l0.097 0.010 4.147 0.713c0.392 0.067 0.655 0.44 0.588 0.832-0.062 0.359-0.38 0.61-0.734 0.598l-0.097-0.010-4.147-0.713c-0.392-0.067-0.655-0.44-0.588-0.832 0.056-0.327 0.324-0.564 0.639-0.595l0.096-0.003zM14.995 1.291l0.097 0.010c0.359 0.062 0.61 0.38 0.598 0.734l-0.010 0.097-0.722 4.206c-0.067 0.392-0.44 0.655-0.831 0.588-0.359-0.062-0.61-0.38-0.598-0.734l0.010-0.097 0.722-4.206c0.056-0.327 0.324-0.564 0.638-0.595l0.096-0.003zM10.017 1.745l0.023 0.095 0.723 4.251c0.067 0.392-0.197 0.764-0.589 0.83-0.359 0.061-0.702-0.155-0.808-0.494l-0.023-0.095-0.723-4.251c-0.067-0.392 0.197-0.764 0.589-0.83 0.327-0.056 0.639 0.118 0.773 0.405l0.035 0.089z"></path>
<path fill="#0d10f3" style="fill: var(--color1, #0d10f3)" d="M12.151 0.854c-6.241 0-11.296 5.139-11.296 11.472s5.055 11.472 11.296 11.472c6.241 0 11.296-5.139 11.296-11.472s-5.055-11.472-11.296-11.472zM12.151 2.294c5.44 0 9.856 4.489 9.856 10.032s-4.415 10.032-9.856 10.032c-5.44 0-9.856-4.489-9.856-10.032s4.415-10.032 9.856-10.032z"></path>
<path fill="#0d10f3" style="fill: var(--color1, #0d10f3)" d="M12.151 5.155c-3.905 0-7.065 3.213-7.065 7.171s3.161 7.171 7.065 7.171c3.905 0 7.065-3.213 7.065-7.171s-3.161-7.171-7.065-7.171zM12.151 6.595c3.104 0 5.625 2.563 5.625 5.731s-2.521 5.731-5.625 5.731c-3.104 0-5.625-2.563-5.625-5.731s2.521-5.731 5.625-5.731z"></path>
</symbol>
<symbol id="icon-info" viewBox="0 0 24 24">
<path fill="none" stroke="#0d10f3" stroke-width="1.5652" stroke-miterlimit="4" stroke-linecap="round" stroke-linejoin="round" style="stroke: var(--color1, #0d10f3)" d="M6.9 2.205c-3.476 1.771-5.857 5.383-5.857 9.552 0 5.917 4.796 10.713 10.713 10.713v0c5.917 0 10.713-4.796 10.713-10.713s-4.796-10.713-10.713-10.713"></path>
<path fill="none" stroke="#0d10f3" stroke-width="1.5652" stroke-miterlimit="4" stroke-linecap="round" stroke-linejoin="round" style="stroke: var(--color1, #0d10f3)" d="M11.757 11.087v5.357"></path>
<path fill="none" stroke="#0d10f3" stroke-width="1.5652" stroke-miterlimit="4" stroke-linecap="round" stroke-linejoin="round" style="stroke: var(--color1, #0d10f3)" d="M11.757 5.73v1.339"></path>
</symbol>
<symbol id="icon-location" viewBox="0 0 18 24">
<path fill="none" stroke="#0d10f3" stroke-width="1.3846" stroke-miterlimit="4" stroke-linecap="round" stroke-linejoin="miter" style="stroke: var(--color1, #0d10f3)" d="M16.747 8.742c0-4.318-3.542-7.819-7.912-7.819s-7.912 3.501-7.912 7.819"></path>
<path fill="none" stroke="#0d10f3" stroke-width="1.3846" stroke-miterlimit="4" stroke-linecap="round" stroke-linejoin="miter" style="stroke: var(--color1, #0d10f3)" d="M16.747 8.742c0 4.629-2.637 9.408-7.912 14.335"></path>
<path fill="none" stroke="#0d10f3" stroke-width="1.3846" stroke-miterlimit="4" stroke-linecap="round" stroke-linejoin="miter" style="stroke: var(--color1, #0d10f3)" d="M0.923 8.742c0 4.629 2.637 9.408 7.912 14.335"></path>
<path fill="none" stroke="#0d10f3" stroke-width="1.3846" stroke-miterlimit="4" stroke-linecap="butt" stroke-linejoin="miter" style="stroke: var(--color1, #0d10f3)" d="M13.582 8.835c0 2.622-2.125 4.747-4.747 4.747s-4.747-2.125-4.747-4.747c0-2.622 2.125-4.747 4.747-4.747s4.747 2.125 4.747 4.747z"></path>
</symbol>
<symbol id="icon-logout" viewBox="0 0 24 24">
<path fill="none" stroke="#0d10f3" stroke-width="1.44" stroke-miterlimit="4" stroke-linecap="round" stroke-linejoin="round" style="stroke: var(--color1, #0d10f3)" d="M8.352 22.848h-5.76c-0.636 0-1.152-0.471-1.152-1.060v-19.763c0-0.589 0.516-1.066 1.152-1.066h5.76"></path>
<path fill="none" stroke="#0d10f3" stroke-width="1.44" stroke-miterlimit="4" stroke-linecap="round" stroke-linejoin="round" style="stroke: var(--color1, #0d10f3)" d="M21.6 11.904h-16.128"></path>
<path fill="none" stroke="#0d10f3" stroke-width="1.44" stroke-miterlimit="4" stroke-linecap="round" stroke-linejoin="round" style="stroke: var(--color1, #0d10f3)" d="M14.688 4.416l7.68 7.488-7.68 7.488"></path>
</symbol>
<symbol id="icon-mail" viewBox="0 0 24 24">
<path fill="none" stroke="#0d10f3" stroke-width="1.44" stroke-miterlimit="4" stroke-linecap="round" stroke-linejoin="round" style="stroke: var(--color1, #0d10f3)" d="M11.904 13.536l-10.944-9.216h21.888z"></path>
<path fill="none" stroke="#0d10f3" stroke-width="1.44" stroke-miterlimit="4" stroke-linecap="round" stroke-linejoin="round" style="stroke: var(--color1, #0d10f3)" d="M0.96 4.32h21.888v14.976h-21.888v-9.627"></path>
</symbol>
<symbol id="icon-menu" viewBox="0 0 24 24">
<path fill="none" stroke="#0d10f3" stroke-width="1.5" stroke-miterlimit="4" stroke-linecap="round" stroke-linejoin="miter" style="stroke: var(--color1, #0d10f3)" d="M4 1.582h16.162"></path>
<path fill="none" stroke="#0d10f3" stroke-width="1.5" stroke-miterlimit="4" stroke-linecap="round" stroke-linejoin="miter" style="stroke: var(--color1, #0d10f3)" d="M4 12.534h16.162"></path>
<path fill="none" stroke="#0d10f3" stroke-width="1.5" stroke-miterlimit="4" stroke-linecap="round" stroke-linejoin="miter" style="stroke: var(--color1, #0d10f3)" d="M4 23.007h16.162"></path>
</symbol>
<symbol id="icon-message" viewBox="0 0 24 24">
<path fill="none" stroke="#0d10f3" stroke-width="1.5" stroke-miterlimit="4" stroke-linecap="round" stroke-linejoin="miter" style="stroke: var(--color1, #0d10f3)" d="M6 12.063h6.188"></path>
<path fill="none" stroke="#0d10f3" stroke-width="1.5" stroke-miterlimit="4" stroke-linecap="round" stroke-linejoin="miter" style="stroke: var(--color1, #0d10f3)" d="M6 7.563h12.855"></path>
<path fill="none" stroke="#0d10f3" stroke-width="1.5" stroke-miterlimit="4" stroke-linecap="round" stroke-linejoin="round" style="stroke: var(--color1, #0d10f3)" d="M22.594 17.619c0-7.217 0-12.257 0-15.119h-21.094v14.189h14.184l6.91 5.499"></path>
</symbol>
<symbol id="icon-number" viewBox="0 0 24 24">
<path fill="none" stroke="#0d10f3" stroke-width="1.6364" stroke-miterlimit="4" stroke-linecap="round" stroke-linejoin="miter" style="stroke: var(--color1, #0d10f3)" d="M9.973 1.799l-4.25 21.25"></path>
<path fill="none" stroke="#0d10f3" stroke-width="1.6364" stroke-miterlimit="4" stroke-linecap="round" stroke-linejoin="miter" style="stroke: var(--color1, #0d10f3)" d="M18.473 1.799l-4.25 21.25"></path>
<path fill="none" stroke="#0d10f3" stroke-width="1.6364" stroke-miterlimit="4" stroke-linecap="round" stroke-linejoin="miter" style="stroke: var(--color1, #0d10f3)" d="M2.802 8.883h19"></path>
<path fill="none" stroke="#0d10f3" stroke-width="1.6364" stroke-miterlimit="4" stroke-linecap="round" stroke-linejoin="miter" style="stroke: var(--color1, #0d10f3)" d="M2.182 15.966h19"></path>
</symbol>
<symbol id="icon-offboarding" viewBox="0 0 24 24">
<path fill="none" stroke="#0d10f3" stroke-width="1.5652" stroke-miterlimit="4" stroke-linecap="round" stroke-linejoin="round" style="stroke: var(--color1, #0d10f3)" d="M14.487 15.097l-5.844 3.002-2.794-1.613 4.724-4.471"></path>
<path fill="none" stroke="#0d10f3" stroke-width="1.5652" stroke-miterlimit="4" stroke-linecap="round" stroke-linejoin="round" style="stroke: var(--color1, #0d10f3)" d="M17.884 9.566l-0.322-6.562-2.794-1.613-1.51 6.327"></path>
<path fill="none" stroke="#0d10f3" stroke-width="1.5652" stroke-miterlimit="4" stroke-linecap="round" stroke-linejoin="round" style="stroke: var(--color1, #0d10f3)" d="M5.94 2.579l1.758 3.085 11.856 4.775c2.34 0.958 2.827 2.62 1.462 4.985"></path>
<path fill="none" stroke="#0d10f3" stroke-width="1.5652" stroke-miterlimit="4" stroke-linecap="round" stroke-linejoin="round" style="stroke: var(--color1, #0d10f3)" d="M4.505 5.064l-1.793 3.105 3.551-0.020 10.063 7.88c2 1.547 3.682 1.138 5.048-1.226"></path>
<path fill="none" stroke="#0d10f3" stroke-width="1.5652" stroke-miterlimit="4" stroke-linecap="round" stroke-linejoin="round" style="stroke: var(--color1, #0d10f3)" d="M2.261 22.214h19.478"></path>
</symbol>
<symbol id="icon-onboarding" viewBox="0 0 24 24">
<path fill="none" stroke="#0d10f3" stroke-width="1.7143" stroke-miterlimit="4" stroke-linecap="round" stroke-linejoin="round" style="stroke: var(--color1, #0d10f3)" d="M18.322 10.592l-0.359 7.297-3.107 1.794-1.679-7.036"></path>
<path fill="none" stroke="#0d10f3" stroke-width="1.7143" stroke-miterlimit="4" stroke-linecap="round" stroke-linejoin="round" style="stroke: var(--color1, #0d10f3)" d="M14.884 4.246l-6.499-3.338-3.107 1.794 5.254 4.972"></path>
<path fill="none" stroke="#0d10f3" stroke-width="1.7143" stroke-miterlimit="4" stroke-linecap="round" stroke-linejoin="round" style="stroke: var(--color1, #0d10f3)" d="M1.514 11.865l3.949 0.022 11.191-8.764c2.224-1.721 4.095-1.266 5.613 1.364"></path>
<path fill="none" stroke="#0d10f3" stroke-width="1.7143" stroke-miterlimit="4" stroke-linecap="round" stroke-linejoin="round" style="stroke: var(--color1, #0d10f3)" d="M3.109 14.628l1.994 3.454 1.955-3.431 13.185-5.31c2.602-1.066 3.144-2.913 1.626-5.543"></path>
<path fill="none" stroke="#0d10f3" stroke-width="1.7143" stroke-miterlimit="4" stroke-linecap="round" stroke-linejoin="round" style="stroke: var(--color1, #0d10f3)" d="M1.427 22.869h21.662"></path>
</symbol>
<symbol id="icon-options" viewBox="0 0 24 24">
<path fill="none" stroke="#0d10f3" stroke-width="1.44" stroke-miterlimit="4" stroke-linecap="round" stroke-linejoin="miter" style="stroke: var(--color1, #0d10f3)" d="M9.12 1.543h5.829"></path>
<path fill="none" stroke="#0d10f3" stroke-width="1.44" stroke-miterlimit="4" stroke-linecap="round" stroke-linejoin="miter" style="stroke: var(--color1, #0d10f3)" d="M9.12 12.514h5.829"></path>
<path fill="none" stroke="#0d10f3" stroke-width="1.44" stroke-miterlimit="4" stroke-linecap="round" stroke-linejoin="miter" style="stroke: var(--color1, #0d10f3)" d="M9.12 23.006h5.829"></path>
</symbol>
<symbol id="icon-partner" viewBox="0 0 24 24">
<path fill="#0d10f3" style="fill: var(--color1, #0d10f3)" d="M16.422 9.38l0.087 0.069 3.233 2.984c0.695 0.603 0.943 1.692 0.42 2.437l-0.094 0.121c-0.004 0.004-1.905 2.040-3.518 3.77-0.301 0.323-0.678 0.458-1.127 0.484l-0.172 0.005h-1.75c-0.633 0-1.218-0.244-1.732-0.675l-0.209-0.181-0.295-0.278c-0.023-0.020-0.023-0.020-0.046-0.040-0.317-0.266-0.359-0.739-0.093-1.057s0.739-0.359 1.057-0.093l0.173 0.157 0.138 0.133c0.070 0.065 0.144 0.131 0.239 0.211 0.217 0.182 0.43 0.286 0.641 0.316l0.127 0.009h1.75c0.149 0 0.206-0.016 0.201-0.012l3.482-3.73c0.034-0.039-0.001-0.241-0.131-0.395l-0.061-0.063-3.25-3c-0.304-0.281-0.323-0.755-0.042-1.060 0.23-0.249 0.589-0.307 0.879-0.166l0.094 0.054zM5.557 4.737l0.181 0.051 1.514 0.505 0.043-0.015 1.741-0.497c0.824-0.247 1.595-0.033 2.305 0.527l0.151 0.125 0.259 0.224v0.842c0 0.414-0.336 0.75-0.75 0.75-0.38 0-0.693-0.282-0.743-0.648l-0.007-0.102-0.001-0.131-0.115-0.067c-0.197-0.104-0.381-0.137-0.566-0.107l-0.112 0.026-1.741 0.497c-0.28 0.084-0.515 0.099-0.785 0.038l-0.167-0.045-1.488-0.496c-0.368-0.116-0.604-0.038-1.126 0.451l-0.126 0.12-0.117 0.093-1.244 1.264-0.338 0.337c-0.047 0.056 0.003 0.314 0.157 0.443l1.75 1.5c0.317 0.266 0.359 0.739 0.093 1.057s-0.739 0.359-1.057 0.093l-1.75-1.5c-0.742-0.622-0.972-1.806-0.343-2.557l0.854-0.865c0.297-0.296 0.607-0.604 0.817-0.806l0.136-0.129-0.005-0.005c0.852-0.831 1.541-1.169 2.405-1.013l0.175 0.038z"></path>
<path fill="#0d10f3" style="fill: var(--color1, #0d10f3)" d="M18.095 4.724c1.152-0.658 2.6-0.397 3.452 0.598l0.112 0.14 0.9 1.2c0.784 1.045 0.72 2.488-0.129 3.459l-0.127 0.135-2.773 2.773c-0.293 0.293-0.768 0.293-1.061 0-0.266-0.266-0.29-0.683-0.073-0.977l0.073-0.084 2.773-2.773c0.406-0.406 0.479-1.031 0.195-1.516l-0.079-0.118-0.9-1.2c-0.351-0.468-0.975-0.626-1.501-0.395l-0.119 0.060-1.039 0.593c-0.741 0.424-1.634 0.477-2.416 0.153l-0.178-0.081-0.965-0.482c-0.368-0.184-0.8-0.174-1.156 0.020l-0.13 0.081-1.91 1.364c-0.159 0.114-0.263 0.288-0.29 0.479l-0.007 0.097v0.043c0 0.254 0.101 0.497 0.28 0.677 0.068 0.068 0.164 0.098 0.256 0.082l0.068-0.020 2.85-1.221c0.381-0.163 0.822 0.013 0.985 0.394 0.15 0.349 0.014 0.749-0.303 0.938l-0.091 0.046-2.85 1.221c-0.674 0.289-1.457 0.138-1.976-0.38-0.415-0.415-0.666-0.962-0.712-1.543l-0.008-0.237c0-0.653 0.289-1.27 0.784-1.687l0.14-0.109 1.91-1.364c0.774-0.553 1.773-0.664 2.644-0.306l0.184 0.084 0.965 0.482c0.332 0.166 0.719 0.175 1.055 0.029l0.124-0.062 1.039-0.593z"></path>
<path fill="none" stroke="#0d10f3" stroke-width="1.5" stroke-miterlimit="4" stroke-linecap="butt" stroke-linejoin="miter" style="stroke: var(--color1, #0d10f3)" d="M6.13 10.448c-0.244-0.243-0.566-0.366-0.888-0.366s-0.643 0.123-0.888 0.369l-1.457 1.463c-0.225 0.232-0.338 0.541-0.334 0.849 0.004 0.311 0.13 0.618 0.377 0.859 0.245 0.238 0.563 0.357 0.881 0.356s0.634-0.121 0.878-0.36l1.439-1.415c0.238-0.238 0.358-0.555 0.358-0.872-0-0.319-0.122-0.637-0.366-0.882z"></path>
<path fill="none" stroke="#0d10f3" stroke-width="1.5" stroke-miterlimit="4" stroke-linecap="butt" stroke-linejoin="miter" style="stroke: var(--color1, #0d10f3)" d="M8.334 11.795c-0.244-0.244-0.564-0.366-0.884-0.366s-0.64 0.122-0.884 0.366l-2.121 2.121c-0.244 0.244-0.366 0.564-0.366 0.884s0.122 0.64 0.366 0.884c0.244 0.244 0.564 0.366 0.884 0.366s0.64-0.122 0.884-0.366l2.121-2.121c0.244-0.244 0.366-0.564 0.366-0.884s-0.122-0.64-0.366-0.884z"></path>
<path fill="none" stroke="#0d10f3" stroke-width="1.5" stroke-miterlimit="4" stroke-linecap="butt" stroke-linejoin="miter" style="stroke: var(--color1, #0d10f3)" d="M9.627 14.195c-0.244-0.244-0.564-0.366-0.884-0.366s-0.64 0.122-0.884 0.366l-1.414 1.414c-0.244 0.244-0.366 0.564-0.366 0.884s0.122 0.64 0.366 0.884c0.244 0.244 0.564 0.366 0.884 0.366s0.64-0.122 0.884-0.366l1.414-1.414c0.244-0.244 0.366-0.564 0.366-0.884s-0.122-0.64-0.366-0.884z"></path>
<path fill="none" stroke="#0d10f3" stroke-width="1.5" stroke-miterlimit="4" stroke-linecap="butt" stroke-linejoin="miter" style="stroke: var(--color1, #0d10f3)" d="M11.169 16.195c-0.244-0.244-0.564-0.366-0.884-0.366s-0.64 0.122-0.884 0.366l-0.707 0.707c-0.244 0.244-0.366 0.564-0.366 0.884s0.122 0.64 0.366 0.884c0.244 0.244 0.564 0.366 0.884 0.366s0.64-0.122 0.884-0.366l0.707-0.707c0.244-0.244 0.366-0.564 0.366-0.884s-0.122-0.64-0.366-0.884z"></path>
</symbol>
<symbol id="icon-password" viewBox="0 0 17 24">
<path fill="none" stroke="#0d10f3" stroke-width="1.3846" stroke-miterlimit="4" stroke-linecap="round" stroke-linejoin="round" style="stroke: var(--color1, #0d10f3)" d="M3.508 10.080v-4.357c0-2.651 2.149-4.8 4.8-4.8s4.8 2.149 4.8 4.8"></path>
<path fill="none" stroke="#0d10f3" stroke-width="1.3846" stroke-miterlimit="4" stroke-linecap="round" stroke-linejoin="miter" style="stroke: var(--color1, #0d10f3)" d="M15.692 15.692c0 4.078-3.306 7.385-7.385 7.385s-7.385-3.306-7.385-7.385c0-4.078 3.306-7.385 7.385-7.385s7.385 3.306 7.385 7.385z"></path>
<path fill="none" stroke="#0d10f3" stroke-width="1.3846" stroke-miterlimit="4" stroke-linecap="round" stroke-linejoin="miter" style="stroke: var(--color1, #0d10f3)" d="M8.862 16.523c0 0.306-0.248 0.554-0.554 0.554s-0.554-0.248-0.554-0.554v-1.662c0-0.306 0.248-0.554 0.554-0.554s0.554 0.248 0.554 0.554v1.662z"></path>
</symbol>
<symbol id="icon-phone" viewBox="0 0 24 24">
<path fill="none" stroke="#0d10f3" stroke-width="1.5" stroke-miterlimit="4" stroke-linecap="round" stroke-linejoin="round" style="stroke: var(--color1, #0d10f3)" d="M10.4 19.7h3.3"></path>
<path fill="none" stroke="#0d10f3" stroke-width="1.5" stroke-miterlimit="4" stroke-linecap="round" stroke-linejoin="round" style="stroke: var(--color1, #0d10f3)" d="M7.4 1h9.3c0.773 0 1.4 0.627 1.4 1.4v19.2c0 0.773-0.627 1.4-1.4 1.4h-9.3c-0.773 0-1.4-0.627-1.4-1.4v-19.2c0-0.773 0.627-1.4 1.4-1.4z"></path>
</symbol>
<symbol id="icon-print" viewBox="0 0 24 24">
<path fill="none" stroke="#0d10f3" stroke-width="1.3846" stroke-miterlimit="4" stroke-linecap="round" stroke-linejoin="round" style="stroke: var(--color1, #0d10f3)" d="M3.692 12.369h1.108"></path>
<path fill="none" stroke="#0d10f3" stroke-width="1.3846" stroke-miterlimit="4" stroke-linecap="round" stroke-linejoin="round" style="stroke: var(--color1, #0d10f3)" d="M5.354 6.277v-3.323c0-0.612 0.496-1.108 1.108-1.108h11.077c0.612 0 1.108 0.496 1.108 1.108v5.538c0 0.612-0.496 1.108-1.108 1.108h-11.077"></path>
<path fill="none" stroke="#0d10f3" stroke-width="1.3846" stroke-miterlimit="4" stroke-linecap="round" stroke-linejoin="round" style="stroke: var(--color1, #0d10f3)" d="M6 17.354h12c0.357 0 0.646 0.289 0.646 0.646v3.138c0 0.357-0.289 0.646-0.646 0.646h-12c-0.357 0-0.646-0.289-0.646-0.646v-3.138c0-0.357 0.289-0.646 0.646-0.646z"></path>
<path fill="none" stroke="#0d10f3" stroke-width="1.3846" stroke-miterlimit="4" stroke-linecap="round" stroke-linejoin="round" style="stroke: var(--color1, #0d10f3)" d="M2.862 9.6h18.277c1.071 0 1.938 0.868 1.938 1.938v8.954c0 0.714-0.579 1.292-1.292 1.292h-19.569c-0.714 0-1.292-0.579-1.292-1.292v-8.954c0-1.071 0.868-1.938 1.938-1.938z"></path>
</symbol>
<symbol id="icon-search" viewBox="0 0 24 24">
<path fill="none" stroke="#0d10f3" stroke-width="1.3846" stroke-miterlimit="4" stroke-linecap="round" stroke-linejoin="round" style="stroke: var(--color1, #0d10f3)" d="M17.051 17.051l5.76 5.76"></path>
<path fill="none" stroke="#0d10f3" stroke-width="1.3846" stroke-miterlimit="4" stroke-linecap="round" stroke-linejoin="round" style="stroke: var(--color1, #0d10f3)" d="M17.051 8.987c0 4.454-3.61 8.064-8.064 8.064s-8.064-3.61-8.064-8.064c0-4.454 3.61-8.064 8.064-8.064s8.064 3.61 8.064 8.064z"></path>
</symbol>
<symbol id="icon-settings" viewBox="0 0 24 24">
<path fill="none" stroke="#0d10f3" stroke-width="1.44" stroke-miterlimit="4" stroke-linecap="round" stroke-linejoin="round" style="stroke: var(--color1, #0d10f3)" d="M9.541 2.753c-0.772 0.22-1.509 0.53-2.201 0.928l-1.1-0.732c-0.66 0.411-1.264 0.89-1.787 1.415-0.518 0.514-0.995 1.118-1.415 1.785l0.725 1.099c-0.42 0.722-0.746 1.498-0.971 2.313l-1.329 0.269c-0.177 0.765-0.266 1.529-0.264 2.263-0.002 0.731 0.087 1.495 0.261 2.261l1.299 0.267c0.217 0.828 0.529 1.61 0.935 2.331l-0.746 1.121c0.415 0.66 0.892 1.264 1.417 1.785 0.515 0.519 1.119 0.997 1.784 1.414l1.078-0.712c0.734 0.438 1.519 0.775 2.343 1.008l0.259 1.279c0.757 0.175 1.517 0.264 2.271 0.264 0.73 0 1.49-0.088 2.251-0.26l0.251-1.215c0.862-0.217 1.675-0.541 2.429-0.966l1.038 0.692c0.66-0.41 1.263-0.889 1.787-1.414 0.521-0.522 0.998-1.124 1.415-1.785l-0.657-1.001c0.453-0.757 0.803-1.577 1.038-2.44l1.198-0.24c0.172-0.758 0.26-1.525 0.26-2.261 0.002-0.738-0.087-1.503-0.262-2.263l-1.163-0.239c-0.224-0.869-0.561-1.693-1.003-2.457l0.679-1.019c-0.413-0.662-0.892-1.265-1.416-1.789-0.522-0.522-1.125-0.999-1.782-1.413l-1.021 0.671c-0.747-0.438-1.558-0.774-2.411-1.001l-0.253-1.254c-1.431-0.277-2.686-0.574-4.938 1.299z"></path>
<path fill="none" stroke="#0d10f3" stroke-width="1.44" stroke-miterlimit="4" stroke-linecap="round" stroke-linejoin="round" style="stroke: var(--color1, #0d10f3)" d="M15.567 12.155c0 1.884-1.527 3.412-3.412 3.412s-3.412-1.527-3.412-3.412c0-1.884 1.527-3.412 3.412-3.412s3.412 1.527 3.412 3.412z"></path>
</symbol>
<symbol id="icon-sort_az" viewBox="0 0 24 24">
<path fill="#0d10f3" style="fill: var(--color1, #0d10f3)" d="M5.291 16.364c0.255 0 0.5-0.069 0.736-0.207s0.355-0.302 0.355-0.491c0-0.022-0.007-0.062-0.022-0.12v0l-2.040-6.655c-0.058-0.182-0.191-0.322-0.398-0.42s-0.445-0.147-0.715-0.147c-0.269 0-0.507 0.049-0.715 0.147s-0.34 0.238-0.398 0.42v0l-2.029 6.655c-0.015 0.058-0.022 0.098-0.022 0.12 0 0.189 0.118 0.353 0.355 0.491s0.482 0.207 0.736 0.207c0.313 0 0.498-0.105 0.556-0.316v0l0.371-1.364h2.302l0.371 1.364c0.058 0.211 0.244 0.316 0.556 0.316zM4.004 13.375h-1.593l0.796-2.924 0.796 2.924z"></path>
<path fill="#0d10f3" style="fill: var(--color1, #0d10f3)" d="M22.691 16.364c0.153 0 0.276-0.076 0.371-0.229s0.142-0.324 0.142-0.513c0-0.189-0.047-0.36-0.142-0.513s-0.218-0.229-0.371-0.229v0h-2.967l3.076-5.444c0.124-0.225 0.185-0.425 0.185-0.6 0-0.298-0.164-0.447-0.491-0.447v0h-4.211c-0.167 0-0.295 0.073-0.382 0.218s-0.131 0.32-0.131 0.524c0 0.204 0.045 0.378 0.136 0.524s0.216 0.218 0.376 0.218v0h2.531l-3.076 5.444c-0.124 0.211-0.185 0.411-0.185 0.6 0 0.298 0.164 0.447 0.491 0.447v0h4.647z"></path>
<path fill="#0d10f3" style="fill: var(--color1, #0d10f3)" d="M11.967 9.24c0.29-0.29 0.745-0.317 1.065-0.079l0.092 0.079 2.182 2.182c0.488 0.488 0.186 1.305-0.467 1.39l-0.112 0.007h-6.545c-0.452 0-0.818-0.366-0.818-0.818 0-0.414 0.308-0.757 0.707-0.811l0.111-0.007h4.57l-0.785-0.785c-0.29-0.29-0.317-0.745-0.079-1.065l0.079-0.092z"></path>
<path fill="#0d10f3" style="fill: var(--color1, #0d10f3)" d="M14.149 11.421c0.32-0.32 0.838-0.32 1.157 0 0.29 0.29 0.317 0.745 0.079 1.065l-0.079 0.092-2.182 2.182c-0.32 0.32-0.838 0.32-1.157 0-0.29-0.29-0.317-0.745-0.079-1.065l0.079-0.092 2.182-2.182z"></path>
</symbol>
<symbol id="icon-sort_down" viewBox="0 0 24 24">
<path fill="#0d10f3" style="fill: var(--color1, #0d10f3)" d="M2.4 16.364c0.175 0 0.33-0.033 0.466-0.098s0.241-0.145 0.314-0.24v0l1.762-2.515c0.135-0.185 0.255-0.375 0.363-0.567s0.199-0.391 0.275-0.595c0.076-0.204 0.135-0.418 0.175-0.644s0.060-0.464 0.060-0.715c0-0.385-0.062-0.739-0.185-1.061s-0.3-0.599-0.529-0.832c-0.229-0.233-0.509-0.414-0.84-0.543s-0.704-0.194-1.118-0.194c-0.411 0-0.785 0.069-1.121 0.207s-0.625 0.325-0.865 0.559c-0.24 0.235-0.425 0.509-0.556 0.824s-0.196 0.648-0.196 1.001c0 0.385 0.064 0.721 0.191 1.006s0.295 0.523 0.502 0.712c0.207 0.189 0.441 0.331 0.701 0.425s0.523 0.142 0.788 0.142c0.229 0 0.446-0.026 0.652-0.079s0.395-0.13 0.57-0.232v0l-0.153 0.196c-0.051 0.065-0.104 0.133-0.158 0.202v0l-2.482 3.038h1.385zM3.12 12.125c-0.396 0-0.697-0.109-0.903-0.327s-0.308-0.536-0.308-0.955c0-0.182 0.028-0.351 0.085-0.507s0.137-0.292 0.243-0.406c0.105-0.115 0.233-0.204 0.382-0.267s0.318-0.095 0.507-0.095c0.185 0 0.355 0.028 0.507 0.085s0.285 0.139 0.395 0.248c0.111 0.109 0.197 0.243 0.259 0.401s0.093 0.341 0.093 0.548c0 0.185-0.028 0.356-0.085 0.513s-0.137 0.291-0.243 0.404c-0.105 0.113-0.237 0.201-0.395 0.265s-0.337 0.095-0.537 0.095z"></path>
<path fill="#0d10f3" style="fill: var(--color1, #0d10f3)" d="M23.138 16.364v-1.107h-1.369v-6.813h-1.238l-2.433 2.062 0.475 0.638c0.025 0.033 0.062 0.065 0.109 0.095s0.102 0.053 0.164 0.065c0.062 0.013 0.127 0.012 0.196-0.003s0.14-0.049 0.213-0.104v0l1.036-0.862c-0.007 0.102-0.013 0.202-0.016 0.3s-0.005 0.195-0.005 0.289v0 4.331h-1.571v1.107h4.44z"></path>
<path fill="#0d10f3" style="fill: var(--color1, #0d10f3)" d="M11.967 9.24c0.29-0.29 0.745-0.317 1.065-0.079l0.092 0.079 2.182 2.182c0.488 0.488 0.186 1.305-0.467 1.39l-0.112 0.007h-6.545c-0.452 0-0.818-0.366-0.818-0.818 0-0.414 0.308-0.757 0.707-0.811l0.111-0.007h4.57l-0.785-0.785c-0.29-0.29-0.317-0.745-0.079-1.065l0.079-0.092z"></path>
<path fill="#0d10f3" style="fill: var(--color1, #0d10f3)" d="M14.149 11.421c0.32-0.32 0.838-0.32 1.157 0 0.29 0.29 0.317 0.745 0.079 1.065l-0.079 0.092-2.182 2.182c-0.32 0.32-0.838 0.32-1.157 0-0.29-0.29-0.317-0.745-0.079-1.065l0.079-0.092 2.182-2.182z"></path>
</symbol>
<symbol id="icon-sort_up" viewBox="0 0 24 24">
<path fill="#0d10f3" style="fill: var(--color1, #0d10f3)" d="M5.684 16.364v-1.107h-1.369v-6.813h-1.238l-2.433 2.062 0.475 0.638c0.025 0.033 0.062 0.065 0.109 0.095s0.102 0.053 0.164 0.065c0.062 0.013 0.127 0.012 0.196-0.003s0.14-0.049 0.213-0.104v0l1.036-0.862c-0.007 0.102-0.013 0.202-0.016 0.3s-0.005 0.195-0.005 0.289v0 4.331h-1.571v1.107h4.44z"></path>
<path fill="#0d10f3" style="fill: var(--color1, #0d10f3)" d="M19.855 16.364c0.175 0 0.33-0.033 0.466-0.098s0.241-0.145 0.314-0.24v0l1.762-2.515c0.135-0.185 0.255-0.375 0.363-0.567s0.199-0.391 0.275-0.595c0.076-0.204 0.135-0.418 0.175-0.644s0.060-0.464 0.060-0.715c0-0.385-0.062-0.739-0.185-1.061s-0.3-0.599-0.529-0.832c-0.229-0.233-0.509-0.414-0.84-0.543s-0.704-0.194-1.118-0.194c-0.411 0-0.785 0.069-1.121 0.207s-0.625 0.325-0.865 0.559c-0.24 0.235-0.425 0.509-0.556 0.824s-0.196 0.648-0.196 1.001c0 0.385 0.064 0.721 0.191 1.006s0.295 0.523 0.502 0.712c0.207 0.189 0.441 0.331 0.701 0.425s0.523 0.142 0.788 0.142c0.229 0 0.446-0.026 0.652-0.079s0.395-0.13 0.57-0.232v0l-0.153 0.196c-0.051 0.065-0.104 0.133-0.158 0.202v0l-2.482 3.038h1.385zM20.575 12.125c-0.396 0-0.697-0.109-0.903-0.327s-0.308-0.536-0.308-0.955c0-0.182 0.028-0.351 0.085-0.507s0.137-0.292 0.243-0.406c0.105-0.115 0.233-0.204 0.382-0.267s0.318-0.095 0.507-0.095c0.185 0 0.355 0.028 0.507 0.085s0.285 0.139 0.395 0.248c0.111 0.109 0.197 0.243 0.259 0.401s0.093 0.341 0.093 0.548c0 0.185-0.028 0.356-0.085 0.513s-0.137 0.291-0.243 0.404c-0.105 0.113-0.237 0.201-0.395 0.265s-0.337 0.095-0.537 0.095z"></path>
<path fill="#0d10f3" style="fill: var(--color1, #0d10f3)" d="M11.967 9.24c0.29-0.29 0.745-0.317 1.065-0.079l0.092 0.079 2.182 2.182c0.488 0.488 0.186 1.305-0.467 1.39l-0.112 0.007h-6.545c-0.452 0-0.818-0.366-0.818-0.818 0-0.414 0.308-0.757 0.707-0.811l0.111-0.007h4.57l-0.785-0.785c-0.29-0.29-0.317-0.745-0.079-1.065l0.079-0.092z"></path>
<path fill="#0d10f3" style="fill: var(--color1, #0d10f3)" d="M14.149 11.421c0.32-0.32 0.838-0.32 1.157 0 0.29 0.29 0.317 0.745 0.079 1.065l-0.079 0.092-2.182 2.182c-0.32 0.32-0.838 0.32-1.157 0-0.29-0.29-0.317-0.745-0.079-1.065l0.079-0.092 2.182-2.182z"></path>
</symbol>
<symbol id="icon-sort_za" viewBox="0 0 24 24">
<path fill="#0d10f3" style="fill: var(--color1, #0d10f3)" d="M5.236 16.364c0.153 0 0.276-0.076 0.371-0.229s0.142-0.324 0.142-0.513c0-0.189-0.047-0.36-0.142-0.513s-0.218-0.229-0.371-0.229v0h-2.967l3.076-5.444c0.124-0.225 0.185-0.425 0.185-0.6 0-0.298-0.164-0.447-0.491-0.447v0h-4.211c-0.167 0-0.295 0.073-0.382 0.218s-0.131 0.32-0.131 0.524c0 0.204 0.045 0.378 0.136 0.524s0.216 0.218 0.376 0.218v0h2.531l-3.076 5.444c-0.124 0.211-0.185 0.411-0.185 0.6 0 0.298 0.164 0.447 0.491 0.447v0h4.647z"></path>
<path fill="#0d10f3" style="fill: var(--color1, #0d10f3)" d="M22.745 16.364c0.255 0 0.5-0.069 0.736-0.207s0.355-0.302 0.355-0.491c0-0.022-0.007-0.062-0.022-0.12v0l-2.040-6.655c-0.058-0.182-0.191-0.322-0.398-0.42s-0.445-0.147-0.715-0.147c-0.269 0-0.507 0.049-0.715 0.147s-0.34 0.238-0.398 0.42v0l-2.029 6.655c-0.015 0.058-0.022 0.098-0.022 0.12 0 0.189 0.118 0.353 0.355 0.491s0.482 0.207 0.736 0.207c0.313 0 0.498-0.105 0.556-0.316v0l0.371-1.364h2.302l0.371 1.364c0.058 0.211 0.244 0.316 0.556 0.316zM21.458 13.375h-1.593l0.796-2.924 0.796 2.924z"></path>
<path fill="#0d10f3" style="fill: var(--color1, #0d10f3)" d="M11.967 9.24c0.29-0.29 0.745-0.317 1.065-0.079l0.092 0.079 2.182 2.182c0.488 0.488 0.186 1.305-0.467 1.39l-0.112 0.007h-6.545c-0.452 0-0.818-0.366-0.818-0.818 0-0.414 0.308-0.757 0.707-0.811l0.111-0.007h4.57l-0.785-0.785c-0.29-0.29-0.317-0.745-0.079-1.065l0.079-0.092z"></path>
<path fill="#0d10f3" style="fill: var(--color1, #0d10f3)" d="M14.149 11.421c0.32-0.32 0.838-0.32 1.157 0 0.29 0.29 0.317 0.745 0.079 1.065l-0.079 0.092-2.182 2.182c-0.32 0.32-0.838 0.32-1.157 0-0.29-0.29-0.317-0.745-0.079-1.065l0.079-0.092 2.182-2.182z"></path>
</symbol>
<symbol id="icon-star" viewBox="0 0 24 24">
<path fill="none" stroke="#0d10f3" stroke-width="1.5" stroke-miterlimit="4" stroke-linecap="round" stroke-linejoin="round" style="stroke: var(--color1, #0d10f3)" d="M12 1.5l3.399 6.888 7.601 1.104-5.5 5.361 1.298 7.57-6.798-3.574-6.798 3.574 1.298-7.57-5.5-5.361 7.601-1.104 1.741-3.528"></path>
</symbol>
<symbol id="icon-status_abwesend" viewBox="0 0 24 24">
<path fill="none" stroke="#525368" stroke-width="1.3846" stroke-miterlimit="4" stroke-linecap="butt" stroke-linejoin="miter" style="stroke: var(--color3, #525368)" d="M23.077 12c0 6.118-4.959 11.077-11.077 11.077s-11.077-4.959-11.077-11.077c0-6.118 4.959-11.077 11.077-11.077s11.077 4.959 11.077 11.077z"></path>
<path fill="none" stroke="#525368" stroke-width="1.3846" stroke-miterlimit="4" stroke-linecap="butt" stroke-linejoin="miter" style="stroke: var(--color3, #525368)" d="M11.815 6.079c3.296-1.499 5.761-1.25 6.357 1.793 0.393 2.007-0.32 2.354-2.138 1.042"></path>
<path fill="none" stroke="#525368" stroke-width="1.3846" stroke-miterlimit="4" stroke-linecap="butt" stroke-linejoin="miter" style="stroke: var(--color3, #525368)" d="M12.738 6.923c2.462 0.164 3.692 1.307 3.692 3.429 0 1.925-1.013 1.508-3.039-1.252"></path>
<path fill="none" stroke="#525368" stroke-width="1.3846" stroke-miterlimit="4" stroke-linecap="butt" stroke-linejoin="miter" style="stroke: var(--color3, #525368)" d="M10.892 6.923c-2.462 0.164-3.692 1.307-3.692 3.429 0 1.925 1.013 1.508 3.039-1.252"></path>
<path fill="none" stroke="#525368" stroke-width="1.3846" stroke-miterlimit="4" stroke-linecap="butt" stroke-linejoin="miter" style="stroke: var(--color3, #525368)" d="M12 5.973c-3.296-1.499-5.946-1.144-6.541 1.899-0.393 2.007 0.32 2.354 2.138 1.042"></path>
<path fill="none" stroke="#525368" stroke-width="1.3846" stroke-miterlimit="4" stroke-linecap="butt" stroke-linejoin="round" style="stroke: var(--color3, #525368)" d="M12 12.462c-2.462-3.692-2.462-5.538 0-5.538s2.462 1.846 0 5.538z"></path>
<path fill="none" stroke="#525368" stroke-width="1.3846" stroke-miterlimit="4" stroke-linecap="round" stroke-linejoin="round" style="stroke: var(--color3, #525368)" d="M11.077 11.538l-0.923 7.385h3.692l-0.923-7.385"></path>
</symbol>
<symbol id="icon-status_aktuelle" viewBox="0 0 24 24">
<path fill="none" stroke="#525368" stroke-width="1.3846" stroke-miterlimit="4" stroke-linecap="butt" stroke-linejoin="miter" style="stroke: var(--color3, #525368)" d="M23.077 12c0 6.118-4.959 11.077-11.077 11.077s-11.077-4.959-11.077-11.077c0-6.118 4.959-11.077 11.077-11.077s11.077 4.959 11.077 11.077z"></path>
<path fill="none" stroke="#525368" stroke-width="1.3846" stroke-miterlimit="4" stroke-linecap="round" stroke-linejoin="round" style="stroke: var(--color3, #525368)" d="M11.077 7.385v6.462h6.462"></path>
</symbol>
<symbol id="icon-status_offboarding_laufend" viewBox="0 0 24 24">
<path fill="none" stroke="#525368" stroke-width="1.3846" stroke-miterlimit="4" stroke-linecap="butt" stroke-linejoin="miter" style="stroke: var(--color3, #525368)" d="M23.077 12c0 6.118-4.959 11.077-11.077 11.077s-11.077-4.959-11.077-11.077c0-6.118 4.959-11.077 11.077-11.077s11.077 4.959 11.077 11.077z"></path>
<path fill="none" stroke="#525368" stroke-width="1.3846" stroke-miterlimit="4" stroke-linecap="round" stroke-linejoin="round" style="stroke: var(--color3, #525368)" d="M13.846 16.185l-4.996 2.277-2.389-1.224 4.039-3.392"></path>
<path fill="none" stroke="#525368" stroke-width="1.3846" stroke-miterlimit="4" stroke-linecap="round" stroke-linejoin="round" style="stroke: var(--color3, #525368)" d="M16.661 11.375l-0.303-5.302-2.23-1.457-0.996 5.382"></path>
<path fill="none" stroke="#525368" stroke-width="1.3846" stroke-miterlimit="4" stroke-linecap="round" stroke-linejoin="round" style="stroke: var(--color3, #525368)" d="M6.462 5.538l1.538 2.661 8.997 3.441c2.046 0.826 3.583 2.027 2.389 4.066"></path>
<path fill="none" stroke="#525368" stroke-width="1.3846" stroke-miterlimit="4" stroke-linecap="round" stroke-linejoin="round" style="stroke: var(--color3, #525368)" d="M5.2 7.385l-1.508 2.653 2.986-0.017 8.462 6.733c1.682 1.322 3.096 0.973 4.244-1.048"></path>
</symbol>
<symbol id="icon-status_onboarding_laufend" viewBox="0 0 24 24">
<path fill="none" stroke="#525368" stroke-width="1.3846" stroke-miterlimit="4" stroke-linecap="butt" stroke-linejoin="miter" style="stroke: var(--color3, #525368)" d="M23.077 12c0-6.118-4.959-11.077-11.077-11.077s-11.077 4.959-11.077 11.077c0 6.118 4.959 11.077 11.077 11.077s11.077-4.959 11.077-11.077z"></path>
<path fill="none" stroke="#525368" stroke-width="1.3846" stroke-miterlimit="4" stroke-linecap="round" stroke-linejoin="round" style="stroke: var(--color3, #525368)" d="M13.846 7.815l-4.996-2.277-2.389 1.224 4.039 3.392"></path>
<path fill="none" stroke="#525368" stroke-width="1.3846" stroke-miterlimit="4" stroke-linecap="round" stroke-linejoin="round" style="stroke: var(--color3, #525368)" d="M16.661 12.625l-0.303 5.302-2.23 1.457-0.996-5.382"></path>
<path fill="none" stroke="#525368" stroke-width="1.3846" stroke-miterlimit="4" stroke-linecap="round" stroke-linejoin="round" style="stroke: var(--color3, #525368)" d="M6.462 18.462l1.538-2.661 8.997-3.441c2.046-0.826 3.583-2.027 2.389-4.066"></path>
<path fill="none" stroke="#525368" stroke-width="1.3846" stroke-miterlimit="4" stroke-linecap="round" stroke-linejoin="round" style="stroke: var(--color3, #525368)" d="M5.2 16.615l-1.508-2.653 2.986 0.017 8.462-6.733c1.682-1.322 3.096-0.973 4.244 1.048"></path>
</symbol>
<symbol id="icon-status_vergangene" viewBox="0 0 24 24">
<path fill="none" stroke="#c0c0cd" stroke-width="1.44" stroke-miterlimit="4" stroke-linecap="round" stroke-linejoin="round" style="stroke: var(--color4, #c0c0cd)" d="M7.269 20.869c1.667 1.356 3.806 2.171 6.14 2.171 5.319 0 9.632-4.237 9.632-9.463s-4.312-9.463-9.632-9.463c-2.509 0-1.489 0-5.376 0"></path>
<path fill="none" stroke="#c0c0cd" stroke-width="1.44" stroke-miterlimit="4" stroke-linecap="round" stroke-linejoin="round" style="stroke: var(--color4, #c0c0cd)" d="M0.96 4.152l6.309-3.192-0.059 6.309z"></path>
<path fill="none" stroke="#c0c0cd" stroke-width="1.44" stroke-miterlimit="4" stroke-linecap="round" stroke-linejoin="round" style="stroke: var(--color4, #c0c0cd)" d="M12.48 8.64v6.72h6.72"></path>
</symbol>
<symbol id="icon-status_zukuenftige" viewBox="0 0 24 24">
<path fill="none" stroke="#0d10f3" stroke-width="1.44" stroke-miterlimit="4" stroke-linecap="round" stroke-linejoin="round" style="stroke: var(--color1, #0d10f3)" d="M16.731 20.869c-1.667 1.356-3.806 2.171-6.14 2.171-5.319 0-9.632-4.237-9.632-9.463s4.312-9.463 9.632-9.463c2.509 0 1.489 0 5.376 0"></path>
<path fill="none" stroke="#0d10f3" stroke-width="1.44" stroke-miterlimit="4" stroke-linecap="round" stroke-linejoin="round" style="stroke: var(--color1, #0d10f3)" d="M23.040 4.152l-6.309-3.192 0.059 6.309z"></path>
<path fill="none" stroke="#0d10f3" stroke-width="1.44" stroke-miterlimit="4" stroke-linecap="round" stroke-linejoin="round" style="stroke: var(--color1, #0d10f3)" d="M9.6 8.64v6.72h6.72"></path>
</symbol>
<symbol id="icon-time" viewBox="0 0 24 24">
<path fill="none" stroke="#0d10f3" stroke-width="1.5652" stroke-miterlimit="4" stroke-linecap="round" stroke-linejoin="round" style="stroke: var(--color1, #0d10f3)" d="M6.9 2.205c-3.476 1.771-5.857 5.383-5.857 9.552 0 5.917 4.796 10.713 10.713 10.713v0c5.917 0 10.713-4.796 10.713-10.713s-4.796-10.713-10.713-10.713"></path>
<path fill="none" stroke="#0d10f3" stroke-width="1.5652" stroke-miterlimit="4" stroke-linecap="round" stroke-linejoin="round" style="stroke: var(--color1, #0d10f3)" d="M11.757 7.739v5.133l2.678 1.562"></path>
</symbol>
<symbol id="icon-upload" viewBox="0 0 24 24">
<path fill="none" stroke="#0d10f3" stroke-width="1.3846" stroke-miterlimit="4" stroke-linecap="round" stroke-linejoin="round" style="stroke: var(--color1, #0d10f3)" d="M22.549 15.572v5.538c0 0.612-0.453 1.108-1.019 1.108h-19.002c-0.566 0-1.025-0.496-1.025-1.108v-5.538"></path>
<path fill="none" stroke="#0d10f3" stroke-width="1.3846" stroke-miterlimit="4" stroke-linecap="round" stroke-linejoin="round" style="stroke: var(--color1, #0d10f3)" d="M12.026 3.218v15.508"></path>
<path fill="none" stroke="#0d10f3" stroke-width="1.3846" stroke-miterlimit="4" stroke-linecap="round" stroke-linejoin="round" style="stroke: var(--color1, #0d10f3)" d="M4.826 9.864l7.2-7.385 7.2 7.385"></path>
</symbol>
<symbol id="icon-user" viewBox="0 0 24 24">
<path fill="none" stroke="#0d10f3" stroke-width="1.5" stroke-miterlimit="4" stroke-linecap="round" stroke-linejoin="round" style="stroke: var(--color1, #0d10f3)" d="M20.834 17.305c1.001-1.629 1.579-3.547 1.579-5.599 0-5.913-4.793-10.707-10.707-10.707s-10.707 4.793-10.707 10.707c0 2.093 0.6 4.045 1.638 5.694"></path>
<path fill="none" stroke="#0d10f3" stroke-width="1.5" stroke-miterlimit="4" stroke-linecap="round" stroke-linejoin="round" style="stroke: var(--color1, #0d10f3)" d="M11.597 22.492c-2.545 0-4.819-0.827-6.576-2.393-0.039-0.035-0.072-0.1-0.077-0.127 0.001-0.073 0.019-0.124 0.026-0.134 0.32-0.275 0.609-0.42 0.663-0.445l3.609-1.996-0.64-0.922c-0.79-1.141-1.204-2.592-1.204-3.436v-2.448c0-1.835 2.004-3.505 4.204-3.505 2.168 0 4.144 1.67 4.144 3.505v2.448c0 0.869-0.357 2.324-1.142 3.463l-0.628 0.912 3.647 2.062c0.165 0.080 0.344 0.174 0.532 0.325 0.043 0.035 0.081 0.101 0.086 0.13 0.001 0.073-0.017 0.125-0.023 0.137-1.809 1.599-4.045 2.424-6.621 2.424z"></path>
</symbol>
<symbol id="icon-warning" viewBox="0 0 24 24">
<path fill="#0d10f3" style="fill: var(--color1, #0d10f3)" d="M13.377 5.76v6.947c0 0.737-0.036 1.459-0.11 2.168s-0.17 1.459-0.292 2.253h-2.032c-0.122-0.793-0.219-1.544-0.292-2.253s-0.11-1.431-0.11-2.168v-6.947h2.835zM10.080 21.67c0-0.251 0.047-0.49 0.14-0.717s0.223-0.421 0.389-0.583c0.166-0.162 0.363-0.291 0.59-0.389s0.47-0.146 0.73-0.146c0.251 0 0.491 0.049 0.718 0.146s0.422 0.227 0.584 0.389c0.162 0.162 0.292 0.356 0.389 0.583s0.146 0.466 0.146 0.717c0 0.259-0.049 0.5-0.146 0.723s-0.227 0.415-0.389 0.577c-0.162 0.162-0.357 0.289-0.584 0.383s-0.466 0.14-0.718 0.14c-0.26 0-0.503-0.047-0.73-0.14s-0.424-0.221-0.59-0.383c-0.166-0.162-0.296-0.354-0.389-0.577s-0.14-0.464-0.14-0.723z"></path>
<path fill="none" stroke="#0d10f3" stroke-width="1.44" stroke-miterlimit="4" stroke-linecap="butt" stroke-linejoin="miter" style="stroke: var(--color1, #0d10f3)" d="M17.374 18.516c2.55-1.726 4.226-4.645 4.226-7.956 0-5.302-4.298-9.6-9.6-9.6s-9.6 4.298-9.6 9.6c0 3.236 1.601 6.098 4.055 7.837"></path>
</symbol>
<symbol id="icon-web" viewBox="0 0 24 24">
<path fill="#0d10f3" style="fill: var(--color1, #0d10f3)" d="M23.081 6.207v1.44h-22.246v-1.44z"></path>
<path fill="#0d10f3" style="fill: var(--color1, #0d10f3)" d="M22.361 2.64h-21.401c-0.398 0-0.72 0.322-0.72 0.72v16.645c0 0.398 0.322 0.72 0.72 0.72h21.401c0.398 0 0.72-0.322 0.72-0.72v-16.645c0-0.398-0.322-0.72-0.72-0.72zM21.64 4.079v15.205h-19.961v-15.205h19.961z"></path>
<path fill="#0d10f3" style="fill: var(--color1, #0d10f3)" d="M14.325 9.948l0.075 0.076 2.561 2.972c0.207 0.24 0.23 0.583 0.069 0.845l-0.069 0.094-2.561 2.972c-0.26 0.301-0.714 0.335-1.015 0.076-0.274-0.236-0.327-0.633-0.139-0.93l0.064-0.086 2.155-2.503-2.155-2.501c-0.236-0.274-0.229-0.674 0-0.94l0.076-0.075c0.246-0.212 0.596-0.228 0.857-0.062l0.083 0.062zM9.935 9.948c0.274 0.236 0.327 0.633 0.139 0.93l-0.064 0.086-2.156 2.501 2.156 2.503c0.236 0.274 0.229 0.674-0 0.94l-0.076 0.075c-0.274 0.236-0.674 0.229-0.94-0l-0.075-0.076-2.561-2.972c-0.207-0.24-0.23-0.583-0.069-0.845l0.069-0.094 2.561-2.972c0.26-0.301 0.714-0.335 1.015-0.076z"></path>
</symbol>
</defs>
</svg>
