<?xml version="1.0" encoding="utf-8"?>
<!-- Generator: Adobe Illustrator 27.3.1, SVG Export Plug-In . SVG Version: 6.00 Build 0)  -->
<svg version="1.1" id="Logo" xmlns="http://www.w3.org/2000/svg" xmlns:xlink="http://www.w3.org/1999/xlink" x="0px" y="0px"
	 viewBox="0 0 180 180" style="enable-background:new 0 0 180 180;" xml:space="preserve">
<style type="text/css">
	.st0{fill:none;}
	.st1{fill:#2D02FF;}
	.st2{fill:#BECCFF;}
</style>
<rect class="st0" width="180" height="180"/>
<path class="st1" d="M34.5,84.4l50.4-10.6c9.3-2,16.9,4.2,16.9,13.7l0,0c0,9.5-7.6,18.8-16.9,20.8l-30.8,6.5
	c-10.8,2.3-19.6-4.8-19.6-15.9L34.5,84.4L34.5,84.4z"/>
<path class="st2" d="M59.4,130.2l68.8-14.5c4.6-1,8.9,0,12.2,2.7c0.3,0.2,0.6,0.5,0.8,0.8h0L97.6,77h0c2.6,2.5,4.2,6.1,4.2,10.5
	c0,9.5-7.6,18.8-16.9,20.8l-30.8,6.5c-5.2,1.1-10,0-13.5-2.7L59.4,130.2L59.4,130.2L59.4,130.2z"/>
<path class="st2" d="M48.6,81.4l36.2-7.6c5.1-1.1,9.6,0.3,12.7,3.2h0L78.4,58.6l-43.9,9.2L48.6,81.4L48.6,81.4L48.6,81.4z"/>
<path class="st1" d="M34.5,67.9l94.1-19.8c9.3-2,16.9-11.3,16.9-20.8l0,0c0-9.5-7.6-15.7-16.9-13.7L54.1,29.2
	c-10.8,2.3-19.6,13.1-19.6,24.1L34.5,67.9L34.5,67.9z"/>
<path class="st1" d="M140.4,118.4c-3.3-2.7-7.6-3.6-12.2-2.7l-93.8,19.7v14.1c0,5.4,2.1,10.1,5.9,13.2c2.8,2.3,6.3,3.5,10.1,3.5
	c1.3,0,2.7-0.1,4-0.4l74.5-15.7c9.1-1.9,16.5-11,16.5-20.4C145.5,125.1,143.7,121.1,140.4,118.4z M42.9,159.7
	c-2.8-2.3-4.4-5.9-4.4-10.1v-10.9l90.6-19.1c3.4-0.7,6.5-0.1,8.9,1.8c2.3,1.9,3.6,4.8,3.6,8.3c0,7.5-6,14.9-13.3,16.4l-74.5,15.7
	C49.6,162.8,45.7,162,42.9,159.7z"/>
</svg>
