<svg width="137" height="188" viewBox="0 0 137 188" fill="none" xmlns="http://www.w3.org/2000/svg">
<path d="M0.121094 87.3863L62.0011 74.3719C73.4195 71.9163 82.7506 79.5285 82.7506 91.1924C82.7506 102.856 73.4195 114.275 62.0011 116.73L24.1855 124.711C10.9255 127.535 0.121094 118.817 0.121094 105.189V87.3863Z" fill="#2D02FF"/>
<path d="M30.6916 143.62L115.163 125.817C120.81 124.589 126.09 125.817 130.142 129.132C130.51 129.378 130.878 129.746 131.124 130.114L77.5927 78.3022C80.7849 81.3717 82.7494 85.7917 82.7494 91.1939C82.7494 102.858 73.4183 114.276 61.9999 116.732L24.1844 124.712C17.7999 126.063 11.9066 124.712 7.60938 121.397L30.6916 143.62Z" fill="#BECCFF"/>
<path d="M17.4328 83.7033L61.8783 74.3722C68.14 73.0216 73.665 74.7405 77.4711 78.3011L54.0205 55.71L0.121094 67.0055L17.4328 83.7033Z" fill="#BECCFF"/>
<path d="M0.121094 67.1291L115.655 42.8191C127.073 40.3635 136.404 28.9452 136.404 17.2813C136.404 5.61741 127.073 -1.99481 115.655 0.460742L24.1855 19.6141C10.9255 22.438 0.121094 35.698 0.121094 49.2035V67.1291Z" fill="#2D02FF"/>
<path d="M130.144 129.132C126.093 125.817 120.813 124.712 115.166 125.817L0 150.004V167.316C0 173.946 2.57833 179.717 7.24388 183.523C10.6817 186.347 14.9789 187.82 19.6444 187.82C21.2406 187.82 22.9594 187.697 24.5555 187.329L116.025 168.053C127.198 165.72 136.283 154.547 136.283 143.006C136.406 137.358 134.196 132.447 130.144 129.132ZM10.4361 179.839C6.99833 177.016 5.03389 172.596 5.03389 167.439V154.056L116.271 130.606C120.445 129.746 124.251 130.483 127.198 132.816C130.022 135.148 131.618 138.709 131.618 143.006C131.618 152.214 124.251 161.3 115.288 163.142L23.8189 182.418C18.6622 183.646 13.8739 182.663 10.4361 179.839Z" fill="#2D02FF"/>
</svg>
