<!-- Generated by IcoMoon.io -->
<svg version="1.1" xmlns="http://www.w3.org/2000/svg" width="24" height="24" viewBox="0 0 24 24">
<title>help</title>
<path fill="#0d10f3" d="M1.93 15.741c0.365 0 0.666 0.271 0.713 0.622l0.007 0.098v2.724c-0 0.748 0.292 1.465 0.811 1.993 0.47 0.477 1.090 0.764 1.746 0.812l0.198 0.007h2.697c0.398 0 0.72 0.322 0.72 0.72 0 0.364-0.271 0.666-0.622 0.713l-0.098 0.007h-2.697c-1.115 0-2.183-0.45-2.97-1.25-0.732-0.744-1.164-1.735-1.218-2.778l-0.006-0.224v-2.724c0-0.398 0.322-0.72 0.72-0.72zM22.37 15.73c0.364 0 0.666 0.271 0.713 0.622l0.007 0.098v2.734c0 1.125-0.44 2.205-1.224 3.002-0.734 0.746-1.714 1.188-2.747 1.244l-0.222 0.006h-2.667c-0.398 0-0.72-0.322-0.72-0.72 0-0.364 0.271-0.666 0.622-0.713l0.098-0.007h2.667c0.728-0 1.427-0.294 1.943-0.82 0.472-0.479 0.756-1.116 0.803-1.79l0.007-0.203v-2.734c0-0.398 0.322-0.72 0.72-0.72zM8.135 1.209c0.398 0 0.72 0.322 0.72 0.72 0 0.364-0.271 0.666-0.622 0.713l-0.098 0.007h-2.731c-1.464 0-2.665 1.168-2.749 2.647l-0.005 0.165v2.731c0 0.398-0.322 0.72-0.72 0.72-0.364 0-0.666-0.271-0.713-0.622l-0.007-0.098v-2.731c0-2.277 1.766-4.139 3.991-4.247l0.203-0.005h2.731zM18.896 1.209c2.251 0 4.083 1.796 4.189 4.046l0.005 0.206v2.684c0 0.398-0.322 0.72-0.72 0.72-0.364 0-0.666-0.271-0.713-0.622l-0.007-0.098v-2.684c0-1.5-1.149-2.722-2.592-2.807l-0.162-0.005h-2.645c-0.398 0-0.72-0.322-0.72-0.72 0-0.365 0.271-0.666 0.622-0.713l0.098-0.007h2.646z"></path>
<path fill="#0d10f3" d="M10.077 17.718l0.097 0.010c0.36 0.060 0.612 0.377 0.602 0.731l-0.010 0.097-0.707 4.245c-0.065 0.392-0.436 0.657-0.828 0.592-0.36-0.060-0.612-0.377-0.602-0.731l0.010-0.097 0.707-4.245c0.054-0.327 0.321-0.565 0.635-0.598l0.096-0.003zM14.931 18.221l0.023 0.095 0.725 4.225c0.067 0.392-0.196 0.764-0.588 0.831-0.359 0.062-0.702-0.154-0.808-0.493l-0.023-0.095-0.725-4.225c-0.067-0.392 0.196-0.764 0.588-0.831 0.327-0.056 0.64 0.117 0.774 0.403l0.035 0.089zM18.212 13.752l0.097 0.011 4.124 0.732c0.392 0.070 0.653 0.443 0.583 0.835-0.064 0.359-0.383 0.608-0.737 0.594l-0.097-0.011-4.124-0.732c-0.392-0.070-0.653-0.443-0.583-0.835 0.058-0.326 0.327-0.562 0.642-0.591l0.096-0.002zM6.827 14.346c0.064 0.359-0.15 0.703-0.488 0.811l-0.095 0.024-4.124 0.732c-0.392 0.070-0.765-0.192-0.835-0.583-0.064-0.359 0.15-0.703 0.488-0.811l0.095-0.024 4.124-0.732c0.392-0.070 0.765 0.192 0.835 0.583zM23.034 9.368c0.062 0.359-0.154 0.702-0.492 0.809l-0.095 0.023-4.148 0.713c-0.392 0.067-0.764-0.196-0.832-0.588-0.062-0.359 0.154-0.702 0.492-0.809l0.095-0.023 4.148-0.713c0.392-0.067 0.764 0.196 0.832 0.588zM1.973 8.765l0.097 0.010 4.147 0.713c0.392 0.067 0.655 0.44 0.588 0.832-0.062 0.359-0.38 0.61-0.734 0.598l-0.097-0.010-4.147-0.713c-0.392-0.067-0.655-0.44-0.588-0.832 0.056-0.327 0.324-0.564 0.639-0.595l0.096-0.003zM14.995 1.291l0.097 0.010c0.359 0.062 0.61 0.38 0.598 0.734l-0.010 0.097-0.722 4.206c-0.067 0.392-0.44 0.655-0.831 0.588-0.359-0.062-0.61-0.38-0.598-0.734l0.010-0.097 0.722-4.206c0.056-0.327 0.324-0.564 0.638-0.595l0.096-0.003zM10.017 1.745l0.023 0.095 0.723 4.251c0.067 0.392-0.197 0.764-0.589 0.83-0.359 0.061-0.702-0.155-0.808-0.494l-0.023-0.095-0.723-4.251c-0.067-0.392 0.197-0.764 0.589-0.83 0.327-0.056 0.639 0.118 0.773 0.405l0.035 0.089z"></path>
<path fill="#0d10f3" d="M12.151 0.854c-6.241 0-11.296 5.139-11.296 11.472s5.055 11.472 11.296 11.472c6.241 0 11.296-5.139 11.296-11.472s-5.055-11.472-11.296-11.472zM12.151 2.294c5.44 0 9.856 4.489 9.856 10.032s-4.415 10.032-9.856 10.032c-5.44 0-9.856-4.489-9.856-10.032s4.415-10.032 9.856-10.032z"></path>
<path fill="#0d10f3" d="M12.151 5.155c-3.905 0-7.065 3.213-7.065 7.171s3.161 7.171 7.065 7.171c3.905 0 7.065-3.213 7.065-7.171s-3.161-7.171-7.065-7.171zM12.151 6.595c3.104 0 5.625 2.563 5.625 5.731s-2.521 5.731-5.625 5.731c-3.104 0-5.625-2.563-5.625-5.731s2.521-5.731 5.625-5.731z"></path>
</svg>
