<?xml version="1.0" encoding="UTF-8"?>
<svg width="460px" height="460px" viewBox="0 0 460 460" version="1.1" xmlns="http://www.w3.org/2000/svg" xmlns:xlink="http://www.w3.org/1999/xlink">
    <title>Artboard</title>
    <g id="Artboard" stroke="none" stroke-width="1" fill="none" fill-rule="evenodd">
        <g id="react-logo" transform="translate(1.000000, 26.000000)" fill="#61DAFB" fill-rule="nonzero">
            <path d="M459,204.546807 C459,174.122225 420.921525,145.289082 362.540766,127.408789 C376.013249,67.870222 370.025479,20.5014878 343.641867,5.33600366 C337.560538,1.77866789 330.450061,0.0936140993 322.684672,0.0936140993 L322.684672,20.9695583 C326.988382,20.9695583 330.450061,21.8120851 333.350387,23.4035248 C346.074399,30.7054246 351.594374,58.5088121 347.290664,94.269398 C346.261517,103.069123 344.577456,112.336919 342.51916,121.791943 C324.181614,117.298466 304.160008,113.834745 283.109254,111.588006 C270.478801,94.269398 257.380554,78.5422293 244.188748,64.7809567 C274.688952,36.4158846 303.317978,20.8759442 322.778231,20.8759442 L322.778231,0 C322.778231,0 322.778231,0 322.778231,0 C297.049531,0 263.368325,18.3483635 229.312882,50.1771572 C195.25744,18.5355917 161.576233,0.374456397 135.847534,0.374456397 L135.847534,21.2504005 C155.214227,21.2504005 183.936812,36.6967269 214.437016,64.8745708 C201.338769,78.6358434 188.240522,94.269398 175.797187,111.588006 C154.652874,113.834745 134.631268,117.298466 116.293722,121.885557 C114.141867,112.524147 112.551366,103.44358 111.428659,94.7374685 C107.03139,58.9768826 112.457807,31.1734951 125.088259,23.7779812 C127.895026,22.0929274 131.543824,21.3440146 135.847534,21.3440146 L135.847534,0.468070497 C135.847534,0.468070497 135.847534,0.468070497 135.847534,0.468070497 C127.988585,0.468070497 120.878108,2.15312428 114.703221,5.71046006 C88.4131675,20.8759442 82.5189564,68.1510643 96.084998,127.502403 C37.8913575,145.47631 0,174.215839 0,204.546807 C0,234.971389 38.0784753,263.804532 96.4592336,281.684825 C82.9867509,341.223392 88.974521,388.592126 115.358133,403.75761 C121.439462,407.314946 128.549939,409 136.408887,409 C162.137587,409 195.818793,390.651637 229.874236,358.822843 C263.929678,390.464408 297.610885,408.625544 323.339584,408.625544 C331.198532,408.625544 338.309009,406.94049 344.483897,403.383154 C370.77395,388.21767 376.668161,340.94255 363.10212,281.591211 C421.108642,263.710918 459,234.877775 459,204.546807 Z M337.186302,142.106203 C333.724623,154.182422 329.420913,166.633097 324.55585,179.083772 C320.719935,171.594644 316.696902,164.105516 312.299633,156.616388 C307.995923,149.12726 303.411537,141.82536 298.82715,134.710689 C312.112515,136.676585 324.930086,139.110552 337.186302,142.106203 Z M294.336323,241.805219 C287.038728,254.443122 279.554015,266.425727 271.788626,277.565805 C257.848349,278.782788 243.720954,279.438087 229.5,279.438087 C215.372605,279.438087 201.24521,278.782788 187.398492,277.659419 C179.633102,266.519341 172.054831,254.63035 164.757236,242.086061 C157.646759,229.822614 151.191194,217.371939 145.296983,204.827649 C151.097636,192.28336 157.646759,179.739071 164.663677,167.475624 C171.961272,154.83772 179.445985,142.855116 187.211374,131.715038 C201.151651,130.498054 215.279046,129.842756 229.5,129.842756 C243.627395,129.842756 257.75479,130.498054 271.601508,131.621424 C279.366898,142.761501 286.945169,154.650492 294.242764,167.194781 C301.353241,179.458228 307.808806,191.908904 313.703017,204.453193 C307.808806,216.997482 301.353241,229.541772 294.336323,241.805219 Z M324.55585,229.635386 C329.608031,242.179675 333.911741,254.723964 337.466979,266.893797 C325.210762,269.889448 312.299633,272.417029 298.920709,274.382925 C303.505096,267.17464 308.089482,259.779126 312.393192,252.196384 C316.696902,244.707256 320.719935,237.124514 324.55585,229.635386 Z M229.687118,329.52163 C220.986139,320.534676 212.285161,310.517967 203.677742,299.565118 C212.098043,299.939574 220.705463,300.220417 229.406441,300.220417 C238.200978,300.220417 246.901957,300.033188 255.415817,299.565118 C246.995516,310.517967 238.294537,320.534676 229.687118,329.52163 Z M160.079291,274.382925 C146.793926,272.417029 133.976355,269.983062 121.720139,266.987411 C125.181818,254.911192 129.485528,242.460517 134.350591,230.009842 C138.186506,237.49897 142.209539,244.988098 146.606808,252.477226 C151.004077,259.966354 155.494904,267.268254 160.079291,274.382925 Z M229.219323,79.5719844 C237.920302,88.558938 246.62128,98.5756466 255.2287,109.528496 C246.808398,109.15404 238.200978,108.873198 229.5,108.873198 C220.705463,108.873198 212.004484,109.060426 203.490624,109.528496 C211.910925,98.5756466 220.611904,88.558938 229.219323,79.5719844 Z M159.985732,134.710689 C155.401345,141.918975 150.816959,149.314488 146.513249,156.89723 C142.209539,164.386358 138.186506,171.875486 134.350591,179.364614 C129.29841,166.820325 124.9947,154.276036 121.439462,142.106203 C133.695679,139.204166 146.606808,136.676585 159.985732,134.710689 Z M75.3149205,251.915541 C42.1950673,237.779812 20.7700775,219.244221 20.7700775,204.546807 C20.7700775,189.849393 42.1950673,171.220188 75.3149205,157.178073 C83.3609865,153.714351 92.1555238,150.625086 101.230738,147.723049 C106.563596,166.071412 113.580514,185.168688 122.281492,204.734035 C113.674073,224.205768 106.750713,243.20943 101.511415,261.464179 C92.2490828,258.562142 83.4545455,255.379263 75.3149205,251.915541 Z M125.649613,385.690089 C112.925601,378.38819 107.405626,350.584802 111.709336,314.824216 C112.738483,306.024491 114.422544,296.756695 116.48084,287.301671 C134.818386,291.795148 154.839992,295.258869 175.890746,297.505608 C188.521199,314.824216 201.619446,330.551385 214.811252,344.312657 C184.311048,372.677729 155.682022,388.21767 136.221769,388.21767 C132.011618,388.124056 128.45638,387.281529 125.649613,385.690089 Z M347.571341,314.356146 C351.96861,350.116732 346.542193,377.920119 333.911741,385.315633 C331.104974,387.000687 327.456176,387.749599 323.152466,387.749599 C303.785773,387.749599 275.063188,372.303273 244.562984,344.125429 C257.661231,330.364157 270.759478,314.730602 283.202813,297.411994 C304.347126,295.165255 324.368732,291.701534 342.706278,287.114443 C344.858133,296.569467 346.542193,305.650034 347.571341,314.356146 Z M383.591521,251.915541 C375.545455,255.379263 366.750917,258.468528 357.675703,261.370565 C352.342845,243.022202 345.325927,223.924926 336.624949,204.359579 C345.232369,184.887846 352.155728,165.884184 357.395026,147.629435 C366.657358,150.531472 375.451896,153.714351 383.685079,157.178073 C416.804933,171.313802 438.229923,189.849393 438.229923,204.546807 C438.136364,219.244221 416.711374,237.873426 383.591521,251.915541 Z" id="Shape"></path>
            <ellipse id="Oval" cx="228.5" cy="205" rx="42.5" ry="43"></ellipse>
        </g>
    </g>
</svg>