<svg width="24" height="24" viewBox="0 0 24 24" xmlns="http://www.w3.org/2000/svg"><path fill="currentColor" d="M18.473 2.235c4.032 2.775 5.871 7.851 4.574 12.617a.75.75 0 1 1-1.448-.394c1.13-4.153-.472-8.575-3.977-10.987a9.713 9.713 0 0 0-11.482.325c-3.369 2.607-4.727 7.113-3.371 11.196 1.322 3.982 4.937 6.69 9.04 6.814l.299.004c4.63 0 7.057-2.54 5.368-4.258a.75.75 0 1 1 1.07-1.052c2.886 2.934-.606 6.685-6.158 6.807l-.279.003c-4.876.002-9.206-3.157-10.763-7.846-1.556-4.685.003-9.857 3.877-12.855a11.212 11.212 0 0 1 13.25-.374z"/><path fill="currentColor" d="m8.039 4.194-.141.031a3.866 3.866 0 0 0-2.662 3.646c0 2.085 1.411 4.539 3.781 6.991 2.336 2.416 4.818 3.895 6.894 3.895a3.828 3.828 0 0 0 3.608-2.705c.149-.818-.149-1.36-.685-1.762l-.12-.085c-.041-.028-.088-.058-.152-.099l-2.224-1.544a1.783 1.783 0 0 0-2.342.355l-.25.331a.54.54 0 0 0-.037.059l-.005.012c-.277-.072-.856-.512-1.757-1.429-.838-.852-1.267-1.421-1.38-1.734l-.024-.072c-.001-.004.011-.005.085-.063l.23-.188c.724-.514.937-1.572.445-2.381L9.802 5.146s-.115-.161-.159-.217c-.405-.532-.893-.821-1.605-.735zm.236 1.488.018.003c.044.012.081.053.158.154l.119.162 1.464 2.251c.073.12.036.305-.093.396l-.213.172c-1.17.962-.906 2.032 1.15 4.122 2.011 2.045 3.086 2.378 4.009 1.278l.228-.295c.109-.156.272-.19.397-.111l2.221 1.542.202.135c.127.095.144.125.129.209-.281.881-1.163 1.545-2.162 1.556-1.569 0-3.727-1.286-5.807-3.438-2.125-2.197-3.36-4.346-3.36-5.94a2.368 2.368 0 0 1 1.457-2.166l.082-.031z"/></svg>