<?xml version="1.0" standalone="no"?>
<!DOCTYPE svg PUBLIC "-//W3C//DTD SVG 20010904//EN"
 "http://www.w3.org/TR/2001/REC-SVG-20010904/DTD/svg10.dtd">
<svg version="1.0" xmlns="http://www.w3.org/2000/svg"
 width="700.000000pt" height="700.000000pt" viewBox="0 0 700.000000 700.000000"
 preserveAspectRatio="xMidYMid meet">
<metadata>
Created by potrace 1.14, written by Peter Selinger 2001-2017
</metadata>
<g transform="translate(0.000000,700.000000) scale(0.100000,-0.100000)"
fill="#000000" stroke="none">
<path d="M4445 6354 c-324 -68 -999 -210 -1498 -314 -499 -105 -930 -200 -958
-210 -306 -121 -533 -376 -621 -699 -19 -69 -22 -109 -26 -423 -2 -192 -2
-348 0 -348 2 0 602 126 1334 280 731 155 1565 331 1853 391 295 62 551 121
585 135 357 145 594 538 532 884 -37 206 -170 357 -365 414 -35 10 -90 16
-150 15 -83 0 -178 -18 -686 -125z"/>
<path d="M3070 4080 c-151 -33 -603 -128 -1003 -212 l-729 -152 5 -341 c4
-377 7 -398 74 -535 99 -204 336 -335 573 -317 104 8 1351 273 1425 303 200
81 363 237 460 439 59 123 78 206 78 335 -1 174 -55 305 -169 410 -62 56 -153
102 -232 119 -104 22 -193 12 -482 -49z"/>
<path d="M5005 2503 c-11 -2 -398 -83 -860 -180 -462 -97 -1281 -269 -1820
-382 l-980 -206 0 -345 1 -345 27 -83 c69 -205 234 -359 438 -407 152 -35 109
-43 1738 300 823 173 1528 326 1566 340 413 149 655 673 477 1035 -60 123
-213 240 -350 269 -51 11 -196 13 -237 4z m283 -178 c161 -72 249 -266 210
-462 -47 -240 -208 -437 -421 -518 -83 -31 -3050 -655 -3115 -655 -216 0 -392
137 -447 347 -11 44 -15 119 -15 315 0 142 3 258 6 258 8 0 1788 375 2774 585
720 153 781 165 861 161 67 -3 99 -9 147 -31z"/>
</g>
</svg>
