<svg width="24" height="24" viewBox="0 0 24 24" xmlns="http://www.w3.org/2000/svg"><path fill="none" stroke="currentColor" stroke-linecap="round" stroke-linejoin="round" stroke-width="1.385" d="M3.692 12.369H4.8m.554-6.092V2.954c0-.612.496-1.108 1.108-1.108h11.077c.612 0 1.108.496 1.108 1.108v5.538c0 .612-.496 1.108-1.108 1.108H6.462M6 17.354h12c.357 0 .646.289.646.646v3.138a.646.646 0 0 1-.646.646H6a.646.646 0 0 1-.646-.646V18c0-.357.289-.646.646-.646z"/><path fill="none" stroke="currentColor" stroke-linecap="round" stroke-linejoin="round" stroke-width="1.385" d="M2.862 9.6h18.277c1.071 0 1.938.868 1.938 1.938v8.954c0 .714-.579 1.292-1.292 1.292H2.216a1.292 1.292 0 0 1-1.292-1.292v-8.954c0-1.071.868-1.938 1.938-1.938z"/></svg>