<svg width="13" height="15" viewBox="0 0 13 15" xmlns="http://www.w3.org/2000/svg"><g fill="none" fill-rule="evenodd"><path stroke="currentColor" d="M9.284 12.315a6 6 0 1 0-5.508.03"/><path fill="currentColor" fill-rule="nonzero" d="m7.031 10.43.161-1.022a.719.719 0 0 1 .213-.402c.12-.12.26-.24.424-.364l.518-.396a3.13 3.13 0 0 0 .508-.497 2.55 2.55 0 0 0 .388-.676c.103-.259.154-.565.154-.92a2.4 2.4 0 0 0-.196-.987 2.138 2.138 0 0 0-.553-.753 2.494 2.494 0 0 0-.857-.479 3.471 3.471 0 0 0-1.11-.168 4.07 4.07 0 0 0-.833.08 3.743 3.743 0 0 0-1.327.55A4.868 4.868 0 0 0 4 4.795l.455.721c.075.14.196.21.364.21.07 0 .15-.03.238-.088.089-.058.197-.123.325-.196a2.261 2.261 0 0 1 1.144-.284c.183.001.352.027.508.078.157.051.291.125.403.22.112.096.2.21.263.343.062.133.094.284.094.452 0 .252-.051.471-.154.658a2.06 2.06 0 0 1-.385.5c-.154.147-.32.284-.497.41a6.673 6.673 0 0 0-.497.388 2.184 2.184 0 0 0-.385.427.932.932 0 0 0-.154.536v.06c0 .016.002.036.007.059l.119 1.141h1.183Zm-.467 3.677a1.077 1.077 0 0 0 .749-.301 1.07 1.07 0 0 0 .308-.749 1.06 1.06 0 0 0-.308-.749A1.06 1.06 0 0 0 6.564 12a1.103 1.103 0 0 0-.76.308.987.987 0 0 0-.224.336c-.053.13-.08.268-.08.413 0 .15.027.288.08.416a.995.995 0 0 0 .564.553c.13.054.27.081.42.081Z"/></g></svg>