<svg width="2.867" height="13.789" viewBox="0 0 2.867 13.789" xmlns="http://www.w3.org/2000/svg"><path d="M.871 13.68a1.41 1.41 0 0 1-.459-.3 1.354 1.354 0 0 1-.3-.448 1.5 1.5 0 0 1 0-1.119 1.345 1.345 0 0 1 .3-.454 1.475 1.475 0 0 1 .459-.3 1.431 1.431 0 0 1 .568-.113A1.407 1.407 0 0 1 2 11.06a1.426 1.426 0 0 1 .454.3 1.447 1.447 0 0 1 .417 1.011 1.394 1.394 0 0 1-.114.562 1.423 1.423 0 0 1-.3.448 1.364 1.364 0 0 1-.454.3 1.461 1.461 0 0 1-.558.109 1.487 1.487 0 0 1-.574-.11ZM.672 8.84Q.53 7.914.445 7.089A16.4 16.4 0 0 1 .359 5.4V0h2.2v5.4a16.406 16.406 0 0 1-.085 1.687q-.085.826-.227 1.751Z" data-name="!"/></svg>