<svg width="24" height="24" viewBox="0 0 24 24" xmlns="http://www.w3.org/2000/svg"><path fill="currentColor" d="M23.081 6.207v1.44H.835v-1.44z"/><path fill="currentColor" d="M22.361 2.64H.96a.72.72 0 0 0-.72.72v16.645c0 .398.322.72.72.72h21.401a.72.72 0 0 0 .72-.72V3.36a.72.72 0 0 0-.72-.72zm-.721 1.439v15.205H1.679V4.079H21.64z"/><path fill="currentColor" d="m14.325 9.948.075.076 2.561 2.972a.72.72 0 0 1 .069.845l-.069.094-2.561 2.972a.72.72 0 0 1-1.154-.854l.064-.086 2.155-2.503-2.155-2.501a.72.72 0 0 1 0-.94l.076-.075a.722.722 0 0 1 .857-.062l.083.062zm-4.39 0a.72.72 0 0 1 .139.93l-.064.086-2.156 2.501 2.156 2.503a.72.72 0 0 1 0 .94l-.076.075a.72.72 0 0 1-.94 0l-.075-.076-2.561-2.972a.72.72 0 0 1-.069-.845l.069-.094 2.561-2.972a.72.72 0 0 1 1.015-.076z"/></svg>