<svg width="20.845" height="22.814" viewBox="0 0 20.845 22.814" xmlns="http://www.w3.org/2000/svg"><g data-name="Layer 2"><path fill="currentColor" d="m11.306 8.808-3.407 4.357a1.015 1.015 0 0 0-.216.712.876.876 0 0 0 1.021.798 1.015 1.015 0 0 0 .639-.38l3.4-4.358a.95.95 0 0 0-.111-1.337.95.95 0 0 0-1.326.208Z" data-name="Pfad 105"/></g><g data-name="Icon/Password/Blue"><g data-name="Icon / Password / Blue"><g fill="none" stroke="currentColor" stroke-linecap="round" stroke-linejoin="round" stroke-width="2" data-name="Group 6"><path d="m8.893 6.624 1.694-2.167a3.995 3.995 0 0 1 5.617-.527 3.995 3.995 0 0 1 .844 5.578"/><path d="m15.38 11.656 1.675-2.143a3.995 3.995 0 0 0-.85-5.583 3.995 3.995 0 0 0-5.618.527" data-name="Shape"/></g></g></g><g data-name="Icon/Password/Blue"><g data-name="Icon / Password / Blue"><g fill="none" stroke="currentColor" stroke-linecap="round" stroke-linejoin="round" stroke-width="2" data-name="Group 6"><path d="M11.565 16.537 9.982 18.56a3.844 3.844 0 0 1-5.406.367 3.844 3.844 0 0 1-.95-5.336" data-name="Shape"/><path d="m5.19 11.59-1.564 2.002a3.844 3.844 0 0 0 .949 5.335 3.844 3.844 0 0 0 5.407-.366" data-name="Shape"/></g></g></g></svg>