<!-- Generated by IcoMoon.io -->
<svg version="1.1" xmlns="http://www.w3.org/2000/svg" width="24" height="24" viewBox="0 0 24 24">
<title>abwesend-s</title>
<path fill="none" stroke="#4c4d5b" stroke-linejoin="miter" stroke-linecap="butt" stroke-miterlimit="4" stroke-width="1.1504" d="M20 12c0 4.418-3.582 8-8 8s-8-3.582-8-8c0-4.418 3.582-8 8-8s8 3.582 8 8z"></path>
<path fill="none" stroke="#979797" stroke-linejoin="miter" stroke-linecap="butt" stroke-miterlimit="4" stroke-width="1" d="M12 7.519c2.219-0.921 3.879-0.671 4.28 1.2 0.264 1.234-0.215 1.448-1.439 0.641"></path>
<path fill="none" stroke="#979797" stroke-linejoin="miter" stroke-linecap="butt" stroke-miterlimit="4" stroke-width="1" d="M12.563 8.013c1.625 0.106 2.438 0.846 2.438 2.219 0 1.246-0.669 0.976-2.006-0.811"></path>
<path fill="none" stroke="#979797" stroke-linejoin="miter" stroke-linecap="butt" stroke-miterlimit="4" stroke-width="1" d="M11.438 8c-1.625 0.106-2.438 0.846-2.438 2.219 0 1.246 0.669 0.976 2.006-0.811"></path>
<path fill="none" stroke="#979797" stroke-linejoin="miter" stroke-linecap="butt" stroke-miterlimit="4" stroke-width="1" d="M12.050 7.519c-2.219-0.921-3.879-0.671-4.28 1.2-0.264 1.234 0.215 1.448 1.439 0.641"></path>
<path fill="none" stroke="#979797" stroke-linejoin="round" stroke-linecap="butt" stroke-miterlimit="4" stroke-width="1" d="M12 12c-1.333-2.667-1.333-4 0-4s1.333 1.333 0 4z"></path>
<path fill="none" stroke="#979797" stroke-linejoin="round" stroke-linecap="round" stroke-miterlimit="4" stroke-width="1" d="M11.5 11.151l-0.5 5h2l-0.5-5"></path>
</svg>
