<!-- Generated by IcoMoon.io -->
<svg version="1.1" xmlns="http://www.w3.org/2000/svg" width="24" height="24" viewBox="0 0 24 24">
<title>abwesend-xs</title>
<path fill="none" stroke="#4c4d5b" stroke-linejoin="miter" stroke-linecap="butt" stroke-miterlimit="4" stroke-width="1.3125" d="M21 12c0 4.971-4.029 9-9 9s-9-4.029-9-9c0-4.971 4.029-9 9-9s9 4.029 9 9z"></path>
<path fill="none" stroke="#979797" stroke-linejoin="miter" stroke-linecap="butt" stroke-miterlimit="4" stroke-width="1.3125" d="M11.85 7.061c2.678-1.218 4.681-0.887 5.165 1.585 0.319 1.631-0.26 1.913-1.737 0.847"></path>
<path fill="none" stroke="#979797" stroke-linejoin="miter" stroke-linecap="butt" stroke-miterlimit="4" stroke-width="1.3125" d="M12.6 7.875c2 0.133 3 1.062 3 2.786 0 1.564-0.823 1.225-2.469-1.018"></path>
<path fill="none" stroke="#979797" stroke-linejoin="miter" stroke-linecap="butt" stroke-miterlimit="4" stroke-width="1.3125" d="M11.1 7.875c-2 0.133-3 1.062-3 2.786 0 1.564 0.823 1.225 2.469-1.018"></path>
<path fill="none" stroke="#979797" stroke-linejoin="miter" stroke-linecap="butt" stroke-miterlimit="4" stroke-width="1.3125" d="M11.85 7.061c-2.678-1.218-4.681-0.887-5.165 1.585-0.319 1.631 0.26 1.913 1.737 0.847"></path>
<path fill="none" stroke="#979797" stroke-linejoin="round" stroke-linecap="butt" stroke-miterlimit="4" stroke-width="1.3125" d="M11.625 12.375c-2-3-2-4.5 0-4.5s2 1.5 0 4.5z"></path>
<path fill="none" stroke="#979797" stroke-linejoin="round" stroke-linecap="round" stroke-miterlimit="4" stroke-width="1.3125" d="M10.875 11.625l-0.75 6h3l-0.75-6"></path>
</svg>
