<!-- Generated by IcoMoon.io -->
<svg version="1.1" xmlns="http://www.w3.org/2000/svg" width="24" height="24" viewBox="0 0 24 24">
<title>call-m-grey</title>
<path fill="none" stroke="#c0c0cd" stroke-linejoin="round" stroke-linecap="round" stroke-miterlimit="4" stroke-width="1.5" d="M18.043 14.883c0.278 0.177 0.73 0.46 0.626 1.061-0.39 1.251-1.526 2.106-2.817 2.121-1.878 0-4.173-1.485-6.19-3.571s-3.478-4.384-3.478-6.293c0.015-1.312 0.856-2.467 2.087-2.864 0.591-0.071 0.835 0.354 1.043 0.636l1.426 2.192c0.281 0.462 0.159 1.067-0.278 1.379-0.591 0.495-1.252 0.778 1.009 3.076s2.539 1.662 3.026 1.025c0.307-0.445 0.902-0.569 1.356-0.283l2.191 1.52z"></path>
</svg>
