<!-- Generated by IcoMoon.io -->
<svg version="1.1" xmlns="http://www.w3.org/2000/svg" width="24" height="24" viewBox="0 0 24 24">
<title>camera</title>
<path fill="none" stroke="currentColor" stroke-width="1.7143" stroke-miterlimit="4" stroke-linecap="round" stroke-linejoin="round" d="M22.857 20.571v0l-4.544-1.721"></path>
<path fill="none" stroke="currentColor" stroke-width="1.7143" stroke-miterlimit="4" stroke-linecap="round" stroke-linejoin="round" d="M2.286 12h12.571c0.631 0 1.143 0.512 1.143 1.143v6.857c0 0.631-0.512 1.143-1.143 1.143h-12.571c-0.631 0-1.143-0.512-1.143-1.143v-6.857c0-0.631 0.512-1.143 1.143-1.143z"></path>
<path fill="none" stroke="currentColor" stroke-width="1.7143" stroke-miterlimit="4" stroke-linecap="round" stroke-linejoin="round" d="M6.857 5.714c0 1.578-1.279 2.857-2.857 2.857s-2.857-1.279-2.857-2.857c0-1.578 1.279-2.857 2.857-2.857s2.857 1.279 2.857 2.857z"></path>
<path fill="none" stroke="currentColor" stroke-width="1.7143" stroke-miterlimit="4" stroke-linecap="round" stroke-linejoin="round" d="M16 5.714c0 1.578-1.279 2.857-2.857 2.857s-2.857-1.279-2.857-2.857c0-1.578 1.279-2.857 2.857-2.857s2.857 1.279 2.857 2.857z"></path>
</svg>
