<!-- Generated by IcoMoon.io -->
<svg version="1.1" xmlns="http://www.w3.org/2000/svg" width="24" height="24" viewBox="0 0 24 24">
<title>cloud</title>
<path fill="none" stroke="#0d10f3" stroke-linejoin="round" stroke-linecap="round" stroke-miterlimit="4" stroke-width="1.44" d="M4.992 18.912c-2.227 0-4.032-1.805-4.032-4.032 0-1.899 1.312-3.491 3.079-3.919-0.037-0.2-0.055-0.406-0.055-0.617 0-1.948 1.58-3.528 3.528-3.528 1.083 0 2.052 0.488 2.7 1.257l0.039-0.133c0.589-1.822 2.299-3.14 4.317-3.14v0l0.208 0.005c2.409 0.109 4.328 2.096 4.328 4.531 0 0.179-0.010 0.356-0.031 0.529 2.282 0.235 4.063 2.165 4.063 4.511 0 2.505-2.031 4.536-4.536 4.536v0z"></path>
<path fill="none" stroke="#0d10f3" stroke-linejoin="round" stroke-linecap="round" stroke-miterlimit="4" stroke-width="1.44" d="M18.107 12.174c0.624-0.777 0.997-1.764 0.997-2.838 0-2.505-2.031-4.536-4.536-4.536-1.885 0-3.501 1.15-4.186 2.786-0.225 0.539-0.35 1.13-0.35 1.75"></path>
</svg>
