<!-- Generated by IcoMoon.io -->
<svg version="1.1" xmlns="http://www.w3.org/2000/svg" width="24" height="24" viewBox="0 0 24 24">
<title>company-m</title>
<path fill="none" stroke="#0d10f3" stroke-linejoin="miter" stroke-linecap="butt" stroke-miterlimit="4" stroke-width="1.5" d="M20.064 10.529c0.11 0.029 0.186 0.128 0.186 0.242v10.229c0 0.138-0.112 0.25-0.25 0.25h-7.5c-0.138 0-0.25-0.112-0.25-0.25v-12.203c0-0.021 0.003-0.043 0.008-0.064 0.035-0.134 0.172-0.213 0.305-0.178l7.5 1.974z"></path>
<path fill="none" stroke="#0d10f3" stroke-linejoin="miter" stroke-linecap="butt" stroke-miterlimit="4" stroke-width="1.5" d="M3.975 3.656c-0.128 0.013-0.225 0.12-0.225 0.249v17.095c0 0.138 0.112 0.25 0.25 0.25h8c0.138 0 0.25-0.112 0.25-0.25v-17.895c0-0.008 0-0.017-0.001-0.025-0.014-0.137-0.136-0.238-0.274-0.224l-8 0.8z"></path>
<path fill="none" stroke="#5d60f7" stroke-linejoin="round" stroke-linecap="round" stroke-miterlimit="4" stroke-width="1.5" d="M6.5 7.5l3-0.3"></path>
<path fill="none" stroke="#5d60f7" stroke-linejoin="round" stroke-linecap="round" stroke-miterlimit="4" stroke-width="1.5" d="M6.5 11.5l3-0.3"></path>
<path fill="none" stroke="#5d60f7" stroke-linejoin="round" stroke-linecap="round" stroke-miterlimit="4" stroke-width="1.5" d="M6.5 15.5l3-0.3"></path>
<path fill="none" stroke="#5d60f7" stroke-linejoin="round" stroke-linecap="round" stroke-miterlimit="4" stroke-width="1.5" d="M16.5 12.5v1"></path>
<path fill="none" stroke="#5d60f7" stroke-linejoin="round" stroke-linecap="round" stroke-miterlimit="4" stroke-width="1.5" d="M16.5 15.5v1"></path>
</svg>
