<!-- Generated by IcoMoon.io -->
<svg version="1.1" xmlns="http://www.w3.org/2000/svg" width="24" height="24" viewBox="0 0 24 24">
<title>developer</title>
<path fill="none" stroke="#0d10f3" stroke-width="1.5" stroke-miterlimit="4" stroke-linecap="round" stroke-linejoin="round" d="M15.087 15.5h4.611l2.802-5h-7.413l-2.944 5h-8.285c-0.759 0-1.374-0.615-1.374-1.374 0-0.535 0.311-1.022 0.797-1.247 0 0 0 0 0 0l2.143-1.197-0.38-0.553c-0.469-0.684-0.715-1.554-0.715-2.061v-1.468c0-1.1 1.19-2.102 2.497-2.102 1.288 0 2.461 1.002 2.461 2.102v1.468c0 0.521-0.212 1.394-0.678 2.077l-0.373 0.547 2.166 1.237"></path>
<path fill="none" stroke="#0d10f3" stroke-width="1.5" stroke-miterlimit="4" stroke-linecap="round" stroke-linejoin="miter" d="M1 18.5h14"></path>
</svg>
