<!-- Generated by IcoMoon.io -->
<svg version="1.1" xmlns="http://www.w3.org/2000/svg" width="24" height="24" viewBox="0 0 24 24">
<title>employees-a</title>
<path fill="none" stroke="#5d60f7" stroke-linejoin="round" stroke-linecap="round" stroke-miterlimit="4" stroke-width="1.5" d="M8.752 15.954c-0.793 0.265-1.647 0.4-2.554 0.4-1.988 0-3.765-0.663-5.138-1.919-0.031-0.028-0.056-0.080-0.060-0.102 0.001-0.059 0.015-0.099 0.020-0.108 0.25-0.221 0.475-0.337 0.518-0.357l2.819-1.6-0.5-0.739c-0.617-0.915-0.94-2.079-0.94-2.755v-1.963c0-1.471 1.565-2.81 3.284-2.81 1.694 0 3.238 1.339 3.238 2.81 0 0.391 0 0.684 0 0.879"></path>
<path fill="none" stroke="#5d60f7" stroke-linejoin="round" stroke-linecap="round" stroke-miterlimit="4" stroke-width="1.5" d="M15.687 15.954c0.793 0.265 1.647 0.4 2.554 0.4 1.988 0 3.765-0.663 5.138-1.919 0.031-0.028 0.056-0.080 0.060-0.102-0.001-0.059-0.015-0.099-0.020-0.108-0.25-0.221-0.475-0.337-0.518-0.357l-2.819-1.6 0.5-0.739c0.617-0.915 0.94-2.079 0.94-2.755v-1.963c0-1.471-1.565-2.81-3.284-2.81-1.694 0-3.238 1.339-3.238 2.81 0 0.391 0 0.684 0 0.879"></path>
<path fill="none" stroke="#0d10f3" stroke-linejoin="round" stroke-linecap="round" stroke-miterlimit="4" stroke-width="1.5" d="M12.198 21.354c-2.371 0-4.49-0.771-6.127-2.229-0.037-0.033-0.067-0.093-0.071-0.119 0.001-0.068 0.018-0.116 0.024-0.125 0.298-0.256 0.567-0.392 0.617-0.415l3.362-1.86-0.596-0.859c-0.736-1.063-1.121-2.415-1.121-3.201v-2.281c0-1.709 1.867-3.266 3.916-3.266 2.020 0 3.861 1.556 3.861 3.265v2.281c0 0.81-0.333 2.165-1.064 3.227l-0.585 0.849 3.398 1.922c0.153 0.075 0.32 0.162 0.496 0.302 0.040 0.033 0.076 0.095 0.080 0.121 0.001 0.068-0.016 0.117-0.021 0.128-1.685 1.49-3.768 2.259-6.169 2.259z"></path>
</svg>
