<!-- Generated by IcoMoon.io -->
<svg version="1.1" xmlns="http://www.w3.org/2000/svg" width="24" height="24" viewBox="0 0 24 24">
<title>help</title>
<path d="M15.047 11.25c0.563-0.563 0.938-1.359 0.938-2.25 0-2.203-1.781-3.984-3.984-3.984s-3.984 1.781-3.984 3.984h1.969c0-1.078 0.938-2.016 2.016-2.016s2.016 0.938 2.016 2.016c0 0.563-0.234 1.031-0.609 1.406l-1.219 1.266c-0.703 0.75-1.172 1.734-1.172 2.813v0.516h1.969c0-1.5 0.469-2.063 1.172-2.813zM12.984 18.984v-1.969h-1.969v1.969h1.969zM12 2.016c5.531 0 9.984 4.453 9.984 9.984s-4.453 9.984-9.984 9.984-9.984-4.453-9.984-9.984 4.453-9.984 9.984-9.984z"></path>
</svg>
