<!-- Generated by IcoMoon.io -->
<svg version="1.1" xmlns="http://www.w3.org/2000/svg" width="24" height="24" viewBox="0 0 24 24">
<title>offboarding_laufend-m</title>
<path fill="none" stroke="#4c4d5b" stroke-linejoin="miter" stroke-linecap="butt" stroke-miterlimit="4" stroke-width="1.3125" d="M21 12c0 4.971-4.029 9-9 9s-9-4.029-9-9c0-4.971 4.029-9 9-9s9 4.029 9 9z"></path>
<path fill="none" stroke="#74758b" stroke-linejoin="round" stroke-linecap="round" stroke-miterlimit="4" stroke-width="1.3125" d="M13.5 15.4l-4.059 1.85-1.941-0.994 3.281-2.756"></path>
<path fill="none" stroke="#74758b" stroke-linejoin="round" stroke-linecap="round" stroke-miterlimit="4" stroke-width="1.3125" d="M15.787 11.492l-0.246-4.308-1.812-1.184-0.809 4.373"></path>
<path fill="none" stroke="#74758b" stroke-linejoin="round" stroke-linecap="round" stroke-miterlimit="4" stroke-width="1.3125" d="M7.5 6.75l1.249 2.162 7.31 2.796c1.663 0.671 2.911 1.647 1.941 3.304"></path>
<path fill="none" stroke="#74758b" stroke-linejoin="round" stroke-linecap="round" stroke-miterlimit="4" stroke-width="1.3125" d="M6.475 8.25l-1.225 2.156 2.426-0.014 6.875 5.471c1.366 1.074 2.516 0.79 3.449-0.851"></path>
</svg>
