<!-- Generated by IcoMoon.io -->
<svg version="1.1" xmlns="http://www.w3.org/2000/svg" width="24" height="24" viewBox="0 0 24 24">
<title>onboarding_laufen-m</title>
<path fill="none" stroke="#4c4d5b" stroke-linejoin="miter" stroke-linecap="butt" stroke-miterlimit="4" stroke-width="1.3125" d="M21 12c0 4.971-4.029 9-9 9s-9-4.029-9-9c0-4.971 4.029-9 9-9s9 4.029 9 9z"></path>
<path fill="none" stroke="#74758b" stroke-linejoin="round" stroke-linecap="round" stroke-miterlimit="4" stroke-width="1.3125" d="M16.019 12.213l-0.427 4.44-1.832 1.184-0.746-4.22"></path>
<path fill="none" stroke="#74758b" stroke-linejoin="round" stroke-linecap="round" stroke-miterlimit="4" stroke-width="1.3125" d="M13.778 8.279l-3.854-1.941-1.931 0.977 3.383 2.887"></path>
<path fill="none" stroke="#74758b" stroke-linejoin="round" stroke-linecap="round" stroke-miterlimit="4" stroke-width="1.3125" d="M5.528 13.085l2.497-0.001 6.076-4.933c1.413-1.104 2.882-1.698 3.832-0.029"></path>
<path fill="none" stroke="#74758b" stroke-linejoin="round" stroke-linecap="round" stroke-miterlimit="4" stroke-width="1.3125" d="M6.315 14.722l1.255 2.139 1.201-2.108 8.176-3.219c1.613-0.646 1.942-1.784 0.987-3.412"></path>
</svg>
