<!-- Generated by IcoMoon.io -->
<svg version="1.1" xmlns="http://www.w3.org/2000/svg" width="24" height="24" viewBox="0 0 24 24">
<title>password-a</title>
<path fill="none" stroke="#0d10f3" stroke-linejoin="round" stroke-linecap="round" stroke-miterlimit="4" stroke-width="1.5" d="M7.333 10.267v-3.933c0-2.393 1.94-4.333 4.333-4.333s4.333 1.94 4.333 4.333"></path>
<path fill="none" stroke="#0d10f3" stroke-linejoin="miter" stroke-linecap="round" stroke-miterlimit="4" stroke-width="1.5" d="M18.333 15.333c0 3.682-2.985 6.667-6.667 6.667s-6.667-2.985-6.667-6.667c0-3.682 2.985-6.667 6.667-6.667s6.667 2.985 6.667 6.667z"></path>
<path fill="none" stroke="#5d60f7" stroke-linejoin="miter" stroke-linecap="round" stroke-miterlimit="4" stroke-width="1.5" d="M12.167 16.083c0 0.276-0.224 0.5-0.5 0.5s-0.5-0.224-0.5-0.5v-1.5c0-0.276 0.224-0.5 0.5-0.5s0.5 0.224 0.5 0.5v1.5z"></path>
</svg>
