<!-- Generated by IcoMoon.io -->
<svg version="1.1" xmlns="http://www.w3.org/2000/svg" width="24" height="24" viewBox="0 0 24 24">
<title>password-s-grey</title>
<path fill="none" stroke="#c0c0cd" stroke-linejoin="round" stroke-linecap="round" stroke-miterlimit="4" stroke-width="1.4824" d="M7.247 10.146v-3.887c0-2.365 1.917-4.282 4.282-4.282s4.282 1.917 4.282 4.282"></path>
<path fill="none" stroke="#c0c0cd" stroke-linejoin="miter" stroke-linecap="round" stroke-miterlimit="4" stroke-width="1.4824" d="M18.118 15.153c0 3.639-2.95 6.588-6.588 6.588s-6.588-2.95-6.588-6.588c0-3.639 2.95-6.588 6.588-6.588s6.588 2.95 6.588 6.588z"></path>
<path fill="none" stroke="#e0e0e6" stroke-linejoin="miter" stroke-linecap="round" stroke-miterlimit="4" stroke-width="1.4824" d="M12.024 15.894c0 0.273-0.221 0.494-0.494 0.494s-0.494-0.221-0.494-0.494v-1.482c0-0.273 0.221-0.494 0.494-0.494s0.494 0.221 0.494 0.494v1.482z"></path>
</svg>
