<!-- Generated by IcoMoon.io -->
<svg version="1.1" xmlns="http://www.w3.org/2000/svg" width="17" height="24" viewBox="0 0 17 24">
<title>password</title>
<path fill="none" stroke="currentColor" stroke-width="1.3846" stroke-miterlimit="4" stroke-linecap="round" stroke-linejoin="round" d="M3.508 10.080v-4.357c0-2.651 2.149-4.8 4.8-4.8s4.8 2.149 4.8 4.8"></path>
<path fill="none" stroke="currentColor" stroke-width="1.3846" stroke-miterlimit="4" stroke-linecap="round" stroke-linejoin="miter" d="M15.692 15.692c0 4.078-3.306 7.385-7.385 7.385s-7.385-3.306-7.385-7.385c0-4.078 3.306-7.385 7.385-7.385s7.385 3.306 7.385 7.385z"></path>
<path fill="none" stroke="currentColor" stroke-width="1.3846" stroke-miterlimit="4" stroke-linecap="round" stroke-linejoin="miter" d="M8.862 16.523c0 0.306-0.248 0.554-0.554 0.554s-0.554-0.248-0.554-0.554v-1.662c0-0.306 0.248-0.554 0.554-0.554s0.554 0.248 0.554 0.554v1.662z"></path>
</svg>
