<!-- Generated by IcoMoon.io -->
<svg version="1.1" xmlns="http://www.w3.org/2000/svg" width="24" height="24" viewBox="0 0 24 24">
<title>print-s</title>
<path fill="none" stroke="#5d60f7" stroke-linejoin="round" stroke-linecap="round" stroke-miterlimit="4" stroke-width="1.4824" d="M4.447 12.353h0.988"></path>
<path fill="none" stroke="#0d10f3" stroke-linejoin="round" stroke-linecap="round" stroke-miterlimit="4" stroke-width="1.4824" d="M5.929 6.918v-2.965c0-0.546 0.442-0.988 0.988-0.988h9.882c0.546 0 0.988 0.442 0.988 0.988v4.941c0 0.546-0.442 0.988-0.988 0.988h-9.882"></path>
<path fill="none" stroke="#0d10f3" stroke-linejoin="round" stroke-linecap="round" stroke-miterlimit="4" stroke-width="1.4824" d="M6.918 16.8h9.882c0.546 0 0.988 0.442 0.988 0.988v1.976c0 0.546-0.442 0.988-0.988 0.988h-9.882c-0.546 0-0.988-0.442-0.988-0.988v-1.976c0-0.546 0.442-0.988 0.988-0.988z"></path>
<path fill="none" stroke="#0d10f3" stroke-linejoin="round" stroke-linecap="round" stroke-miterlimit="4" stroke-width="1.4824" d="M4.941 9.882h13.835c1.637 0 2.965 1.327 2.965 2.965v5.929c0 1.092-0.885 1.976-1.976 1.976h-15.812c-1.092 0-1.976-0.885-1.976-1.976v-5.929c0-1.637 1.327-2.965 2.965-2.965z"></path>
</svg>
