<!-- Generated by IcoMoon.io -->
<svg version="1.1" xmlns="http://www.w3.org/2000/svg" width="24" height="24" viewBox="0 0 24 24">
<title>print</title>
<path fill="none" stroke="currentColor" stroke-width="1.3846" stroke-miterlimit="4" stroke-linecap="round" stroke-linejoin="round" d="M3.692 12.369h1.108"></path>
<path fill="none" stroke="currentColor" stroke-width="1.3846" stroke-miterlimit="4" stroke-linecap="round" stroke-linejoin="round" d="M5.354 6.277v-3.323c0-0.612 0.496-1.108 1.108-1.108h11.077c0.612 0 1.108 0.496 1.108 1.108v5.538c0 0.612-0.496 1.108-1.108 1.108h-11.077"></path>
<path fill="none" stroke="currentColor" stroke-width="1.3846" stroke-miterlimit="4" stroke-linecap="round" stroke-linejoin="round" d="M6 17.354h12c0.357 0 0.646 0.289 0.646 0.646v3.138c0 0.357-0.289 0.646-0.646 0.646h-12c-0.357 0-0.646-0.289-0.646-0.646v-3.138c0-0.357 0.289-0.646 0.646-0.646z"></path>
<path fill="none" stroke="currentColor" stroke-width="1.3846" stroke-miterlimit="4" stroke-linecap="round" stroke-linejoin="round" d="M2.862 9.6h18.277c1.071 0 1.938 0.868 1.938 1.938v8.954c0 0.714-0.579 1.292-1.292 1.292h-19.569c-0.714 0-1.292-0.579-1.292-1.292v-8.954c0-1.071 0.868-1.938 1.938-1.938z"></path>
</svg>
