<!-- Generated by IcoMoon.io -->
<svg version="1.1" xmlns="http://www.w3.org/2000/svg" width="24" height="24" viewBox="0 0 24 24">
<title>settings-b</title>
<path fill="none" stroke="#c0c0cd" stroke-linejoin="round" stroke-linecap="round" stroke-miterlimit="4" stroke-width="1.5" d="M11.943 21h0.008c0.469 0 0.954-0.045 1.443-0.132l0.212-1.048 0.393-0.098c0.701-0.176 1.363-0.44 1.971-0.783l0.343-0.195 0.89 0.593c0.408-0.282 0.784-0.595 1.121-0.932 0.336-0.336 0.648-0.712 0.932-1.121l-0.57-0.856 0.207-0.348c0.37-0.618 0.654-1.286 0.845-1.983l0.104-0.383 1.025-0.206c0.087-0.489 0.132-0.977 0.132-1.45 0.001-0.476-0.044-0.963-0.132-1.452l-1-0.201-0.1-0.391c-0.183-0.707-0.456-1.378-0.814-1.995l-0.201-0.346 0.584-0.876c-0.283-0.409-0.597-0.786-0.933-1.122-0.336-0.336-0.712-0.648-1.119-0.931l-0.872 0.579-0.346-0.202c-0.609-0.357-1.269-0.63-1.958-0.814l-0.386-0.103-0.216-1.071c-0.978-0.176-1.922-0.176-2.901 0l-0.216 1.071-0.387 0.103c-0.675 0.18-1.319 0.445-1.916 0.788l-0.345 0.199-0.946-0.63c-0.408 0.282-0.784 0.595-1.12 0.932-0.336 0.333-0.648 0.71-0.933 1.121l0.626 0.941-0.202 0.346c-0.342 0.588-0.607 1.219-0.788 1.876l-0.104 0.382-1.142 0.231c-0.090 0.491-0.135 0.978-0.134 1.45-0.001 0.473 0.044 0.96 0.132 1.452l1.119 0.225 0.1 0.39c0.176 0.672 0.429 1.309 0.757 1.891l0.194 0.343-0.639 0.96c0.283 0.408 0.595 0.784 0.932 1.119 0.334 0.337 0.711 0.649 1.121 0.933l0.927-0.617 0.347 0.207c0.598 0.356 1.237 0.631 1.902 0.819l0.378 0.107 0.221 1.094c0.486 0.089 0.971 0.134 1.444 0.134h0.008z"></path>
<path fill="none" stroke="#e0e0e6" stroke-linejoin="round" stroke-linecap="round" stroke-miterlimit="4" stroke-width="1.5" d="M15 12c0 1.657-1.343 3-3 3s-3-1.343-3-3c0-1.657 1.343-3 3-3s3 1.343 3 3z"></path>
</svg>
