<!-- Generated by IcoMoon.io -->
<svg version="1.1" xmlns="http://www.w3.org/2000/svg" width="24" height="24" viewBox="0 0 24 24">
<title>settings-s-grey</title>
<path fill="none" stroke="#c0c0cd" stroke-linejoin="round" stroke-linecap="round" stroke-miterlimit="4" stroke-width="1.4824" d="M11.803 20.753h0.008c0.464 0 0.943-0.044 1.426-0.131l0.21-1.036 0.389-0.097c0.692-0.174 1.347-0.435 1.948-0.774l0.339-0.193 0.879 0.586c0.403-0.278 0.775-0.588 1.108-0.921 0.332-0.332 0.64-0.704 0.921-1.108l-0.563-0.846 0.205-0.344c0.366-0.611 0.647-1.271 0.835-1.959l0.103-0.379 1.013-0.203c0.086-0.483 0.131-0.966 0.131-1.433 0.001-0.47-0.043-0.952-0.131-1.435l-0.989-0.198-0.099-0.386c-0.18-0.699-0.451-1.362-0.804-1.972l-0.198-0.342 0.577-0.865c-0.28-0.404-0.59-0.776-0.922-1.109-0.332-0.332-0.704-0.64-1.105-0.92l-0.861 0.572-0.342-0.199c-0.602-0.353-1.254-0.623-1.935-0.804l-0.381-0.102-0.213-1.058c-0.967-0.174-1.9-0.174-2.866 0l-0.213 1.058-0.382 0.102c-0.667 0.178-1.304 0.44-1.893 0.779l-0.341 0.197-0.935-0.623c-0.403 0.278-0.775 0.588-1.107 0.921-0.332 0.329-0.64 0.701-0.922 1.108l0.619 0.93-0.199 0.342c-0.338 0.581-0.6 1.205-0.779 1.854l-0.103 0.377-1.128 0.229c-0.089 0.485-0.133 0.967-0.132 1.433-0.001 0.468 0.043 0.949 0.131 1.435l1.105 0.222 0.099 0.385c0.174 0.665 0.424 1.293 0.748 1.869l0.192 0.339-0.631 0.949c0.28 0.403 0.588 0.775 0.921 1.105 0.33 0.333 0.703 0.642 1.108 0.922l0.916-0.61 0.343 0.205c0.591 0.352 1.222 0.624 1.879 0.809l0.374 0.105 0.219 1.081c0.48 0.088 0.959 0.132 1.427 0.132h0.008z"></path>
<path fill="none" stroke="#e0e0e6" stroke-linejoin="round" stroke-linecap="round" stroke-miterlimit="4" stroke-width="1.4824" d="M14.824 11.859c0 1.637-1.327 2.965-2.965 2.965s-2.965-1.327-2.965-2.965c0-1.637 1.327-2.965 2.965-2.965s2.965 1.327 2.965 2.965z"></path>
</svg>
