<!-- Generated by IcoMoon.io -->
<svg version="1.1" xmlns="http://www.w3.org/2000/svg" width="24" height="24" viewBox="0 0 24 24">
<title>user-b</title>
<path fill="none" stroke="#e0e0e6" stroke-linejoin="round" stroke-linecap="round" stroke-miterlimit="4" stroke-width="1.5" d="M20.479 17.191c0.933-1.518 1.471-3.304 1.471-5.216 0-5.509-4.466-9.975-9.975-9.975s-9.975 4.466-9.975 9.975c0 1.95 0.559 3.769 1.526 5.305"></path>
<path fill="none" stroke="#c0c0cd" stroke-linejoin="round" stroke-linecap="round" stroke-miterlimit="4" stroke-width="1.5" d="M11.873 22.023c-2.371 0-4.49-0.771-6.127-2.229-0.037-0.033-0.067-0.093-0.071-0.119 0.001-0.068 0.018-0.116 0.024-0.125 0.298-0.256 0.567-0.392 0.617-0.415l3.362-1.86-0.596-0.859c-0.736-1.063-1.121-2.415-1.121-3.201v-2.281c0-1.709 1.867-3.266 3.917-3.266 2.020 0 3.861 1.556 3.861 3.265v2.281c0 0.81-0.333 2.165-1.064 3.227l-0.585 0.849 3.398 1.922c0.153 0.075 0.32 0.162 0.496 0.302 0.040 0.033 0.076 0.095 0.080 0.121 0.001 0.068-0.016 0.117-0.021 0.128-1.685 1.49-3.768 2.259-6.169 2.259z"></path>
</svg>
