<!-- Generated by IcoMoon.io -->
<svg version="1.1" xmlns="http://www.w3.org/2000/svg" width="24" height="24" viewBox="0 0 24 24">
<title>user</title>
<path fill="none" stroke="#0d10f3" stroke-linejoin="round" stroke-linecap="round" stroke-miterlimit="4" stroke-width="1.5" d="M20.834 17.305c1.001-1.629 1.579-3.547 1.579-5.599 0-5.913-4.793-10.707-10.707-10.707s-10.707 4.793-10.707 10.707c0 2.093 0.6 4.045 1.638 5.694"></path>
<path fill="none" stroke="#0d10f3" stroke-linejoin="round" stroke-linecap="round" stroke-miterlimit="4" stroke-width="1.5" d="M11.597 22.492c-2.545 0-4.819-0.827-6.576-2.393-0.039-0.035-0.072-0.1-0.077-0.127 0.001-0.073 0.019-0.124 0.026-0.134 0.32-0.275 0.609-0.42 0.663-0.445l3.609-1.996-0.64-0.922c-0.79-1.141-1.204-2.592-1.204-3.436v-2.448c0-1.835 2.004-3.505 4.204-3.505 2.168 0 4.144 1.67 4.144 3.505v2.448c0 0.869-0.357 2.324-1.142 3.463l-0.628 0.912 3.647 2.062c0.165 0.080 0.344 0.174 0.532 0.325 0.043 0.035 0.081 0.101 0.086 0.13 0.001 0.073-0.017 0.125-0.023 0.137-1.809 1.599-4.045 2.424-6.621 2.424z"></path>
</svg>
