<!-- Generated by IcoMoon.io -->
<svg version="1.1" xmlns="http://www.w3.org/2000/svg" width="24" height="24" viewBox="0 0 24 24">
<title>warning</title>
<path fill="#0d10f3" d="M13.377 5.76v6.947c0 0.737-0.036 1.459-0.11 2.168s-0.17 1.459-0.292 2.253h-2.032c-0.122-0.793-0.219-1.544-0.292-2.253s-0.11-1.431-0.11-2.168v-6.947h2.835zM10.080 21.67c0-0.251 0.047-0.49 0.14-0.717s0.223-0.421 0.389-0.583c0.166-0.162 0.363-0.291 0.59-0.389s0.47-0.146 0.73-0.146c0.251 0 0.491 0.049 0.718 0.146s0.422 0.227 0.584 0.389c0.162 0.162 0.292 0.356 0.389 0.583s0.146 0.466 0.146 0.717c0 0.259-0.049 0.5-0.146 0.723s-0.227 0.415-0.389 0.577c-0.162 0.162-0.357 0.289-0.584 0.383s-0.466 0.14-0.718 0.14c-0.26 0-0.503-0.047-0.73-0.14s-0.424-0.221-0.59-0.383c-0.166-0.162-0.296-0.354-0.389-0.577s-0.14-0.464-0.14-0.723z"></path>
<path fill="none" stroke="#0d10f3" stroke-linejoin="miter" stroke-linecap="butt" stroke-miterlimit="4" stroke-width="1.44" d="M17.374 18.516c2.55-1.726 4.226-4.645 4.226-7.956 0-5.302-4.298-9.6-9.6-9.6s-9.6 4.298-9.6 9.6c0 3.236 1.601 6.098 4.055 7.837"></path>
</svg>
