<!-- Generated by IcoMoon.io -->
<svg version="1.1" xmlns="http://www.w3.org/2000/svg" width="24" height="24" viewBox="0 0 24 24">
<title>web</title>
<path fill="currentColor" d="M23.081 6.207v1.44h-22.246v-1.44z"></path>
<path fill="currentColor" d="M22.361 2.64h-21.401c-0.398 0-0.72 0.322-0.72 0.72v16.645c0 0.398 0.322 0.72 0.72 0.72h21.401c0.398 0 0.72-0.322 0.72-0.72v-16.645c0-0.398-0.322-0.72-0.72-0.72zM21.64 4.079v15.205h-19.961v-15.205h19.961z"></path>
<path fill="currentColor" d="M14.325 9.948l0.075 0.076 2.561 2.972c0.207 0.24 0.23 0.583 0.069 0.845l-0.069 0.094-2.561 2.972c-0.26 0.301-0.714 0.335-1.015 0.076-0.274-0.236-0.327-0.633-0.139-0.93l0.064-0.086 2.155-2.503-2.155-2.501c-0.236-0.274-0.229-0.674 0-0.94l0.076-0.075c0.246-0.212 0.596-0.228 0.857-0.062l0.083 0.062zM9.935 9.948c0.274 0.236 0.327 0.633 0.139 0.93l-0.064 0.086-2.156 2.501 2.156 2.503c0.236 0.274 0.229 0.674-0 0.94l-0.076 0.075c-0.274 0.236-0.674 0.229-0.94-0l-0.075-0.076-2.561-2.972c-0.207-0.24-0.23-0.583-0.069-0.845l0.069-0.094 2.561-2.972c0.26-0.301 0.714-0.335 1.015-0.076z"></path>
</svg>
