<!-- Generated by IcoMoon.io -->
<svg version="1.1" xmlns="http://www.w3.org/2000/svg" width="24" height="24" viewBox="0 0 24 24">
<title>partner</title>
<path fill="currentColor" d="M16.422 9.38l0.087 0.069 3.233 2.984c0.695 0.603 0.943 1.692 0.42 2.437l-0.094 0.121c-0.004 0.004-1.905 2.040-3.518 3.77-0.301 0.323-0.678 0.458-1.127 0.484l-0.172 0.005h-1.75c-0.633 0-1.218-0.244-1.732-0.675l-0.209-0.181-0.295-0.278c-0.023-0.020-0.023-0.020-0.046-0.040-0.317-0.266-0.359-0.739-0.093-1.057s0.739-0.359 1.057-0.093l0.173 0.157 0.138 0.133c0.070 0.065 0.144 0.131 0.239 0.211 0.217 0.182 0.43 0.286 0.641 0.316l0.127 0.009h1.75c0.149 0 0.206-0.016 0.201-0.012l3.482-3.73c0.034-0.039-0.001-0.241-0.131-0.395l-0.061-0.063-3.25-3c-0.304-0.281-0.323-0.755-0.042-1.060 0.23-0.249 0.589-0.307 0.879-0.166l0.094 0.054zM5.557 4.737l0.181 0.051 1.514 0.505 0.043-0.015 1.741-0.497c0.824-0.247 1.595-0.033 2.305 0.527l0.151 0.125 0.259 0.224v0.842c0 0.414-0.336 0.75-0.75 0.75-0.38 0-0.693-0.282-0.743-0.648l-0.007-0.102-0.001-0.131-0.115-0.067c-0.197-0.104-0.381-0.137-0.566-0.107l-0.112 0.026-1.741 0.497c-0.28 0.084-0.515 0.099-0.785 0.038l-0.167-0.045-1.488-0.496c-0.368-0.116-0.604-0.038-1.126 0.451l-0.126 0.12-0.117 0.093-1.244 1.264-0.338 0.337c-0.047 0.056 0.003 0.314 0.157 0.443l1.75 1.5c0.317 0.266 0.359 0.739 0.093 1.057s-0.739 0.359-1.057 0.093l-1.75-1.5c-0.742-0.622-0.972-1.806-0.343-2.557l0.854-0.865c0.297-0.296 0.607-0.604 0.817-0.806l0.136-0.129-0.005-0.005c0.852-0.831 1.541-1.169 2.405-1.013l0.175 0.038z"></path>
<path fill="currentColor" d="M18.095 4.724c1.152-0.658 2.6-0.397 3.452 0.598l0.112 0.14 0.9 1.2c0.784 1.045 0.72 2.488-0.129 3.459l-0.127 0.135-2.773 2.773c-0.293 0.293-0.768 0.293-1.061 0-0.266-0.266-0.29-0.683-0.073-0.977l0.073-0.084 2.773-2.773c0.406-0.406 0.479-1.031 0.195-1.516l-0.079-0.118-0.9-1.2c-0.351-0.468-0.975-0.626-1.501-0.395l-0.119 0.060-1.039 0.593c-0.741 0.424-1.634 0.477-2.416 0.153l-0.178-0.081-0.965-0.482c-0.368-0.184-0.8-0.174-1.156 0.020l-0.13 0.081-1.91 1.364c-0.159 0.114-0.263 0.288-0.29 0.479l-0.007 0.097v0.043c0 0.254 0.101 0.497 0.28 0.677 0.068 0.068 0.164 0.098 0.256 0.082l0.068-0.020 2.85-1.221c0.381-0.163 0.822 0.013 0.985 0.394 0.15 0.349 0.014 0.749-0.303 0.938l-0.091 0.046-2.85 1.221c-0.674 0.289-1.457 0.138-1.976-0.38-0.415-0.415-0.666-0.962-0.712-1.543l-0.008-0.237c0-0.653 0.289-1.27 0.784-1.687l0.14-0.109 1.91-1.364c0.774-0.553 1.773-0.664 2.644-0.306l0.184 0.084 0.965 0.482c0.332 0.166 0.719 0.175 1.055 0.029l0.124-0.062 1.039-0.593z"></path>
<path fill="none" stroke="currentColor" stroke-width="1.5" stroke-miterlimit="4" stroke-linecap="butt" stroke-linejoin="miter" d="M6.13 10.448c-0.244-0.243-0.566-0.366-0.888-0.366s-0.643 0.123-0.888 0.369l-1.457 1.463c-0.225 0.232-0.338 0.541-0.334 0.849 0.004 0.311 0.13 0.618 0.377 0.859 0.245 0.238 0.563 0.357 0.881 0.356s0.634-0.121 0.878-0.36l1.439-1.415c0.238-0.238 0.358-0.555 0.358-0.872-0-0.319-0.122-0.637-0.366-0.882z"></path>
<path fill="none" stroke="currentColor" stroke-width="1.5" stroke-miterlimit="4" stroke-linecap="butt" stroke-linejoin="miter" d="M8.334 11.795c-0.244-0.244-0.564-0.366-0.884-0.366s-0.64 0.122-0.884 0.366l-2.121 2.121c-0.244 0.244-0.366 0.564-0.366 0.884s0.122 0.64 0.366 0.884c0.244 0.244 0.564 0.366 0.884 0.366s0.64-0.122 0.884-0.366l2.121-2.121c0.244-0.244 0.366-0.564 0.366-0.884s-0.122-0.64-0.366-0.884z"></path>
<path fill="none" stroke="currentColor" stroke-width="1.5" stroke-miterlimit="4" stroke-linecap="butt" stroke-linejoin="miter" d="M9.627 14.195c-0.244-0.244-0.564-0.366-0.884-0.366s-0.64 0.122-0.884 0.366l-1.414 1.414c-0.244 0.244-0.366 0.564-0.366 0.884s0.122 0.64 0.366 0.884c0.244 0.244 0.564 0.366 0.884 0.366s0.64-0.122 0.884-0.366l1.414-1.414c0.244-0.244 0.366-0.564 0.366-0.884s-0.122-0.64-0.366-0.884z"></path>
<path fill="none" stroke="currentColor" stroke-width="1.5" stroke-miterlimit="4" stroke-linecap="butt" stroke-linejoin="miter" d="M11.169 16.195c-0.244-0.244-0.564-0.366-0.884-0.366s-0.64 0.122-0.884 0.366l-0.707 0.707c-0.244 0.244-0.366 0.564-0.366 0.884s0.122 0.64 0.366 0.884c0.244 0.244 0.564 0.366 0.884 0.366s0.64-0.122 0.884-0.366l0.707-0.707c0.244-0.244 0.366-0.564 0.366-0.884s-0.122-0.64-0.366-0.884z"></path>
</svg>
