<svg xmlns="http://www.w3.org/2000/svg" width="20.845" height="22.814" viewBox="0 0 20.845 22.814">
  <g id="Link" transform="matrix(0.788, 0.616, -0.616, 0.788, 12.973, 1.404)">
    <g id="Layer_2" data-name="Layer 2" transform="translate(0.056 5.519)">
      <g id="link-2" transform="translate(0 0)">
        <path id="Pfad_105" data-name="Pfad 105" d="M4.211.3.3,4.21a1.015,1.015,0,0,0-.3.68.876.876,0,0,0,.916.916,1.015,1.015,0,0,0,.68-.3L5.5,1.595A.95.95,0,0,0,5.552.255.949.949,0,0,0,4.211.3Z" transform="translate(0 4.105) rotate(-45)" fill="currentColor"/>
      </g>
    </g>
    <g id="Icon_Password_Blue" data-name="Icon/Password/Blue" transform="translate(0 0)">
      <g id="Icon_Password_Blue-2" data-name="Icon / Password / Blue">
        <g id="Group_6" data-name="Group 6">
          <path id="Shape" d="M0,6.624V3.874A3.994,3.994,0,0,1,4.1,0a3.994,3.994,0,0,1,4.1,3.874" fill="none" stroke="currentColor" stroke-linecap="round" stroke-linejoin="round" stroke-width="2"/>
          <path id="Shape-2" data-name="Shape" d="M8.208,6.593V3.874A3.994,3.994,0,0,0,4.1,0,3.994,3.994,0,0,0,0,3.874" transform="translate(0.001 0)" fill="none" stroke="currentColor" stroke-linecap="round" stroke-linejoin="round" stroke-width="2"/>
        </g>
      </g>
    </g>
    <g id="Icon_Password_Blue-3" data-name="Icon/Password/Blue" transform="translate(8.209 18.974) rotate(180)">
      <g id="Icon_Password_Blue-4" data-name="Icon / Password / Blue" transform="translate(0 0)">
        <g id="Group_6-2" data-name="Group 6">
          <path id="Shape-3" data-name="Shape" d="M0,6.187V3.618A3.843,3.843,0,0,1,4.033,0,3.843,3.843,0,0,1,8.067,3.618" fill="none" stroke="currentColor" stroke-linecap="round" stroke-linejoin="round" stroke-width="2"/>
          <path id="Shape-4" data-name="Shape" d="M8.066,6.158V3.618A3.843,3.843,0,0,0,4.033,0,3.843,3.843,0,0,0,0,3.618" transform="translate(0.001 0)" fill="none" stroke="currentColor" stroke-linecap="round" stroke-linejoin="round" stroke-width="2"/>
        </g>
      </g>
    </g>
  </g>
</svg>
