<!-- Generated by IcoMoon.io -->
<svg version="1.1" xmlns="http://www.w3.org/2000/svg" width="24" height="24" viewBox="0 0 24 24">
<title>cloud-b</title>
<path fill="none" stroke="#c0c0cd" stroke-linejoin="round" stroke-linecap="round" stroke-miterlimit="4" stroke-width="1.5" d="M5 19c-2.209 0-4-1.791-4-4 0-1.883 1.301-3.462 3.053-3.887-0.035-0.199-0.053-0.404-0.053-0.613 0-1.933 1.567-3.5 3.5-3.5 1.074 0 2.035 0.484 2.677 1.245 0.543-1.875 2.273-3.245 4.323-3.245 2.485 0 4.5 2.015 4.5 4.5 0 0.177-0.010 0.352-0.030 0.524 2.265 0.235 4.030 2.149 4.030 4.476 0 2.485-2.015 4.5-4.5 4.5h-13.5z"></path>
<path fill="none" stroke="#e0e0e6" stroke-linejoin="round" stroke-linecap="round" stroke-miterlimit="4" stroke-width="1.5" d="M18.011 12.315c0.619-0.771 0.989-1.75 0.989-2.816 0-2.485-2.015-4.5-4.5-4.5-1.87 0-3.473 1.14-4.153 2.764-0.224 0.534-0.347 1.121-0.347 1.736"></path>
</svg>
