<!-- Generated by IcoMoon.io -->
<svg version="1.1" xmlns="http://www.w3.org/2000/svg" width="24" height="24" viewBox="0 0 24 24">
<title>settings-a</title>
<path fill="none" stroke="#0d10f3" stroke-linejoin="round" stroke-linecap="round" stroke-miterlimit="4" stroke-width="1.5" d="M9.626 20.369c-0.684-0.199-1.342-0.482-1.96-0.844l-0.958 0.638-0.419-0.29c-0.45-0.312-0.862-0.654-1.222-1.018-0.367-0.364-0.709-0.775-1.020-1.223l-0.291-0.419 0.666-1.002c-0.332-0.601-0.594-1.255-0.781-1.949l-1.158-0.233-0.091-0.501c-0.097-0.537-0.146-1.070-0.144-1.583-0.001-0.518 0.048-1.051 0.146-1.588l0.091-0.499 1.186-0.241c0.192-0.676 0.465-1.326 0.812-1.934l-0.649-0.976 0.29-0.419c0.313-0.451 0.655-0.863 1.018-1.223 0.368-0.37 0.78-0.713 1.225-1.020l0.419-0.289 0.982 0.654c0.618-0.349 1.282-0.622 1.976-0.813l0.225-1.114 0.502-0.090c1.066-0.192 2.1-0.192 3.166 0l0.502 0.090 0.225 1.114c0.712 0.196 1.392 0.478 2.021 0.84l0.907-0.602 0.418 0.291c0.445 0.31 0.855 0.651 1.22 1.016 0.37 0.37 0.712 0.782 1.020 1.226l0.29 0.419-0.607 0.911c0.365 0.641 0.647 1.334 0.841 2.062l1.038 0.208 0.091 0.501c0.097 0.535 0.146 1.068 0.144 1.586 0 0.517-0.049 1.049-0.144 1.582l-0.090 0.503-1.071 0.215c-0.202 0.719-0.496 1.408-0.872 2.047l0.591 0.888-0.291 0.419c-0.311 0.447-0.652 0.858-1.018 1.223-0.37 0.37-0.782 0.713-1.225 1.019l-0.419 0.289-0.929-0.619c-0.633 0.351-1.316 0.622-2.035 0.809l-0.219 1.083-0.502 0.090c-0.534 0.095-1.062 0.144-1.575 0.144h-0.015c-0.518 0-1.048-0.049-1.579-0.146l-0.5-0.091-0.231-1.144z"></path>
<path fill="none" stroke="#5d60f7" stroke-linejoin="round" stroke-linecap="round" stroke-miterlimit="4" stroke-width="1.5" d="M15 12c0 1.657-1.343 3-3 3s-3-1.343-3-3c0-1.657 1.343-3 3-3s3 1.343 3 3z"></path>
</svg>
