<svg width="18" height="18" viewBox="0 0 18 18" fill="none" xmlns="http://www.w3.org/2000/svg">
<path d="M1.5 18C1.1 18 0.75 17.85 0.45 17.55C0.15 17.25 0 16.9 0 16.5V1.5C0 1.1 0.15 0.75 0.45 0.45C0.75 0.15 1.1 0 1.5 0H7.725C7.94167 0 8.12083 0.0708334 8.2625 0.2125C8.40417 0.354167 8.475 0.533333 8.475 0.75C8.475 0.966667 8.40417 1.14583 8.2625 1.2875C8.12083 1.42917 7.94167 1.5 7.725 1.5H1.5V16.5H16.5V10.275C16.5 10.0583 16.5708 9.87917 16.7125 9.7375C16.8542 9.59583 17.0333 9.525 17.25 9.525C17.4667 9.525 17.6458 9.59583 17.7875 9.7375C17.9292 9.87917 18 10.0583 18 10.275V16.5C18 16.9 17.85 17.25 17.55 17.55C17.25 17.85 16.9 18 16.5 18H1.5ZM6.025 11.975C5.89167 11.825 5.82083 11.65 5.8125 11.45C5.80417 11.25 5.875 11.075 6.025 10.925L15.45 1.5H10.725C10.5083 1.5 10.3292 1.42917 10.1875 1.2875C10.0458 1.14583 9.975 0.966667 9.975 0.75C9.975 0.533333 10.0458 0.354167 10.1875 0.2125C10.3292 0.0708334 10.5083 0 10.725 0H17.25C17.4667 0 17.6458 0.0708334 17.7875 0.2125C17.9292 0.354167 18 0.533333 18 0.75V7.275C18 7.49167 17.9292 7.67083 17.7875 7.8125C17.6458 7.95417 17.4667 8.025 17.25 8.025C17.0333 8.025 16.8542 7.95417 16.7125 7.8125C16.5708 7.67083 16.5 7.49167 16.5 7.275V2.575L7.075 12C6.94167 12.1333 6.77083 12.2 6.5625 12.2C6.35417 12.2 6.175 12.125 6.025 11.975Z" fill="#CAC8D5"/>
</svg>
