<?xml version="1.0" encoding="UTF-8"?>
<svg id="Ebene_1" data-name="Ebene 1" xmlns="http://www.w3.org/2000/svg" width="220" height="220" xmlns:xlink="http://www.w3.org/1999/xlink" viewBox="0 0 220 220">
  <defs>
    <style>
      .cls-1 {
        fill: #f6fafe;
      }

      .cls-2, .cls-3 {
        fill: #fff;
      }

      .cls-4 {
        fill: #8aa1ff;
      }

      .cls-5 {
        fill: #beccff;
      }

      .cls-6 {
        fill: #4655ff;
      }

      .cls-7 {
        fill: #2d02ff;
      }

      .cls-8 {
        filter: url(#drop-shadow-76);
        stroke: #4655ff;
      }

      .cls-8, .cls-9 {
        fill: none;
        stroke-miterlimit: 10;
      }

      .cls-9 {
        stroke: #2d02ff;
      }

      .cls-3 {
        filter: url(#drop-shadow-75);
      }
    </style>
    <filter id="drop-shadow-75" filterUnits="userSpaceOnUse">
      <feOffset dx="5" dy="5"/>
      <feGaussianBlur result="blur" stdDeviation="5"/>
      <feFlood flood-color="#000" flood-opacity=".05"/>
      <feComposite in2="blur" operator="in"/>
      <feComposite in="SourceGraphic"/>
    </filter>
    <filter id="drop-shadow-76" filterUnits="userSpaceOnUse">
      <feOffset dx="7" dy="7"/>
      <feGaussianBlur result="blur-2" stdDeviation="5"/>
      <feFlood flood-color="#000" flood-opacity=".05"/>
      <feComposite in2="blur-2" operator="in"/>
      <feComposite in="SourceGraphic"/>
    </filter>
  </defs>
  <circle class="cls-1" cx="110" cy="110" r="80"/>
  <rect class="cls-3" x="89.11" y="67" width="41.77" height="86" rx="2.97" ry="2.97" transform="translate(220 0) rotate(90)"/>
  <rect class="cls-8" x="44.14" y="64.8" width="130.92" height="93.52" rx="5.2" ry="5.2" transform="translate(219.21 223.11) rotate(180)"/>
  <g>
    <rect class="cls-6" x="117.51" y="54.49" width="42" height="30" rx="1.67" ry="1.67"/>
    <g>
      <path class="cls-2" d="m131.39,69.39c-.11.05-.22.1-.35.14-.12.04-.25.08-.39.11.27.06.51.15.73.26l2.2,1.15c.12.05.2.12.25.2.05.08.07.17.07.27v1.31l-5.39-2.82v-.73l5.39-2.81v1.31c0,.09-.02.18-.07.26-.05.08-.13.15-.25.2l-2.2,1.16Z"/>
      <path class="cls-2" d="m137.47,74.16c-.09.22-.22.39-.41.51-.19.11-.38.17-.57.17h-.79l3.89-10.05c.08-.2.2-.36.36-.47.17-.11.36-.17.57-.17h.79l-3.85,10.01Z"/>
      <path class="cls-2" d="m148.51,69.28v.73l-5.39,2.82v-1.31c0-.1.02-.19.07-.27.05-.08.13-.15.25-.2l2.2-1.15c.11-.05.23-.1.35-.14.12-.04.25-.08.39-.11-.14-.03-.27-.07-.39-.11-.12-.04-.24-.09-.35-.14l-2.2-1.16c-.12-.05-.2-.12-.25-.2-.05-.08-.07-.17-.07-.26v-1.31l5.39,2.81Z"/>
    </g>
  </g>
  <g>
    <rect class="cls-7" x="146.02" y="94.85" width="42" height="30" rx="1.67" ry="1.67"/>
    <g>
      <path class="cls-2" d="m159.9,109.74c-.11.05-.22.1-.35.14-.12.04-.25.08-.39.11.27.06.51.15.73.26l2.2,1.15c.12.05.2.12.25.2.05.08.07.17.07.27v1.31l-5.39-2.82v-.73l5.39-2.81v1.31c0,.09-.02.18-.07.26-.05.08-.13.15-.25.2l-2.2,1.16Z"/>
      <path class="cls-2" d="m165.98,114.51c-.09.22-.22.39-.41.51-.19.11-.38.17-.57.17h-.79l3.89-10.05c.08-.2.2-.36.36-.47.17-.11.36-.17.57-.17h.79l-3.85,10.01Z"/>
      <path class="cls-2" d="m177.02,109.63v.73l-5.39,2.82v-1.31c0-.1.02-.19.07-.27.05-.08.13-.15.25-.2l2.2-1.15c.11-.05.23-.1.35-.14.12-.04.25-.08.39-.11-.14-.03-.27-.07-.39-.11-.12-.04-.24-.09-.35-.14l-2.2-1.16c-.12-.05-.2-.12-.25-.2-.05-.08-.07-.17-.07-.26v-1.31l5.39,2.81Z"/>
    </g>
  </g>
  <g>
    <rect class="cls-4" x="60.49" y="133.99" width="42" height="30" rx="1.67" ry="1.67"/>
    <g>
      <path class="cls-2" d="m74.36,148.89c-.11.05-.22.1-.35.14-.12.04-.25.08-.39.11.27.06.51.15.73.26l2.2,1.15c.12.05.2.12.25.2.05.08.07.17.07.27v1.31l-5.39-2.82v-.73l5.39-2.81v1.31c0,.09-.02.18-.07.26-.05.08-.13.15-.25.2l-2.2,1.16Z"/>
      <path class="cls-2" d="m80.45,153.66c-.09.22-.22.39-.41.51-.19.11-.38.17-.57.17h-.79l3.89-10.05c.08-.2.2-.36.36-.47.17-.11.36-.17.57-.17h.79l-3.85,10.01Z"/>
      <path class="cls-2" d="m91.49,148.77v.73l-5.39,2.82v-1.31c0-.1.02-.19.07-.27.05-.08.13-.15.25-.2l2.2-1.15c.11-.05.23-.1.35-.14.12-.04.25-.08.39-.11-.14-.03-.27-.07-.39-.11-.12-.04-.24-.09-.35-.14l-2.2-1.16c-.12-.05-.2-.12-.25-.2-.05-.08-.07-.17-.07-.26v-1.31l5.39,2.81Z"/>
    </g>
  </g>
  <g>
    <rect class="cls-5" x="31.98" y="94.69" width="42" height="30" rx="1.67" ry="1.67"/>
    <g>
      <path class="cls-2" d="m45.85,109.59c-.11.05-.22.1-.35.14-.12.04-.25.08-.39.11.27.06.51.15.73.26l2.2,1.15c.12.05.2.12.25.2.05.08.07.17.07.27v1.31l-5.39-2.82v-.73l5.39-2.81v1.31c0,.09-.02.18-.07.26-.05.08-.13.15-.25.2l-2.2,1.16Z"/>
      <path class="cls-2" d="m51.93,114.36c-.09.22-.22.39-.41.51-.19.11-.38.17-.57.17h-.79l3.89-10.05c.08-.2.2-.36.36-.47.17-.11.36-.17.57-.17h.79l-3.85,10.01Z"/>
      <path class="cls-2" d="m62.98,109.47v.73l-5.39,2.82v-1.31c0-.1.02-.19.07-.27.05-.08.13-.15.25-.2l2.2-1.15c.11-.05.23-.1.35-.14.12-.04.25-.08.39-.11-.14-.03-.27-.07-.39-.11-.12-.04-.24-.09-.35-.14l-2.2-1.16c-.12-.05-.2-.12-.25-.2-.05-.08-.07-.17-.07-.26v-1.31l5.39,2.81Z"/>
    </g>
  </g>
  <g>
    <path class="cls-9" d="m123.27,99.33l-13.27,2.56-13.27-2.56c-.89-.17-1.72.51-1.72,1.42v15.86c0,.69.49,1.29,1.17,1.42l13.82,2.67,13.82-2.67c.68-.13,1.17-.73,1.17-1.42v-15.86c0-.91-.83-1.59-1.72-1.42Z"/>
    <line class="cls-9" x1="110" y1="101.92" x2="110" y2="120.7"/>
  </g>
</svg>