<svg id="Zitat" xmlns="http://www.w3.org/2000/svg" width="21.215" height="17.853" viewBox="0 0 21.215 17.853">
  <path id="Pfad_7304" data-name="Pfad 7304" d="M10.247,6.427a10.322,10.322,0,0,1-2.714,7.105A17.154,17.154,0,0,1,2,17.853l-.643-1.428A14.866,14.866,0,0,0,6.606,11.39a5.829,5.829,0,0,0,.75-2.785,1.191,1.191,0,0,0-.161-.625q-.161-.268-.768-.268-2.321.25-2.5.25a4.527,4.527,0,0,1-2.178-.5A3.492,3.492,0,0,1,0,4.07,4.333,4.333,0,0,1,1.053,1.3,4.041,4.041,0,0,1,4.392,0,5.245,5.245,0,0,1,8.605,1.964,6.766,6.766,0,0,1,10.247,6.427Z" transform="translate(21.215 17.853) rotate(180)" fill="currentColor"/>
  <path id="Pfad_7305" data-name="Pfad 7305" d="M10.247,6.427a10.322,10.322,0,0,1-2.714,7.105A17.154,17.154,0,0,1,2,17.853l-.643-1.428A14.866,14.866,0,0,0,6.606,11.39a5.829,5.829,0,0,0,.75-2.785,1.191,1.191,0,0,0-.161-.625q-.161-.268-.768-.268-2.321.25-2.5.25a4.527,4.527,0,0,1-2.178-.5A3.492,3.492,0,0,1,0,4.07,4.333,4.333,0,0,1,1.053,1.3,4.041,4.041,0,0,1,4.392,0,5.245,5.245,0,0,1,8.605,1.964,6.766,6.766,0,0,1,10.247,6.427Z" transform="translate(10.247 17.853) rotate(180)" fill="currentColor"/>
</svg>
