<svg width="24" height="24" viewBox="0 0 24 24" xmlns="http://www.w3.org/2000/svg"><path fill="currentColor" d="M5.291 16.364c.255 0 .5-.069.736-.207s.355-.302.355-.491a.57.57 0 0 0-.022-.12L4.32 8.891c-.058-.182-.191-.322-.398-.42s-.445-.147-.715-.147c-.269 0-.507.049-.715.147s-.34.238-.398.42L.065 15.546a.57.57 0 0 0-.022.12c0 .189.118.353.355.491s.482.207.736.207c.313 0 .498-.105.556-.316l.371-1.364h2.302l.371 1.364c.058.211.244.316.556.316zm-1.287-2.989H2.411l.796-2.924.796 2.924zm18.687 2.989c.153 0 .276-.076.371-.229s.142-.324.142-.513-.047-.36-.142-.513-.218-.229-.371-.229h-2.967L22.8 9.436c.124-.225.185-.425.185-.6 0-.298-.164-.447-.491-.447h-4.211c-.167 0-.295.073-.382.218s-.131.32-.131.524c0 .204.045.378.136.524s.216.218.376.218h2.531l-3.076 5.444a1.189 1.189 0 0 0-.185.6c0 .298.164.447.491.447h4.647zM11.967 9.24a.818.818 0 0 1 1.065-.079l.092.079 2.182 2.182c.488.488.186 1.305-.467 1.39l-.112.007H8.182a.818.818 0 0 1-.111-1.629l.111-.007h4.57l-.785-.785a.818.818 0 0 1-.079-1.065l.079-.092z"/><path fill="currentColor" d="M14.149 11.421a.817.817 0 0 1 1.236 1.065l-.079.092-2.182 2.182a.817.817 0 0 1-1.236-1.065l.079-.092 2.182-2.182z"/></svg>