<!-- Generated by IcoMoon.io -->
<svg version="1.1" xmlns="http://www.w3.org/2000/svg" width="24" height="24" viewBox="0 0 24 24">
<title>call</title>
<path fill="currentColor" d="M18.473 2.235c4.032 2.775 5.871 7.851 4.574 12.617-0.109 0.4-0.521 0.636-0.921 0.527s-0.636-0.521-0.527-0.921c1.13-4.153-0.472-8.575-3.977-10.987-3.5-2.408-8.119-2.278-11.482 0.325-3.369 2.607-4.727 7.113-3.371 11.196 1.322 3.982 4.937 6.69 9.040 6.814l0.299 0.004c4.63 0 7.057-2.54 5.368-4.258-0.29-0.295-0.287-0.77 0.009-1.061s0.77-0.287 1.061 0.009c2.886 2.934-0.606 6.685-6.158 6.807l-0.279 0.003c-4.876 0.002-9.206-3.157-10.763-7.846-1.556-4.685 0.003-9.857 3.877-12.855 3.879-3.002 9.213-3.153 13.25-0.374z"></path>
<path fill="currentColor" d="M8.039 4.194l-0.141 0.031c-1.572 0.507-2.643 1.977-2.662 3.646 0 2.085 1.411 4.539 3.781 6.991 2.336 2.416 4.818 3.895 6.894 3.895 1.661-0.019 3.111-1.111 3.608-2.705 0.149-0.818-0.149-1.36-0.685-1.762l-0.12-0.085c-0.041-0.028-0.088-0.058-0.152-0.099l-2.224-1.544c-0.789-0.497-1.777-0.328-2.342 0.355l-0.25 0.331c-0.020 0.029-0.031 0.047-0.037 0.059l-0.005 0.012c-0.277-0.072-0.856-0.512-1.757-1.429-0.838-0.852-1.267-1.421-1.38-1.734l-0.024-0.072c-0.001-0.004 0.011-0.005 0.085-0.063l0.23-0.188c0.724-0.514 0.937-1.572 0.445-2.381l-1.501-2.306c0 0-0.115-0.161-0.159-0.217-0.405-0.532-0.893-0.821-1.605-0.735zM8.275 5.682l0.018 0.003c0.044 0.012 0.081 0.053 0.158 0.154l0.119 0.162 1.464 2.251c0.073 0.12 0.036 0.305-0.093 0.396l-0.213 0.172c-1.17 0.962-0.906 2.032 1.15 4.122 2.011 2.045 3.086 2.378 4.009 1.278l0.228-0.295c0.109-0.156 0.272-0.19 0.397-0.111l2.221 1.542 0.202 0.135c0.127 0.095 0.144 0.125 0.129 0.209-0.281 0.881-1.163 1.545-2.162 1.556-1.569 0-3.727-1.286-5.807-3.438-2.125-2.197-3.36-4.346-3.36-5.94 0.011-0.958 0.592-1.812 1.457-2.166l0.082-0.031z"></path>
</svg>
