<!-- Generated by IcoMoon.io -->
<svg version="1.1" xmlns="http://www.w3.org/2000/svg" width="24" height="24" viewBox="0 0 24 24">
<title>copy</title>
<path fill="currentColor" d="M6.357 3.261c0.049 0.025 0.095 0.055 0.136 0.090-0.040-0.035-0.086-0.065-0.136-0.090zM6.737 1.728h13.697v9.848c0 0.424 0.342 0.768 0.765 0.768s0.765-0.344 0.765-0.768v-10.54c0-0.467-0.377-0.845-0.841-0.845h-15.073c-0.465 0-0.841 0.378-0.841 0.845v2.843c0 0.32 0.18 0.612 0.465 0.756 0.378 0.19 0.837 0.036 1.026-0.343 0.096-0.193 0.104-0.407 0.039-0.595v-1.969z"></path>
<path fill="currentColor" d="M20.434 19.392h-2.003c-0.422 0-0.765 0.344-0.765 0.768s0.342 0.768 0.765 0.768h2.691c0.465 0 0.841-0.378 0.841-0.845v-5.683c0-0.424-0.342-0.768-0.765-0.768s-0.765 0.344-0.765 0.768v4.992z"></path>
<path fill="currentColor" d="M5.208 12.928h4.205c0.422 0 0.765-0.358 0.765-0.8s-0.342-0.8-0.765-0.8h-4.205c-0.422 0-0.765 0.358-0.765 0.8s0.342 0.8 0.765 0.8z"></path>
<path fill="currentColor" d="M3.029 22.209v-17.325h14.637v9.516c0 0.424 0.342 0.768 0.765 0.768s0.765-0.344 0.765-0.768v-10.207c0-0.467-0.377-0.845-0.841-0.845h-16.014c-0.465 0-0.841 0.378-0.841 0.845v18.708c0 0.467 0.377 0.845 0.841 0.845h16.014c0.465 0 0.841-0.378 0.841-0.845v-5.621c0-0.424-0.342-0.768-0.765-0.768s-0.765 0.344-0.765 0.768v4.929h-14.637z"></path>
<path fill="currentColor" d="M5.208 9.856h8.736c0.422 0 0.765-0.358 0.765-0.8s-0.342-0.8-0.765-0.8h-8.736c-0.422 0-0.765 0.358-0.765 0.8s0.342 0.8 0.765 0.8z"></path>
</svg>
