<svg width="24" height="24" viewBox="0 0 24 24" xmlns="http://www.w3.org/2000/svg"><path fill="currentColor" d="M6.357 3.261zm.38-1.533h13.697v9.848c0 .424.342.768.765.768s.765-.344.765-.768V1.036a.843.843 0 0 0-.841-.845H6.05a.842.842 0 0 0-.841.845v2.843c0 .32.18.612.465.756A.763.763 0 0 0 6.7 4.292a.769.769 0 0 0 .039-.595V1.728zm13.697 17.664h-2.003c-.422 0-.765.344-.765.768s.342.768.765.768h2.691a.842.842 0 0 0 .841-.845V14.4c0-.424-.342-.768-.765-.768s-.765.344-.765.768v4.992zM5.208 12.928h4.205c.422 0 .765-.358.765-.8s-.342-.8-.765-.8H5.208c-.422 0-.765.358-.765.8s.342.8.765.8z"/><path fill="currentColor" d="M3.029 22.209V4.884h14.637V14.4c0 .424.342.768.765.768s.765-.344.765-.768V4.193a.843.843 0 0 0-.841-.845H2.341a.842.842 0 0 0-.841.845v18.708c0 .467.377.845.841.845h16.014a.842.842 0 0 0 .841-.845V17.28c0-.424-.342-.768-.765-.768s-.765.344-.765.768v4.929H3.029z"/><path fill="currentColor" d="M5.208 9.856h8.736c.422 0 .765-.358.765-.8s-.342-.8-.765-.8H5.208c-.422 0-.765.358-.765.8s.342.8.765.8z"/></svg>