<svg xmlns="http://www.w3.org/2000/svg" width="26" height="15" viewBox="0 0 26 15">
  <g id="WYS" transform="translate(1)">
    <g id="edit-text" transform="translate(10.188)">
      <g transform="translate(0 0)">
        <g id="g13" transform="translate(0)">
          <path id="Shape" d="M10.883.167A.574.574,0,0,1,10.955.9l-.067.08L4,7.91l-.1.114a1.594,1.594,0,0,0,0,1.992l.107.12A.574.574,0,0,1,4,10.951a.583.583,0,0,1-.821-.007,2.733,2.733,0,0,1-.776-2.2l.008-.063L2.3,8.7l-.215.009A2.7,2.7,0,0,1,.167,7.9a.574.574,0,0,1,.007-.816A.583.583,0,0,1,.994,7.1a1.528,1.528,0,0,0,2.067.1l.121-.112L10.063.171A.583.583,0,0,1,10.883.167Z" transform="translate(0.927 2.946)" fill="currentColor"/>
          <path id="Combined_Shape" d="M10.332.7a2.446,2.446,0,0,1,3.622.218A3.111,3.111,0,0,1,14.8,2.374a.58.58,0,0,1-1.1.363l-.033-.1a1.972,1.972,0,0,0-.539-.907c-.631-.636-1.334-.75-1.864-.313l-.1.095L2.034,10.735l-.678,2.91,2.862-.681L8.986,8.169,12.1,5A.583.583,0,0,1,12.922,5a.574.574,0,0,1,.009.816L9.364,9.435,4.928,13.892a.58.58,0,0,1-.176.121l-.1.034-3.934.936a.58.58,0,0,1-.715-.6l.014-.1.927-3.976a.575.575,0,0,1,.084-.193l.067-.082Z" fill="currentColor"/>
        </g>
      </g>
    </g>
    <line id="l26" x2="14" transform="translate(0 2.605)" fill="none" stroke="currentColor" stroke-linecap="round" stroke-width="2"/>
    <line id="l27" x2="9" transform="translate(0 7.551)" fill="none" stroke="currentColor" stroke-linecap="round" stroke-width="2"/>
    <line id="l28" x2="6" transform="translate(0 12.496)" fill="none" stroke="currentColor" stroke-linecap="round" stroke-width="2"/>
  </g>
</svg>
