<!-- Generated by IcoMoon.io -->
<svg version="1.1" xmlns="http://www.w3.org/2000/svg" width="24" height="24" viewBox="0 0 24 24">
<title>status_abwesend</title>
<path fill="none" stroke="currentColor" stroke-width="1.3846" stroke-miterlimit="4" stroke-linecap="butt" stroke-linejoin="miter" d="M23.077 12c0 6.118-4.959 11.077-11.077 11.077s-11.077-4.959-11.077-11.077c0-6.118 4.959-11.077 11.077-11.077s11.077 4.959 11.077 11.077z"></path>
<path fill="none" stroke="currentColor" stroke-width="1.3846" stroke-miterlimit="4" stroke-linecap="butt" stroke-linejoin="miter" d="M11.815 6.079c3.296-1.499 5.761-1.25 6.357 1.793 0.393 2.007-0.32 2.354-2.138 1.042"></path>
<path fill="none" stroke="currentColor" stroke-width="1.3846" stroke-miterlimit="4" stroke-linecap="butt" stroke-linejoin="miter" d="M12.738 6.923c2.462 0.164 3.692 1.307 3.692 3.429 0 1.925-1.013 1.508-3.039-1.252"></path>
<path fill="none" stroke="currentColor" stroke-width="1.3846" stroke-miterlimit="4" stroke-linecap="butt" stroke-linejoin="miter" d="M10.892 6.923c-2.462 0.164-3.692 1.307-3.692 3.429 0 1.925 1.013 1.508 3.039-1.252"></path>
<path fill="none" stroke="currentColor" stroke-width="1.3846" stroke-miterlimit="4" stroke-linecap="butt" stroke-linejoin="miter" d="M12 5.973c-3.296-1.499-5.946-1.144-6.541 1.899-0.393 2.007 0.32 2.354 2.138 1.042"></path>
<path fill="none" stroke="currentColor" stroke-width="1.3846" stroke-miterlimit="4" stroke-linecap="butt" stroke-linejoin="round" d="M12 12.462c-2.462-3.692-2.462-5.538 0-5.538s2.462 1.846 0 5.538z"></path>
<path fill="none" stroke="currentColor" stroke-width="1.3846" stroke-miterlimit="4" stroke-linecap="round" stroke-linejoin="round" d="M11.077 11.538l-0.923 7.385h3.692l-0.923-7.385"></path>
</svg>
