<!-- Generated by IcoMoon.io -->
<svg version="1.1" xmlns="http://www.w3.org/2000/svg" width="24" height="24" viewBox="0 0 24 24">
<title>status_offboarding_laufend</title>
<path fill="none" stroke="currentColor" stroke-width="1.3846" stroke-miterlimit="4" stroke-linecap="butt" stroke-linejoin="miter" d="M23.077 12c0 6.118-4.959 11.077-11.077 11.077s-11.077-4.959-11.077-11.077c0-6.118 4.959-11.077 11.077-11.077s11.077 4.959 11.077 11.077z"></path>
<path fill="none" stroke="currentColor" stroke-width="1.3846" stroke-miterlimit="4" stroke-linecap="round" stroke-linejoin="round" d="M13.846 16.185l-4.996 2.277-2.389-1.224 4.039-3.392"></path>
<path fill="none" stroke="currentColor" stroke-width="1.3846" stroke-miterlimit="4" stroke-linecap="round" stroke-linejoin="round" d="M16.661 11.375l-0.303-5.302-2.23-1.457-0.996 5.382"></path>
<path fill="none" stroke="currentColor" stroke-width="1.3846" stroke-miterlimit="4" stroke-linecap="round" stroke-linejoin="round" d="M6.462 5.538l1.538 2.661 8.997 3.441c2.046 0.826 3.583 2.027 2.389 4.066"></path>
<path fill="none" stroke="currentColor" stroke-width="1.3846" stroke-miterlimit="4" stroke-linecap="round" stroke-linejoin="round" d="M5.2 7.385l-1.508 2.653 2.986-0.017 8.462 6.733c1.682 1.322 3.096 0.973 4.244-1.048"></path>
</svg>
