<svg width="24" height="24" viewBox="0 0 24 24" xmlns="http://www.w3.org/2000/svg"><path fill="currentColor" d="M1.93 15.741c.365 0 .666.271.713.622l.007.098v2.724c0 .748.292 1.465.811 1.993.47.477 1.09.764 1.746.812l.198.007h2.697A.72.72 0 0 1 8.2 23.43l-.098.007H5.405a4.165 4.165 0 0 1-2.97-1.25 4.278 4.278 0 0 1-1.218-2.778l-.006-.224v-2.724a.72.72 0 0 1 .72-.72zm20.44-.011a.72.72 0 0 1 .713.622l.007.098v2.734c0 1.125-.44 2.205-1.224 3.002a4.172 4.172 0 0 1-2.747 1.244l-.222.006H16.23a.72.72 0 0 1-.098-1.433l.098-.007h2.667a2.72 2.72 0 0 0 1.943-.82 2.831 2.831 0 0 0 .803-1.79l.007-.203v-2.734a.72.72 0 0 1 .72-.72zM8.135 1.209a.72.72 0 0 1 .098 1.433l-.098.007H5.404c-1.464 0-2.665 1.168-2.749 2.647l-.005.165v2.731a.72.72 0 0 1-1.433.098l-.007-.098V5.461c0-2.277 1.766-4.139 3.991-4.247l.203-.005h2.731zm10.761 0c2.251 0 4.083 1.796 4.189 4.046l.005.206v2.684a.72.72 0 0 1-1.433.098l-.007-.098V5.461c0-1.5-1.149-2.722-2.592-2.807l-.162-.005h-2.645a.72.72 0 0 1-.098-1.433l.098-.007h2.646z"/><path fill="currentColor" d="m10.077 17.718.097.01c.36.06.612.377.602.731l-.01.097-.707 4.245a.72.72 0 0 1-1.43-.139l.01-.097.707-4.245a.72.72 0 0 1 .635-.598l.096-.003zm4.854.503.023.095.725 4.225a.72.72 0 0 1-1.396.338l-.023-.095-.725-4.225a.72.72 0 0 1 1.362-.428l.035.089zm3.281-4.469.097.011 4.124.732a.72.72 0 0 1-.154 1.429l-.097-.011-4.124-.732a.72.72 0 0 1 .059-1.426l.096-.002zm-11.385.594a.719.719 0 0 1-.488.811l-.095.024-4.124.732a.72.72 0 0 1-.347-1.394l.095-.024 4.124-.732a.72.72 0 0 1 .835.583zm16.207-4.978a.72.72 0 0 1-.492.809l-.095.023-4.148.713a.721.721 0 0 1-.34-1.397l.095-.023 4.148-.713a.721.721 0 0 1 .832.588zM1.973 8.765l.097.01 4.147.713a.72.72 0 0 1-.146 1.43l-.097-.01-4.147-.713a.72.72 0 0 1 .051-1.427l.096-.003zm13.022-7.474.097.01c.359.062.61.38.598.734l-.01.097-.722 4.206a.72.72 0 0 1-1.429-.146l.01-.097.722-4.206a.72.72 0 0 1 .638-.595l.096-.003zm-4.978.454.023.095.723 4.251a.719.719 0 0 1-1.397.336l-.023-.095-.723-4.251a.719.719 0 0 1 1.362-.425l.035.089z"/><path fill="currentColor" d="M12.151.854C5.91.854.855 5.993.855 12.326S5.91 23.798 12.151 23.798s11.296-5.139 11.296-11.472S18.392.854 12.151.854zm0 1.44c5.44 0 9.856 4.489 9.856 10.032s-4.415 10.032-9.856 10.032c-5.44 0-9.856-4.489-9.856-10.032S6.71 2.294 12.151 2.294z"/><path fill="currentColor" d="M12.151 5.155c-3.905 0-7.065 3.213-7.065 7.171s3.161 7.171 7.065 7.171c3.905 0 7.065-3.213 7.065-7.171s-3.161-7.171-7.065-7.171zm0 1.44c3.104 0 5.625 2.563 5.625 5.731s-2.521 5.731-5.625 5.731-5.625-2.563-5.625-5.731 2.521-5.731 5.625-5.731z"/></svg>