<svg width="14" height="15" xmlns="http://www.w3.org/2000/svg">
  <g fill="#0D10F3" fill-rule="nonzero">
    <path d="M8.484 2l-.475.807H.824v8.885h1.954l-.475.807-1.48.001a.818.818 0 01-.817-.706L0 11.692V2.808C0 2.362.369 2 .824 2h7.66zm4.692 0c.455 0 .824.362.824.808v8.884a.816.816 0 01-.824.808l-8.021-.001.475-.807h7.546V2.808l-2.314-.001.475-.807z"/>
    <path d="M9.95 8.29l2.336 1.92c.296.213.224.522.142.626-.083.103-.293.29-.616.038-.215-.169-.91-.74-2.083-1.715l-1.073 1.05c-.222.166-.417.078-.562-.031l-.821-.695.398-.731.71.604.99-.985c.258-.254.44-.2.579-.08zM4.613 6.153l1.199 1.02-.4.734-1.067-.905L2.209 9.41c-.259.273-.505.123-.594.056-.153-.188-.153-.393 0-.616l2.389-2.698c.219-.203.295-.203.609 0zM10.36 4A1.882 1.882 0 018.501 7.22l.483-.837a.941.941 0 00.891-1.545zM10.22.235c0-.042.268-.394.627-.149.223.153.268.378.135.676l-8.1 13.952s-.283.448-.648.223c-.243-.15-.297-.36-.162-.631L10.22.236z"/>
  </g>
</svg>
