<svg width="14" height="15" viewBox="0 0 14 15" xmlns="http://www.w3.org/2000/svg"><g fill="currentColor"><path d="m8.484 2-.475.807H.824v8.885h1.954l-.475.807-1.48.001a.818.818 0 0 1-.817-.706L0 11.692V2.808C0 2.362.369 2 .824 2h7.66Zm4.692 0c.455 0 .824.362.824.808v8.884a.816.816 0 0 1-.824.808l-8.021-.001.475-.807h7.546V2.808l-2.314-.001.475-.807Z"/><path d="m9.95 8.29 2.336 1.92c.296.213.224.522.142.626-.083.103-.293.29-.616.038-.215-.169-.91-.74-2.083-1.715l-1.073 1.05c-.222.166-.417.078-.562-.031l-.821-.695.398-.731.71.604.99-.985c.258-.254.44-.2.579-.08ZM4.613 6.153l1.199 1.02-.4.734-1.067-.905L2.209 9.41c-.259.273-.505.123-.594.056-.153-.188-.153-.393 0-.616l2.389-2.698c.219-.203.295-.203.609 0ZM10.36 4a1.882 1.882 0 0 1-1.859 3.22l.483-.837a.941.941 0 0 0 .891-1.545ZM10.22.235c0-.042.268-.394.627-.149.223.153.268.378.135.676l-8.1 13.952s-.283.448-.648.223c-.243-.15-.297-.36-.162-.631L10.22.236Z"/></g></svg>