<!-- Generated by IcoMoon.io -->
<svg version="1.1" xmlns="http://www.w3.org/2000/svg" width="24" height="24" viewBox="0 0 24 24">
<title>remove</title>
<path fill="currentColor" d="M1.92 4.54c-0.398 0-0.72-0.322-0.72-0.72 0-0.365 0.271-0.666 0.622-0.713l0.098-0.007 5.278-0.001 0-0.771c0-1.137 0.902-2.059 2.033-2.134l0.149-0.005h4.574c1.15 0 2.1 0.875 2.177 1.992l0.005 0.147-0 0.771 5.279 0.001c0.398 0 0.72 0.322 0.72 0.72 0 0.365-0.271 0.666-0.622 0.713l-0.098 0.007h-19.495zM13.955 1.629h-4.574c-0.38 0-0.687 0.267-0.735 0.605l-0.007 0.094-0 0.771h6.059l0-0.771c0-0.349-0.275-0.645-0.64-0.692l-0.102-0.006z"></path>
<path fill="currentColor" d="M4.066 3.404c-0.364 0.023-0.647 0.312-0.673 0.666l-0 0.098 1.086 17.104c0.027 1.313 1.066 2.373 2.39 2.48l0.167 0.008h9.537c1.333-0.026 2.425-1.035 2.533-2.298l0.895-14.136c0.025-0.397-0.276-0.739-0.673-0.764s-0.739 0.276-0.764 0.673l-0.888 14.008c-0.011 0.546-0.443 1.001-0.997 1.069l-0.12 0.009-9.509 0c-0.583-0.011-1.053-0.43-1.123-0.987l-1.096-17.256c-0.025-0.397-0.367-0.698-0.764-0.673z"></path>
<path fill="currentColor" d="M9.231 7.768c0.364 0 0.666 0.271 0.713 0.622l0.007 0.098v9.701c0 0.398-0.322 0.72-0.72 0.72-0.364 0-0.666-0.271-0.713-0.622l-0.007-0.098v-9.701c0-0.398 0.322-0.72 0.72-0.72z"></path>
<path fill="currentColor" d="M14.105 7.768c0.364 0 0.666 0.271 0.713 0.622l0.007 0.098v9.701c0 0.398-0.322 0.72-0.72 0.72-0.364 0-0.666-0.271-0.713-0.622l-0.007-0.098v-9.701c0-0.398 0.322-0.72 0.72-0.72z"></path>
</svg>
