<!-- Generated by IcoMoon.io -->
<svg version="1.1" xmlns="http://www.w3.org/2000/svg" width="24" height="24" viewBox="0 0 24 24">
<title>settings</title>
<path fill="none" stroke="currentColor" stroke-width="1.44" stroke-miterlimit="4" stroke-linecap="round" stroke-linejoin="round" d="M9.541 2.753c-0.772 0.22-1.509 0.53-2.201 0.928l-1.1-0.732c-0.66 0.411-1.264 0.89-1.787 1.415-0.518 0.514-0.995 1.118-1.415 1.785l0.725 1.099c-0.42 0.722-0.746 1.498-0.971 2.313l-1.329 0.269c-0.177 0.765-0.266 1.529-0.264 2.263-0.002 0.731 0.087 1.495 0.261 2.261l1.299 0.267c0.217 0.828 0.529 1.61 0.935 2.331l-0.746 1.121c0.415 0.66 0.892 1.264 1.417 1.785 0.515 0.519 1.119 0.997 1.784 1.414l1.078-0.712c0.734 0.438 1.519 0.775 2.343 1.008l0.259 1.279c0.757 0.175 1.517 0.264 2.271 0.264 0.73 0 1.49-0.088 2.251-0.26l0.251-1.215c0.862-0.217 1.675-0.541 2.429-0.966l1.038 0.692c0.66-0.41 1.263-0.889 1.787-1.414 0.521-0.522 0.998-1.124 1.415-1.785l-0.657-1.001c0.453-0.757 0.803-1.577 1.038-2.44l1.198-0.24c0.172-0.758 0.26-1.525 0.26-2.261 0.002-0.738-0.087-1.503-0.262-2.263l-1.163-0.239c-0.224-0.869-0.561-1.693-1.003-2.457l0.679-1.019c-0.413-0.662-0.892-1.265-1.416-1.789-0.522-0.522-1.125-0.999-1.782-1.413l-1.021 0.671c-0.747-0.438-1.558-0.774-2.411-1.001l-0.253-1.254c-1.431-0.277-2.686-0.574-4.938 1.299z"></path>
<path fill="none" stroke="currentColor" stroke-width="1.44" stroke-miterlimit="4" stroke-linecap="round" stroke-linejoin="round" d="M15.567 12.155c0 1.884-1.527 3.412-3.412 3.412s-3.412-1.527-3.412-3.412c0-1.884 1.527-3.412 3.412-3.412s3.412 1.527 3.412 3.412z"></path>
</svg>
