<svg width="24" height="24" viewBox="0 0 24 24" xmlns="http://www.w3.org/2000/svg"><path fill="currentColor" d="M5.684 16.364v-1.107H4.315V8.444H3.077L.644 10.506l.475.638a.47.47 0 0 0 .469.157.552.552 0 0 0 .213-.104l1.036-.862a7.956 7.956 0 0 0-.021.589v4.331H1.245v1.107h4.44zm14.171 0c.175 0 .33-.033.466-.098s.241-.145.314-.24l1.762-2.515c.135-.185.255-.375.363-.567s.199-.391.275-.595c.076-.204.135-.418.175-.644s.06-.464.06-.715c0-.385-.062-.739-.185-1.061s-.3-.599-.529-.832c-.229-.233-.509-.414-.84-.543s-.704-.194-1.118-.194c-.411 0-.785.069-1.121.207s-.625.325-.865.559c-.24.235-.425.509-.556.824s-.196.648-.196 1.001c0 .385.064.721.191 1.006s.295.523.502.712c.207.189.441.331.701.425s.523.142.788.142c.229 0 .446-.026.652-.079s.395-.13.57-.232l-.153.196-.158.202-2.482 3.038h1.385zm.72-4.239c-.396 0-.697-.109-.903-.327s-.308-.536-.308-.955c0-.182.028-.351.085-.507s.137-.292.243-.406c.105-.115.233-.204.382-.267s.318-.095.507-.095c.185 0 .355.028.507.085s.285.139.395.248c.111.109.197.243.259.401s.093.341.093.548c0 .185-.028.356-.085.513s-.137.291-.243.404c-.105.113-.237.201-.395.265s-.337.095-.537.095zM11.967 9.24a.818.818 0 0 1 1.065-.079l.092.079 2.182 2.182c.488.488.186 1.305-.467 1.39l-.112.007H8.182a.818.818 0 0 1-.111-1.629l.111-.007h4.57l-.785-.785a.818.818 0 0 1-.079-1.065l.079-.092z"/><path fill="currentColor" d="M14.149 11.421a.817.817 0 0 1 1.236 1.065l-.079.092-2.182 2.182a.817.817 0 0 1-1.236-1.065l.079-.092 2.182-2.182z"/></svg>