<svg width="24" height="24" viewBox="0 0 24 24" xmlns="http://www.w3.org/2000/svg"><path fill="none" stroke="currentColor" stroke-width="1.385" d="M23.077 12c0 6.118-4.959 11.077-11.077 11.077S.923 18.118.923 12 5.882.923 12 .923 23.077 5.882 23.077 12z"/><path fill="none" stroke="currentColor" stroke-width="1.385" d="M11.815 6.079c3.296-1.499 5.761-1.25 6.357 1.793.393 2.007-.32 2.354-2.138 1.042"/><path fill="none" stroke="currentColor" stroke-width="1.385" d="M12.738 6.923c2.462.164 3.692 1.307 3.692 3.429 0 1.925-1.013 1.508-3.039-1.252m-2.499-2.177C8.43 7.087 7.2 8.23 7.2 10.352c0 1.925 1.013 1.508 3.039-1.252"/><path fill="none" stroke="currentColor" stroke-width="1.385" d="M12 5.973C8.704 4.474 6.054 4.829 5.459 7.872c-.393 2.007.32 2.354 2.138 1.042"/><path fill="none" stroke="currentColor" stroke-linejoin="round" stroke-width="1.385" d="M12 12.462C9.538 8.77 9.538 6.924 12 6.924s2.462 1.846 0 5.538z"/><path fill="none" stroke="currentColor" stroke-linecap="round" stroke-linejoin="round" stroke-width="1.385" d="m11.077 11.538-.923 7.385h3.692l-.923-7.385"/></svg>