<svg width="24" height="24" viewBox="0 0 24 24" xmlns="http://www.w3.org/2000/svg"><path fill="none" stroke="currentColor" stroke-width="1.385" d="M23.077 12c0 6.118-4.959 11.077-11.077 11.077S.923 18.118.923 12 5.882.923 12 .923 23.077 5.882 23.077 12z"/><path fill="none" stroke="currentColor" stroke-linecap="round" stroke-linejoin="round" stroke-width="1.385" d="M13.846 16.185 8.85 18.462l-2.389-1.224 4.039-3.392m6.161-2.471-.303-5.302-2.23-1.457-.996 5.382"/><path fill="none" stroke="currentColor" stroke-linecap="round" stroke-linejoin="round" stroke-width="1.385" d="M6.462 5.538 8 8.199l8.997 3.441c2.046.826 3.583 2.027 2.389 4.066M5.2 7.385l-1.508 2.653 2.986-.017 8.462 6.733c1.682 1.322 3.096.973 4.244-1.048"/></svg>