<svg width="277" height="392" viewBox="0 0 277 392" fill="none" xmlns="http://www.w3.org/2000/svg">
<g opacity="0.3">
<path d="M296.199 225.28C300.341 218.105 297.883 208.931 290.709 204.789L232.685 171.289L227.185 180.815C221.938 189.903 225.052 201.523 234.139 206.77L275.709 230.77C282.883 234.912 292.057 232.454 296.199 225.28Z" stroke="#BECCFF" stroke-width="2"/>
<path d="M216.199 363.844C220.341 356.669 217.883 347.495 210.709 343.353L152.685 309.853L147.185 319.38C141.938 328.467 145.052 340.087 154.139 345.334L195.709 369.334C202.883 373.476 212.057 371.018 216.199 363.844Z" stroke="#BECCFF" stroke-width="2"/>
<path d="M59.8558 42.6385C55.7136 49.8129 58.1718 58.9867 65.3462 63.1288L123.37 96.6289L128.87 87.1026C134.117 78.015 131.003 66.3948 121.915 61.1481L80.3462 37.1481C73.1718 33.006 63.9979 35.4641 59.8558 42.6385Z" stroke="#BECCFF" stroke-width="2"/>
<path d="M-20.1442 181.203C-24.2864 188.377 -21.8282 197.551 -14.6538 201.693L43.3698 235.193L48.8698 225.667C54.1166 216.579 51.0029 204.959 41.9154 199.712L0.346152 175.712C-6.82824 171.57 -16.0021 174.028 -20.1442 181.203Z" stroke="#BECCFF" stroke-width="2"/>
<path d="M179.53 19.3565C175.388 26.5309 177.846 35.7047 185.02 39.8469L243.044 73.3469L248.544 63.8206C253.791 54.733 250.677 43.1128 241.59 37.8661L200.02 13.8661C192.846 9.72397 183.672 12.1821 179.53 19.3565Z" stroke="#BECCFF" stroke-width="2"/>
<path d="M99.5301 157.921C95.388 165.095 97.8461 174.269 105.02 178.411L163.044 211.911L168.544 202.385C173.791 193.297 170.677 181.677 161.59 176.43L120.02 152.43C112.846 148.288 103.672 150.746 99.5301 157.921Z" stroke="#BECCFF" stroke-width="2"/>
<path d="M19.5301 296.485C15.388 303.659 17.8461 312.833 25.0205 316.975L83.0442 350.475L88.5442 340.949C93.7909 331.861 90.6772 320.241 81.5897 314.994L40.0205 290.994C32.8461 286.852 23.6722 289.31 19.5301 296.485Z" stroke="#BECCFF" stroke-width="2"/>
<path d="M221.884 89.9975C226.026 82.8231 223.568 73.6493 216.394 69.5071L158.37 36.0071L152.87 45.5334C147.623 54.621 150.737 66.2412 159.824 71.4879L201.394 95.4879C208.568 99.63 217.742 97.1719 221.884 89.9975Z" stroke="#BECCFF" stroke-width="2"/>
<path d="M141.884 228.562C146.026 221.387 143.568 212.213 136.394 208.071L78.3699 174.571L72.8699 184.098C67.6232 193.185 70.7368 204.805 79.8244 210.052L121.394 234.052C128.568 238.194 137.742 235.736 141.884 228.562Z" stroke="#BECCFF" stroke-width="2"/>
<path d="M61.884 367.126C66.0261 359.951 63.568 350.777 56.3936 346.635L-1.6301 313.135L-7.1301 322.662C-12.3768 331.749 -9.26318 343.369 -0.175627 348.616L41.3936 372.616C48.568 376.758 57.7418 374.3 61.884 367.126Z" stroke="#BECCFF" stroke-width="2"/>
<path d="M170.87 14.3567C175.012 7.18226 172.554 -1.9916 165.379 -6.13373L107.356 -39.6337L101.856 -30.1075C96.609 -21.0199 99.7227 -9.39967 108.81 -4.15297L150.379 19.847C157.554 23.9892 166.728 21.531 170.87 14.3567Z" stroke="#BECCFF" stroke-width="2"/>
<path d="M90.8698 152.921C95.012 145.746 92.5538 136.572 85.3794 132.43L27.3557 98.9302L21.8557 108.457C16.609 117.544 19.7227 129.164 28.8102 134.411L70.3794 158.411C77.5538 162.553 86.7277 160.095 90.8698 152.921Z" stroke="#BECCFF" stroke-width="2"/>
<path d="M10.8698 291.485C15.012 284.31 12.5538 275.136 5.37943 270.994L-52.6443 237.494L-58.1443 247.02C-63.391 256.108 -60.2773 267.728 -51.1898 272.975L-9.62057 296.975C-2.44618 301.117 6.72768 298.659 10.8698 291.485Z" stroke="#BECCFF" stroke-width="2"/>
<path d="M230.544 94.9976C226.402 102.172 228.86 111.346 236.035 115.488L294.058 148.988L299.558 139.462C304.805 130.374 301.691 118.754 292.604 113.507L251.035 89.5072C243.86 85.3651 234.686 87.8232 230.544 94.9976Z" stroke="#BECCFF" stroke-width="2"/>
<path d="M150.544 233.562C146.402 240.736 148.86 249.91 156.035 254.052L214.058 287.552L219.558 278.026C224.805 268.938 221.691 257.318 212.604 252.071L171.035 228.071C163.86 223.929 154.686 226.387 150.544 233.562Z" stroke="#BECCFF" stroke-width="2"/>
<path d="M70.5442 372.126C66.4021 379.3 68.8602 388.474 76.0346 392.616L134.058 426.116L139.558 416.59C144.805 407.502 141.691 395.882 132.604 390.635L91.0346 366.635C83.8602 362.493 74.6864 364.951 70.5442 372.126Z" stroke="#BECCFF" stroke-width="2"/>
<path d="M-3.4455 52.2796C-7.58763 59.454 -5.12951 68.6278 2.04488 72.77L60.0686 106.27L65.5686 96.7437C70.8153 87.6561 67.7017 76.0359 58.6141 70.7892L17.0449 46.7892C9.87049 42.6471 0.696639 45.1052 -3.4455 52.2796Z" stroke="#BECCFF" stroke-width="2"/>
<path d="M224.859 368.844C220.717 376.018 223.175 385.192 230.35 389.334L288.373 422.834L293.873 413.308C299.12 404.22 296.006 392.6 286.919 387.353L245.35 363.353C238.175 359.211 229.001 361.669 224.859 368.844Z" stroke="#BECCFF" stroke-width="2"/>
<path d="M51.1955 37.6386C55.3376 30.4642 52.8795 21.2904 45.7051 17.1482L-12.3186 -16.3518L-17.8186 -6.82548C-23.0653 2.26207 -19.9517 13.8823 -10.8641 19.129L30.7051 43.129C37.8795 47.2711 47.0534 44.813 51.1955 37.6386Z" stroke="#BECCFF" stroke-width="2"/>
<path d="M279.5 354.203C283.642 347.028 281.184 337.854 274.01 333.712L215.986 300.212L210.486 309.738C205.239 318.826 208.353 330.446 217.441 335.693L259.01 359.693C266.184 363.835 275.358 361.377 279.5 354.203Z" stroke="#BECCFF" stroke-width="2"/>
<path d="M213.846 223.921C217.988 216.746 227.162 214.288 234.336 218.43L292.36 251.93L286.86 261.457C281.613 270.544 269.993 273.658 260.905 268.411L219.336 244.411C212.162 240.269 209.703 231.095 213.846 223.921Z" stroke="#BECCFF" stroke-width="2"/>
<path d="M133.846 362.485C137.988 355.31 147.162 352.852 154.336 356.994L212.36 390.494L206.86 400.02C201.613 409.108 189.993 412.222 180.905 406.975L139.336 382.975C132.162 378.833 129.703 369.659 133.846 362.485Z" stroke="#BECCFF" stroke-width="2"/>
<path d="M107.569 23.9976C103.426 31.172 94.2526 33.6301 87.0782 29.488L29.0545 -4.01203L34.5545 -13.5383C39.8012 -22.6259 51.4214 -25.7395 60.509 -20.4928L102.078 3.50722C109.253 7.64935 111.711 16.8232 107.569 23.9976Z" stroke="#BECCFF" stroke-width="2"/>
<path d="M27.5685 162.562C23.4264 169.736 14.2526 172.194 7.07817 168.052L-50.9455 134.552L-45.4455 125.026C-40.1988 115.938 -28.5786 112.824 -19.491 118.071L22.0782 142.071C29.2526 146.213 31.7107 155.387 27.5685 162.562Z" stroke="#BECCFF" stroke-width="2"/>
<path d="M335.873 340.562C331.731 347.736 322.557 350.194 315.383 346.052L257.359 312.552L262.859 303.026C268.106 293.938 279.726 290.824 288.814 296.071L330.383 320.071C337.557 324.213 340.015 333.387 335.873 340.562Z" stroke="#BECCFF" stroke-width="2"/>
<path d="M261.884 20.7156C257.742 27.89 248.568 30.3481 241.394 26.206L183.37 -7.29401L188.87 -16.8203C194.117 -25.9078 205.737 -29.0215 214.824 -23.7748L256.394 0.225236C263.568 4.36737 266.026 13.5412 261.884 20.7156Z" stroke="#BECCFF" stroke-width="2"/>
<path d="M181.884 159.28C177.742 166.454 168.568 168.912 161.394 164.77L103.37 131.27L108.87 121.744C114.117 112.656 125.737 109.542 134.824 114.789L176.394 138.789C183.568 142.931 186.026 152.105 181.884 159.28Z" stroke="#BECCFF" stroke-width="2"/>
<path d="M101.884 297.844C97.7418 305.018 88.568 307.476 81.3936 303.334L23.3699 269.834L28.8699 260.308C34.1166 251.22 45.7368 248.106 54.8244 253.353L96.3936 277.353C103.568 281.495 106.026 290.669 101.884 297.844Z" stroke="#BECCFF" stroke-width="2"/>
<path d="M174.171 108.639C178.313 101.464 187.487 99.0061 194.662 103.148L252.685 136.648L247.185 146.175C241.939 155.262 230.318 158.376 221.231 153.129L179.662 129.129C172.487 124.987 170.029 115.813 174.171 108.639Z" stroke="#BECCFF" stroke-width="2"/>
<path d="M94.1712 247.203C98.3133 240.028 107.487 237.57 114.662 241.712L172.685 275.212L167.185 284.739C161.939 293.826 150.318 296.94 141.231 291.693L99.6616 267.693C92.4872 263.551 90.0291 254.377 94.1712 247.203Z" stroke="#BECCFF" stroke-width="2"/>
<path d="M14.1712 385.767C18.3133 378.592 27.4872 376.134 34.6616 380.276L92.6853 413.776L87.1853 423.303C81.9386 432.39 70.3183 435.504 61.2308 430.257L19.6616 406.257C12.4872 402.115 10.0291 392.941 14.1712 385.767Z" stroke="#BECCFF" stroke-width="2"/>
<path d="M270.544 25.7155C274.686 18.5411 283.86 16.083 291.035 20.2252L304.025 27.7252L296.525 40.7155C292.383 47.8899 283.209 50.3481 276.035 46.2059C268.86 42.0638 266.402 32.8899 270.544 25.7155Z" stroke="#BECCFF" stroke-width="2"/>
<path d="M190.544 164.28C194.686 157.105 203.86 154.647 211.035 158.789L224.025 166.289L216.525 179.28C212.383 186.454 203.209 188.912 196.035 184.77C188.86 180.628 186.402 171.454 190.544 164.28Z" stroke="#BECCFF" stroke-width="2"/>
<path d="M110.544 302.844C114.686 295.669 123.86 293.211 131.035 297.353L144.025 304.853L136.525 317.844C132.383 325.018 123.209 327.476 116.035 323.334C108.86 319.192 106.402 310.018 110.544 302.844Z" stroke="#BECCFF" stroke-width="2"/>
<path d="M165.511 103.638C161.369 110.813 152.195 113.271 145.021 109.129L132.03 101.629L139.53 88.6385C143.672 81.4641 152.846 79.006 160.021 83.1481C167.195 87.2902 169.653 96.4641 165.511 103.638Z" stroke="#BECCFF" stroke-width="2"/>
<path d="M85.5109 242.203C81.3688 249.377 72.1949 251.835 65.0205 247.693L52.0302 240.193L59.5302 227.203C63.6723 220.028 72.8462 217.57 80.0205 221.712C87.1949 225.854 89.6531 235.028 85.5109 242.203Z" stroke="#BECCFF" stroke-width="2"/>
<path d="M5.51093 380.767C1.36879 387.941 -7.80506 390.399 -14.9795 386.257L-27.9698 378.757L-20.4698 365.767C-16.3277 358.592 -7.15384 356.134 0.0205497 360.276C7.19494 364.418 9.65306 373.592 5.51093 380.767Z" stroke="#BECCFF" stroke-width="2"/>
<path d="M76.2288 98.2795C80.371 91.1051 89.5448 88.647 96.7192 92.7891L109.71 100.289L102.21 113.28C98.0674 120.454 88.8936 122.912 81.7192 118.77C74.5448 114.628 72.0867 105.454 76.2288 98.2795Z" stroke="#BECCFF" stroke-width="2"/>
<path d="M-3.77118 236.844C0.370954 229.669 9.54481 227.211 16.7192 231.353L29.7096 238.853L22.2096 251.844C18.0674 259.018 8.89359 261.476 1.7192 257.334C-5.45519 253.192 -7.91332 244.018 -3.77118 236.844Z" stroke="#BECCFF" stroke-width="2"/>
<path d="M279.826 169.638C275.684 176.813 266.51 179.271 259.335 175.129L246.345 167.629L253.845 154.638C257.987 147.464 267.161 145.006 274.335 149.148C281.51 153.29 283.968 162.464 279.826 169.638Z" stroke="#BECCFF" stroke-width="2"/>
<path d="M199.826 308.203C195.684 315.377 186.51 317.835 179.335 313.693L166.345 306.193L173.845 293.203C177.987 286.028 187.161 283.57 194.335 287.712C201.51 291.854 203.968 301.028 199.826 308.203Z" stroke="#BECCFF" stroke-width="2"/>
<path d="M11.1955 106.921C7.05336 114.095 -2.12049 116.553 -9.29488 112.411L-22.2853 104.911L-14.7853 91.9207C-10.6431 84.7463 -1.46927 82.2882 5.70512 86.4303C12.8795 90.5724 15.3376 99.7463 11.1955 106.921Z" stroke="#BECCFF" stroke-width="2"/>
<path d="M230.219 279.562C234.361 272.387 243.535 269.929 250.709 274.071L263.699 281.571L256.199 294.562C252.057 301.736 242.883 304.194 235.709 300.052C228.535 295.91 226.076 286.736 230.219 279.562Z" stroke="#BECCFF" stroke-width="2"/>
<path d="M285.185 80.3565C281.043 87.5309 271.869 89.989 264.695 85.8469L251.704 78.3469L259.204 65.3565C263.347 58.1821 272.52 55.724 279.695 59.8661C286.869 64.0082 289.327 73.1821 285.185 80.3565Z" stroke="#BECCFF" stroke-width="2"/>
<path d="M205.185 218.921C201.043 226.095 191.869 228.553 184.695 224.411L171.704 216.911L179.204 203.921C183.347 196.746 192.52 194.288 199.695 198.43C206.869 202.572 209.327 211.746 205.185 218.921Z" stroke="#BECCFF" stroke-width="2"/>
<path d="M125.185 357.485C121.043 364.659 111.869 367.117 104.695 362.975L91.7045 355.475L99.2045 342.485C103.347 335.31 112.52 332.852 119.695 336.994C126.869 341.136 129.327 350.31 125.185 357.485Z" stroke="#BECCFF" stroke-width="2"/>
<path d="M116.229 28.9975C120.371 21.8231 129.545 19.365 136.719 23.5071L149.71 31.0071L142.21 43.9975C138.067 51.1719 128.894 53.63 121.719 49.4879C114.545 45.3458 112.087 36.1719 116.229 28.9975Z" stroke="#BECCFF" stroke-width="2"/>
<path d="M36.2288 167.562C40.371 160.387 49.5448 157.929 56.7192 162.071L69.7096 169.571L62.2096 182.562C58.0674 189.736 48.8936 192.194 41.7192 188.052C34.5448 183.91 32.0867 174.736 36.2288 167.562Z" stroke="#BECCFF" stroke-width="2"/>
</g>
</svg>
