<!-- Generated by IcoMoon.io -->
<svg version="1.1" xmlns="http://www.w3.org/2000/svg" width="24" height="24" viewBox="0 0 24 24">
<title>sort_up</title>
<path fill="#0d10f3" d="M5.684 16.364v-1.107h-1.369v-6.813h-1.238l-2.433 2.062 0.475 0.638c0.025 0.033 0.062 0.065 0.109 0.095s0.102 0.053 0.164 0.065c0.062 0.013 0.127 0.012 0.196-0.003s0.14-0.049 0.213-0.104v0l1.036-0.862c-0.007 0.102-0.013 0.202-0.016 0.3s-0.005 0.195-0.005 0.289v0 4.331h-1.571v1.107h4.44z"></path>
<path fill="#0d10f3" d="M19.855 16.364c0.175 0 0.33-0.033 0.466-0.098s0.241-0.145 0.314-0.24v0l1.762-2.515c0.135-0.185 0.255-0.375 0.363-0.567s0.199-0.391 0.275-0.595c0.076-0.204 0.135-0.418 0.175-0.644s0.060-0.464 0.060-0.715c0-0.385-0.062-0.739-0.185-1.061s-0.3-0.599-0.529-0.832c-0.229-0.233-0.509-0.414-0.84-0.543s-0.704-0.194-1.118-0.194c-0.411 0-0.785 0.069-1.121 0.207s-0.625 0.325-0.865 0.559c-0.24 0.235-0.425 0.509-0.556 0.824s-0.196 0.648-0.196 1.001c0 0.385 0.064 0.721 0.191 1.006s0.295 0.523 0.502 0.712c0.207 0.189 0.441 0.331 0.701 0.425s0.523 0.142 0.788 0.142c0.229 0 0.446-0.026 0.652-0.079s0.395-0.13 0.57-0.232v0l-0.153 0.196c-0.051 0.065-0.104 0.133-0.158 0.202v0l-2.482 3.038h1.385zM20.575 12.125c-0.396 0-0.697-0.109-0.903-0.327s-0.308-0.536-0.308-0.955c0-0.182 0.028-0.351 0.085-0.507s0.137-0.292 0.243-0.406c0.105-0.115 0.233-0.204 0.382-0.267s0.318-0.095 0.507-0.095c0.185 0 0.355 0.028 0.507 0.085s0.285 0.139 0.395 0.248c0.111 0.109 0.197 0.243 0.259 0.401s0.093 0.341 0.093 0.548c0 0.185-0.028 0.356-0.085 0.513s-0.137 0.291-0.243 0.404c-0.105 0.113-0.237 0.201-0.395 0.265s-0.337 0.095-0.537 0.095z"></path>
<path fill="#0d10f3" d="M11.967 9.24c0.29-0.29 0.745-0.317 1.065-0.079l0.092 0.079 2.182 2.182c0.488 0.488 0.186 1.305-0.467 1.39l-0.112 0.007h-6.545c-0.452 0-0.818-0.366-0.818-0.818 0-0.414 0.308-0.757 0.707-0.811l0.111-0.007h4.57l-0.785-0.785c-0.29-0.29-0.317-0.745-0.079-1.065l0.079-0.092z"></path>
<path fill="#0d10f3" d="M14.149 11.421c0.32-0.32 0.838-0.32 1.157 0 0.29 0.29 0.317 0.745 0.079 1.065l-0.079 0.092-2.182 2.182c-0.32 0.32-0.838 0.32-1.157 0-0.29-0.29-0.317-0.745-0.079-1.065l0.079-0.092 2.182-2.182z"></path>
</svg>
