<svg width="24" height="24" viewBox="0 0 24 24" xmlns="http://www.w3.org/2000/svg"><path fill="none" stroke="currentColor" stroke-width="1.385" d="M23.077 12C23.077 5.882 18.118.923 12 .923S.923 5.882.923 12 5.882 23.077 12 23.077 23.077 18.118 23.077 12z"/><path fill="none" stroke="currentColor" stroke-linecap="round" stroke-linejoin="round" stroke-width="1.385" d="M13.846 7.815 8.85 5.538 6.461 6.762l4.039 3.392m6.161 2.471-.303 5.302-2.23 1.457-.996-5.382"/><path fill="none" stroke="currentColor" stroke-linecap="round" stroke-linejoin="round" stroke-width="1.385" d="M6.462 18.462 8 15.801l8.997-3.441c2.046-.826 3.583-2.027 2.389-4.066M5.2 16.615l-1.508-2.653 2.986.017 8.462-6.733c1.682-1.322 3.096-.973 4.244 1.048"/></svg>