<svg width="26" height="15" viewBox="0 0 26 15" xmlns="http://www.w3.org/2000/svg"><g fill="currentColor"><path d="M22.998 3.113a.574.574 0 0 1 .072.733l-.067.08-6.888 6.93-.1.114a1.594 1.594 0 0 0 0 1.992l.107.12a.574.574 0 0 1-.007.815.583.583 0 0 1-.821-.007 2.733 2.733 0 0 1-.776-2.2l.008-.063-.111.019-.215.009a2.7 2.7 0 0 1-1.918-.809.574.574 0 0 1 .007-.816.583.583 0 0 1 .82.016 1.528 1.528 0 0 0 2.067.1l.121-.112 6.881-6.917a.583.583 0 0 1 .82-.004Z"/><path d="M21.52.7a2.446 2.446 0 0 1 3.622.218 3.111 3.111 0 0 1 .846 1.456.58.58 0 0 1-1.1.363l-.033-.1a1.972 1.972 0 0 0-.539-.907c-.631-.636-1.334-.75-1.864-.313l-.1.095-9.13 9.223-.678 2.91 2.862-.681 4.768-4.795L23.288 5a.583.583 0 0 1 .822 0 .574.574 0 0 1 .009.816l-3.567 3.619-4.436 4.457a.58.58 0 0 1-.176.121l-.1.034-3.934.936a.58.58 0 0 1-.715-.6l.014-.1.927-3.976a.575.575 0 0 1 .084-.193l.067-.082Z"/></g><path fill="none" stroke="currentColor" stroke-linecap="round" stroke-width="2" d="M1 2.605h14M1 7.551h9m-9 4.945h6"/></svg>