<svg width="24" height="24" viewBox="0 0 24 24" xmlns="http://www.w3.org/2000/svg"><path fill="none" stroke="currentColor" stroke-linecap="round" stroke-linejoin="round" stroke-width="1.714" d="M22.857 20.571v0l-4.544-1.721M2.286 12h12.571c.631 0 1.143.512 1.143 1.143V20c0 .631-.512 1.143-1.143 1.143H2.286A1.143 1.143 0 0 1 1.143 20v-6.857c0-.631.512-1.143 1.143-1.143zm4.571-6.286a2.857 2.857 0 1 1-5.714 0 2.857 2.857 0 0 1 5.714 0zm9.143 0a2.857 2.857 0 1 1-5.714 0 2.857 2.857 0 0 1 5.714 0z"/></svg>