<?xml version="1.0" encoding="UTF-8"?>
<svg width="460px" height="460px" viewBox="0 0 460 460" version="1.1" xmlns="http://www.w3.org/2000/svg" xmlns:xlink="http://www.w3.org/1999/xlink">
    <title>Artboard</title>
    <g id="Artboard" stroke="none" stroke-width="1" fill="none" fill-rule="evenodd">
        <g id="js-logo" fill-rule="nonzero">
            <rect id="Rectangle" fill="#F7DF1E" x="0" y="0" width="460" height="460"></rect>
            <path d="M308.788627,359.461345 C318.049616,374.57312 330.098389,385.680858 351.40815,385.680858 C369.30981,385.680858 380.745562,376.739238 380.745562,364.384341 C380.745562,349.578887 368.996002,344.334984 349.29177,335.721565 L338.490932,331.090302 C307.314458,317.816446 286.603121,301.187659 286.603121,266.033821 C286.603121,233.651447 311.291794,209 349.875599,209 C377.344758,209 397.092777,218.554259 411.323611,243.570372 L377.68046,265.158621 C370.273128,251.884765 362.281967,246.65545 349.875599,246.65545 C337.221104,246.65545 329.200751,254.67811 329.200751,265.158621 C329.200751,278.111571 337.228401,283.355473 355.764975,291.378134 L366.565813,296.002103 C403.274067,311.733811 424,327.771838 424,363.830049 C424,402.703484 393.443845,424 352.407958,424 C312.284304,424 286.362292,404.891482 273.678605,379.846196 L308.788627,359.461345 Z M156.168405,363.202822 C162.955418,375.236813 169.129411,385.411004 183.973265,385.411004 C198.16761,385.411004 207.122089,379.860782 207.122089,358.279826 L207.122089,211.465145 L250.325441,211.465145 L250.325441,358.863293 C250.325441,403.57139 224.096919,423.919773 185.812327,423.919773 C151.220453,423.919773 131.187818,406.029241 121,384.481105 L156.168405,363.202822 Z" id="Shape" fill="#000000"></path>
        </g>
    </g>
</svg>