<svg width="24" height="24" viewBox="0 0 24 24" xmlns="http://www.w3.org/2000/svg"><path fill="none" stroke="currentColor" stroke-linecap="round" stroke-linejoin="round" stroke-width="1.385" d="M8.526 14.955a7.863 7.863 0 0 1-2.505.392c-1.95 0-3.693-.651-5.039-1.882a.233.233 0 0 1-.059-.1.252.252 0 0 1 .02-.105c.245-.216.466-.331.508-.35l2.765-1.57-.49-.725c-.605-.897-.922-2.039-.922-2.702V5.988c0-1.443 1.535-2.756 3.221-2.756 1.661 0 3.175 1.314 3.175 2.756v.862m6.127 8.105c.778.26 1.615.392 2.505.392 1.95 0 3.693-.651 5.039-1.882a.233.233 0 0 0 .059-.1.252.252 0 0 0-.02-.105 2.397 2.397 0 0 0-.508-.35l-2.765-1.57.491-.725c.605-.897.922-2.039.922-2.702V5.988c0-1.443-1.535-2.756-3.221-2.756-1.661 0-3.175 1.314-3.175 2.756v.862"/><path fill="none" stroke="currentColor" stroke-linecap="round" stroke-linejoin="round" stroke-width="1.385" d="M11.906 20.251c-2.325 0-4.403-.756-6.009-2.186a.263.263 0 0 1-.07-.116.299.299 0 0 1 .024-.123 2.91 2.91 0 0 1 .606-.407l3.297-1.824-.585-.842c-.722-1.042-1.1-2.369-1.1-3.14V9.376c0-1.677 1.831-3.203 3.841-3.203 1.981 0 3.787 1.526 3.787 3.203v2.237c0 .794-.326 2.123-1.043 3.165l-.574.833 3.332 1.885c.15.073.314.159.486.297a.263.263 0 0 1 .078.118.312.312 0 0 1-.021.126c-1.653 1.461-3.696 2.215-6.05 2.215z"/></svg>