<svg xmlns="http://www.w3.org/2000/svg" width="24" height="24" viewBox="0 0 24 24" fill="none">
  <path d="M17 3.33782C15.5291 2.48697 13.8214 2 12 2C6.47715 2 2 6.47715 2 12C2 17.5228 6.47715 22 12 22C17.5228 22 22 17.5228 22 12C22 9.91425 21.3614 7.97763 20.2692 6.375" fill="none" stroke="currentColor" stroke-width="1.5"/>
  <path d="M9.79399 9.99284C9.83987 9.90894 9.90885 9.83996 9.99274 9.79408L16.6516 6.15224C17.0897 5.9126 17.5698 6.39268 17.3302 6.83084L13.6883 13.4897C13.6425 13.5736 13.5735 13.6426 13.4896 13.6884L6.83074 17.3303C6.39258 17.5699 5.91251 17.0898 6.15215 16.6517L9.79399 9.99284Z" fill="none" stroke="currentColor" stroke-width="1.5"/>
</svg>
