<svg width="24" height="24" viewBox="0 0 24 24" xmlns="http://www.w3.org/2000/svg"><path fill="currentColor" d="m12.415 20.125-.427.001a14.204 14.204 0 0 0-6.865 1.624.692.692 0 0 1-.646-1.224 15.554 15.554 0 0 1 6.83-1.781l.001-2.037a.692.692 0 0 1 1.378-.094l.006.094v2.038c2.391.065 4.734.674 6.831 1.78a.691.691 0 1 1-.646 1.224 14.208 14.208 0 0 0-6.462-1.625z"/><path fill="currentColor" d="M23.077 1.615H.923a.692.692 0 0 0-.692.692v13.292c0 .382.31.692.692.692h22.154c.382 0 .692-.31.692-.692V2.307a.692.692 0 0 0-.692-.692zM22.385 3v11.908H1.616V3h20.769z"/></svg>