<svg width="24" height="24" viewBox="0 0 24 24" xmlns="http://www.w3.org/2000/svg"><path fill="currentColor" d="M18.848 5.209a.75.75 0 0 1 .078.976l-.072.085L7.832 17.416a2.753 2.753 0 0 0 0 3.843.751.751 0 0 1-1.07 1.052 4.24 4.24 0 0 1-1.163-3.617l.019-.106-.026.006a4.011 4.011 0 0 1-.465.054l-.236.007a4.128 4.128 0 0 1-2.942-1.238.751.751 0 0 1 1.07-1.052c.498.506 1.171.79 1.872.79.638 0 1.252-.234 1.733-.657l.149-.142 11.015-11.14a.75.75 0 0 1 1.061-.006z"/><path fill="currentColor" d="M16.736 1.328c1.587-1.612 3.859-1.358 5.542.351.657.667 1.11 1.445 1.301 2.253a.75.75 0 0 1-1.46.344c-.124-.528-.438-1.066-.91-1.545-1.094-1.11-2.354-1.292-3.284-.465l-.119.114-14.64 14.884-1.161 5.016 4.911-1.176 6.947-7.022 5.705-5.83a.75.75 0 1 1 1.072 1.05l-5.708 5.833-7.101 7.177a.745.745 0 0 1-.259.171l-.1.031-6.297 1.508a.75.75 0 0 1-.922-.798l.017-.101 1.483-6.403a.73.73 0 0 1 .129-.278l.067-.078L16.736 1.329z"/></svg>