<svg width="24" height="17.969" viewBox="0 0 24 17.969" xmlns="http://www.w3.org/2000/svg"><g data-name="Gruppe 7427"><path d="M8 2.048a1 1 0 0 1 0-2L23 0a1 1 0 1 1 .006 2l-15 .048Z" data-name="Linie 9"/><path d="M8 10.008a1 1 0 0 1 0-2l15-.048a1 1 0 0 1 .006 2l-15 .048Z" data-name="Linie 10"/><path d="M8 17.969a1 1 0 0 1 0-2l15-.048a1 1 0 0 1 .006 2l-15 .048Z" data-name="Linie 11"/><path d="M.855 6.111h1.354v-3.9q0-.227.014-.476l-.962.8a.341.341 0 0 1-.122.076.43.43 0 0 1-.123.018.363.363 0 0 1-.169-.039.315.315 0 0 1-.113-.09l-.36-.499L2.413.267h.939v5.844h1.2v.85H.855Z" data-name="1"/><path d="M2.395 10.99a2.511 2.511 0 0 1 .846.136 1.9 1.9 0 0 1 .657.386 1.747 1.747 0 0 1 .425.6 1.942 1.942 0 0 1 .153.781 2.082 2.082 0 0 1-.109.684 2.845 2.845 0 0 1-.291.6 4.047 4.047 0 0 1-.428.558q-.245.268-.513.546L1.627 16.82a3.651 3.651 0 0 1 .435-.1 2.53 2.53 0 0 1 .407-.035h1.715a.407.407 0 0 1 .294.1.363.363 0 0 1 .109.275v.684H0v-.374a.662.662 0 0 1 .048-.24.671.671 0 0 1 .155-.231l2.03-2.035q.254-.259.455-.495a3.338 3.338 0 0 0 .338-.467 2.132 2.132 0 0 0 .208-.469 1.731 1.731 0 0 0 .072-.5 1.188 1.188 0 0 0-.069-.423.829.829 0 0 0-.2-.307.834.834 0 0 0-.307-.187 1.2 1.2 0 0 0-.4-.062 1.066 1.066 0 0 0-.677.208 1.09 1.09 0 0 0-.372.559.464.464 0 0 1-.153.255.42.42 0 0 1-.259.076.934.934 0 0 1-.153-.014l-.6-.106a2.479 2.479 0 0 1 .268-.844 2.023 2.023 0 0 1 .5-.606 2.059 2.059 0 0 1 .684-.365 2.729 2.729 0 0 1 .827-.127Z" data-name="2"/></g></svg>