<svg width="24" height="24" viewBox="0 0 24 24" xmlns="http://www.w3.org/2000/svg"><path fill="currentColor" d="m16.422 9.38.087.069 3.233 2.984c.695.603.943 1.692.42 2.437l-.094.121-3.518 3.77c-.301.323-.678.458-1.127.484l-.172.005h-1.75c-.633 0-1.218-.244-1.732-.675l-.209-.181-.295-.278-.046-.04a.75.75 0 0 1 .964-1.15l.173.157.138.133c.07.065.144.131.239.211.217.182.43.286.641.316l.127.009h1.75c.149 0 .206-.016.201-.012l3.482-3.73c.034-.039-.001-.241-.131-.395l-.061-.063-3.25-3a.75.75 0 0 1 .837-1.226l.094.054zM5.557 4.737l.181.051 1.514.505.043-.015 1.741-.497c.824-.247 1.595-.033 2.305.527l.151.125.259.224v.842a.75.75 0 0 1-1.493.102l-.007-.102-.001-.131-.115-.067a.877.877 0 0 0-.566-.107l-.112.026-1.741.497c-.28.084-.515.099-.785.038l-.167-.045-1.488-.496c-.368-.116-.604-.038-1.126.451l-.126.12-.117.093-1.244 1.264-.338.337c-.047.056.003.314.157.443l1.75 1.5a.75.75 0 0 1-.964 1.15l-1.75-1.5C.776 9.45.546 8.266 1.175 7.515l.854-.865c.297-.296.607-.604.817-.806l.136-.129-.005-.005c.852-.831 1.541-1.169 2.405-1.013l.175.038z"/><path fill="currentColor" d="M18.095 4.724a2.75 2.75 0 0 1 3.452.598l.112.14.9 1.2a2.75 2.75 0 0 1-.129 3.459l-.127.135-2.773 2.773a.75.75 0 0 1-1.134-.977l.073-.084 2.773-2.773a1.252 1.252 0 0 0 .195-1.516l-.079-.118-.9-1.2a1.25 1.25 0 0 0-1.501-.395l-.119.06-1.039.593a2.748 2.748 0 0 1-2.416.153l-.178-.081-.965-.482a1.25 1.25 0 0 0-1.156.02l-.13.081-1.91 1.364a.713.713 0 0 0-.29.479l-.007.097v.043a.96.96 0 0 0 .28.677.292.292 0 0 0 .256.082l.068-.02 2.85-1.221a.75.75 0 0 1 .682 1.332l-.091.046-2.85 1.221a1.796 1.796 0 0 1-1.976-.38 2.455 2.455 0 0 1-.712-1.543l-.008-.237c0-.653.289-1.27.784-1.687l.14-.109 1.91-1.364a2.75 2.75 0 0 1 2.644-.306l.184.084.965.482c.332.166.719.175 1.055.029l.124-.062 1.039-.593z"/><path fill="none" stroke="currentColor" stroke-width="1.5" d="M6.13 10.448a1.256 1.256 0 0 0-1.776.003l-1.457 1.463a1.197 1.197 0 0 0-.334.849 1.255 1.255 0 0 0 2.136.855l1.439-1.415a1.245 1.245 0 0 0-.008-1.754zm2.204 1.347c-.244-.244-.564-.366-.884-.366s-.64.122-.884.366l-2.121 2.121a1.246 1.246 0 0 0-.366.884 1.246 1.246 0 0 0 1.25 1.25c.32 0 .64-.122.884-.366l2.121-2.121c.244-.244.366-.564.366-.884s-.122-.64-.366-.884zm1.293 2.4c-.244-.244-.564-.366-.884-.366s-.64.122-.884.366l-1.414 1.414a1.246 1.246 0 0 0-.366.884 1.246 1.246 0 0 0 1.25 1.25c.32 0 .64-.122.884-.366l1.414-1.414c.244-.244.366-.564.366-.884s-.122-.64-.366-.884zm1.542 2c-.244-.244-.564-.366-.884-.366s-.64.122-.884.366l-.707.707a1.246 1.246 0 0 0-.366.884 1.246 1.246 0 0 0 1.25 1.25c.32 0 .64-.122.884-.366l.707-.707c.244-.244.366-.564.366-.884s-.122-.64-.366-.884z"/></svg>