<svg width="24" height="24" viewBox="0 0 24 24" xmlns="http://www.w3.org/2000/svg"><path fill="none" stroke="currentColor" stroke-linecap="round" stroke-linejoin="round" stroke-width="1.5" d="M20.834 17.305a10.661 10.661 0 0 0 1.579-5.599C22.413 5.793 17.62.999 11.706.999S.999 5.792.999 11.706c0 2.093.6 4.045 1.638 5.694"/><path fill="none" stroke="currentColor" stroke-linecap="round" stroke-linejoin="round" stroke-width="1.5" d="M11.597 22.492c-2.545 0-4.819-.827-6.576-2.393a.295.295 0 0 1-.077-.127.313.313 0 0 1 .026-.134c.32-.275.609-.42.663-.445l3.609-1.996-.64-.922c-.79-1.141-1.204-2.592-1.204-3.436v-2.448c0-1.835 2.004-3.505 4.204-3.505 2.168 0 4.144 1.67 4.144 3.505v2.448c0 .869-.357 2.324-1.142 3.463l-.628.912 3.647 2.062c.165.08.344.174.532.325a.286.286 0 0 1 .086.13.344.344 0 0 1-.023.137c-1.809 1.599-4.045 2.424-6.621 2.424z"/></svg>