<svg width="24" height="24" viewBox="0 0 24 24" xmlns="http://www.w3.org/2000/svg"><path fill="currentColor" d="M13.377 5.76v6.947c0 .737-.036 1.459-.11 2.168s-.17 1.459-.292 2.253h-2.032c-.122-.793-.219-1.544-.292-2.253s-.11-1.431-.11-2.168V5.76h2.835zM10.08 21.67c0-.251.047-.49.14-.717s.223-.421.389-.583c.166-.162.363-.291.59-.389s.47-.146.73-.146c.251 0 .491.049.718.146s.422.227.584.389c.162.162.292.356.389.583s.146.466.146.717c0 .259-.049.5-.146.723s-.227.415-.389.577a1.856 1.856 0 0 1-1.302.523c-.26 0-.503-.047-.73-.14s-.424-.221-.59-.383c-.166-.162-.296-.354-.389-.577s-.14-.464-.14-.723z"/><path fill="none" stroke="currentColor" stroke-width="1.44" d="M17.374 18.516A9.6 9.6 0 0 0 12 .96a9.6 9.6 0 0 0-5.545 17.437"/></svg>