<svg xmlns="http://www.w3.org/2000/svg" xml:space="preserve" id="Logo" x="0" y="0"
     style="enable-background:new 0 0 180 180" version="1.1" viewBox="0 0 180 180">
  <style type="text/css">
  <!-- Animation is configured to run after 3 seconds  -->
    @keyframes heartbeat {
      0%, 8% {
        transform: scale(1);
      }
      1.875% {
        transform: scale(1.05);
      }
      3.75% {
        transform: scale(0.97);
      }
      6.25% {
        transform: scale(1.1);
      }
    }
    .heartbeat {
      transform-origin: center;
      animation: heartbeat 8s ease infinite;
      animation-fill-mode: both;
      animation-delay: 3s;
    }
    .st1 {
      fill: #2d02ff;
    }
    .st2 {
      fill: #beccff;
    }
  </style>
  <g class="heartbeat">
  <path d="M0 0h180v180H0z" style="fill:none"/>
  <path
    d="m34.5 84.4 50.4-10.6c9.3-2 16.9 4.2 16.9 13.7s-7.6 18.8-16.9 20.8l-30.8 6.5c-10.8 2.3-19.6-4.8-19.6-15.9V84.4z"
    class="st1"/>
  <path
    d="m59.4 130.2 68.8-14.5c4.6-1 8.9 0 12.2 2.7.3.2.6.5.8.8L97.6 77c2.6 2.5 4.2 6.1 4.2 10.5 0 9.5-7.6 18.8-16.9 20.8l-30.8 6.5c-5.2 1.1-10 0-13.5-2.7l18.8 18.1zM48.6 81.4l36.2-7.6c5.1-1.1 9.6.3 12.7 3.2L78.4 58.6l-43.9 9.2 14.1 13.6z"
    class="st2"/>
  <path
    d="m34.5 67.9 94.1-19.8c9.3-2 16.9-11.3 16.9-20.8s-7.6-15.7-16.9-13.7L54.1 29.2c-10.8 2.3-19.6 13.1-19.6 24.1v14.6zM140.4 118.4c-3.3-2.7-7.6-3.6-12.2-2.7l-93.8 19.7v14.1c0 5.4 2.1 10.1 5.9 13.2 2.8 2.3 6.3 3.5 10.1 3.5 1.3 0 2.7-.1 4-.4l74.5-15.7c9.1-1.9 16.5-11 16.5-20.4.1-4.6-1.7-8.6-5-11.3zm-97.5 41.3c-2.8-2.3-4.4-5.9-4.4-10.1v-10.9l90.6-19.1c3.4-.7 6.5-.1 8.9 1.8 2.3 1.9 3.6 4.8 3.6 8.3 0 7.5-6 14.9-13.3 16.4l-74.5 15.7c-4.2 1-8.1.2-10.9-2.1z"
    class="st1"/>
    </g>
</svg>
