<svg width="24" height="24" viewBox="0 0 24 24" xmlns="http://www.w3.org/2000/svg"><path fill="currentColor" d="M1.92 4.54a.72.72 0 0 1-.098-1.433L1.92 3.1l5.278-.001v-.771c0-1.137.902-2.059 2.033-2.134L9.38.189h4.574c1.15 0 2.1.875 2.177 1.992l.005.147v.771l5.279.001a.72.72 0 0 1 .098 1.433l-.098.007H1.92zm12.035-2.911H9.381c-.38 0-.687.267-.735.605l-.007.094v.771h6.059v-.771c0-.349-.275-.645-.64-.692l-.102-.006z"/><path fill="currentColor" d="M4.066 3.404a.72.72 0 0 0-.673.666v.098l1.086 17.104c.027 1.313 1.066 2.373 2.39 2.48l.167.008h9.537c1.333-.026 2.425-1.035 2.533-2.298l.895-14.136a.72.72 0 1 0-1.437-.091l-.888 14.008c-.011.546-.443 1.001-.997 1.069l-.12.009H7.05a1.135 1.135 0 0 1-1.123-.987L4.831 4.078a.72.72 0 0 0-.764-.673z"/><path fill="currentColor" d="M9.231 7.768a.72.72 0 0 1 .713.622l.007.098v9.701a.72.72 0 0 1-1.433.098l-.007-.098V8.488a.72.72 0 0 1 .72-.72zm4.874 0a.72.72 0 0 1 .713.622l.007.098v9.701a.72.72 0 0 1-1.433.098l-.007-.098V8.488a.72.72 0 0 1 .72-.72z"/></svg>