<svg width="190" height="138" viewBox="0 0 190 138" fill="none" xmlns="http://www.w3.org/2000/svg">
<path d="M65 43.9V137.74H158.839C166.905 137.717 174.633 134.502 180.336 128.798C186.039 123.094 189.252 115.366 189.274 107.3V16H92.898C85.5013 16.0085 78.4099 18.9507 73.1798 24.1812C67.9497 29.4117 65.0079 36.5033 65 43.9Z" fill="#e2ecff"/>
<g clip-path="url(#clip0_3_19)">
<path d="M116.407 1.50806C115.423 1.50911 114.479 1.90064 113.783 2.59673C113.087 3.29283 112.695 4.23663 112.694 5.22105V29.9751C112.695 30.9595 113.087 31.9033 113.783 32.5994C114.479 33.2955 115.423 33.687 116.407 33.6881H141.161C142.146 33.687 143.09 33.2955 143.786 32.5994C144.482 31.9033 144.873 30.9595 144.874 29.9751V5.22105C144.873 4.23663 144.482 3.29283 143.786 2.59673C143.09 1.90064 142.146 1.50911 141.161 1.50806H116.407Z" fill="#4655ff"/>
</g>
<g clip-path="url(#clip1_3_19)">
<path d="M60.4074 0.508057C59.4229 0.509115 58.4791 0.90064 57.783 1.59673C57.0869 2.29283 56.6954 3.23663 56.6943 4.22105V28.9751C56.6954 29.9595 57.0869 30.9033 57.783 31.5994C58.4791 32.2955 59.4229 32.687 60.4074 32.6881H85.1613C86.1458 32.687 87.0896 32.2955 87.7856 31.5994C88.4817 30.9033 88.8733 29.9595 88.8743 28.9751V4.22105C88.8733 3.23663 88.4817 2.29283 87.7856 1.59673C87.0896 0.90064 86.1458 0.509115 85.1613 0.508057H60.4074Z" fill="#4655ff"/>
</g>
<g clip-path="url(#clip2_3_19)">
<path d="M4.40735 0.508057C3.42292 0.509115 2.47911 0.90064 1.78302 1.59673C1.08693 2.29283 0.695395 3.23663 0.694336 4.22105V28.9751C0.695395 29.9595 1.08693 30.9033 1.78302 31.5994C2.47911 32.2955 3.42292 32.687 4.40735 32.6881H29.1613C30.1458 32.687 31.0896 32.2955 31.7856 31.5994C32.4817 30.9033 32.8733 29.9595 32.8743 28.9751V4.22105C32.8733 3.23663 32.4817 2.29283 31.7856 1.59673C31.0896 0.90064 30.1458 0.509115 29.1613 0.508057H4.40735Z" fill="#4655ff"/>
</g>
<defs>
<clipPath id="clip0_3_19">
<rect width="33" height="33" fill="white" transform="translate(112 1)"/>
</clipPath>
<clipPath id="clip1_3_19">
<rect width="33" height="33" fill="white" transform="translate(56)"/>
</clipPath>
<clipPath id="clip2_3_19">
<rect width="33" height="33" fill="white"/>
</clipPath>
</defs>
</svg>
