<svg width="162" height="159" viewBox="0 0 162 159" fill="none" xmlns="http://www.w3.org/2000/svg">
<path d="M72 91.085V158.645H139.56C145.366 158.628 150.929 156.314 155.034 152.208C159.14 148.103 161.454 142.54 161.471 136.734V71H92.085C86.76 71.0061 81.6548 73.1241 77.8895 76.8895C74.1241 80.6548 72.0061 85.76 72 91.085V91.085Z" fill="#4655ff"/>
<g clip-path="url(#clip0_2_10)">
<path d="M73.0369 51.126H102.252L142.423 21.911C142.406 16.1051 140.092 10.5419 135.986 6.43652C131.881 2.33112 126.318 0.0171472 120.512 0H21.9119C16.106 0.0171472 10.5428 2.33112 6.43738 6.43652C2.33198 10.5419 0.0180017 16.1051 0.000854492 21.911V120.511C0.0180017 126.317 2.33198 131.88 6.43738 135.985C10.5428 140.091 16.106 142.405 21.9119 142.422L49.3008 102.251V74.863C49.308 68.5699 51.811 62.5366 56.2608 58.0866C60.7106 53.6367 66.7438 51.1334 73.0369 51.126Z" fill="#e2ecff"/> 
</g>
<defs>
<clipPath id="clip0_2_10">
<rect width="143" height="143" fill="white"/>
</clipPath>
</defs>
</svg>
