<?xml version="1.0" encoding="UTF-8"?>
<svg id="Ebene_1" data-name="Ebene 1" xmlns="http://www.w3.org/2000/svg" width="220" height="220" xmlns:xlink="http://www.w3.org/1999/xlink" viewBox="0 0 220 220">
  <defs>
    <style>
      .cls-1 {
        fill: #f6fafe;
      }

      .cls-2 {
        fill: #4655ff;
      }

      .cls-3 {
        fill: #2c02ff;
      }

      .cls-4 {
        fill: none;
        stroke: #4655ff;
        stroke-miterlimit: 10;
      }

      .cls-5 {
        fill: #8aa1ff;
        filter: url(#drop-shadow-58);
      }
    </style>
    <filter id="drop-shadow-58" filterUnits="userSpaceOnUse">
      <feOffset dx="7" dy="7"/>
      <feGaussianBlur result="blur" stdDeviation="5"/>
      <feFlood flood-color="#000d6b" flood-opacity=".1"/>
      <feComposite in2="blur" operator="in"/>
      <feComposite in="SourceGraphic"/>
    </filter>
  </defs>
  <circle class="cls-1" cx="109.41" cy="109.74" r="80"/>
  <circle class="cls-5" cx="109.41" cy="109.74" r="31.98"/>
  <g>
    <g>
      <path class="cls-1" d="m131.44,113.79c.09-.05.19-.09.29-.12.1-.03.21-.07.33-.1-.23-.05-.43-.13-.62-.22l-1.86-.97c-.1-.05-.17-.1-.21-.17-.04-.07-.06-.14-.06-.23v-1.11s4.56,2.39,4.56,2.39v.62s-4.56,2.38-4.56,2.38v-1.11c0-.08.02-.15.06-.22.04-.07.11-.13.21-.17l1.86-.98Z"/>
      <path class="cls-1" d="m129.41,115.17c0-.06.01-.12.05-.17.03-.05.08-.09.16-.13l1.87-.98c.09-.04.18-.08.28-.11.1-.03.21-.07.32-.1.04-.01.07-.05.07-.1,0-.05-.03-.08-.08-.1-.22-.05-.42-.12-.6-.21l-1.86-.97c-.08-.04-.14-.08-.17-.13-.03-.05-.05-.11-.05-.18v-.94l4.37,2.28v.5l-4.37,2.28v-.94Z"/>
      <path class="cls-1" d="m116.96,113.89v-.62s4.56-2.39,4.56-2.39v1.11c0,.08-.02.16-.06.23-.04.07-.11.13-.21.17l-1.86.97c-.1.05-.19.09-.3.12-.1.04-.21.07-.33.09.12.03.23.06.33.09.1.04.2.08.3.12l1.86.98c.1.05.17.1.21.17.04.07.06.14.06.22v1.11s-4.56-2.38-4.56-2.38Z"/>
      <path class="cls-1" d="m117.06,113.83v-.5l4.37-2.28v.94c0,.07-.01.12-.05.18-.03.05-.08.09-.16.13l-1.87.98c-.09.04-.18.08-.28.12-.1.04-.21.07-.32.09-.05.01-.08.05-.08.1s.03.09.08.1c.11.03.22.06.32.09.1.03.19.07.29.12l1.86.98c.08.04.14.08.17.13.03.05.05.11.05.17v.94l-4.37-2.28Z"/>
    </g>
    <g>
      <path class="cls-1" d="m125.2,119.6c.05.09.09.19.12.29.03.1.07.21.1.33.05-.23.13-.43.22-.62l.97-1.86c.05-.1.1-.17.17-.21.07-.04.14-.06.23-.06h1.11s-2.39,4.56-2.39,4.56h-.62s-2.38-4.56-2.38-4.56h1.11c.08,0,.15.02.22.06.07.04.13.11.17.21l.98,1.86Z"/>
      <path class="cls-1" d="m125.16,121.94l-2.28-4.37h.94c.06,0,.12.02.17.05.05.03.09.08.13.16l.98,1.87c.04.09.08.18.11.28.03.1.07.21.1.32.01.04.05.07.1.07h0s.08-.03.09-.08c.05-.22.12-.42.21-.6l.97-1.86c.04-.08.08-.14.13-.17.05-.03.11-.05.18-.05h.94l-2.28,4.37h-.5Z"/>
      <path class="cls-1" d="m129.23,114.46c.19.07.33.19.43.34.1.16.15.32.15.48v.67s-8.51-3.29-8.51-3.29c-.17-.06-.3-.17-.4-.31-.1-.14-.14-.3-.14-.48v-.67s8.47,3.26,8.47,3.26Z"/>
      <path class="cls-1" d="m121.34,112.57c-.15-.06-.27-.15-.35-.27-.08-.12-.13-.26-.13-.43v-.53l8.34,3.21c.17.07.3.16.38.3.09.14.13.29.13.43v.52l-8.37-3.24Z"/>
      <path class="cls-1" d="m125.1,105.12h.62s2.39,4.56,2.39,4.56h-1.11c-.08,0-.16-.02-.23-.06-.07-.04-.13-.11-.17-.21l-.97-1.86c-.05-.1-.09-.19-.12-.3-.04-.1-.07-.21-.09-.33-.03.12-.06.23-.09.33-.04.1-.08.2-.12.3l-.98,1.86c-.05.1-.1.17-.17.21-.07.04-.14.06-.22.06h-1.11s2.38-4.56,2.38-4.56Z"/>
      <path class="cls-1" d="m127.01,109.58c-.07,0-.12-.01-.18-.05-.05-.03-.09-.08-.13-.16l-.98-1.87c-.04-.09-.08-.18-.12-.28-.03-.1-.07-.21-.09-.32-.01-.05-.05-.08-.1-.08h0s-.09.03-.1.08c-.03.11-.06.22-.09.32-.04.1-.07.19-.12.29l-.98,1.86c-.04.08-.08.14-.13.17-.05.03-.11.05-.17.05h-.94l2.28-4.36h.5l2.28,4.36h-.94Z"/>
    </g>
  </g>
  <g>
    <circle class="cls-4" cx="109.41" cy="109.74" r="64.09"/>
    <path class="cls-2" d="m174.17,113.58h-1.34l-5.15-9.84h2.38c.18,0,.34.04.49.13.15.09.27.24.37.45l2.1,4.02c.1.21.19.42.26.64.08.22.15.46.2.71.06-.25.12-.49.2-.71.08-.22.17-.43.26-.64l2.11-4.02c.1-.21.22-.36.37-.45.15-.09.31-.13.48-.13h2.38l-5.13,9.84Z"/>
    <path class="cls-2" d="m44.65,103.74h1.34s5.15,9.84,5.15,9.84h-2.38c-.18,0-.34-.04-.49-.13-.15-.09-.27-.24-.37-.45l-2.1-4.02c-.1-.21-.19-.42-.26-.64-.08-.22-.15-.46-.2-.71-.06.25-.12.49-.2.71-.08.22-.17.43-.26.64l-2.11,4.02c-.1.21-.22.36-.37.45-.15.09-.31.13-.48.13h-2.38s5.13-9.84,5.13-9.84Z"/>
    <path class="cls-2" d="m104.49,51.47v-2.38c0-.17.04-.33.13-.48.09-.15.24-.27.45-.37l4.02-2.11c.21-.1.42-.19.64-.26.22-.08.46-.15.71-.2-.25-.06-.49-.12-.71-.2-.22-.08-.43-.17-.64-.26l-4.02-2.1c-.21-.1-.36-.22-.45-.37-.09-.15-.13-.31-.13-.49v-2.38l9.84,5.15v1.34l-9.84,5.13Z"/>
    <path class="cls-2" d="m114.33,168.02v2.38c0,.17-.04.33-.13.48-.09.15-.24.27-.45.37l-4.02,2.11c-.21.1-.42.19-.64.26-.22.08-.46.15-.71.2.25.06.49.12.71.2.22.08.43.17.64.26l4.02,2.1c.21.1.36.22.45.37.09.15.13.31.13.49v2.38l-9.84-5.15v-1.34l9.84-5.13Z"/>
  </g>
  <rect class="cls-3" x="105.25" y="126.93" width="9.78" height="29.58" rx="4.89" ry="4.89" transform="translate(251.86 31.58) rotate(90)"/>
  <path class="cls-2" d="m104.18,109.31c-4.5,0-8.15-3.65-8.15-8.15s3.65-8.15,8.15-8.15c1.27,0,2.47.3,3.54.82-2.09-2.56-5.27-4.19-8.83-4.19-5.84,0-10.65,4.4-11.31,10.07l-20.57,20.52c-.92.92-.92,2.42,0,3.34l3.41,3.42c.92.92,2.42.92,3.34,0l17.54-17.49c2.02,1.81,4.68,2.93,7.6,2.93,3.34,0,6.34-1.45,8.42-3.74-.97.4-2.02.63-3.14.63Z"/>
</svg>