<svg width="461" height="327" viewBox="0 0 461 327" fill="none" xmlns="http://www.w3.org/2000/svg">
<path d="M414.13 296.569H383.644V296.786H414.13V296.569Z" fill="#EBEBEB"/>
<path d="M304.887 298.917H296.888V299.134H304.887V298.917Z" fill="#EBEBEB"/>
<path d="M382.723 288.557H365.059V288.774H382.723V288.557Z" fill="#EBEBEB"/>
<path d="M88.0448 290.007H48.2886V290.224H88.0448V290.007Z" fill="#EBEBEB"/>
<path d="M102.074 290.007H96.2471V290.224H102.074V290.007Z" fill="#EBEBEB"/>
<path d="M207.25 293.651H121.018V293.868H207.25V293.651Z" fill="#EBEBEB"/>
<path d="M219.446 244.169H41.6979C40.3039 244.169 38.967 243.65 37.9813 242.725C36.9957 241.801 36.4419 240.547 36.4419 239.239V4.88684C36.454 3.58682 37.0131 2.34391 37.9975 1.42867C38.9819 0.513431 40.3119 -4.98405e-05 41.6979 3.62847e-09H219.446C220.136 3.62848e-09 220.819 0.127517 221.457 0.375274C222.095 0.62303 222.674 0.986173 223.162 1.44397C223.65 1.90176 224.037 2.44524 224.302 3.04338C224.566 3.64151 224.702 4.28259 224.702 4.93001V239.239C224.702 239.887 224.566 240.528 224.302 241.126C224.037 241.724 223.65 242.268 223.162 242.725C222.674 243.183 222.095 243.546 221.457 243.794C220.819 244.042 220.136 244.169 219.446 244.169ZM41.6979 0.172681C40.3657 0.174963 39.0888 0.672364 38.1468 1.55595C37.2047 2.43953 36.6745 3.63727 36.672 4.88684V239.239C36.6745 240.489 37.2047 241.687 38.1468 242.57C39.0888 243.454 40.3657 243.951 41.6979 243.953H219.446C220.778 243.951 222.055 243.454 222.997 242.57C223.939 241.687 224.469 240.489 224.471 239.239V4.88684C224.469 3.63727 223.939 2.43953 222.997 1.55595C222.055 0.672364 220.778 0.174963 219.446 0.172681H41.6979Z" fill="#EBEBEB"/>
<path d="M418.549 244.169H240.801C239.407 244.169 238.071 243.65 237.085 242.725C236.099 241.801 235.545 240.547 235.545 239.239V4.88684C235.558 3.58682 236.117 2.34391 237.101 1.42867C238.085 0.513431 239.415 -4.98405e-05 240.801 3.62847e-09H418.549C419.943 3.62848e-09 421.28 0.51941 422.266 1.44397C423.251 2.36852 423.805 3.62249 423.805 4.93001V239.239C423.805 240.547 423.251 241.801 422.266 242.725C421.28 243.65 419.943 244.169 418.549 244.169ZM240.801 0.172681C239.469 0.174963 238.192 0.672364 237.25 1.55595C236.308 2.43953 235.778 3.63727 235.776 4.88684V239.239C235.778 240.489 236.308 241.687 237.25 242.57C238.192 243.454 239.469 243.951 240.801 243.953H418.549C419.881 243.951 421.158 243.454 422.1 242.57C423.042 241.687 423.573 240.489 423.575 239.239V4.88684C423.573 3.63727 423.042 2.43953 422.1 1.55595C421.158 0.672364 419.881 0.174963 418.549 0.172681H240.801Z" fill="#EBEBEB"/>
<path d="M460.248 282.357H0V282.574H460.248V282.357Z" fill="#EBEBEB"/>
<path d="M280.272 110.852L283.346 112.432L280.272 114.012L278.587 116.896L276.912 114.012L273.837 112.432L276.912 110.852L278.587 107.968L280.272 110.852Z" fill="#F0F0F0"/>
<path d="M291.917 106.889L293.454 107.675L291.917 108.46L291.079 109.902L290.241 108.46L288.704 107.675L290.241 106.889L291.079 105.447L291.917 106.889Z" fill="#EBEBEB"/>
<path d="M294.715 12.7351L293.002 15.6103L296.5 15.4117L299.566 17.009L299.354 13.728L301.057 10.8616L297.559 11.0601L294.503 9.45422L294.715 12.7351Z" fill="#F0F0F0"/>
<path d="M282.601 15.1958L281.754 16.6291L283.494 16.5255L285.022 17.3284L284.92 15.688L285.767 14.2547L284.028 14.3583L282.5 13.5554L282.601 15.1958Z" fill="#EBEBEB"/>
<path d="M349.236 89.569L352.31 91.1404L349.236 92.7204L347.551 95.6042L345.876 92.7204L342.792 91.1404L345.876 89.569L347.551 86.6853L349.236 89.569Z" fill="#F0F0F0"/>
<path d="M360.88 85.5974L362.417 86.3917L360.88 87.1774L360.042 88.6193L359.205 87.1774L357.667 86.3917L359.205 85.5974L360.042 84.1641L360.88 85.5974Z" fill="#EBEBEB"/>
<path d="M200.032 66.6371L203.107 68.2085L200.032 69.7886L198.348 72.6723L196.673 69.7886L193.589 68.2085L196.673 66.6371L198.348 63.7534L200.032 66.6371Z" fill="#F0F0F0"/>
<path d="M211.677 62.6655L213.214 63.4598L211.677 64.2455L210.839 65.6874L210.002 64.2455L208.464 63.4598L210.002 62.6655L210.839 61.2323L211.677 62.6655Z" fill="#EBEBEB"/>
<path d="M75.1671 50.1721L78.2416 51.7435L75.1671 53.3235L73.4826 56.2073L71.7981 53.3235L68.7236 51.7435L71.7981 50.1721L73.4826 47.2884L75.1671 50.1721Z" fill="#F0F0F0"/>
<path d="M86.8116 46.2005L88.3396 46.9948L86.8116 47.7805L85.9647 49.2224L85.1271 47.7805L83.5898 46.9948L85.1271 46.2005L85.9647 44.7672L86.8116 46.2005Z" fill="#EBEBEB"/>
<path d="M363.2 21.9044L362.565 25.1335L360.006 22.8801L356.563 22.2757L358.966 19.8841L359.61 16.655L362.16 18.8998L365.603 19.5042L363.2 21.9044Z" fill="#F0F0F0"/>
<path d="M370.84 31.0565L370.518 32.671L369.239 31.5486L367.526 31.2464L368.723 30.0463L369.045 28.4317L370.315 29.5542L372.037 29.8563L370.84 31.0565Z" fill="#EBEBEB"/>
<path d="M200.962 15.7311L200.254 18.9516L197.741 16.6636L194.307 15.9988L196.756 13.6417L197.455 10.4212L199.968 12.7179L203.402 13.374L200.962 15.7311Z" fill="#F0F0F0"/>
<path d="M208.428 25.004L208.078 26.61L206.817 25.4703L205.105 25.1422L206.329 23.9593L206.679 22.3534L207.931 23.5017L209.643 23.8298L208.428 25.004Z" fill="#EBEBEB"/>
<path d="M130.784 41.1151L132.698 42.0907L130.784 43.075L129.743 44.8622L128.694 43.075L126.789 42.0907L128.694 41.1151L129.743 39.3192L130.784 41.1151Z" fill="#F0F0F0"/>
<path d="M171.083 38.3436L172.997 39.3192L171.083 40.3035L170.043 42.0907L168.993 40.3035L167.088 39.3192L168.993 38.3436L170.043 36.5477L171.083 38.3436Z" fill="#F0F0F0"/>
<path d="M147.205 31.4277L149.111 32.412L147.205 33.3876L146.156 35.1835L145.116 33.3876L143.201 32.412L145.116 31.4277L146.156 29.6405L147.205 31.4277Z" fill="#F0F0F0"/>
<path d="M403.867 58.2104L405.773 59.1946L403.867 60.1703L402.818 61.9661L401.778 60.1703L399.863 59.1946L401.778 58.2104L402.818 56.4231L403.867 58.2104Z" fill="#F0F0F0"/>
<path d="M118.091 26.2301L120.005 27.2057L118.091 28.19L117.05 29.9772L116.01 28.19L114.096 27.2057L116.01 26.2301L117.05 24.4342L118.091 26.2301Z" fill="#F0F0F0"/>
<path d="M125.022 19.91L126.927 20.8942L125.022 21.8699L123.972 23.6658L122.932 21.8699L121.018 20.8942L122.932 19.91L123.972 18.1227L125.022 19.91Z" fill="#F0F0F0"/>
<path d="M404.484 103.841L406.399 104.817L404.484 105.801L403.444 107.588L402.395 105.801L400.489 104.817L402.395 103.841L403.444 102.045L404.484 103.841Z" fill="#F0F0F0"/>
<path d="M269.107 283.255C269.107 283.255 304.702 256.542 318.132 256.093C331.563 255.644 428.666 281.9 428.666 281.9L269.107 283.255Z" fill="#F0F0F0"/>
<path d="M195.228 282.245C195.228 282.245 153.152 262.827 146.533 262.387C139.915 261.947 117.437 282.435 117.437 282.435L195.228 282.245Z" fill="#E6E6E6"/>
<path d="M159.153 282.565C159.153 282.565 88.4134 262.827 77.5147 262.37C66.616 261.912 29.6489 282.228 29.6489 282.228L159.153 282.565Z" fill="#EBEBEB"/>
<path d="M356.407 235.389C359.38 232.582 363.356 232.203 365.289 234.525C367.223 236.848 366.366 241.044 363.384 243.85C360.402 246.656 356.434 247.027 354.501 244.713C352.568 242.399 353.47 238.195 356.407 235.389Z" fill="#E6E6E6"/>
<path d="M361.586 239.551C368.705 232.096 369.74 222.072 363.897 217.163C358.053 212.254 347.545 214.319 340.426 221.774C333.307 229.23 332.272 239.253 338.115 244.162C343.958 249.071 354.466 247.007 361.586 239.551Z" fill="#EBEBEB"/>
<path d="M376.207 221.03C381.73 216.161 389.029 215.504 392.592 219.571C396.154 223.638 394.571 230.873 389.085 235.743C383.599 240.612 376.253 241.26 372.7 237.202C369.147 233.144 370.712 225.883 376.207 221.03Z" fill="#E6E6E6"/>
<path d="M382.198 230.528C387.721 225.658 395.03 225.002 398.583 229.068C402.136 233.135 400.572 240.37 395.076 245.24C389.581 250.109 382.254 250.766 378.691 246.699C375.129 242.632 376.712 235.406 382.198 230.528Z" fill="#EBEBEB"/>
<path d="M364.147 215.608C371.723 208.891 381.839 207.984 386.736 213.588C391.633 219.191 389.498 229.172 381.904 235.889C374.31 242.607 364.212 243.513 359.305 237.91C354.399 232.306 356.572 222.325 364.147 215.608Z" fill="#F0F0F0"/>
<path d="M349.558 226.789C353.682 222.904 359.177 222.386 361.846 225.623C364.516 228.861 363.338 234.637 359.214 238.514C355.09 242.391 349.595 242.917 346.925 239.68C344.256 236.442 345.434 230.674 349.558 226.789Z" fill="#F0F0F0"/>
<path d="M383.57 239.714C386.543 236.908 390.52 236.528 392.453 238.851C394.386 241.173 393.53 245.369 390.547 248.175C387.565 250.982 383.598 251.353 381.665 249.039C379.732 246.725 380.588 242.52 383.57 239.714Z" fill="#F0F0F0"/>
<path d="M383.257 250.239L378.028 254.34C378.452 260.116 378.792 273.421 378.792 273.421L380.633 282.729L364.239 282.85C364.239 282.85 364.985 274.993 364.985 274.57C364.985 274.146 368.198 259.089 368.198 259.089L369.311 250.662L360.834 248.486L359.287 244.73L353.074 241.752L350.036 237.823L351.214 237.59L354.565 241.216L358.477 241.933L356.802 238.592H358.643L363.3 246.362L369.302 247.398L368.51 236.52C374.291 238.048 374.853 235.259 374.853 235.259C374.853 235.259 376.832 249.937 377.531 251.569L380.624 250.256L383.975 245.792H385.466L383.257 250.239Z" fill="#F5F5F5"/>
<path d="M117.657 249.643C115.614 247.718 112.88 247.459 111.554 249.065C110.229 250.671 110.818 253.537 112.861 255.463C114.905 257.388 117.639 257.647 118.964 256.041C120.29 254.435 119.71 251.569 117.657 249.643Z" fill="#E6E6E6"/>
<path d="M127.589 239.274C122.287 234.56 115.19 233.929 111.757 237.858C108.323 241.786 109.833 248.788 115.144 253.494C120.455 258.2 127.543 258.838 130.986 254.91C134.428 250.981 132.9 243.979 127.589 239.274Z" fill="#EBEBEB"/>
<path d="M104.062 239.766C100.288 236.425 95.2525 235.976 92.8132 238.764C90.3739 241.553 91.4417 246.535 95.2157 249.868C98.9897 253.2 104.025 253.667 106.464 250.878C108.903 248.089 107.836 243.116 104.062 239.766Z" fill="#E6E6E6"/>
<path d="M99.947 246.311C96.173 242.969 91.1287 242.52 88.6894 245.309C86.2501 248.098 87.327 253.08 91.1011 256.412C94.8751 259.745 99.9102 260.211 102.35 257.414C104.789 254.616 103.712 249.652 99.947 246.311Z" fill="#EBEBEB"/>
<path d="M112.346 236.053C107.136 231.443 100.196 230.821 96.8266 234.672C93.4576 238.523 94.9856 245.378 100.15 249.989C105.314 254.599 112.3 255.221 115.66 251.37C119.02 247.519 117.547 240.673 112.346 236.053Z" fill="#F0F0F0"/>
<path d="M122.361 243.738C119.535 241.07 115.752 240.716 113.92 242.935C112.088 245.154 112.898 249.125 115.761 251.793C118.624 254.461 122.37 254.815 124.202 252.596C126.034 250.377 125.187 246.405 122.361 243.738Z" fill="#F0F0F0"/>
<path d="M98.9992 252.613C96.9557 250.688 94.2219 250.429 92.9056 252.035C91.5893 253.641 92.16 256.507 94.2035 258.433C96.247 260.358 98.9808 260.617 100.306 259.011C101.632 257.405 101.052 254.539 98.9992 252.613Z" fill="#F0F0F0"/>
<path d="M99.2106 259.883L102.81 262.698C102.524 266.669 102.285 275.804 102.285 275.804L101.006 282.193L112.263 282.288C112.263 282.288 111.757 276.892 111.757 276.599C111.757 276.305 109.585 265.927 109.585 265.927L108.811 260.142L114.62 258.649L115.678 256.058L119.949 254.021L122.03 251.327L121.229 251.154L118.918 253.649L116.231 254.142L117.381 251.845H116.102L112.908 257.163L108.784 257.88L109.327 250.412C105.36 251.456 104.973 249.548 104.973 249.548C104.973 249.548 103.611 259.598 103.132 260.772L101.006 259.883L98.7044 256.818H97.6826L99.2106 259.883Z" fill="#F5F5F5"/>
<path d="M145.438 282.573L162.007 254.461L211.253 225.554L228.034 192.633C228.034 192.633 267.496 211.369 268.628 211.844C269.76 212.318 284.405 261.377 285.648 262.137C286.891 262.896 298.59 271.496 298.59 271.496L299.566 282.426L145.438 282.573Z" fill="#F5F5F5"/>
<path d="M145.457 282.573L169.058 261.247L202.5 246.431L208.759 265.184L217.182 243.85L226.736 251.12L224.665 226.038L226.322 218.017L231.937 223.344L228.043 192.633L268.637 211.844L285.657 262.137L298.59 271.496L299.575 282.426L145.457 282.573Z" fill="#EBEBEB"/>
<path d="M232.885 194.602L245.063 215.703L255.106 219.416C255.106 219.416 260.399 229.716 260.344 229.06C260.288 228.404 259.736 216.851 259.736 216.851L268.647 211.844L232.885 194.602Z" fill="#FAFAFA"/>
<path d="M285.657 262.137L289.588 270.658L298.59 271.496L285.657 262.137Z" fill="#FAFAFA"/>
<path d="M272.237 204.738L307.142 202.83C308.379 202.763 309.611 203.036 310.686 203.615C322.219 212.992 334.619 206.732 340.141 203.037C342.221 201.623 344.685 200.791 347.248 200.637L386.148 198.513C400.738 197.718 403.067 178.361 389.011 174.614L388.467 174.476C402.965 161.732 367.959 138.437 333.79 175.201C335.898 163.45 303.865 169.408 294.964 185.769C290.812 175.572 261.135 195.301 272.237 204.738Z" fill="#F0F0F0"/>
<path d="M64.8212 192.952L76.9074 192.737L77.9107 193.134C80.6431 194.224 83.6019 194.726 86.5685 194.6C89.535 194.475 92.4337 193.726 95.0503 192.409L105.176 192.227C105.176 192.227 114.565 188.713 113.166 179.881C111.767 171.048 97.5725 178.724 97.5725 178.724C97.5725 178.724 101.65 166.299 87.8889 170.09C84.0083 171.095 80.5301 173.152 77.8892 176.002C75.2483 178.852 73.562 182.37 73.0413 186.114C73.0413 186.114 54.8523 183.386 64.8212 192.952Z" fill="#F0F0F0"/>
<path d="M118.744 226.824H170.439C177.058 226.824 178.659 218.129 172.4 216.083L172.161 216.005C179.074 210.6 163.876 199.203 147.408 214.986C148.697 209.72 134.043 211.628 129.56 218.803C127.995 214.123 114.022 222.282 118.744 226.824Z" fill="#F0F0F0"/>
<path d="M230.124 326.374C328.693 326.374 408.599 321.998 408.599 316.6C408.599 311.202 328.693 306.826 230.124 306.826C131.555 306.826 51.6489 311.202 51.6489 316.6C51.6489 321.998 131.555 326.374 230.124 326.374Z" fill="#F5F5F5"/>
<path d="M95.2705 293.055L111.241 294.212C111.241 294.212 108.544 275.519 111.895 273.439C116.018 270.848 117.74 274.172 118.218 280.009C118.697 285.846 118.301 301.464 114.159 301.024C110.017 300.584 95.2705 302.19 95.2705 302.19V293.055Z" fill="#407BFF"/>
<path opacity="0.1" d="M95.2705 293.055L111.241 294.212C111.241 294.212 108.544 275.519 111.895 273.439C116.018 270.848 117.74 274.172 118.218 280.009C118.697 285.846 118.301 301.464 114.159 301.024C110.017 300.584 95.2705 302.19 95.2705 302.19V293.055Z" fill="black"/>
<path d="M88.8367 249.22L70.3532 250.567C70.3532 250.567 73.4736 228.913 69.5891 226.504C64.821 223.543 62.8235 227.368 62.2712 234.111C61.7189 240.854 62.17 258.959 66.9749 258.45C71.7799 257.94 88.8367 259.797 88.8367 259.797V249.22Z" fill="#407BFF"/>
<path opacity="0.1" d="M88.8367 249.22L70.3532 250.567C70.3532 250.567 73.4736 228.913 69.5891 226.504C64.821 223.543 62.8235 227.368 62.2712 234.111C61.7189 240.854 62.17 258.959 66.9749 258.45C71.7799 257.94 88.8367 259.797 88.8367 259.797V249.22Z" fill="black"/>
<path d="M86.7466 318.465C87.4461 317.187 83.7642 205.17 83.7642 205.17C83.7642 205.17 84.5466 189.836 96.5222 188.679C102.505 188.1 106.132 192.426 108.259 196.898C110.276 201.241 111.059 206.001 110.532 210.713L102.432 318.491L86.7466 318.465Z" fill="#407BFF"/>
<g opacity="0.2">
<path d="M89.0114 317.334L87.7687 226.375C87.603 214.175 87.6214 201.267 94.2766 190.777C92.2963 196.524 90.8911 202.432 90.0791 208.425C89.3243 213.985 89.6281 219.398 89.5084 224.967C89.2139 237.702 90.3093 303.105 90.1896 311.35C90.2832 313.547 89.9909 315.744 89.3243 317.852L89.0114 317.334Z" fill="black"/>
</g>
<g opacity="0.2">
<path d="M101.153 317.178C102.478 286.882 104.835 257.371 106.188 227.074C106.722 214.883 107.108 201.975 100.748 191.312C102.557 197.11 103.789 203.052 104.43 209.063C105.019 214.641 104.55 220.046 104.513 225.623C104.43 238.359 100.297 302.915 100.177 311.169C100.011 313.362 100.238 315.565 100.849 317.688L101.153 317.178Z" fill="black"/>
</g>
<path d="M91.4419 195.335C91.3682 195.335 91.313 195.284 91.2486 195.206C91.2128 195.161 91.1849 195.112 91.1657 195.059V194.999L87.2168 187.927L87.631 187.729L89.6561 191.364C90.7883 193.384 91.3222 194.343 91.4971 194.817L91.6168 195.033C91.6904 195.24 91.6168 195.266 91.6168 195.301C91.565 195.332 91.5027 195.345 91.4419 195.335Z" fill="white"/>
<path d="M101.567 191.243L101.134 191.096C101.602 189.839 101.911 188.535 102.055 187.211L102.515 187.263C102.366 188.62 102.048 189.956 101.567 191.243Z" fill="white"/>
<path d="M111.38 210.254C110.748 210.255 110.123 210.141 109.539 209.918L109.713 209.512C110.78 209.926 111.979 209.926 113.046 209.512L113.23 209.909C112.644 210.138 112.015 210.256 111.38 210.254Z" fill="white"/>
<path d="M83.3229 213.129C82.4577 213.131 81.6007 212.972 80.8008 212.663L80.9849 212.258C82.1882 212.729 83.5217 212.823 84.7865 212.525L84.897 212.948C84.3821 213.068 83.8535 213.129 83.3229 213.129Z" fill="white"/>
<path d="M108.388 199.739L108.103 199.393C109.041 198.729 109.902 197.974 110.671 197.14L111.021 197.425C110.226 198.274 109.344 199.049 108.388 199.739Z" fill="white"/>
<path d="M85.2557 199.065C85.0516 198.777 84.76 198.553 84.4187 198.422C84.0773 198.291 83.7019 198.26 83.3411 198.331L83.249 197.908C83.7006 197.824 84.1686 197.867 84.5944 198.031C85.0201 198.196 85.3847 198.474 85.6423 198.832L85.2557 199.065Z" fill="white"/>
<path d="M110.101 242.019C108.462 241.367 106.916 240.526 105.498 239.516L105.774 239.17C107.17 240.165 108.695 240.989 110.312 241.622L110.101 242.019Z" fill="white"/>
<path d="M84.4272 246.138L84.3535 245.715C85.2985 245.583 86.1714 245.164 86.8389 244.523L87.1702 244.825C86.4341 245.533 85.4702 245.994 84.4272 246.138Z" fill="white"/>
<path d="M90.5752 282.645L86.6528 285.537L86.9373 285.877L90.8596 282.985L90.5752 282.645Z" fill="white"/>
<path d="M106.851 291.069C106.516 290.703 106.085 290.424 105.601 290.261C105.117 290.098 104.596 290.055 104.089 290.137L104.006 289.714C104.592 289.618 105.194 289.667 105.754 289.854C106.313 290.042 106.812 290.362 107.2 290.784L106.851 291.069Z" fill="white"/>
<path d="M96.9001 269.277L96.7988 268.854C97.6404 268.682 98.4419 268.369 99.1645 267.93L99.413 268.301C98.6426 268.762 97.7921 269.092 96.9001 269.277Z" fill="white"/>
<path d="M105.856 264.316L105.801 264.745L109.951 265.211L110.005 264.783L105.856 264.316Z" fill="white"/>
<path d="M92.9147 256.775H91.3867V257.207H92.9147V256.775Z" fill="white"/>
<path d="M102.331 256.601V256.17C102.755 256.168 103.166 256.035 103.5 255.791L103.785 256.127C103.368 256.428 102.858 256.595 102.331 256.601Z" fill="white"/>
<path d="M90.3881 276.026L90.2422 276.435L90.897 276.641L91.0429 276.231L90.3881 276.026Z" fill="white"/>
<path d="M103.673 278.789L103.567 279.209L106.406 279.84L106.513 279.42L103.673 278.789Z" fill="white"/>
<path d="M88.4783 227.842L88.2021 227.497L89.3252 226.711L89.6013 227.057L88.4783 227.842Z" fill="white"/>
<path d="M106.946 224.347L106.894 224.776L109.29 225.034L109.343 224.604L106.946 224.347Z" fill="white"/>
<path d="M90.8393 205.496L90.6328 205.883L91.5058 206.293L91.7123 205.906L90.8393 205.496Z" fill="white"/>
<path d="M96.2097 199.342C96.2108 198.258 96.0338 197.18 95.6851 196.147L96.1269 196.018C96.4871 197.093 96.6702 198.214 96.67 199.342H96.2097Z" fill="white"/>
<path d="M102.488 199.298L102.175 198.979C102.703 198.534 103.143 198.005 103.473 197.416L103.878 197.615C103.527 198.25 103.056 198.821 102.488 199.298Z" fill="white"/>
<path d="M104.724 206.56C104.619 206.558 104.515 206.535 104.42 206.491L104.623 206.102C104.684 206.127 104.752 206.131 104.816 206.114C104.88 206.096 104.935 206.059 104.973 206.007L105.369 206.223C105.301 206.326 105.206 206.411 105.093 206.47C104.98 206.529 104.853 206.56 104.724 206.56Z" fill="white"/>
<path d="M98.2999 215.386L98.0234 215.731L99.5236 216.789L99.8001 216.444L98.2999 215.386Z" fill="white"/>
<path d="M111.057 218.439C110.15 218.378 109.254 218.215 108.388 217.956L108.526 217.551C109.356 217.801 110.215 217.954 111.085 218.008L111.057 218.439Z" fill="white"/>
<path d="M89.6626 218.653L88.5864 219.9L88.9441 220.172L90.0203 218.924L89.6626 218.653Z" fill="white"/>
<path d="M95.0868 226.806L94.7554 226.513C94.9382 226.32 95.0634 226.084 95.1184 225.831C95.1734 225.578 95.1561 225.316 95.0683 225.071L95.5102 224.924C95.6246 225.245 95.6457 225.588 95.5713 225.919C95.4968 226.25 95.3296 226.556 95.0868 226.806Z" fill="white"/>
<path d="M103.611 220.741L103.251 221.009L103.932 221.813L104.292 221.545L103.611 220.741Z" fill="white"/>
<path d="M110.211 234.62C109.594 234.042 108.893 233.548 108.13 233.152L108.351 232.781C109.156 233.189 109.891 233.707 110.533 234.318L110.211 234.62Z" fill="white"/>
<path d="M86.2817 235.447L83.2212 236.471L83.376 236.878L86.4365 235.854L86.2817 235.447Z" fill="white"/>
<path d="M90.3467 240.975L90.2271 240.56C90.4484 240.494 90.6399 240.36 90.7715 240.18C90.9031 240.001 90.9674 239.785 90.9542 239.567H91.4145C91.4254 239.879 91.3268 240.186 91.1339 240.44C90.941 240.694 90.6645 240.882 90.3467 240.975Z" fill="white"/>
<path d="M105.609 237.616C105.46 237.383 105.262 237.181 105.028 237.021C104.794 236.861 104.528 236.746 104.247 236.684L104.348 236.261C104.692 236.336 105.015 236.476 105.3 236.672C105.585 236.868 105.825 237.115 106.005 237.4L105.609 237.616Z" fill="white"/>
<path d="M97.5721 247.312L97.4893 246.88C97.5347 246.869 97.5758 246.846 97.6083 246.814C97.6407 246.782 97.6632 246.742 97.6734 246.699C97.6959 246.659 97.7077 246.615 97.7077 246.57C97.7077 246.524 97.6959 246.48 97.6734 246.44L97.9955 246.138C98.0847 246.228 98.1462 246.339 98.1738 246.459C98.2013 246.579 98.1938 246.704 98.152 246.82C98.1134 246.944 98.0388 247.056 97.9364 247.143C97.834 247.23 97.7079 247.288 97.5721 247.312Z" fill="white"/>
<path d="M97.5055 237.845L97.0688 237.981L97.2869 238.596L97.7236 238.46L97.5055 237.845Z" fill="white"/>
<path d="M108.829 247.916C108.664 247.657 108.445 247.432 108.186 247.253C107.927 247.073 107.633 246.944 107.32 246.872L107.421 246.457C107.801 246.535 108.161 246.684 108.477 246.897C108.794 247.109 109.061 247.38 109.262 247.692L108.829 247.916Z" fill="white"/>
<path d="M63.5138 231.952C62.3181 231.297 61.268 230.433 60.4209 229.405L60.7799 229.146C61.5934 230.125 62.5996 230.949 63.7439 231.572L63.5138 231.952Z" fill="white"/>
<path d="M66.9017 223.957H66.4414V226.211H66.9017V223.957Z" fill="white"/>
<path d="M69.6903 229.422L69.4878 229.034C70.5977 228.529 71.561 227.779 72.2953 226.849L72.7187 227.074C71.9309 228.079 70.8906 228.886 69.6903 229.422Z" fill="white"/>
<path d="M68.9513 235.063L68.7446 235.45L69.1811 235.655L69.3877 235.268L68.9513 235.063Z" fill="white"/>
<path d="M73.234 234.206H71.2642V234.638H73.234V234.206Z" fill="white"/>
<path d="M61.7927 239.326L61.5073 238.98C62.1147 238.559 62.8116 238.264 63.5508 238.117L63.6521 238.54C62.9782 238.67 62.3433 238.939 61.7927 239.326Z" fill="white"/>
<path d="M63.6795 248.21L63.2192 248.15C63.2698 247.861 63.4133 247.594 63.6305 247.384C63.8477 247.174 64.1282 247.031 64.4343 246.975L64.5079 247.398C64.2992 247.44 64.1086 247.54 63.9609 247.685C63.8133 247.83 63.7152 248.013 63.6795 248.21Z" fill="white"/>
<path d="M69.0366 244.496C68.5694 244.382 68.1534 244.132 67.8491 243.78L68.1989 243.504C68.4351 243.781 68.7565 243.983 69.1194 244.082L69.0366 244.496Z" fill="white"/>
<path d="M73.0134 239.956H71.4854V240.388H73.0134V239.956Z" fill="white"/>
<path d="M71.3565 248.883C71.1977 248.719 70.9884 248.605 70.7576 248.557C70.5267 248.509 70.2857 248.529 70.0678 248.615L69.8745 248.227C70.185 248.101 70.53 248.07 70.8604 248.138C71.1909 248.206 71.4901 248.37 71.7155 248.607L71.3565 248.883Z" fill="white"/>
<path d="M64.3144 256.343L64.1855 255.929C64.6957 255.788 65.136 255.482 65.4282 255.065L65.8148 255.299C65.4652 255.805 64.9324 256.176 64.3144 256.343Z" fill="white"/>
<path d="M72.1297 259.978L71.7339 259.762C72.1507 259.058 72.2846 258.237 72.1113 257.448L72.5623 257.362C72.7539 258.255 72.6005 259.182 72.1297 259.978Z" fill="white"/>
<path d="M80.9571 259.9L80.4048 257.871L80.8558 257.768L81.4081 259.797L80.9571 259.9Z" fill="white"/>
<path d="M79.1622 251.051H78.7111C78.7476 250.302 78.6288 249.555 78.3613 248.849L78.794 248.702C79.0786 249.455 79.2037 250.253 79.1622 251.051Z" fill="white"/>
<path d="M72.1976 253.708L72.0786 254.125L72.9501 254.344L73.0691 253.927L72.1976 253.708Z" fill="white"/>
<path d="M84.5478 253.53L83.2334 253.748L83.3135 254.173L84.6279 253.956L84.5478 253.53Z" fill="white"/>
<path d="M76.7876 257.189L76.668 256.775C76.6908 256.762 76.7098 256.744 76.7232 256.723C76.7316 256.701 76.7316 256.676 76.7232 256.654L77.1558 256.507C77.1852 256.573 77.2003 256.643 77.2003 256.714C77.2003 256.785 77.1852 256.856 77.1558 256.921C77.1175 256.987 77.065 257.045 77.0016 257.091C76.9383 257.137 76.8654 257.17 76.7876 257.189Z" fill="white"/>
<path d="M85.2286 265.659C84.7951 265.66 84.3619 265.64 83.9307 265.598V265.167C85.102 265.29 86.2862 265.255 87.447 265.064L87.5298 265.486C86.77 265.61 85.9997 265.668 85.2286 265.659Z" fill="white"/>
<path d="M106.612 272.773C106.36 272.771 106.114 272.708 105.896 272.59C105.678 272.472 105.496 272.303 105.369 272.1L105.765 271.884C105.86 272.032 105.996 272.152 106.158 272.232C106.32 272.313 106.502 272.351 106.685 272.342V272.764L106.612 272.773Z" fill="white"/>
<path d="M83.8389 275.563L83.5259 275.243C84.479 274.414 85.7082 273.92 87.0054 273.844V274.276C85.8227 274.347 84.7033 274.802 83.8389 275.563Z" fill="white"/>
<path d="M97.6355 284.956L97.3481 285.293L98.4416 286.112L98.7289 285.775L97.6355 284.956Z" fill="white"/>
<path d="M85.1085 301.11L84.7495 300.834C85.8641 299.547 87.249 298.489 88.8181 297.726L89.0298 298.106C87.5173 298.845 86.1827 299.868 85.1085 301.11Z" fill="white"/>
<path d="M89.3895 309.209L88.9937 308.985L90.0338 307.318L90.4296 307.534L89.3895 309.209Z" fill="white"/>
<path d="M97.0118 307.778L96.6304 308.02L98.3973 310.474L98.7787 310.233L97.0118 307.778Z" fill="white"/>
<path d="M99.1501 298.369L98.978 298.771L100.713 299.425L100.885 299.023L99.1501 298.369Z" fill="white"/>
<path d="M112.3 301.689C111.41 301.153 110.602 300.505 109.898 299.764L110.248 299.479C110.92 300.192 111.694 300.813 112.549 301.326L112.3 301.689Z" fill="white"/>
<path d="M119.312 280.183L117.12 280.558L117.203 280.983L119.394 280.608L119.312 280.183Z" fill="white"/>
<path d="M115.237 273.637C115.17 273.215 115.219 272.784 115.38 272.385C115.541 271.986 115.809 271.632 116.157 271.358L116.452 271.686C116.167 271.914 115.949 272.207 115.818 272.536C115.688 272.866 115.649 273.221 115.706 273.568L115.237 273.637Z" fill="white"/>
<path d="M111.02 278.464C110.569 278.317 110.167 278.059 109.858 277.718C109.549 277.376 109.343 276.963 109.262 276.521L109.722 276.452C109.787 276.817 109.955 277.159 110.21 277.441C110.464 277.724 110.795 277.937 111.168 278.058L111.02 278.464Z" fill="white"/>
<path d="M119.738 294.264C119.073 293.9 118.348 293.643 117.593 293.504L117.676 293.081C118.484 293.228 119.258 293.502 119.968 293.892L119.738 294.264Z" fill="white"/>
<path d="M107.882 294.549C107.863 294.013 108.007 293.483 108.296 293.02L108.692 293.236C108.449 293.629 108.328 294.078 108.342 294.531L107.882 294.549Z" fill="white"/>
<path d="M111.214 287.555C110.49 287.295 109.854 286.856 109.373 286.286L109.732 286.018C110.173 286.532 110.756 286.923 111.416 287.149L111.214 287.555Z" fill="white"/>
<path d="M118.744 289.446C118.617 289.446 118.492 289.417 118.381 289.359C118.27 289.302 118.176 289.219 118.109 289.118L118.495 288.893C118.534 288.946 118.591 288.984 118.657 289.001C118.722 289.018 118.792 289.014 118.854 288.988L119.066 289.377C118.965 289.421 118.855 289.445 118.744 289.446Z" fill="white"/>
<path d="M114.363 284.076H113.902V284.49H114.363V284.076Z" fill="white"/>
<path d="M113.026 291.203L111.291 291.467L111.364 291.893L113.1 291.629L113.026 291.203Z" fill="white"/>
<path d="M117.252 299.807L116.12 298.607L116.461 298.313L117.593 299.513L117.252 299.807Z" fill="white"/>
<path d="M106.243 297.7H106.022V298.132H106.243V297.7Z" fill="white"/>
<path d="M104.863 308.423C104.086 307.991 103.213 307.734 102.313 307.672V307.249C103.288 307.309 104.235 307.584 105.074 308.052L104.863 308.423Z" fill="white"/>
<path d="M107.25 253.922L107.026 254.3L108.999 255.327L109.222 254.949L107.25 253.922Z" fill="white"/>
<path d="M95.6919 187.195L95.2437 187.293L95.5924 188.697L96.0407 188.599L95.6919 187.195Z" fill="white"/>
<path d="M107.33 193.85L106.879 193.738C107.005 193.295 107.279 192.902 107.661 192.616L107.947 192.952C107.641 193.179 107.424 193.495 107.33 193.85Z" fill="white"/>
<path d="M92.9237 293.297H90.7329V293.729H92.9237V293.297Z" fill="white"/>
<path d="M128.123 318.853C127.792 318.905 127.414 318.948 126.991 319H64.8023C64.7284 318.331 64.8295 317.656 65.0969 317.032C66.287 313.976 66.3679 310.637 65.327 307.534C66.8041 309.913 67.5497 312.63 67.4809 315.382C67.7663 312.628 67.0759 304.469 67.3705 301.715C71.0525 305.643 68.8893 313.941 71.0525 316.574C73.5746 315.944 71.4115 302.267 71.66 303.243C73.0131 303.243 74.2834 310.66 74.6608 313.155C74.6987 310.022 75.4587 306.934 76.8887 304.102C78.3187 301.27 80.3848 298.763 82.9453 296.75C76.6675 304.564 78.4164 311.065 78.6097 316.738C80.5796 311.912 81.3712 310.107 80.0641 305.168C85.1913 309.675 80.3218 317.601 82.9637 317.929C82.9637 317.929 85.4582 308.959 89.7385 303.727C88.7742 307.857 89.0937 312.16 90.659 316.125C92.141 317.204 90.7142 304.771 93.5678 301.542C93.9084 303.865 94.9761 314.83 96.3293 313.371C96.2004 309.46 95.0222 300.843 92.6013 297.709C95.0065 299.383 96.9324 301.59 98.2071 304.132C98.3083 303.847 98.4188 303.563 98.5292 303.269C99.2973 301.19 99.9124 299.064 100.37 296.906C100.429 300.122 100.254 303.339 99.8456 306.533C100.439 308.219 100.91 309.941 101.254 311.687C101.981 309.736 102.699 307.465 103.776 304.694C102.69 307.595 103.123 310.435 103.776 313.414C108.379 314.01 107.762 304.029 106.943 300.903C110.707 302.129 111.287 310.297 111.361 314.562C111.361 314.562 115.043 311.972 117.455 300.851C119.535 304.521 116.654 314.467 119.535 316.66C120.345 317.282 120.566 304.296 126.337 301.378C124.082 302.518 123.751 308.726 124.727 313.164C125.206 315.343 126.392 317.331 128.123 318.853Z" fill="#407BFF"/>
<path opacity="0.7" d="M128.123 318.853C127.792 318.905 127.414 318.948 126.991 319H64.8023C64.7284 318.331 64.8295 317.656 65.0969 317.032C66.287 313.976 66.3679 310.637 65.327 307.534C66.8041 309.913 67.5497 312.63 67.4809 315.382C67.7663 312.628 67.0759 304.469 67.3705 301.715C71.0525 305.643 68.8893 313.941 71.0525 316.574C73.5746 315.944 71.4115 302.267 71.66 303.243C73.0131 303.243 74.2834 310.66 74.6608 313.155C74.6987 310.022 75.4587 306.934 76.8887 304.102C78.3187 301.27 80.3848 298.763 82.9453 296.75C76.6675 304.564 78.4164 311.065 78.6097 316.738C80.5796 311.912 81.3712 310.107 80.0641 305.168C85.1913 309.675 80.3218 317.601 82.9637 317.929C82.9637 317.929 85.4582 308.959 89.7385 303.727C88.7742 307.857 89.0937 312.16 90.659 316.125C92.141 317.204 90.7142 304.771 93.5678 301.542C93.9084 303.865 94.9761 314.83 96.3293 313.371C96.2004 309.46 95.0222 300.843 92.6013 297.709C95.0065 299.383 96.9324 301.59 98.2071 304.132C98.3083 303.847 98.4188 303.563 98.5292 303.269C99.2973 301.19 99.9124 299.064 100.37 296.906C100.429 300.122 100.254 303.339 99.8456 306.533C100.439 308.219 100.91 309.941 101.254 311.687C101.981 309.736 102.699 307.465 103.776 304.694C102.69 307.595 103.123 310.435 103.776 313.414C108.379 314.01 107.762 304.029 106.943 300.903C110.707 302.129 111.287 310.297 111.361 314.562C111.361 314.562 115.043 311.972 117.455 300.851C119.535 304.521 116.654 314.467 119.535 316.66C120.345 317.282 120.566 304.296 126.337 301.378C124.082 302.518 123.751 308.726 124.727 313.164C125.206 315.343 126.392 317.331 128.123 318.853Z" fill="white"/>
<path d="M156.714 318.491C161.035 314.547 163.88 309.398 164.824 303.813C162.587 307.828 160.838 308.682 157.294 312.032C156.999 308.985 162.053 299.712 156.466 282.211C157.91 289.851 157.495 297.699 155.25 305.168C155.398 294.747 151.854 289.006 148.172 284.101C155.84 303.027 152.029 308.864 150.298 318.456C152.029 318.594 156.714 318.491 156.714 318.491Z" fill="#407BFF"/>
<path opacity="0.7" d="M156.714 318.491C161.035 314.547 163.88 309.398 164.824 303.813C162.587 307.828 160.838 308.682 157.294 312.032C156.999 308.985 162.053 299.712 156.466 282.211C157.91 289.851 157.495 297.699 155.25 305.168C155.398 294.747 151.854 289.006 148.172 284.101C155.84 303.027 152.029 308.864 150.298 318.456C152.029 318.594 156.714 318.491 156.714 318.491Z" fill="white"/>
<path d="M176.735 318.439C178.834 314.83 178.834 308.631 178.834 297.769C179.754 300.929 180.619 308.268 180.997 311.532C182.331 299.246 182.571 294.911 183.906 282.625C185.7 293.564 186.078 299.03 184.992 310.029C187.606 296.215 189.824 297.329 193.46 291.976C190.122 298.108 188.569 304.958 188.959 311.834C191.325 308.277 193.276 305.479 195.642 301.922C193.801 307.413 192.475 312.991 190.634 318.482L176.735 318.439Z" fill="#407BFF"/>
<path opacity="0.7" d="M176.735 318.439C178.834 314.83 178.834 308.631 178.834 297.769C179.754 300.929 180.619 308.268 180.997 311.532C182.331 299.246 182.571 294.911 183.906 282.625C185.7 293.564 186.078 299.03 184.992 310.029C187.606 296.215 189.824 297.329 193.46 291.976C190.122 298.108 188.569 304.958 188.959 311.834C191.325 308.277 193.276 305.479 195.642 301.922C193.801 307.413 192.475 312.991 190.634 318.482L176.735 318.439Z" fill="white"/>
<path d="M222.078 304.495C220.495 309.209 221.47 318.94 221.47 318.94C217.973 318.94 192.015 318.637 189.087 318.637C189.087 318.637 196.313 315.184 198.136 304.469C198.951 307.188 199.52 309.966 199.839 312.775C200.999 302.216 204.938 299.824 203.999 309.321C206.227 304.909 208.326 300.402 210.553 295.982C210.308 299.832 209.639 303.649 208.556 307.37C207.635 310.625 206.715 312.853 206.715 312.982C207.525 311.756 208.289 310.634 209.035 309.529C209.228 310.591 209.384 310.97 209.513 312.05C209.705 310.555 209.978 309.071 210.332 307.603C212.118 298.753 214.604 299.833 213.665 309.27C215.892 304.858 217.991 300.351 220.219 295.93C219.771 301.765 218.457 307.513 216.316 313.008C218.378 309.96 220.044 307.543 222.078 304.495Z" fill="#407BFF"/>
<path opacity="0.7" d="M222.078 304.495C220.495 309.209 221.47 318.94 221.47 318.94C217.973 318.94 192.015 318.637 189.087 318.637C189.087 318.637 196.313 315.184 198.136 304.469C198.951 307.188 199.52 309.966 199.839 312.775C200.999 302.216 204.938 299.824 203.999 309.321C206.227 304.909 208.326 300.402 210.553 295.982C210.308 299.832 209.639 303.649 208.556 307.37C207.635 310.625 206.715 312.853 206.715 312.982C207.525 311.756 208.289 310.634 209.035 309.529C209.228 310.591 209.384 310.97 209.513 312.05C209.705 310.555 209.978 309.071 210.332 307.603C212.118 298.753 214.604 299.833 213.665 309.27C215.892 304.858 217.991 300.351 220.219 295.93C219.771 301.765 218.457 307.513 216.316 313.008C218.378 309.96 220.044 307.543 222.078 304.495Z" fill="white"/>
<path d="M316.558 318.594C317.325 313.782 318.086 308.973 318.841 304.167C319.597 306.9 320.111 309.687 320.378 312.499C321.75 301.965 326.739 291.501 328.11 280.967C329.454 290.396 325.754 298.969 324.622 308.423C326.941 304.046 329.114 300.264 331.433 295.887C330.878 301.702 329.459 307.415 327.217 312.861C329.316 309.839 331.038 307.465 333.136 304.443L328.092 318.508C324.594 318.465 320.056 318.681 316.558 318.594Z" fill="#407BFF"/>
<path opacity="0.7" d="M316.558 318.594C317.325 313.782 318.086 308.973 318.841 304.167C319.597 306.9 320.111 309.687 320.378 312.499C321.75 301.965 326.739 291.501 328.11 280.967C329.454 290.396 325.754 298.969 324.622 308.423C326.941 304.046 329.114 300.264 331.433 295.887C330.878 301.702 329.459 307.415 327.217 312.861C329.316 309.839 331.038 307.465 333.136 304.443L328.092 318.508C324.594 318.465 320.056 318.681 316.558 318.594Z" fill="white"/>
<path d="M315.592 318.396C318.862 314.833 320.94 310.446 321.566 305.781C319.918 309.235 318.629 309.969 316.043 312.844C315.822 310.254 319.541 302.259 315.435 287.218C316.484 293.786 316.172 300.482 314.515 306.938C313.531 302.097 311.639 297.458 308.927 293.236C311.459 301.389 312.121 309.952 310.87 318.361C312.149 318.499 315.592 318.396 315.592 318.396Z" fill="#407BFF"/>
<path d="M311.993 318.508C312.066 314.528 313.447 308.631 311.072 305.661C311.137 307.88 310.575 312.568 306.709 315.21C308.486 309.788 307.998 301.853 307.749 296.215C303.763 316.583 297.182 317.973 294.862 318.594C299.345 318.646 311.993 318.508 311.993 318.508Z" fill="#407BFF"/>
<g opacity="0.7">
<path d="M315.592 318.396C318.862 314.833 320.94 310.446 321.566 305.781C319.918 309.235 318.629 309.969 316.043 312.844C315.822 310.254 319.541 302.259 315.435 287.218C316.484 293.786 316.172 300.482 314.515 306.938C313.531 302.097 311.639 297.458 308.927 293.236C311.459 301.389 312.121 309.952 310.87 318.361C312.149 318.499 315.592 318.396 315.592 318.396Z" fill="white"/>
<path d="M311.993 318.508C312.066 314.528 313.447 308.631 311.072 305.661C311.137 307.88 310.575 312.568 306.709 315.21C308.486 309.788 307.998 301.853 307.749 296.215C303.763 316.583 297.182 317.973 294.862 318.594C299.345 318.646 311.993 318.508 311.993 318.508Z" fill="white"/>
</g>
<path d="M342.065 318.491C342.129 314.502 340.831 311.445 340.896 307.465C339.349 314.631 335.695 315.4 335.695 315.4C338.512 308.631 338.631 301.853 338.456 296.181C337.048 303.165 335.511 310.452 331.451 315.883C330.485 317.187 329.049 318.94 327.631 318.413C327.604 318.413 338.429 318.404 342.065 318.491Z" fill="#407BFF"/>
<path opacity="0.7" d="M342.065 318.491C342.129 314.502 340.831 311.445 340.896 307.465C339.349 314.631 335.695 315.4 335.695 315.4C338.512 308.631 338.631 301.853 338.456 296.181C337.048 303.165 335.511 310.452 331.451 315.883C330.485 317.187 329.049 318.94 327.631 318.413C327.604 318.413 338.429 318.404 342.065 318.491Z" fill="white"/>
<path d="M266.143 318.491C266.208 314.502 264.901 311.445 264.965 307.465C263.428 314.631 259.774 315.4 259.774 315.4C262.581 308.631 262.71 301.853 262.535 296.181C261.127 303.165 259.599 310.452 255.539 315.883C254.564 317.187 253.137 318.94 251.71 318.413C251.673 318.413 262.507 318.404 266.143 318.491Z" fill="#407BFF"/>
<path opacity="0.7" d="M266.143 318.491C266.208 314.502 264.901 311.445 264.965 307.465C263.428 314.631 259.774 315.4 259.774 315.4C262.581 308.631 262.71 301.853 262.535 296.181C261.127 303.165 259.599 310.452 255.539 315.883C254.564 317.187 253.137 318.94 251.71 318.413C251.673 318.413 262.507 318.404 266.143 318.491Z" fill="white"/>
<path d="M256.737 133.715L214.439 113.22L202.001 135.803L244.299 156.298L256.737 133.715Z" fill="#407BFF"/>
<path d="M296.01 153.864L253.712 133.369L242.306 154.081L284.603 174.576L296.01 153.864Z" fill="#407BFF"/>
<path d="M247.291 156.793L244.437 156.163L256.707 133.879L258.907 135.692L247.291 156.793Z" fill="#263238"/>
<path opacity="0.2" d="M247.291 156.793L244.437 156.163L256.707 133.879L258.907 135.692L247.291 156.793Z" fill="black"/>
<path d="M256.775 133.731L254.207 132.486L241.77 155.07L244.337 156.314L256.775 133.731Z" fill="#263238"/>
<path d="M294.061 174.277L287.397 175.65L298.581 155.326L301.25 161.223L294.061 174.277Z" fill="#263238"/>
<path d="M318.998 171.255L311.286 167.52L305.859 177.378L313.571 181.113L318.998 171.255Z" fill="#263238"/>
<path opacity="0.2" d="M318.998 171.255L311.286 167.52L305.859 177.378L313.571 181.113L318.998 171.255Z" fill="black"/>
<path d="M314.243 166.961L297.952 159.068L290.601 172.415L306.892 180.309L314.243 166.961Z" fill="#263238"/>
<path opacity="0.2" d="M294.061 174.277L287.397 175.65L298.581 155.326L301.25 161.223L294.061 174.277Z" fill="black"/>
<path d="M298.582 155.11L296.014 153.865L284.607 174.577L287.175 175.821L298.582 155.11Z" fill="#263238"/>
<path d="M215.75 113.837L213.182 112.593L200.749 135.178L203.317 136.422L215.75 113.837Z" fill="#263238"/>
<path d="M303.275 180.191C302.874 180.919 302.251 181.519 301.486 181.915C300.721 182.311 299.848 182.486 298.978 182.417C298.107 182.347 297.278 182.038 296.595 181.526C295.912 181.015 295.406 180.325 295.141 179.544C294.876 178.764 294.863 177.926 295.106 177.139C295.348 176.351 295.833 175.649 296.501 175.12C297.169 174.592 297.988 174.261 298.857 174.169C299.725 174.077 300.603 174.229 301.379 174.605C301.895 174.855 302.353 175.198 302.727 175.614C303.102 176.03 303.385 176.511 303.561 177.03C303.737 177.549 303.803 178.095 303.754 178.637C303.705 179.18 303.542 179.708 303.275 180.191Z" fill="#263238"/>
<path d="M303.275 180.191C302.874 180.919 302.251 181.519 301.486 181.915C300.721 182.311 299.848 182.486 298.978 182.417C298.107 182.347 297.278 182.038 296.595 181.526C295.912 181.015 295.406 180.325 295.141 179.544C294.876 178.764 294.863 177.926 295.106 177.139C295.348 176.351 295.833 175.649 296.501 175.12C297.169 174.592 297.988 174.261 298.857 174.169C299.725 174.077 300.603 174.229 301.379 174.605C301.895 174.855 302.353 175.198 302.727 175.614C303.102 176.03 303.385 176.511 303.561 177.03C303.737 177.549 303.803 178.095 303.754 178.637C303.705 179.18 303.542 179.708 303.275 180.191Z" fill="#407BFF"/>
<path d="M336.959 163.115L329.181 159.346L321.619 173.077L329.396 176.846L336.959 163.115Z" fill="#263238"/>
<path opacity="0.2" d="M336.959 163.115L329.181 159.346L321.619 173.077L329.396 176.846L336.959 163.115Z" fill="black"/>
<path d="M319.863 169.658L312.508 183.006L316.006 184.698L331.544 179.501L333.431 176.228L319.863 169.658Z" fill="#263238"/>
<path d="M336.745 164.452L328.175 160.299V156.698L339.884 162.371L336.745 164.452Z" fill="#407BFF"/>
<path d="M214.278 110.542L206.983 107.007L192.45 133.395L199.745 136.93L214.278 110.542Z" fill="#407BFF"/>
<g opacity="0.4">
<path d="M219.749 118.018L216.61 116.507L215.229 119.02L218.414 120.548C218.916 119.732 219.362 118.887 219.749 118.018Z" fill="white"/>
<path d="M221.646 119.002C221.253 119.872 220.807 120.719 220.311 121.541L250.54 136.003L251.93 133.499L221.646 119.002Z" fill="white"/>
</g>
<g opacity="0.4">
<path d="M294.154 155.118L292.764 157.622L257.757 140.561L259.138 138.049L294.154 155.118Z" fill="white"/>
</g>
<g opacity="0.4">
<path d="M213.187 111.085L211.797 113.589L206.099 110.791L207.48 108.279L213.187 111.085Z" fill="white"/>
</g>
<path d="M287.198 140.42L279.248 136.569L277.723 139.339L285.673 143.189L287.198 140.42Z" fill="#263238"/>
<path d="M305.093 137.377L267.891 119.351L264.486 125.533L301.688 143.559L305.093 137.377Z" fill="#407BFF"/>
<g opacity="0.4">
<path d="M271.031 121.592L268.536 120.392L267.901 121.61L270.487 122.853C270.743 122.465 270.927 122.038 271.031 121.592Z" fill="white"/>
<path d="M272.282 122.231C272.151 122.669 271.962 123.089 271.721 123.483L303.211 138.593L303.772 137.35L272.282 122.231Z" fill="white"/>
</g>
<path d="M285.739 127.23L283.547 126.168L274.135 143.259L276.327 144.321L285.739 127.23Z" fill="#263238"/>
<path opacity="0.2" d="M285.739 127.23L283.547 126.168L274.135 143.259L276.327 144.321L285.739 127.23Z" fill="black"/>
<path d="M263.188 124.07L264.513 125.521L267.91 119.339L265.885 119.175L263.188 124.07Z" fill="#263238"/>
<path d="M309.214 138.603L297.576 132.964L293.466 140.428L305.103 146.067L309.214 138.603Z" fill="#263238"/>
<path opacity="0.3" d="M266.419 122.965C266.026 123.832 265.58 124.676 265.084 125.495L301.278 143.324L302.668 140.82L266.419 122.965Z" fill="black"/>
<path opacity="0.3" d="M194.924 130.416C194.531 131.283 194.085 132.128 193.589 132.946L199.471 135.873L200.861 133.369L194.924 130.416Z" fill="black"/>
<path opacity="0.3" d="M206.761 133.473C206.369 134.342 205.923 135.19 205.427 136.011L241.621 153.832L243.011 151.328L206.761 133.473Z" fill="black"/>
<path opacity="0.3" d="M251.176 154.264C250.783 155.133 250.337 155.98 249.841 156.802L283.687 173.336L285.077 170.832L251.176 154.264Z" fill="black"/>
<path d="M277.208 169.362L257.302 159.717L253.694 166.268L273.6 175.913L277.208 169.362Z" fill="#263238"/>
<path d="M266.676 179.881H257.71V188.29H266.676V179.881Z" fill="#263238"/>
<path opacity="0.2" d="M266.676 179.881H257.71V188.29H266.676V179.881Z" fill="black"/>
<path d="M266.676 166.507H262.203V181.901H266.676V166.507Z" fill="#263238"/>
<path d="M266.677 177.877H248.746V181.901H266.677V177.877Z" fill="#263238"/>
<path d="M271.15 186.891H248.746V192.892H271.15V186.891Z" fill="#263238"/>
<path d="M261.651 318.292H258.457L256.533 192.892H263.584L261.651 318.292Z" fill="#263238"/>
<path opacity="0.1" d="M261.651 318.292H258.457L256.533 192.892H263.584L261.651 318.292Z" fill="white"/>
<path d="M226.156 315.59L223.017 315.028L246.122 191.502L253.044 192.737L226.156 315.59Z" fill="#263238"/>
<path opacity="0.1" d="M226.156 315.59L223.017 315.028L246.122 191.502L253.044 192.737L226.156 315.59Z" fill="white"/>
<path d="M231.8 296.999L224.838 295.748L223.505 302.278L230.467 303.528L231.8 296.999Z" fill="#263238"/>
<path d="M229.135 303.72L222.189 302.457L220.842 308.972L227.788 310.235L229.135 303.72Z" fill="#263238"/>
<path d="M227.758 311.299L223.128 310.47L222.134 318.292H225.724L227.758 311.299Z" fill="#263238"/>
<path d="M293.574 315.59L296.713 315.028L273.599 191.502L266.677 192.737L293.574 315.59Z" fill="#263238"/>
<path opacity="0.1" d="M293.574 315.59L296.713 315.028L273.599 191.502L266.677 192.737L293.574 315.59Z" fill="white"/>
<path d="M289.276 303.515L296.238 302.265L294.905 295.735L287.943 296.985L289.276 303.515Z" fill="#263238"/>
<path d="M290.722 310.587L297.683 309.337L296.35 302.807L289.389 304.058L290.722 310.587Z" fill="#263238"/>
<path d="M291.972 311.299L296.593 310.47L297.587 318.292H293.997L291.972 311.299Z" fill="#263238"/>
<path d="M259.789 291.134L228.558 293.398L228.842 296.85L260.073 294.586L259.789 291.134Z" fill="#263238"/>
<path d="M260.085 294.589L291.316 296.854L291.601 293.402L260.37 291.137L260.085 294.589Z" fill="#263238"/>
<path d="M336.736 170.893C337.657 170.029 338.955 169.062 339.847 168.173C340.248 166.525 340.519 164.851 340.657 163.165C340.529 162.844 340.318 162.557 340.044 162.329C339.769 162.102 339.439 161.941 339.083 161.861C338.844 161.792 336.994 163.355 336.745 163.416C335.825 162.682 334.601 166.058 334.619 166.006C334.251 167.215 333.432 168.432 333.699 169.667C333.873 170.703 335.981 171.652 336.736 170.893Z" fill="#B55B52"/>
<path d="M334.187 170.642L337.335 169.615L341.679 177.446C342.314 178.615 343.347 179.553 344.615 180.109C345.882 180.666 347.311 180.81 348.675 180.519C352.274 179.656 357.273 177.066 362.225 169.58C362.225 169.58 367.748 171.747 367.95 174.303C367.95 174.303 351.004 192.84 340.658 183.887C337.233 180.925 334.187 170.642 334.187 170.642Z" fill="#B55B52"/>
<path d="M367.122 207.147C367.122 207.147 380.156 222.8 373.031 238.065C369.137 246.423 365.363 270.805 365.363 270.805C370.17 273.911 374.264 277.889 377.403 282.504C385.126 294.203 388.9 297.286 388.9 297.286L383.377 301.231C383.377 301.231 360.604 285.017 354.842 277.108C349.08 269.199 350.138 262.188 357.604 231.978L340.169 267.524C347.671 277.022 346.825 301.344 346.825 301.344L338.163 302.639C338.163 302.639 328.958 278.265 326.555 271.703C324.153 265.141 322.119 263.423 329.317 241.881C332.078 233.619 340.602 208.001 340.602 208.001L367.122 207.147Z" fill="#407BFF"/>
<path opacity="0.6" d="M367.122 207.147C367.122 207.147 380.156 222.8 373.031 238.065C369.137 246.423 365.363 270.805 365.363 270.805C370.17 273.911 374.264 277.889 377.403 282.504C385.126 294.203 388.9 297.286 388.9 297.286L383.377 301.231C383.377 301.231 360.604 285.017 354.842 277.108C349.08 269.199 350.138 262.188 357.604 231.978L340.169 267.524C347.671 277.022 346.825 301.344 346.825 301.344L338.163 302.639C338.163 302.639 328.958 278.265 326.555 271.703C324.153 265.141 322.119 263.423 329.317 241.881C332.078 233.619 340.602 208.001 340.602 208.001L367.122 207.147Z" fill="black"/>
<path opacity="0.2" d="M357.668 231.978C357.668 231.978 363.532 229.569 364.24 224.026C364.24 224.026 364.24 232.306 358.588 237.158C355.072 240.18 355.523 240.612 355.523 240.612L357.668 231.978Z" fill="black"/>
<path d="M383.138 300.247L390.622 307.448L395.362 307.042L387.879 297.104L383.138 300.247Z" fill="#B55B52"/>
<path d="M339.147 302.639L342.397 313.431L346.99 313.258L346.272 302.276L339.147 302.639Z" fill="#B55B52"/>
<path d="M397.709 308.233C397.884 308.036 397.972 307.784 397.956 307.528C397.941 307.271 397.823 307.03 397.627 306.852C397.166 306.489 395.786 305.6 394.81 304.978C394.193 304.59 393.401 303.977 392.785 304.357L390.023 306.662C389.305 307.094 389.241 307.724 389.278 308.518C389.261 310.927 388.521 313.282 387.142 315.313C386.139 316.798 385.559 317.904 386.222 318.447C386.416 318.588 386.649 318.672 386.894 318.689C387.375 318.731 387.86 318.659 388.303 318.479C388.747 318.3 389.136 318.019 389.434 317.662L397.709 308.233Z" fill="#263238"/>
<path d="M346.723 311.022C347.133 311.022 347.526 311.174 347.817 311.444C348.108 311.713 348.274 312.08 348.279 312.464C348.372 314.479 348.335 316.497 348.169 318.508C347.902 319.095 329.427 318.413 329.427 318.413C329.132 318.221 328.893 317.962 328.732 317.66C328.571 317.358 328.494 317.023 328.507 316.686C328.645 315.616 334.886 315.046 337.113 313.958C338.521 313.232 339.839 312.364 341.044 311.368C341.326 311.134 341.689 311.004 342.066 311.005L346.723 311.022Z" fill="#263238"/>
<path d="M380.155 300.333L388.246 294.678L390.262 297.147L382.862 302.526L380.155 300.333Z" fill="#407BFF"/>
<path opacity="0.4" d="M380.155 300.333L388.246 294.678L390.262 297.147L382.862 302.526L380.155 300.333Z" fill="white"/>
<path d="M336.717 301.87C336.911 301.741 348.113 299.902 348.113 299.902L348.371 303.407L337.822 305.695L336.717 301.87Z" fill="#407BFF"/>
<path opacity="0.4" d="M336.717 301.87C336.911 301.741 348.113 299.902 348.113 299.902L348.371 303.407L337.822 305.695L336.717 301.87Z" fill="white"/>
<path d="M352.384 151.095C353.102 155.032 355.661 164.288 359.417 165.773C359.417 165.773 359.84 169.882 352.559 172.481C344.551 175.33 346.631 167.871 346.631 167.871C350.608 165.324 349.255 162.328 347.331 159.746L352.384 151.095Z" fill="#B55B52"/>
<path d="M361.056 165.289C361.063 164.898 360.91 164.52 360.626 164.234C360.343 163.947 359.953 163.775 359.537 163.752C356.333 163.614 349.052 163.407 345.508 164.27C342.876 164.918 342.351 166.455 342.388 167.663C342.394 167.858 342.441 168.05 342.526 168.227C342.611 168.405 342.733 168.565 342.885 168.698C343.036 168.831 343.214 168.935 343.408 169.004C343.603 169.072 343.81 169.104 344.017 169.097H344.266L359.739 166.722C360.101 166.661 360.429 166.485 360.668 166.224C360.908 165.964 361.045 165.633 361.056 165.289Z" fill="#407BFF"/>
<path opacity="0.4" d="M361.056 165.289C361.063 164.898 360.91 164.52 360.626 164.234C360.343 163.947 359.953 163.775 359.537 163.752C356.333 163.614 349.052 163.407 345.508 164.27C342.876 164.918 342.351 166.455 342.388 167.663C342.394 167.858 342.441 168.05 342.526 168.227C342.611 168.405 342.733 168.565 342.885 168.698C343.036 168.831 343.214 168.935 343.408 169.004C343.603 169.072 343.81 169.104 344.017 169.097H344.266L359.739 166.722C360.101 166.661 360.429 166.485 360.668 166.224C360.908 165.964 361.045 165.633 361.056 165.289Z" fill="white"/>
<path d="M369.662 172.369C366.072 190.613 366.348 197.114 367.14 207.112L340.666 207.976C340.666 207.976 337.509 193.125 337.187 187.72C336.993 184.595 336.837 181.901 336.708 179.578C336.137 169.874 336.036 166.774 336.036 166.774C343.449 165.349 351.046 164.962 358.579 165.626C360.58 165.678 362.574 165.79 364.562 165.963C365.36 166.037 366.133 166.266 366.832 166.636C367.53 167.006 368.138 167.508 368.618 168.111C369.098 168.714 369.439 169.404 369.618 170.137C369.798 170.87 369.813 171.63 369.662 172.369Z" fill="#407BFF"/>
<path d="M307.372 184.249C306.865 183.127 306.451 181.599 305.973 180.485C304.2 179.241 302.274 178.201 300.238 177.385C299.321 178.236 298.477 179.154 297.716 180.131C297.559 180.321 297.67 180.701 297.633 180.934C298.735 182.005 299.993 182.923 301.37 183.662C302.401 184.457 303.644 186.106 304.942 186.391C306.037 186.632 307.804 185.216 307.372 184.249Z" fill="#B55B52"/>
<path d="M304.942 186.391L307.373 184.249L321.935 188.135C321.935 188.135 328.857 179.25 330.1 174.726C330.1 174.726 336.083 174.605 337.381 176.859C337.381 176.859 329.418 192.4 325.193 194.843C320.968 197.287 304.942 186.391 304.942 186.391Z" fill="#B55B52"/>
<path d="M306.369 186.028L305.55 187.263L307.437 188.359L307.971 187.047C307.971 187.047 307.188 187.09 306.369 186.028Z" fill="#407BFF"/>
<path d="M309.572 185.544C309.574 185.842 309.482 186.133 309.307 186.381C309.132 186.63 308.883 186.824 308.59 186.939C308.298 187.054 307.975 187.085 307.664 187.028C307.353 186.971 307.066 186.828 306.842 186.618C306.617 186.409 306.463 186.141 306.401 185.849C306.338 185.558 306.369 185.255 306.49 184.98C306.611 184.705 306.816 184.47 307.08 184.305C307.344 184.139 307.654 184.051 307.971 184.051C308.394 184.051 308.8 184.208 309.1 184.488C309.4 184.768 309.57 185.148 309.572 185.544Z" fill="#263238"/>
<path d="M307.971 187.479C307.563 187.479 307.164 187.365 306.825 187.153C306.486 186.94 306.222 186.638 306.066 186.285C305.91 185.931 305.869 185.542 305.948 185.167C306.028 184.792 306.224 184.447 306.513 184.177C306.801 183.906 307.168 183.722 307.568 183.648C307.968 183.573 308.383 183.611 308.76 183.758C309.136 183.904 309.458 184.152 309.685 184.47C309.912 184.788 310.033 185.162 310.033 185.544C310.033 186.057 309.815 186.549 309.429 186.912C309.042 187.275 308.517 187.479 307.971 187.479ZM307.971 184.483C307.744 184.483 307.523 184.546 307.336 184.664C307.148 184.782 307.001 184.949 306.915 185.145C306.829 185.342 306.807 185.557 306.852 185.765C306.897 185.973 307.006 186.164 307.167 186.313C307.327 186.463 307.532 186.564 307.754 186.604C307.976 186.645 308.205 186.622 308.414 186.54C308.622 186.457 308.8 186.319 308.924 186.142C309.048 185.964 309.114 185.757 309.112 185.544C309.11 185.262 308.988 184.992 308.774 184.793C308.561 184.594 308.272 184.483 307.971 184.483Z" fill="#407BFF"/>
<path opacity="0.2" d="M337.381 187.815C337.314 187.8 337.249 187.777 337.188 187.746C336.994 184.621 336.838 181.927 336.709 179.604C338.366 175.857 340.391 171.885 340.916 173.811C341.624 176.556 337.381 187.815 337.381 187.815Z" fill="black"/>
<path d="M325.663 180.148L335.641 185.631C335.641 185.631 342.885 176.133 341.329 170.875C341.247 167.301 337.813 166.135 336.046 166.774C330.118 168 325.663 180.148 325.663 180.148Z" fill="#407BFF"/>
<path d="M334.803 150.775C335.037 150.527 335.331 150.335 335.661 150.216C335.992 150.097 336.348 150.055 336.699 150.093H336.791C336.828 150.094 336.866 150.089 336.901 150.076C336.936 150.064 336.968 150.045 336.995 150.021C337.023 149.997 337.045 149.968 337.06 149.936C337.076 149.904 337.084 149.869 337.086 149.834C337.087 149.799 337.081 149.764 337.067 149.731C337.054 149.698 337.034 149.668 337.009 149.642C336.983 149.617 336.952 149.596 336.918 149.582C336.884 149.567 336.847 149.559 336.809 149.558C336.37 149.5 335.923 149.542 335.505 149.68C335.086 149.818 334.71 150.049 334.407 150.352C334.362 150.4 334.336 150.461 334.333 150.525C334.331 150.577 334.345 150.629 334.372 150.674C334.4 150.719 334.441 150.756 334.49 150.78C334.539 150.805 334.594 150.815 334.65 150.812C334.705 150.808 334.758 150.789 334.803 150.758V150.775Z" fill="#263238"/>
<path d="M337.086 152.632C337.322 153.827 337.421 155.043 337.38 156.258C337.627 156.356 337.897 156.389 338.162 156.352C338.426 156.316 338.675 156.211 338.881 156.051L337.086 152.632Z" fill="#DF5753"/>
<path d="M336.054 150.844C335.714 151 335.649 151.518 335.898 152.001C336.147 152.485 336.634 152.744 336.966 152.589C337.297 152.433 337.371 151.924 337.113 151.44C336.855 150.957 336.386 150.689 336.054 150.844Z" fill="#263238"/>
<path d="M353.286 141.485C355.993 147.529 357.272 150.119 355.689 154.566C353.296 161.318 344.763 163.113 340.197 157.95C336.064 153.271 332.133 145.621 337.076 140.432C340.565 136.719 346.806 134.889 350.764 138.161C351.866 139.073 352.729 140.21 353.286 141.485Z" fill="#B55B52"/>
<path d="M334.187 142.832C334.135 143.817 334.32 144.8 334.728 145.708C335.136 146.617 335.756 147.428 336.543 148.082C337.942 149.239 340.004 150.085 340.225 151.82C340.317 152.45 340.152 153.158 340.557 153.668C341.127 154.393 342.324 154.151 343.226 153.84C343.511 153.927 343.594 154.272 343.695 154.54C344.1 155.671 343.244 156.819 342.821 157.942C342.356 159.828 342.55 161.804 343.373 163.58C344.119 162.069 349.467 159.893 354.419 158.486C357.696 157.536 359.417 152.442 359.417 152.442C360.503 149.157 360.25 145.611 358.708 142.491C357.165 139.371 354.443 136.899 351.069 135.554C339.664 132.843 334.297 140.864 334.187 142.832Z" fill="#263238"/>
<path d="M342.701 150.352C343.29 151.473 343.52 152.729 343.363 153.97C343.152 155.567 341.9 155.585 340.961 154.402C340.142 153.357 339.249 151.259 339.93 149.964C340.611 148.669 341.973 148.997 342.701 150.352Z" fill="#B55B52"/>
<path d="M330.569 145.422C330.493 146.026 330.663 146.635 331.043 147.127C331.423 147.62 331.986 147.96 332.622 148.082C332.806 148.619 333.109 149.114 333.511 149.534C333.913 149.955 334.405 150.291 334.955 150.521C335.505 150.75 336.1 150.869 336.702 150.868C337.304 150.867 337.899 150.747 338.448 150.516C337.261 150.37 336.727 148.962 336.975 147.866C337.426 145.845 340.05 143.1 336.975 141.882C334.61 140.95 330.817 143.091 330.569 145.422Z" fill="#263238"/>
<path d="M322.385 59.9373C322.385 54.6589 320.716 49.4991 317.59 45.1104C314.463 40.7216 310.02 37.301 304.821 35.2811C299.622 33.2611 293.901 32.7326 288.382 33.7624C282.862 34.7921 277.793 37.3339 273.814 41.0662C269.834 44.7986 267.125 49.5539 266.027 54.7308C264.929 59.9077 265.492 65.2737 267.646 70.1502C269.799 75.0267 273.446 79.1948 278.125 82.1273C282.804 85.0597 288.305 86.6249 293.933 86.6249C297.669 86.6249 301.369 85.9346 304.821 84.5934C308.273 83.2523 311.409 81.2865 314.051 78.8083C316.694 76.3301 318.789 73.3881 320.219 70.1502C321.649 66.9123 322.385 63.4419 322.385 59.9373ZM318.298 62.0871C319.531 62.4757 320.056 64.1248 319.467 65.7825C318.878 67.4402 317.626 68.3727 316.42 68.1482C316.926 69.3742 316.264 71.36 315.371 72.5947C313.705 74.8827 311.891 75.7806 310.612 75.4957C308.486 75.0122 309.01 72.4911 310.317 70.2463C311.33 68.5195 313.079 66.6977 315.067 67.1121C314.69 66.2462 314.671 65.2798 315.012 64.401C315.601 62.7433 317.065 61.7072 318.298 62.0871ZM310.686 52.5897C311.102 53.2113 311.313 53.9348 311.292 54.6687C311.27 55.4027 311.017 56.1142 310.564 56.7133C310.112 57.3123 309.48 57.772 308.749 58.0342C308.017 58.2964 307.22 58.3494 306.456 58.1864C305.693 58.0234 304.999 57.6518 304.46 57.1185C303.922 56.5853 303.565 55.9143 303.433 55.1905C303.302 54.4667 303.402 53.7226 303.721 53.0522C304.04 52.3817 304.564 51.8152 305.227 51.4241C305.668 51.1648 306.158 50.9895 306.671 50.9082C307.184 50.8269 307.709 50.8411 308.216 50.9502C308.723 51.0592 309.202 51.2609 309.625 51.5437C310.049 51.8265 310.409 52.1849 310.686 52.5984V52.5897ZM269.705 61.0683C269.705 60.5044 269.883 59.9532 270.218 59.4845C270.552 59.0157 271.027 58.6506 271.582 58.4352C272.138 58.2198 272.749 58.1638 273.339 58.2745C273.928 58.3851 274.469 58.6574 274.894 59.0567C275.318 59.456 275.607 59.9645 275.723 60.5178C275.839 61.071 275.778 61.6442 275.546 62.1647C275.315 62.6851 274.924 63.1295 274.424 63.4416C273.923 63.7536 273.335 63.9192 272.733 63.9175C272.335 63.9175 271.94 63.8438 271.572 63.7005C271.204 63.5572 270.87 63.3472 270.589 63.0825C270.307 62.8178 270.085 62.5036 269.933 62.158C269.781 61.8124 269.704 61.4421 269.705 61.0683ZM279.683 61.3964C279.685 60.9094 279.802 60.4287 280.026 59.9896C280.251 59.5505 280.577 59.1639 280.981 58.858C279.624 57.847 278.498 56.5896 277.671 55.1609C276.843 53.7323 276.332 52.1618 276.167 50.5435C275.872 50.6416 275.56 50.6884 275.246 50.6816C274.888 50.7015 274.529 50.6525 274.192 50.5376C273.855 50.4227 273.546 50.2444 273.285 50.0135C273.024 49.7827 272.816 49.5042 272.674 49.1952C272.532 48.8862 272.458 48.5532 272.458 48.2166C272.458 47.88 272.532 47.547 272.674 47.238C272.816 46.929 273.024 46.6505 273.285 46.4197C273.546 46.1888 273.855 46.0105 274.192 45.8956C274.529 45.7807 274.888 45.7317 275.246 45.7516C275.712 45.7502 276.17 45.8665 276.572 46.0883C277.099 44.3831 278.021 42.8078 279.271 41.4744C280.521 40.1409 282.068 39.0822 283.804 38.3733C285.539 37.6645 287.42 37.323 289.312 37.373C291.204 37.4231 293.062 37.8636 294.752 38.6631C295.177 38.0117 295.761 37.4639 296.456 37.0646C297.15 36.6652 297.935 36.4256 298.747 36.3653C299.559 36.3049 300.375 36.4256 301.128 36.7175C301.88 37.0094 302.549 37.4641 303.078 38.0446C303.608 38.6251 303.984 39.3148 304.175 40.0575C304.366 40.8002 304.367 41.5747 304.178 42.3179C303.989 43.061 303.615 43.7517 303.087 44.3334C302.559 44.9152 301.892 45.3716 301.14 45.6653C301.824 47.6454 301.951 49.7576 301.509 51.7973C301.067 53.837 300.071 55.7351 298.617 57.3078C297.164 58.8805 295.302 60.0745 293.212 60.7742C291.122 61.4738 288.875 61.6555 286.688 61.3014V61.4396C286.713 61.8829 286.64 62.3261 286.476 62.7425C286.312 63.1588 286.059 63.5395 285.734 63.8613C285.408 64.1831 285.015 64.4394 284.58 64.6145C284.146 64.7896 283.677 64.8799 283.204 64.8799C282.731 64.8799 282.263 64.7896 281.828 64.6145C281.393 64.4394 281.001 64.1831 280.675 63.8613C280.349 63.5395 280.096 63.1588 279.932 62.7425C279.768 62.3261 279.696 61.8829 279.72 61.4396L279.683 61.3964ZM301.076 69.167C301.121 68.6791 301.321 68.215 301.649 67.8337C301.977 67.4524 302.418 67.1712 302.917 67.0258C302.248 66.4413 301.816 65.6579 301.693 64.8084C301.57 63.959 301.765 63.0959 302.243 62.3657C302.722 61.6355 303.455 61.0831 304.319 60.8022C305.182 60.5214 306.123 60.5295 306.98 60.8252C307.838 61.1208 308.561 61.6857 309.025 62.4241C309.489 63.1624 309.667 64.0287 309.527 64.8759C309.388 65.723 308.94 66.4989 308.261 67.0718C307.581 67.6446 306.711 67.9792 305.798 68.0187C306.132 68.4795 306.285 69.035 306.23 69.5901C306.171 70.2358 305.84 70.8328 305.311 71.2498C304.781 71.6667 304.097 71.8694 303.409 71.8133C302.721 71.7572 302.084 71.4469 301.64 70.9506C301.195 70.4543 300.979 69.8127 301.039 69.167H301.076ZM277.585 73.484C277.583 73.1161 277.697 72.756 277.914 72.4494C278.131 72.1429 278.44 71.9036 278.802 71.762C279.164 71.6205 279.563 71.583 279.947 71.6543C280.332 71.7257 280.686 71.9026 280.963 72.1628C281.24 72.4229 281.429 72.7545 281.505 73.1153C281.581 73.4762 281.541 73.8502 281.39 74.1897C281.239 74.5293 280.984 74.8191 280.657 75.0224C280.33 75.2257 279.947 75.3334 279.554 75.3317C279.045 75.3207 278.56 75.1261 278.2 74.7885C277.84 74.4508 277.633 73.9959 277.621 73.5185L277.585 73.484ZM299.437 76.29C299.483 75.8088 299.68 75.351 300.003 74.9746C300.326 74.5982 300.76 74.3201 301.252 74.1754C301.743 74.0307 302.27 74.026 302.764 74.1618C303.258 74.2976 303.699 74.5678 304.029 74.9383C304.36 75.3088 304.566 75.7629 304.622 76.2433C304.677 76.7237 304.58 77.2087 304.341 77.6371C304.103 78.0654 303.735 78.4179 303.283 78.65C302.831 78.882 302.316 78.9832 301.803 78.9407C301.128 78.875 300.507 78.5649 300.072 78.0764C299.637 77.5878 299.422 76.9593 299.474 76.3246L299.437 76.29Z" fill="#407BFF"/>
<path opacity="0.5" d="M322.385 59.9372C322.385 65.2155 320.716 70.3753 317.59 74.764C314.463 79.1528 310.02 82.5734 304.821 84.5933C299.622 86.6133 293.901 87.1418 288.382 86.112C282.862 85.0823 277.793 82.5405 273.814 78.8082C269.834 75.0759 267.125 70.3206 266.027 65.1437C264.929 59.9668 265.492 54.6008 267.646 49.7242C269.799 44.8477 273.446 40.6797 278.125 37.7472C282.804 34.8147 288.305 33.2495 293.933 33.2495C297.674 33.2335 301.381 33.9129 304.841 35.2484C308.301 36.5839 311.444 38.5491 314.089 41.0304C316.735 43.5118 318.83 46.4602 320.254 49.7053C321.678 52.9505 322.402 56.428 322.385 59.9372Z" fill="white"/>
<path opacity="0.4" d="M316.31 76.4195C313.452 79.8319 309.749 82.5393 305.524 84.3071C301.299 86.075 296.678 86.8501 292.061 86.5652C287.444 86.2803 282.971 84.9441 279.029 82.6722C275.088 80.4003 271.795 77.2613 269.438 73.5271C268.743 72.3979 268.128 71.2269 267.597 70.0217C267.016 68.1894 266.724 66.2868 266.732 64.375C267.963 64.9673 269.341 65.2412 270.723 65.1683C272.104 65.0955 273.44 64.6786 274.593 63.9606L275.293 63.5289C276.19 63.0456 276.972 62.3964 277.594 61.6208C277.894 61.2272 278.06 60.7581 278.072 60.2746C278.083 59.791 277.939 59.3155 277.658 58.9097C278.34 58.3917 279.334 57.5197 280.015 57.0016C280.631 58.2088 281.585 59.2366 282.775 59.9756C283.965 60.7145 285.346 61.1369 286.771 61.1977C289.644 61.2649 292.443 60.3436 294.642 58.6075C297.007 56.9087 299.043 54.8409 300.662 52.4947L303.497 53.3581C303.497 54.8863 303.975 56.5785 306.415 58.1845C307.368 58.8214 308.119 59.69 308.586 60.697C309.053 61.7041 309.219 62.8114 309.066 63.9002V63.9865C308.943 65.0017 309.117 66.0289 309.57 66.9583C310.022 67.8876 310.736 68.6839 311.634 69.2619C312.114 69.586 312.629 69.8609 313.171 70.0821C313.318 70.4965 314.092 71.1096 314.211 71.5154C313.291 72.4478 313.291 72.8968 313.935 73.9933C314.546 74.943 315.353 75.7681 316.31 76.4195Z" fill="white"/>
<path d="M272.77 63.8915C272.169 63.8915 271.582 63.7244 271.082 63.4114C270.583 63.0983 270.194 62.6533 269.964 62.1327C269.734 61.612 269.674 61.0392 269.791 60.4865C269.908 59.9338 270.197 59.4261 270.622 59.0276C271.047 58.6291 271.588 58.3578 272.177 58.2479C272.767 58.1379 273.377 58.1943 273.933 58.41C274.488 58.6256 274.962 58.9908 275.296 59.4594C275.63 59.9279 275.808 60.4788 275.808 61.0423C275.809 61.4168 275.731 61.7878 275.579 62.134C275.427 62.4802 275.203 62.7948 274.921 63.0596C274.638 63.3244 274.303 63.5342 273.934 63.677C273.565 63.8198 273.169 63.8927 272.77 63.8915Z" fill="#407BFF"/>
<g opacity="0.2">
<path d="M272.77 63.8915C272.169 63.8915 271.582 63.7244 271.082 63.4114C270.583 63.0983 270.194 62.6533 269.964 62.1327C269.734 61.612 269.674 61.0392 269.791 60.4865C269.908 59.9338 270.197 59.4261 270.622 59.0276C271.047 58.6291 271.588 58.3578 272.177 58.2479C272.767 58.1379 273.377 58.1943 273.933 58.41C274.488 58.6256 274.962 58.9908 275.296 59.4594C275.63 59.9279 275.808 60.4788 275.808 61.0423C275.809 61.4168 275.731 61.7878 275.579 62.134C275.427 62.4802 275.203 62.7948 274.921 63.0596C274.638 63.3244 274.303 63.5342 273.934 63.677C273.565 63.8198 273.169 63.8927 272.77 63.8915Z" fill="white"/>
</g>
<path d="M303.984 56.544C303.568 55.9219 303.357 55.1978 303.38 54.4634C303.402 53.7291 303.656 53.0175 304.11 52.4187C304.564 51.8199 305.197 51.3609 305.929 51.0997C306.661 50.8384 307.459 50.7868 308.222 50.9513C308.986 51.1158 309.68 51.489 310.217 52.0237C310.754 52.5584 311.11 53.2305 311.24 53.955C311.369 54.6795 311.267 55.4238 310.945 56.0937C310.624 56.7636 310.098 57.329 309.433 57.7182C308.994 57.9785 308.504 58.1546 307.992 58.2364C307.479 58.3182 306.955 58.3042 306.448 58.195C305.942 58.0859 305.463 57.8838 305.04 57.6004C304.617 57.3171 304.258 56.958 303.984 56.544Z" fill="#407BFF"/>
<g opacity="0.2">
<path d="M303.984 56.544C303.568 55.9219 303.357 55.1978 303.38 54.4634C303.402 53.7291 303.656 53.0175 304.11 52.4187C304.564 51.8199 305.197 51.3609 305.929 51.0997C306.661 50.8384 307.459 50.7868 308.222 50.9513C308.986 51.1158 309.68 51.489 310.217 52.0237C310.754 52.5584 311.11 53.2305 311.24 53.955C311.369 54.6795 311.267 55.4238 310.945 56.0937C310.624 56.7636 310.098 57.329 309.433 57.7182C308.994 57.9785 308.504 58.1546 307.992 58.2364C307.479 58.3182 306.955 58.3042 306.448 58.195C305.942 58.0859 305.463 57.8838 305.04 57.6004C304.617 57.3171 304.258 56.958 303.984 56.544Z" fill="white"/>
</g>
<path d="M303.487 71.8348C303.146 71.8087 302.813 71.7196 302.509 71.5724C302.204 71.4253 301.934 71.2231 301.713 70.9775C301.493 70.7319 301.326 70.4478 301.223 70.1415C301.119 69.8352 301.082 69.5128 301.112 69.1928C301.158 68.7049 301.358 68.2408 301.685 67.8595C302.013 67.4782 302.455 67.197 302.953 67.0516C302.285 66.4671 301.852 65.6837 301.73 64.8343C301.607 63.9848 301.802 63.1217 302.28 62.3915C302.759 61.6613 303.492 61.1089 304.355 60.8281C305.219 60.5473 306.159 60.5554 307.017 60.851C307.875 61.1466 308.597 61.7115 309.061 62.4499C309.526 63.1882 309.703 64.0545 309.564 64.9017C309.425 65.7488 308.977 66.5247 308.297 67.0976C307.617 67.6704 306.747 68.005 305.834 68.0445C306.169 68.5053 306.322 69.0609 306.267 69.6159C306.208 70.2545 305.884 70.8456 305.363 71.2611C304.843 71.6765 304.169 71.8826 303.487 71.8348Z" fill="#407BFF"/>
<g opacity="0.2">
<path d="M303.487 71.8348C303.146 71.8087 302.813 71.7196 302.509 71.5724C302.204 71.4253 301.934 71.2231 301.713 70.9775C301.493 70.7319 301.326 70.4478 301.223 70.1415C301.119 69.8352 301.082 69.5128 301.112 69.1928C301.158 68.7049 301.358 68.2408 301.685 67.8595C302.013 67.4782 302.455 67.197 302.953 67.0516C302.285 66.4671 301.852 65.6837 301.73 64.8343C301.607 63.9848 301.802 63.1217 302.28 62.3915C302.759 61.6613 303.492 61.1089 304.355 60.8281C305.219 60.5473 306.159 60.5554 307.017 60.851C307.875 61.1466 308.597 61.7115 309.061 62.4499C309.526 63.1882 309.703 64.0545 309.564 64.9017C309.425 65.7488 308.977 66.5247 308.297 67.0976C307.617 67.6704 306.747 68.005 305.834 68.0445C306.169 68.5053 306.322 69.0609 306.267 69.6159C306.208 70.2545 305.884 70.8456 305.363 71.2611C304.843 71.6765 304.169 71.8826 303.487 71.8348Z" fill="white"/>
</g>
<path d="M301.84 78.9751C301.325 78.9339 300.834 78.7502 300.43 78.4472C300.025 78.1441 299.726 77.7354 299.57 77.2728C299.414 76.8102 299.407 76.3145 299.551 75.8484C299.696 75.3824 299.984 74.9669 300.38 74.6547C300.776 74.3425 301.262 74.1475 301.776 74.0945C302.291 74.0415 302.81 74.1328 303.269 74.3569C303.728 74.581 304.106 74.9278 304.354 75.3534C304.603 75.7789 304.712 76.2641 304.666 76.7475C304.637 77.0681 304.541 77.3801 304.383 77.6657C304.225 77.9513 304.009 78.2049 303.746 78.4118C303.484 78.6188 303.18 78.7751 302.853 78.8718C302.526 78.9684 302.182 79.0035 301.84 78.9751Z" fill="#407BFF"/>
<g opacity="0.2">
<path d="M301.84 78.9751C301.325 78.9339 300.834 78.7502 300.43 78.4472C300.025 78.1441 299.726 77.7354 299.57 77.2728C299.414 76.8102 299.407 76.3145 299.551 75.8484C299.696 75.3824 299.984 74.9669 300.38 74.6547C300.776 74.3425 301.262 74.1475 301.776 74.0945C302.291 74.0415 302.81 74.1328 303.269 74.3569C303.728 74.581 304.106 74.9278 304.354 75.3534C304.603 75.7789 304.712 76.2641 304.666 76.7475C304.637 77.0681 304.541 77.3801 304.383 77.6657C304.225 77.9513 304.009 78.2049 303.746 78.4118C303.484 78.6188 303.18 78.7751 302.853 78.8718C302.526 78.9684 302.182 79.0035 301.84 78.9751Z" fill="white"/>
</g>
<path d="M283.679 74.3041C283.674 74.2755 283.674 74.2464 283.679 74.2178C283.69 74.1844 283.708 74.1536 283.733 74.1271C283.757 74.1007 283.787 74.0791 283.821 74.0638C283.854 74.0484 283.891 74.0396 283.928 74.0379C283.965 74.0362 284.003 74.0416 284.038 74.0537C288.695 75.5388 298.029 74.3732 298.121 74.3646C298.158 74.3584 298.196 74.3595 298.233 74.3676C298.269 74.3757 298.304 74.3907 298.334 74.4117C298.364 74.4327 298.389 74.4593 298.408 74.4898C298.427 74.5203 298.439 74.5541 298.443 74.589C298.448 74.6242 298.446 74.66 298.436 74.6944C298.427 74.7287 298.41 74.7609 298.387 74.789C298.363 74.8171 298.334 74.8406 298.302 74.8582C298.269 74.8758 298.232 74.887 298.195 74.8912C297.808 74.943 288.631 76.0827 283.853 74.5631C283.8 74.541 283.755 74.5046 283.724 74.4585C283.693 74.4124 283.677 74.3587 283.679 74.3041Z" fill="white"/>
<path d="M281.101 77.3174C281.102 77.2626 281.121 77.2095 281.155 77.1652C281.19 77.1209 281.238 77.0876 281.293 77.0697C281.348 77.0518 281.408 77.0503 281.464 77.0652C281.52 77.0802 281.57 77.1109 281.607 77.1534C283.356 79.2006 285.75 80.6781 288.446 81.3754C288.483 81.3853 288.517 81.4019 288.546 81.4242C288.576 81.4466 288.6 81.4743 288.618 81.5056C288.636 81.537 288.647 81.5714 288.651 81.6069C288.655 81.6423 288.651 81.6781 288.64 81.7121C288.616 81.7796 288.565 81.8358 288.498 81.8681C288.431 81.9005 288.353 81.9065 288.281 81.8848C285.468 81.1632 282.973 79.621 281.156 77.4814C281.119 77.434 281.099 77.3763 281.101 77.3174Z" fill="white"/>
<path d="M277.069 65.8601C277.071 65.7912 277.101 65.7256 277.152 65.676C277.203 65.6265 277.272 65.5967 277.345 65.5924C277.382 65.5913 277.42 65.5971 277.455 65.6095C277.49 65.6219 277.522 65.6406 277.55 65.6647C277.577 65.6887 277.599 65.7176 277.614 65.7497C277.63 65.7817 277.638 65.8163 277.64 65.8515C277.695 67.1481 277.924 68.433 278.321 69.6763C278.332 69.7103 278.336 69.7461 278.332 69.7815C278.329 69.817 278.318 69.8514 278.3 69.8828C278.282 69.9141 278.257 69.9418 278.227 69.9642C278.198 69.9865 278.164 70.0031 278.127 70.013C278.054 70.03 277.977 70.0208 277.911 69.9873C277.844 69.9538 277.794 69.8983 277.768 69.8317C277.361 68.5461 277.126 67.2177 277.069 65.8774V65.8601Z" fill="white"/>
<path d="M272.135 75.4697C272.133 75.4103 272.153 75.3522 272.192 75.305C272.231 75.2578 272.285 75.2245 272.347 75.2107L275.918 74.2955C275.955 74.2864 275.992 74.2841 276.03 74.2887C276.067 74.2933 276.103 74.3047 276.135 74.3224C276.168 74.34 276.196 74.3635 276.219 74.3915C276.242 74.4195 276.259 74.4514 276.268 74.4855C276.285 74.5541 276.274 74.6262 276.236 74.6872C276.199 74.7482 276.138 74.7934 276.066 74.8135L272.466 75.7288C272.43 75.7379 272.392 75.7402 272.355 75.7356C272.318 75.731 272.282 75.7195 272.25 75.7019C272.217 75.6842 272.189 75.6607 272.166 75.6327C272.143 75.6048 272.126 75.5728 272.117 75.5388C272.119 75.515 272.125 75.4916 272.135 75.4697Z" fill="white"/>
<path d="M277.069 81.1595C277.159 79.7909 277.537 78.4527 278.183 77.2224C278.2 77.1912 278.224 77.1635 278.253 77.1409C278.282 77.1183 278.315 77.1013 278.351 77.0909C278.387 77.0804 278.425 77.0768 278.462 77.0801C278.5 77.0834 278.536 77.0936 278.569 77.1102C278.604 77.1256 278.634 77.1475 278.659 77.1745C278.684 77.2015 278.702 77.233 278.714 77.267C278.725 77.301 278.728 77.3369 278.724 77.3723C278.72 77.4077 278.708 77.4419 278.689 77.4728C278.081 78.6392 277.725 79.9067 277.64 81.2027C277.637 81.2375 277.628 81.2716 277.611 81.3028C277.594 81.334 277.571 81.3617 277.543 81.3843C277.514 81.4068 277.481 81.4238 277.446 81.4342C277.41 81.4445 277.373 81.448 277.336 81.4444C277.261 81.4379 277.192 81.4047 277.142 81.3517C277.093 81.2988 277.066 81.23 277.069 81.1595Z" fill="white"/>
<path d="M282.5 70.9887C282.499 70.9375 282.514 70.8873 282.544 70.8443C282.573 70.8012 282.616 70.7674 282.666 70.7469C285.077 69.7022 293.279 65.7996 293.362 65.7565C293.396 65.7406 293.433 65.7311 293.47 65.7286C293.508 65.7261 293.546 65.7306 293.582 65.7418C293.618 65.753 293.651 65.7708 293.68 65.794C293.708 65.8173 293.732 65.8456 293.748 65.8774C293.765 65.9091 293.776 65.9437 293.778 65.9791C293.781 66.0145 293.776 66.05 293.764 66.0837C293.752 66.1174 293.733 66.1485 293.708 66.1753C293.684 66.2021 293.653 66.2241 293.62 66.24C293.537 66.24 285.335 70.1771 282.905 71.2391C282.837 71.2685 282.759 71.2714 282.688 71.2472C282.617 71.2229 282.56 71.1735 282.528 71.1096C282.51 71.0715 282.5 71.0303 282.5 70.9887Z" fill="white"/>
<path d="M269.53 65.9205C269.531 65.8731 269.545 65.8267 269.571 65.7859C269.597 65.745 269.633 65.7111 269.677 65.6874C269.743 65.6533 269.821 65.6451 269.893 65.6645C269.966 65.6839 270.027 65.7294 270.064 65.791C271.587 68.2156 273.757 70.227 276.36 71.6276C276.426 71.6621 276.474 71.7196 276.495 71.7876C276.515 71.8555 276.507 71.9283 276.47 71.9902C276.432 72.0525 276.369 72.0981 276.295 72.1175C276.221 72.1368 276.142 72.1283 276.075 72.0938C273.383 70.6425 271.141 68.5598 269.567 66.05C269.542 66.011 269.529 65.9661 269.53 65.9205Z" fill="white"/>
<path d="M286.688 61.3963V61.3013C288.875 61.6658 291.125 61.4938 293.22 60.8021C295.316 60.1104 297.185 58.9224 298.646 57.3534C300.108 55.7845 301.112 53.8878 301.562 51.8474C302.012 49.8071 301.891 47.6923 301.213 45.7084C301.965 45.4147 302.632 44.9583 303.16 44.3765C303.688 43.7947 304.062 43.1041 304.251 42.3609C304.44 41.6178 304.439 40.8432 304.248 40.1006C304.057 39.3579 303.681 38.6681 303.151 38.0877C302.622 37.5072 301.953 37.0524 301.201 36.7606C300.448 36.4687 299.632 36.348 298.82 36.4083C298.008 36.4686 297.223 36.7083 296.529 37.1076C295.834 37.507 295.25 38.0548 294.825 38.7062C293.135 37.9067 291.277 37.4662 289.385 37.4161C287.493 37.366 285.612 37.7076 283.877 38.4164C282.141 39.1253 280.594 40.184 279.344 41.5174C278.094 42.8509 277.172 44.4262 276.645 46.1314C276.243 45.9096 275.786 45.7933 275.319 45.7947C274.961 45.7748 274.603 45.8238 274.265 45.9387C273.928 46.0536 273.619 46.2319 273.358 46.4628C273.097 46.6936 272.889 46.9721 272.747 47.2811C272.605 47.5901 272.531 47.9231 272.531 48.2597C272.531 48.5963 272.605 48.9293 272.747 49.2383C272.889 49.5473 273.097 49.8258 273.358 50.0566C273.619 50.2875 273.928 50.4658 274.265 50.5807C274.603 50.6956 274.961 50.7446 275.319 50.7247C275.633 50.7315 275.945 50.6847 276.24 50.5866C276.405 52.2049 276.917 53.7754 277.744 55.204C278.571 56.6326 279.697 57.8901 281.054 58.9011C280.598 59.248 280.242 59.6977 280.021 60.2081C279.8 60.7186 279.721 61.2733 279.79 61.8205C279.859 62.3676 280.074 62.8895 280.417 63.3374C280.759 63.7853 281.216 64.1447 281.746 64.382C282.276 64.6193 282.862 64.7269 283.448 64.6947C284.035 64.6624 284.603 64.4915 285.1 64.1977C285.597 63.904 286.007 63.497 286.291 63.0147C286.575 62.5324 286.724 61.9905 286.724 61.4395L286.688 61.3963Z" fill="#407BFF"/>
<path opacity="0.2" d="M286.688 61.3963V61.3013C288.875 61.6658 291.125 61.4938 293.22 60.8021C295.316 60.1104 297.185 58.9224 298.646 57.3534C300.108 55.7845 301.112 53.8878 301.562 51.8474C302.012 49.8071 301.891 47.6923 301.213 45.7084C301.965 45.4147 302.632 44.9583 303.16 44.3765C303.688 43.7947 304.062 43.1041 304.251 42.3609C304.44 41.6178 304.439 40.8432 304.248 40.1006C304.057 39.3579 303.681 38.6681 303.151 38.0877C302.622 37.5072 301.953 37.0524 301.201 36.7606C300.448 36.4687 299.632 36.348 298.82 36.4083C298.008 36.4686 297.223 36.7083 296.529 37.1076C295.834 37.507 295.25 38.0548 294.825 38.7062C293.135 37.9067 291.277 37.4662 289.385 37.4161C287.493 37.366 285.612 37.7076 283.877 38.4164C282.141 39.1253 280.594 40.184 279.344 41.5174C278.094 42.8509 277.172 44.4262 276.645 46.1314C276.243 45.9096 275.786 45.7933 275.319 45.7947C274.961 45.7748 274.603 45.8238 274.265 45.9387C273.928 46.0536 273.619 46.2319 273.358 46.4628C273.097 46.6936 272.889 46.9721 272.747 47.2811C272.605 47.5901 272.531 47.9231 272.531 48.2597C272.531 48.5963 272.605 48.9293 272.747 49.2383C272.889 49.5473 273.097 49.8258 273.358 50.0566C273.619 50.2875 273.928 50.4658 274.265 50.5807C274.603 50.6956 274.961 50.7446 275.319 50.7247C275.633 50.7315 275.945 50.6847 276.24 50.5866C276.405 52.2049 276.917 53.7754 277.744 55.204C278.571 56.6326 279.697 57.8901 281.054 58.9011C280.598 59.248 280.242 59.6977 280.021 60.2081C279.8 60.7186 279.721 61.2733 279.79 61.8205C279.859 62.3676 280.074 62.8895 280.417 63.3374C280.759 63.7853 281.216 64.1447 281.746 64.382C282.276 64.6193 282.862 64.7269 283.448 64.6947C284.035 64.6624 284.603 64.4915 285.1 64.1977C285.597 63.904 286.007 63.497 286.291 63.0147C286.575 62.5324 286.724 61.9905 286.724 61.4395L286.688 61.3963Z" fill="white"/>
<path d="M310.612 75.4956C308.485 75.0121 309.01 72.491 310.317 70.2461C311.33 68.5194 313.078 66.6976 315.067 67.112C314.69 66.2461 314.67 65.2797 315.012 64.4009C315.601 62.7432 317.064 61.7071 318.298 62.087C319.531 62.4669 320.056 64.1247 319.467 65.7824C318.878 67.4401 317.626 68.3726 316.42 68.1481C316.926 69.3741 316.263 71.3599 315.371 72.5946C313.704 74.8826 311.891 75.7805 310.612 75.4956Z" fill="#407BFF"/>
<g opacity="0.2">
<path d="M310.612 75.4956C308.485 75.0121 309.01 72.491 310.317 70.2461C311.33 68.5194 313.078 66.6976 315.067 67.112C314.69 66.2461 314.67 65.2797 315.012 64.4009C315.601 62.7432 317.064 61.7071 318.298 62.087C319.531 62.4669 320.056 64.1247 319.467 65.7824C318.878 67.4401 317.626 68.3726 316.42 68.1481C316.926 69.3741 316.263 71.3599 315.371 72.5946C313.704 74.8826 311.891 75.7805 310.612 75.4956Z" fill="white"/>
</g>
<path d="M310.087 43.5499C309.988 43.5485 309.892 43.5177 309.812 43.4618C309.733 43.406 309.675 43.328 309.645 43.239C309.102 41.5122 305.687 38.4213 301.941 36.9708C297.587 35.2871 290.039 35.7102 288.299 36.9103C288.25 36.9438 288.195 36.9678 288.136 36.9812C288.077 36.9945 288.016 36.9968 287.956 36.988C287.896 36.9792 287.839 36.9594 287.787 36.9298C287.735 36.9001 287.69 36.8613 287.655 36.8153C287.619 36.7694 287.593 36.7174 287.579 36.6621C287.565 36.6069 287.563 36.5496 287.572 36.4935C287.581 36.4374 287.602 36.3835 287.634 36.335C287.666 36.2866 287.707 36.2444 287.756 36.211C289.892 34.7518 297.882 34.4842 302.291 36.211C305.973 37.6442 309.848 40.8388 310.575 43.0404C310.609 43.1504 310.596 43.2685 310.537 43.3689C310.478 43.4693 310.379 43.5437 310.262 43.5758L310.087 43.5499Z" fill="#407BFF"/>
<g opacity="0.2">
<path d="M310.087 43.5499C309.988 43.5485 309.892 43.5177 309.812 43.4618C309.733 43.406 309.675 43.328 309.645 43.239C309.102 41.5122 305.687 38.4213 301.941 36.9708C297.587 35.2871 290.039 35.7102 288.299 36.9103C288.25 36.9438 288.195 36.9678 288.136 36.9812C288.077 36.9945 288.016 36.9968 287.956 36.988C287.896 36.9792 287.839 36.9594 287.787 36.9298C287.735 36.9001 287.69 36.8613 287.655 36.8153C287.619 36.7694 287.593 36.7174 287.579 36.6621C287.565 36.6069 287.563 36.5496 287.572 36.4935C287.581 36.4374 287.602 36.3835 287.634 36.335C287.666 36.2866 287.707 36.2444 287.756 36.211C289.892 34.7518 297.882 34.4842 302.291 36.211C305.973 37.6442 309.848 40.8388 310.575 43.0404C310.609 43.1504 310.596 43.2685 310.537 43.3689C310.478 43.4693 310.379 43.5437 310.262 43.5758L310.087 43.5499Z" fill="white"/>
</g>
<path d="M288.391 50.3016C288.634 50.6461 289.01 50.8878 289.441 50.9751C289.655 51.0167 289.876 51.0182 290.092 50.9796C290.307 50.9409 290.512 50.8628 290.695 50.7497C290.878 50.6366 291.035 50.4908 291.158 50.3206C291.281 50.1503 291.367 49.9591 291.41 49.7577C291.457 49.5583 291.46 49.3522 291.419 49.1518C291.378 48.9514 291.293 48.761 291.171 48.5921C290.992 48.3344 290.735 48.1324 290.433 48.0118C290.131 47.8912 289.797 47.8575 289.475 47.9148C289.153 47.9722 288.856 48.118 288.622 48.3339C288.388 48.5498 288.227 48.826 288.161 49.1274C288.147 49.2364 288.147 49.3465 288.161 49.4555C288.151 49.7522 288.231 50.0455 288.391 50.3016Z" fill="#407BFF"/>
<path opacity="0.4" d="M288.391 50.3016C288.634 50.6461 289.01 50.8878 289.441 50.9751C289.655 51.0167 289.876 51.0182 290.092 50.9796C290.307 50.9409 290.512 50.8628 290.695 50.7497C290.878 50.6366 291.035 50.4908 291.158 50.3206C291.281 50.1503 291.367 49.9591 291.41 49.7577C291.457 49.5583 291.46 49.3522 291.419 49.1518C291.378 48.9514 291.293 48.761 291.171 48.5921C290.992 48.3344 290.735 48.1324 290.433 48.0118C290.131 47.8912 289.797 47.8575 289.475 47.9148C289.153 47.9722 288.856 48.118 288.622 48.3339C288.388 48.5498 288.227 48.826 288.161 49.1274C288.147 49.2364 288.147 49.3465 288.161 49.4555C288.151 49.7522 288.231 50.0455 288.391 50.3016Z" fill="white"/>
<path d="M141.241 67.3451C141.555 69.363 141.224 71.423 140.29 73.2646C139.356 75.1061 137.861 76.6463 135.993 77.6905C134.126 78.7347 131.97 79.2359 129.799 79.1307C127.627 79.0255 125.538 78.3186 123.795 77.0995C122.052 75.8803 120.734 74.2037 120.007 72.2817C119.28 70.3597 119.178 68.2787 119.712 66.3019C120.246 64.3252 121.394 62.5414 123.009 61.1764C124.624 59.8114 126.635 58.9264 128.787 58.6334C130.214 58.4379 131.669 58.5081 133.068 58.8402C134.467 59.1722 135.782 59.7595 136.938 60.5686C138.095 61.3776 139.07 62.3925 139.809 63.5553C140.547 64.718 141.034 66.0059 141.241 67.3451Z" fill="#407BFF"/>
<path opacity="0.2" d="M135.184 60.0494C134.293 59.6396 133.344 59.349 132.367 59.186C129.378 62.4934 125.205 64.6639 120.631 65.2902C120.247 66.2013 120.014 67.1622 119.94 68.1395C125.822 67.6301 131.934 64.8499 135.184 60.0494Z" fill="black"/>
<path opacity="0.5" d="M128.869 59.0651C127.029 59.3152 125.292 60.0193 123.836 61.1055C122.381 62.1916 121.259 63.6209 120.585 65.2471C125.159 64.6207 129.332 62.4502 132.321 59.1428C131.183 58.9404 130.017 58.9141 128.869 59.0651Z" fill="white"/>
<path opacity="0.2" d="M131.926 78.5693C134.003 78.2853 135.943 77.4236 137.493 76.0954C139.044 74.7672 140.135 73.0335 140.624 71.1182C137.199 74.7124 132.677 77.2297 127.673 78.3276C129.058 78.6777 130.505 78.7599 131.926 78.5693Z" fill="black"/>
<path opacity="0.1" d="M139.345 63.6325C138.839 62.8507 138.22 62.1388 137.504 61.5172C134.19 67.0343 127.13 70.4965 120.162 70.8246C120.37 71.763 120.724 72.6677 121.211 73.5098C128.787 73.1213 136.013 69.2101 139.345 63.6325Z" fill="white"/>
<path opacity="0.3" d="M137.477 61.5172C136.783 60.9379 136.012 60.4447 135.184 60.0494C131.935 64.8499 125.823 67.6301 119.941 68.0963C119.883 68.8104 119.908 69.5284 120.015 70.2375C120.015 70.4361 120.098 70.6261 120.134 70.8246C127.103 70.4965 134.163 67.0343 137.477 61.5172Z" fill="white"/>
<path opacity="0.4" d="M140.652 66.6371C137.274 71.5758 130.766 75.4006 123.365 76.1345C124.6 77.171 126.075 77.9247 127.673 78.3362C132.677 77.2383 137.2 74.721 140.625 71.1268C140.939 69.909 141.004 68.6463 140.818 67.4056C140.772 67.1379 140.717 66.8875 140.652 66.6371Z" fill="white"/>
<path opacity="0.5" d="M140.652 66.6371C140.395 65.5751 139.954 64.56 139.345 63.6325C136.013 69.2101 128.787 73.1299 121.184 73.5098C121.75 74.4824 122.487 75.3582 123.365 76.1C130.766 75.4006 137.274 71.5758 140.652 66.6371Z" fill="black"/>
<path d="M157.239 54.9899C155.499 52.0889 145.779 54.0315 134.227 59.2551C134.389 59.3088 134.546 59.3752 134.696 59.4537C135.049 59.5473 135.382 59.6962 135.681 59.894C142.125 57.3729 147.16 56.6131 148.181 58.3053C149.203 59.9976 146.009 63.5893 140.532 67.371C138.223 68.9427 135.816 70.3842 133.325 71.688C130.369 73.268 127.293 74.6388 124.12 75.7892C118.551 77.7836 114.298 78.2499 113.368 76.7044C112.439 75.1589 114.915 72.2061 119.306 68.9338C119.286 68.351 119.36 67.7688 119.526 67.207C109.935 73.3889 104.016 79.5795 105.691 82.3078C107.431 85.1916 117.041 83.3094 128.51 78.1635C130.692 77.1879 132.938 76.0827 135.212 74.874C136.979 73.9415 138.682 72.9831 140.302 72.0161C151.716 65.2039 159.062 57.9945 157.239 54.9899Z" fill="#407BFF"/>
<path opacity="0.5" d="M157.239 54.9899C155.499 52.0889 145.779 54.0315 134.227 59.2551C134.389 59.3088 134.546 59.3752 134.696 59.4537C135.049 59.5473 135.382 59.6962 135.681 59.894C142.125 57.3729 147.16 56.6131 148.181 58.3053C149.203 59.9976 146.009 63.5893 140.532 67.371C138.223 68.9427 135.816 70.3842 133.325 71.688C130.369 73.268 127.293 74.6388 124.12 75.7892C118.551 77.7836 114.298 78.2499 113.368 76.7044C112.439 75.1589 114.915 72.2061 119.306 68.9338C119.286 68.351 119.36 67.7688 119.526 67.207C109.935 73.3889 104.016 79.5795 105.691 82.3078C107.431 85.1916 117.041 83.3094 128.51 78.1635C130.692 77.1879 132.938 76.0827 135.212 74.874C136.979 73.9415 138.682 72.9831 140.302 72.0161C151.716 65.2039 159.062 57.9945 157.239 54.9899Z" fill="white"/>
<path d="M112.568 81.2804C111.678 81.3332 110.794 81.125 110.036 80.6846C109.676 80.4632 109.38 80.1608 109.176 79.805C108.972 79.4491 108.866 79.0511 108.867 78.647C108.867 75.1934 115.992 70.013 118.993 68.0099L119.26 68.3639C116.931 69.918 109.3 75.2711 109.281 78.647C109.273 78.989 109.359 79.3273 109.53 79.6296C109.7 79.9319 109.951 80.1881 110.257 80.3738C111.619 81.2977 114.39 80.7623 116.047 80.4429L116.36 80.3825C120.554 79.4721 124.615 78.0892 128.455 76.264C136.74 72.5687 145.853 67.8632 150.897 61.025C152.204 59.2982 152.582 57.7873 151.974 56.8807C151.366 55.9742 149.516 55.577 147.031 56.0173C142.981 56.7645 139.045 57.9796 135.313 59.635L135.129 59.2378C138.917 57.5322 142.919 56.2819 147.04 55.5166C149.746 55.0849 151.643 55.5166 152.443 56.6131C152.95 57.3642 153.18 58.7802 151.357 61.2409C146.249 68.1481 137.062 72.8968 128.741 76.6267C124.863 78.4593 120.765 79.8506 116.535 80.771L116.222 80.8314C115.023 81.094 113.799 81.2444 112.568 81.2804Z" fill="#407BFF"/>
<path d="M132.606 97.9958L135.681 99.5758L132.606 101.156L130.922 104.04L129.237 101.156L126.163 99.5758L129.237 97.9958L130.922 95.112L132.606 97.9958Z" fill="#407BFF"/>
<path d="M144.25 94.0328L145.778 94.8185L144.25 95.6128L143.403 97.0461L142.566 95.6128L141.028 94.8185L142.566 94.0328L143.403 92.5909L144.25 94.0328Z" fill="#407BFF"/>
<g opacity="0.8">
<path d="M132.606 97.9958L135.681 99.5758L132.606 101.156L130.922 104.04L129.237 101.156L126.163 99.5758L129.237 97.9958L130.922 95.1121L132.606 97.9958Z" fill="white"/>
<path d="M144.25 94.0328L145.778 94.8185L144.25 95.6128L143.403 97.0461L142.566 95.6128L141.028 94.8185L142.566 94.0328L143.403 92.5909L144.25 94.0328Z" fill="white"/>
</g>
<path d="M84.9984 93.8429L86.913 94.8185L84.9984 95.8028L83.9582 97.59L82.9088 95.8028L81.0034 94.8185L82.9088 93.8429L83.9582 92.047L84.9984 93.8429Z" fill="#407BFF"/>
<g opacity="0.8">
<path d="M84.9984 93.8429L86.913 94.8185L84.9984 95.8028L83.9582 97.59L82.9088 95.8028L81.0034 94.8185L82.9088 93.8429L83.9582 92.047L84.9984 93.8429Z" fill="white"/>
</g>
<path d="M100.048 57.6492L101.963 58.6248L100.048 59.6091L99.008 61.3963L97.9586 59.6091L96.0532 58.6248L97.9586 57.6492L99.008 55.8533L100.048 57.6492Z" fill="#407BFF"/>
<g opacity="0.8">
<path d="M100.048 57.6492L101.963 58.6248L100.048 59.6091L99.008 61.3963L97.9586 59.6091L96.0532 58.6248L97.9586 57.6492L99.008 55.8533L100.048 57.6492Z" fill="white"/>
</g>
<path d="M168.635 71.7398L170.54 72.7241L168.635 73.6997L167.585 75.4956L166.545 73.6997L164.63 72.7241L166.545 71.7398L167.585 69.9526L168.635 71.7398Z" fill="#407BFF"/>
<g opacity="0.8">
<path d="M168.635 71.7398L170.54 72.7241L168.635 73.6997L167.585 75.4956L166.545 73.6997L164.63 72.7241L166.545 71.7398L167.585 69.9526L168.635 71.7398Z" fill="white"/>
</g>
</svg>
