<?xml version="1.0" encoding="UTF-8"?>
<svg width="13px" height="15px" viewBox="0 0 13 15" version="1.1" xmlns="http://www.w3.org/2000/svg" xmlns:xlink="http://www.w3.org/1999/xlink">
    <title>Icon/Question/Blue</title>
    <g id="elements-library" stroke="none" stroke-width="1" fill="none" fill-rule="evenodd">
        <g id="00.16-icons" transform="translate(-792.000000, -642.000000)">
            <g id="Path" transform="translate(790.500000, 641.000000)">
                <path d="M11.471966,3.10600207 C10.4919908,2.40951684 9.29381927,2 8,2 C4.6862915,2 2,4.6862915 2,8 C2,11.3137085 4.6862915,14 8,14 C11.3137085,14 14,11.3137085 14,8" stroke="#0D10F3" transform="translate(8.000000, 8.000000) rotate(117.000000) translate(-8.000000, -8.000000) "></path>
                <path d="M8.531,11.43 L8.692,10.408 C8.71533333,10.2586667 8.7865,10.1245 8.9055,10.0055 C9.0245,9.8865 9.16566667,9.76516667 9.329,9.6415 C9.49233333,9.51783333 9.665,9.386 9.847,9.246 C10.029,9.106 10.1981667,8.94033333 10.3545,8.749 C10.5108333,8.55766667 10.6403333,8.3325 10.743,8.0735 C10.8456667,7.8145 10.897,7.50766667 10.897,7.153 C10.897,6.789 10.8316667,6.46 10.701,6.166 C10.5703333,5.872 10.386,5.62116667 10.148,5.4135 C9.91,5.20583333 9.62416667,5.046 9.2905,4.934 C8.95683333,4.822 8.587,4.766 8.181,4.766 C7.88233333,4.766 7.60466667,4.79283333 7.348,4.8465 C7.09133333,4.90016667 6.85333333,4.97366667 6.634,5.067 C6.41466667,5.16033333 6.2105,5.27 6.0215,5.396 C5.8325,5.522 5.65866667,5.655 5.5,5.795 L5.5,5.795 L5.955,6.516 C6.02966667,6.656 6.151,6.726 6.319,6.726 C6.389,6.726 6.46833333,6.69683333 6.557,6.6385 C6.64566667,6.58016667 6.75416667,6.51483333 6.8825,6.4425 C7.01083333,6.37016667 7.16716667,6.30483333 7.3515,6.2465 C7.53583333,6.18816667 7.761,6.159 8.027,6.159 C8.209,6.159 8.37816667,6.18466667 8.5345,6.236 C8.69083333,6.28733333 8.825,6.36083333 8.937,6.4565 C9.049,6.55216667 9.1365,6.6665 9.1995,6.7995 C9.2625,6.9325 9.294,7.083 9.294,7.251 C9.294,7.503 9.24266667,7.72233333 9.14,7.909 C9.03733333,8.09566667 8.909,8.2625 8.755,8.4095 C8.601,8.5565 8.43533333,8.693 8.258,8.819 C8.08066667,8.945 7.915,9.0745 7.761,9.2075 C7.607,9.3405 7.47866667,9.48283333 7.376,9.6345 C7.27333333,9.78616667 7.222,9.96466667 7.222,10.17 L7.222,10.17 L7.222,10.2295 C7.222,10.2458333 7.22433333,10.2656667 7.229,10.289 L7.229,10.289 L7.348,11.43 L8.531,11.43 Z" fill="#0D10F3" fill-rule="nonzero"></path>
                <path d="M8.064,15.107 C8.20866667,15.107 8.34633333,15.0801667 8.477,15.0265 C8.60766667,14.9728333 8.71966667,14.8993333 8.813,14.806 C8.90633333,14.7126667 8.981,14.6018333 9.037,14.4735 C9.093,14.3451667 9.121,14.2063333 9.121,14.057 C9.121,13.9123333 9.093,13.7746667 9.037,13.644 C8.981,13.5133333 8.90633333,13.4013333 8.813,13.308 C8.71966667,13.2146667 8.60766667,13.14 8.477,13.084 C8.34633333,13.028 8.20866667,13 8.064,13 C7.91466667,13 7.77466667,13.028 7.644,13.084 C7.51333333,13.14 7.40016667,13.2146667 7.3045,13.308 C7.20883333,13.4013333 7.13416667,13.5133333 7.0805,13.644 C7.02683333,13.7746667 7,13.9123333 7,14.057 C7,14.2063333 7.02683333,14.3451667 7.0805,14.4735 C7.13416667,14.6018333 7.20883333,14.7126667 7.3045,14.806 C7.40016667,14.8993333 7.51333333,14.9728333 7.644,15.0265 C7.77466667,15.0801667 7.91466667,15.107 8.064,15.107 Z" fill="#0D10F3" fill-rule="nonzero"></path>
            </g>
        </g>
    </g>
</svg>