<!-- Generated by IcoMoon.io -->
<svg version="1.1" xmlns="http://www.w3.org/2000/svg" width="24" height="24" viewBox="0 0 24 24">
<title>sort_za</title>
<path fill="#0d10f3" d="M5.236 16.364c0.153 0 0.276-0.076 0.371-0.229s0.142-0.324 0.142-0.513c0-0.189-0.047-0.36-0.142-0.513s-0.218-0.229-0.371-0.229v0h-2.967l3.076-5.444c0.124-0.225 0.185-0.425 0.185-0.6 0-0.298-0.164-0.447-0.491-0.447v0h-4.211c-0.167 0-0.295 0.073-0.382 0.218s-0.131 0.32-0.131 0.524c0 0.204 0.045 0.378 0.136 0.524s0.216 0.218 0.376 0.218v0h2.531l-3.076 5.444c-0.124 0.211-0.185 0.411-0.185 0.6 0 0.298 0.164 0.447 0.491 0.447v0h4.647z"></path>
<path fill="#0d10f3" d="M22.745 16.364c0.255 0 0.5-0.069 0.736-0.207s0.355-0.302 0.355-0.491c0-0.022-0.007-0.062-0.022-0.12v0l-2.040-6.655c-0.058-0.182-0.191-0.322-0.398-0.42s-0.445-0.147-0.715-0.147c-0.269 0-0.507 0.049-0.715 0.147s-0.34 0.238-0.398 0.42v0l-2.029 6.655c-0.015 0.058-0.022 0.098-0.022 0.12 0 0.189 0.118 0.353 0.355 0.491s0.482 0.207 0.736 0.207c0.313 0 0.498-0.105 0.556-0.316v0l0.371-1.364h2.302l0.371 1.364c0.058 0.211 0.244 0.316 0.556 0.316zM21.458 13.375h-1.593l0.796-2.924 0.796 2.924z"></path>
<path fill="#0d10f3" d="M11.967 9.24c0.29-0.29 0.745-0.317 1.065-0.079l0.092 0.079 2.182 2.182c0.488 0.488 0.186 1.305-0.467 1.39l-0.112 0.007h-6.545c-0.452 0-0.818-0.366-0.818-0.818 0-0.414 0.308-0.757 0.707-0.811l0.111-0.007h4.57l-0.785-0.785c-0.29-0.29-0.317-0.745-0.079-1.065l0.079-0.092z"></path>
<path fill="#0d10f3" d="M14.149 11.421c0.32-0.32 0.838-0.32 1.157 0 0.29 0.29 0.317 0.745 0.079 1.065l-0.079 0.092-2.182 2.182c-0.32 0.32-0.838 0.32-1.157 0-0.29-0.29-0.317-0.745-0.079-1.065l0.079-0.092 2.182-2.182z"></path>
</svg>
