<svg width="24" height="24" viewBox="0 0 24 24" xmlns="http://www.w3.org/2000/svg">
<path fill="none" stroke="currentColor" stroke-linecap="round" stroke-linejoin="round" stroke-width="1.5" d="M6.28564 16.2857H9.35707C9.63322 16.2857 9.85707 16.0619 9.85707 15.7857V12.5C9.85707 12.2239 10.0809 12 10.3571 12H13.6428C13.9189 12 14.1428 11.7762 14.1428 11.5V8.21429C14.1428 7.93815 14.3666 7.71429 14.6428 7.71429H17.7142"/>
<path fill="none" stroke="currentColor" stroke-linecap="round" stroke-linejoin="round" stroke-width="1.5" d="M2 7.71429V2.5C2 2.22386 2.22386 2 2.5 2H21.5C21.7761 2 22 2.22386 22 2.5V10.5714"/>
<path fill="none" stroke="currentColor" stroke-linecap="round" stroke-linejoin="round" stroke-width="1.5" d="M2 12V21.5C2 21.7761 2.22386 22 2.5 22H21.5C21.7761 22 22 21.7761 22 21.5V14.8571"/>
</svg>
