<svg class="animated" id="freepik_stories-404-error" xmlns="http://www.w3.org/2000/svg" viewBox="0 0 500 500" version="1.1" xmlns:xlink="http://www.w3.org/1999/xlink" xmlns:svgjs="http://svgjs.com/svgjs"><style>svg#freepik_stories-404-error:not(.animated) .animable {opacity: 0;}svg#freepik_stories-404-error.animated #freepik--Planets--inject-20 {animation: 1s 1 forwards cubic-bezier(.36,-0.01,.5,1.38) zoomIn;animation-delay: 0s;}svg#freepik_stories-404-error.animated #freepik--Astronaut--inject-20 {animation: 1s 1 forwards cubic-bezier(.36,-0.01,.5,1.38) slideLeft;animation-delay: 0s;}svg#freepik_stories-404-error.animated #freepik--Rocket--inject-20 {animation: 1s 1 forwards cubic-bezier(.36,-0.01,.5,1.38) slideLeft;animation-delay: 0s;}            @keyframes zoomIn {                0% {                    opacity: 0;                    transform: scale(0.5);                }                100% {                    opacity: 1;                    transform: scale(1);                }            }                    @keyframes slideLeft {                0% {                    opacity: 0;                    transform: translateX(-30px);                }                100% {                    opacity: 1;                    transform: translateX(0);                }            }        </style><g id="freepik--background-complete--inject-20" class="animable" style="transform-origin: 250px 250.025px;"><path d="M238.4,445.05H45.3a5.71,5.71,0,0,1-5.71-5.71V60.66A5.71,5.71,0,0,1,45.3,55H238.4a5.71,5.71,0,0,1,5.71,5.71V439.34A5.71,5.71,0,0,1,238.4,445.05ZM45.3,55.2a5.47,5.47,0,0,0-5.46,5.46V439.34a5.47,5.47,0,0,0,5.46,5.46H238.4a5.47,5.47,0,0,0,5.46-5.46V60.66a5.47,5.47,0,0,0-5.46-5.46Z" style="fill: rgb(235, 235, 235); transform-origin: 141.85px 250.025px;" id="eli5gpm0sg75i" class="animable"></path><path d="M454.7,445.05H261.6a5.71,5.71,0,0,1-5.71-5.71V60.66A5.71,5.71,0,0,1,261.6,55H454.7a5.71,5.71,0,0,1,5.71,5.71V439.34A5.71,5.71,0,0,1,454.7,445.05ZM261.6,55.2a5.47,5.47,0,0,0-5.46,5.46V439.34a5.47,5.47,0,0,0,5.46,5.46H454.7a5.47,5.47,0,0,0,5.46-5.46V60.66a5.47,5.47,0,0,0-5.46-5.46Z" style="fill: rgb(235, 235, 235); transform-origin: 358.15px 250.025px;" id="elccpt3ry3ykg" class="animable"></path><polygon points="113.05 168.25 114.67 171.52 118.29 172.05 115.67 174.6 116.29 178.2 113.05 176.5 109.82 178.2 110.44 174.6 107.82 172.05 111.44 171.52 113.05 168.25" style="fill: rgb(235, 235, 235); transform-origin: 113.055px 173.225px;" id="elis7rb3vunsc" class="animable"></polygon><polygon points="436.7 322.48 438.32 325.76 441.94 326.29 439.32 328.83 439.94 332.44 436.7 330.74 433.47 332.44 434.09 328.83 431.47 326.29 435.09 325.76 436.7 322.48" style="fill: rgb(245, 245, 245); transform-origin: 436.705px 327.46px;" id="eli2g28multap" class="animable"></polygon><polygon points="372.6 417.57 374.22 420.84 377.83 421.37 375.21 423.92 375.83 427.52 372.6 425.82 369.37 427.52 369.98 423.92 367.37 421.37 370.98 420.84 372.6 417.57" style="fill: rgb(245, 245, 245); transform-origin: 372.6px 422.545px;" id="elzom0y3xr1w9" class="animable"></polygon><path d="M225.94,110.15l.6,1.22,1.35.2a.4.4,0,0,1,.22.69l-1,.95.23,1.34a.41.41,0,0,1-.59.43l-1.2-.64-1.2.64a.41.41,0,0,1-.59-.43l.22-1.34-1-.95a.4.4,0,0,1,.23-.69l1.34-.2.6-1.22A.41.41,0,0,1,225.94,110.15Z" style="fill: rgb(235, 235, 235); transform-origin: 225.546px 112.437px;" id="elnlfv805bgao" class="animable"></path><path d="M60.78,402l.6,1.21,1.34.2a.41.41,0,0,1,.23.7l-1,.94.23,1.34a.41.41,0,0,1-.59.43l-1.2-.63-1.2.63a.41.41,0,0,1-.59-.43l.23-1.34-1-.94a.41.41,0,0,1,.22-.7l1.34-.2L60,402A.41.41,0,0,1,60.78,402Z" style="fill: rgb(245, 245, 245); transform-origin: 60.3893px 404.29px;" id="eljjfjzmxt32i" class="animable"></path><path d="M87.75,97.3l.6,1.22,1.35.19a.41.41,0,0,1,.22.7l-1,1,.23,1.33a.4.4,0,0,1-.59.43l-1.2-.63-1.2.63a.4.4,0,0,1-.59-.43l.22-1.33-1-1a.41.41,0,0,1,.23-.7l1.34-.19L87,97.3A.41.41,0,0,1,87.75,97.3Z" style="fill: rgb(235, 235, 235); transform-origin: 87.3557px 99.6393px;" id="el535yy1soov7" class="animable"></path><path d="M86.13,338.32A1.33,1.33,0,1,1,84.8,337,1.33,1.33,0,0,1,86.13,338.32Z" style="fill: rgb(235, 235, 235); transform-origin: 84.8px 338.33px;" id="elgms482wmtod" class="animable"></path><path d="M275.67,171.89a1.33,1.33,0,1,1-1.33-1.32A1.32,1.32,0,0,1,275.67,171.89Z" style="fill: rgb(235, 235, 235); transform-origin: 274.34px 171.9px;" id="el58defx968x5" class="animable"></path><path d="M206.71,98.4a1.33,1.33,0,1,1-1.33-1.33A1.34,1.34,0,0,1,206.71,98.4Z" style="fill: rgb(245, 245, 245); transform-origin: 205.38px 98.4px;" id="el7zt2kwfk34u" class="animable"></path><g id="el98zklytn9kp"><circle cx="207.14" cy="415.38" r="7.35" style="fill: rgb(240, 240, 240); transform-origin: 207.14px 415.38px; transform: rotate(-13.28deg);" class="animable"></circle></g><path d="M204.6,411.09a7.09,7.09,0,0,0-4.19,1.36,7.34,7.34,0,0,0,10.5,9.23s0,0,0,0a7.17,7.17,0,0,0-6.31-10.58Z" style="fill: rgb(230, 230, 230); transform-origin: 205.786px 416.907px;" id="el2nfv6xn9p55" class="animable"></path></g><g id="freepik--404--inject-20" class="animable" style="transform-origin: 251.415px 249.955px;"><path d="M147.68,287.64H86.83V260.17l60.85-72.34H176.8v73.9h15.09v25.91H176.8v22.48H147.68Zm0-25.91V223.89l-32.16,37.84Z" style="fill: rgb(64, 123, 255); transform-origin: 139.36px 248.975px;" id="elwljfjctliqd" class="animable"></path><path d="M202.3,249.51q0-34.29,12.34-48t37.61-13.7q12.13,0,19.93,3a36.79,36.79,0,0,1,12.71,7.79,41.59,41.59,0,0,1,7.75,10.09,52.38,52.38,0,0,1,4.55,12.34,115.36,115.36,0,0,1,3.36,28q0,32.72-11.07,47.89t-38.13,15.18q-15.18,0-24.53-4.84a39.76,39.76,0,0,1-15.33-14.19q-4.35-6.64-6.77-18.17A124.33,124.33,0,0,1,202.3,249.51Zm33.14.08q0,23,4.05,31.37t11.77,8.41a12.34,12.34,0,0,0,8.82-3.57q3.74-3.57,5.5-11.28t1.76-24q0-23.94-4.06-32.19t-12.18-8.24q-8.28,0-12,8.41T235.44,249.59Z" style="fill: rgb(64, 123, 255); transform-origin: 251.423px 249.955px;" id="ellfoyw3zkt9q" class="animable"></path><path d="M371.74,287.64H310.89V260.17l60.85-72.34h29.12v73.9H416v25.91H400.86v22.48H371.74Zm0-25.91V223.89l-32.15,37.84Z" style="fill: rgb(64, 123, 255); transform-origin: 363.445px 248.975px;" id="eljyykwwe7nld" class="animable"></path></g><g id="freepik--Planets--inject-20" class="animable animator-active" style="transform-origin: 247.91px 238.95px;"><g id="elx5arh6mbein"><g style="opacity: 0.3; transform-origin: 247.91px 238.95px;" class="animable"><path d="M201,145.62a1.87,1.87,0,1,1-1.86-1.87A1.86,1.86,0,0,1,201,145.62Z" style="fill: rgb(64, 123, 255); transform-origin: 199.13px 145.62px;" id="elp416f284w1" class="animable"></path><circle cx="72.97" cy="216.13" r="1.32" style="fill: rgb(64, 123, 255); transform-origin: 72.97px 216.13px;" id="eliy6047wg5l" class="animable"></circle><circle cx="291.05" cy="408.33" r="1.89" style="fill: rgb(64, 123, 255); transform-origin: 291.05px 408.33px;" id="el6fbpcrftls3" class="animable"></circle><circle cx="336.5" cy="332" r="1.32" style="fill: rgb(64, 123, 255); transform-origin: 336.5px 332px;" id="el01l3nhilnc6q" class="animable"></circle><path d="M424.17,95.62a1.32,1.32,0,1,1-1.32-1.32A1.32,1.32,0,0,1,424.17,95.62Z" style="fill: rgb(64, 123, 255); transform-origin: 422.85px 95.62px;" id="elq4zrsjgjhnb" class="animable"></path><path d="M172.75,69a1.32,1.32,0,1,1-1.32-1.32A1.33,1.33,0,0,1,172.75,69Z" style="fill: rgb(64, 123, 255); transform-origin: 171.43px 69px;" id="el5bbx72ltsia" class="animable"></path><circle cx="277.7" cy="136.94" r="1.32" style="fill: rgb(64, 123, 255); transform-origin: 277.7px 136.94px;" id="elwteidrb89ve" class="animable"></circle></g></g><circle cx="141.23" cy="116.36" r="21.91" style="fill: rgb(64, 123, 255); transform-origin: 141.23px 116.36px;" id="elyip0xerlxk" class="animable"></circle><g id="elr31alyttt4o"><circle cx="141.23" cy="116.36" r="21.91" style="fill: rgb(255, 255, 255); opacity: 0.7; transform-origin: 141.23px 116.36px;" class="animable"></circle></g><g id="elshfzbisfkmm"><path d="M133.68,99.83A21.84,21.84,0,0,0,125,101.6a21.92,21.92,0,0,0,24.87,34.89h0a21.92,21.92,0,0,0-16.23-36.65Z" style="fill: rgb(64, 123, 255); opacity: 0.2; transform-origin: 137.425px 119.051px;" class="animable"></path></g><g id="el5i20qmbjcrh"><path d="M131.5,105.62a2,2,0,1,1-2-2A2,2,0,0,1,131.5,105.62Z" style="fill: rgb(64, 123, 255); opacity: 0.2; transform-origin: 129.5px 105.62px;" class="animable"></path></g><g id="elj7oxcfqbhw"><path d="M155.06,103.62a2,2,0,1,1-2-2A2,2,0,0,1,155.06,103.62Z" style="fill: rgb(64, 123, 255); opacity: 0.2; transform-origin: 153.06px 103.62px;" class="animable"></path></g><g id="el3xsv7s8in4x"><path d="M151.06,117.9a3.28,3.28,0,1,1-3.28-3.28A3.28,3.28,0,0,1,151.06,117.9Z" style="fill: rgb(64, 123, 255); opacity: 0.2; transform-origin: 147.78px 117.9px;" class="animable"></path></g><g id="el7hp05a3d65s"><path d="M140.64,127.25a4.38,4.38,0,1,1-4.38-4.38A4.38,4.38,0,0,1,140.64,127.25Z" style="fill: rgb(64, 123, 255); opacity: 0.2; transform-origin: 136.26px 127.25px;" class="animable"></path></g><g id="elalalfb93r7c"><circle cx="382.2" cy="376.25" r="19.23" style="fill: rgb(64, 123, 255); transform-origin: 382.2px 376.25px; transform: rotate(-76.72deg);" class="animable"></circle></g><g id="elnudfvksoab"><circle cx="382.2" cy="376.25" r="19.23" style="fill: rgb(255, 255, 255); opacity: 0.3; transform-origin: 382.2px 376.25px; transform: rotate(-76.72deg);" class="animable"></circle></g><g id="eloi0zy0sri49"><path d="M394.33,361.34a19.22,19.22,0,0,0-17.67,33.32,19,19,0,0,0,5.53.82,19.23,19.23,0,0,0,12.14-34.14Z" style="fill: rgb(64, 123, 255); opacity: 0.4; transform-origin: 385.486px 378px;" class="animable"></path></g><path d="M363.83,382c-20.53,9.66-5.22,17.11,23.71,6.71,26.79-9.63,37-21.77,13-18C401.83,375.76,368.28,388.83,363.83,382Z" style="fill: rgb(64, 123, 255); transform-origin: 384.229px 381.874px;" id="elwfze9010pp" class="animable"></path></g><g id="freepik--Astronaut--inject-20" class="animable" style="transform-origin: 315.482px 224.349px;"><g id="eltlhndmgxo4"><path d="M394.1,187.83C367.21,206,332.4,230,322.79,287.64h-2.05c9.35-57,42.89-81.57,69.79-99.81Z" style="opacity: 0.2; transform-origin: 357.42px 237.735px;" class="animable"></path></g><path d="M255,368.27c-17,0-33.81-7.67-42-20.19-5.05-7.74-10.92-23.95,6.56-45.58l1.55,1.26c-12.36,15.3-14.64,30.65-6.43,43.23,10,15.3,33.59,23,53.73,17.52,20.63-5.61,33.15-23.55,34.36-49.22,4.13-87.81,50.78-114.86,84.84-134.61,21.17-12.27,36.46-21.13,33.1-39.84-.47-2.59-1.5-4.38-3.17-5.48-4.35-2.87-12.85-.88-22.69,1.41-19.31,4.5-45.75,10.66-61.5-16.13l1.73-1c15,25.53,39.57,19.8,59.32,15.2,10.29-2.39,19.17-4.46,24.24-1.13,2.15,1.41,3.47,3.64,4,6.8,3.61,20.08-13,29.72-34.05,41.92-33.67,19.52-79.77,46.25-83.85,133-1.26,26.6-14.32,45.21-35.84,51.06A52.88,52.88,0,0,1,255,368.27Z" style="fill: rgb(64, 123, 255); transform-origin: 315.482px 243.955px;" id="el6k7y405mj8f" class="animable"></path><g id="elp4xhtna6tcb"><path d="M255,368.27c-17,0-33.81-7.67-42-20.19-5.05-7.74-10.92-23.95,6.56-45.58l1.55,1.26c-12.36,15.3-14.64,30.65-6.43,43.23,10,15.3,33.59,23,53.73,17.52,20.63-5.61,33.15-23.55,34.36-49.22,4.13-87.81,50.78-114.86,84.84-134.61,21.17-12.27,36.46-21.13,33.1-39.84-.47-2.59-1.5-4.38-3.17-5.48-4.35-2.87-12.85-.88-22.69,1.41-19.31,4.5-45.75,10.66-61.5-16.13l1.73-1c15,25.53,39.57,19.8,59.32,15.2,10.29-2.39,19.17-4.46,24.24-1.13,2.15,1.41,3.47,3.64,4,6.8,3.61,20.08-13,29.72-34.05,41.92-33.67,19.52-79.77,46.25-83.85,133-1.26,26.6-14.32,45.21-35.84,51.06A52.88,52.88,0,0,1,255,368.27Z" style="fill: rgb(255, 255, 255); opacity: 0.2; transform-origin: 315.482px 243.955px;" class="animable"></path></g><path d="M312.76,97a46.05,46.05,0,0,1,13.58,2.13s11,18.77,12.3,23.07c-.46,4.24-7.61,11.19-7.61,11.19Z" style="fill: rgb(64, 123, 255); transform-origin: 325.7px 115.195px;" id="eli0h4ims14cg" class="animable"></path><g id="eli72sop5vgmk"><path d="M312.76,97a46.05,46.05,0,0,1,13.58,2.13s11,18.77,12.3,23.07c-.46,4.24-7.61,11.19-7.61,11.19Z" style="fill: rgb(255, 255, 255); opacity: 0.3; transform-origin: 325.7px 115.195px;" class="animable"></path></g><path d="M345.34,188.13a141.41,141.41,0,0,1-11.56-16.38q-1.26-2.17-2.39-4.42c-.43-.85-.84-1.7-1.24-2.56a10.76,10.76,0,0,1-1.21-2.69c-1.2-12.67,3.14-22-1-32.17l-16.48,6.44s1.4,18.12,4.6,29c2,6.73,6.48,12.55,10.81,17.94,1.35,1.68,2.65,3.41,4,5.1s2.71,3.06,4,4.65c1.95,2.41,2.59,4.72,1.12,7.56l-.25.45c-.42.74,1.54,1.58,2.78,0,2-2.58,1.72-2.42,3.46-4.62,1.06-1.33,2.27-2.78,3.32-4A3.37,3.37,0,0,0,345.34,188.13Z" style="fill: rgb(64, 123, 255); transform-origin: 328.778px 165.928px;" id="elp5dnyjf9mm" class="animable"></path><g id="el7gnxiq10l6b"><path d="M345.34,188.13a141.41,141.41,0,0,1-11.56-16.38q-1.26-2.17-2.39-4.42c-.43-.85-.84-1.7-1.24-2.56a10.76,10.76,0,0,1-1.21-2.69c-1.2-12.67,3.14-22-1-32.17l-16.48,6.44s1.4,18.12,4.6,29c2,6.73,6.48,12.55,10.81,17.94,1.35,1.68,2.65,3.41,4,5.1s2.71,3.06,4,4.65c1.95,2.41,2.59,4.72,1.12,7.56l-.25.45c-.42.74,1.54,1.58,2.78,0,2-2.58,1.72-2.42,3.46-4.62,1.06-1.33,2.27-2.78,3.32-4A3.37,3.37,0,0,0,345.34,188.13Z" style="fill: rgb(255, 255, 255); opacity: 0.7; transform-origin: 328.778px 165.928px;" class="animable"></path></g><g id="elx6cchmgcve"><path d="M341.31,182.92a54.69,54.69,0,0,1-8.66,7.52c.43.48.85,1,1.28,1.46a43.92,43.92,0,0,0,8.5-7.51Z" style="fill: rgb(64, 123, 255); opacity: 0.3; transform-origin: 337.54px 187.41px;" class="animable"></path></g><g id="el85kxilr3a8l"><path d="M345.34,188.13l-.12-.14a5.18,5.18,0,0,0-1.27,3.17,5,5,0,0,0,.38,2.35l.95-1.13A3.37,3.37,0,0,0,345.34,188.13Z" style="fill: rgb(64, 123, 255); opacity: 0.3; transform-origin: 344.999px 190.75px;" class="animable"></path></g><path d="M308.84,109a35.38,35.38,0,0,1-6.37,7.19,23.27,23.27,0,0,1-4.42,3,19,19,0,0,1-2.58,1.09l-.68.22-.22.06-.47.13a5.93,5.93,0,0,1-.88.14,7.55,7.55,0,0,1-2.51-.23,12.24,12.24,0,0,1-2.94-1.27,25,25,0,0,1-2.15-1.41,40.31,40.31,0,0,1-3.58-3,53.16,53.16,0,0,1-6-6.74,2.51,2.51,0,0,1,3.35-3.62l.08,0c2.36,1.5,4.74,3.08,7.06,4.49,1.18.69,2.32,1.39,3.45,1.93a15.29,15.29,0,0,0,1.59.72,3.12,3.12,0,0,0,1.07.26c.06,0,0-.07-.37-.06a2.93,2.93,0,0,0-.35,0l-.22.05,0,0,.33-.17a13.53,13.53,0,0,0,1.29-.79,18.4,18.4,0,0,0,2.5-2.12,63.62,63.62,0,0,0,4.9-5.79l0,0a5,5,0,0,1,8,5.93Z" style="fill: rgb(64, 123, 255); transform-origin: 292.498px 111.132px;" id="el23ei6vt5jlf" class="animable"></path><g id="elbsozv77abw"><path d="M308.84,109a35.38,35.38,0,0,1-6.37,7.19,23.27,23.27,0,0,1-4.42,3,19,19,0,0,1-2.58,1.09l-.68.22-.22.06-.47.13a5.93,5.93,0,0,1-.88.14,7.55,7.55,0,0,1-2.51-.23,12.24,12.24,0,0,1-2.94-1.27,25,25,0,0,1-2.15-1.41,40.31,40.31,0,0,1-3.58-3,53.16,53.16,0,0,1-6-6.74,2.51,2.51,0,0,1,3.35-3.62l.08,0c2.36,1.5,4.74,3.08,7.06,4.49,1.18.69,2.32,1.39,3.45,1.93a15.29,15.29,0,0,0,1.59.72,3.12,3.12,0,0,0,1.07.26c.06,0,0-.07-.37-.06a2.93,2.93,0,0,0-.35,0l-.22.05,0,0,.33-.17a13.53,13.53,0,0,0,1.29-.79,18.4,18.4,0,0,0,2.5-2.12,63.62,63.62,0,0,0,4.9-5.79l0,0a5,5,0,0,1,8,5.93Z" style="fill: rgb(255, 255, 255); opacity: 0.7; transform-origin: 292.498px 111.132px;" class="animable"></path></g><path d="M272.29,102.42l1.17,2s.89,2.62,2.68,3.1l4.86-1.57-.25-.41h0c-.62-.94-.55-2.77-.34-4.29s-.57-1.57-1.15-1.19a3.82,3.82,0,0,0-.84,1.65,7.77,7.77,0,0,0-.79-.93l-1.48-1.48a1.72,1.72,0,0,0-2.34-.06l-1.2,1.07A1.71,1.71,0,0,0,272.29,102.42Z" style="fill: rgb(64, 123, 255); transform-origin: 276.531px 103.165px;" id="eldo1uw55130h" class="animable"></path><g id="elwhkc5iq2p18"><path d="M272.29,102.42l1.17,2s.89,2.62,2.68,3.1l4.86-1.57-.25-.41h0c-.62-.94-.55-2.77-.34-4.29s-.57-1.57-1.15-1.19a3.82,3.82,0,0,0-.84,1.65,7.77,7.77,0,0,0-.79-.93l-1.48-1.48a1.72,1.72,0,0,0-2.34-.06l-1.2,1.07A1.71,1.71,0,0,0,272.29,102.42Z" style="fill: rgb(255, 255, 255); opacity: 0.7; transform-origin: 276.531px 103.165px;" class="animable"></path></g><path d="M317.67,95.22a59.64,59.64,0,0,0-15.34,6.47,4.32,4.32,0,0,0-1.94,4.53c1.93,9.44,6.32,22.08,11.06,30.13l22.11-9.15c.15-3.9-5.22-16.52-10.69-28.72C321.89,96.29,320,94.66,317.67,95.22Z" style="fill: rgb(64, 123, 255); transform-origin: 316.932px 115.729px;" id="el46ljut6fras" class="animable"></path><g id="elg0qqy7ukf5u"><path d="M317.67,95.22a59.64,59.64,0,0,0-15.34,6.47,4.32,4.32,0,0,0-1.94,4.53c1.93,9.44,6.32,22.08,11.06,30.13l22.11-9.15c.15-3.9-5.22-16.52-10.69-28.72C321.89,96.29,320,94.66,317.67,95.22Z" style="fill: rgb(255, 255, 255); opacity: 0.8; transform-origin: 316.932px 115.729px;" class="animable"></path></g><g id="elloz0ynjxub"><path d="M326.3,106.21l-4.39-1.47c1,2.57,4.53,5.82,7,7.73C328.11,110.47,327.22,108.37,326.3,106.21Z" style="fill: rgb(64, 123, 255); opacity: 0.3; transform-origin: 325.41px 108.605px;" class="animable"></path></g><path d="M316.22,85.32c-1.83-3.48-5.78-5.23-10.52-4.84-4,.34-7.54,4.42-7.12,6.62S302.36,90.24,303,91l-2.77,2a3,3,0,0,0-.6,4.29c1.17,1.48,2.71,3,3.6,4.12,7.66-.2,13.33-3.12,15.38-5.93C317.84,91.92,318,88.78,316.22,85.32Z" style="fill: rgb(64, 123, 255); transform-origin: 308.578px 90.9182px;" id="elen95t036vov" class="animable"></path><g id="eloj1o98ki6bk"><path d="M316.22,85.32c-1.83-3.48-5.78-5.23-10.52-4.84-4,.34-7.54,4.42-7.12,6.62S302.36,90.24,303,91l-2.77,2a3,3,0,0,0-.6,4.29c1.17,1.48,2.71,3,3.6,4.12,7.66-.2,13.33-3.12,15.38-5.93C317.84,91.92,318,88.78,316.22,85.32Z" style="fill: rgb(255, 255, 255); opacity: 0.8; transform-origin: 308.578px 90.9182px;" class="animable"></path></g><path d="M312.46,87.48a7.57,7.57,0,1,1-9.81-4.3A7.58,7.58,0,0,1,312.46,87.48Z" style="fill: rgb(38, 50, 56); transform-origin: 305.407px 90.2315px;" id="elys4p2dmpp9h" class="animable"></path><path d="M377.39,177.6c-.11-3.29-.26-3-.35-5.77-.06-1.7-.07-3.59-.08-5.22a3.36,3.36,0,0,0-2.7-3.28c-1.32-.27-2.65-.52-4-.8-1.73-.37-3.44-.77-5.13-1.26-1.32-.38-2.62-.8-3.91-1.27s-2.74-1-4.08-1.62c-1.58-.67-3.14-1.39-4.68-2.14-1.73-.82-3.44-1.68-5.15-2.55-6.58-10.89-6.72-18.07-13.78-26.49l-15.16,6.86s11.14,19.76,18.72,28.14c4.37,4.82,11.22,7,17.33,8.58,4.41,1.13,8.88,2,13.35,2.83,1.74.32,3.63.44,5.13,1.48a5.74,5.74,0,0,1,2.14,3.45q.1.42.18.84C375.41,180.22,377.46,179.58,377.39,177.6Z" style="fill: rgb(64, 123, 255); transform-origin: 347.881px 153.47px;" id="elyg77yzxt85m" class="animable"></path><g id="el1xbkqngh9p6"><path d="M377.39,177.6c-.11-3.29-.26-3-.35-5.77-.06-1.7-.07-3.59-.08-5.22a3.36,3.36,0,0,0-2.7-3.28c-1.32-.27-2.65-.52-4-.8-1.73-.37-3.44-.77-5.13-1.26-1.32-.38-2.62-.8-3.91-1.27s-2.74-1-4.08-1.62c-1.58-.67-3.14-1.39-4.68-2.14-1.73-.82-3.44-1.68-5.15-2.55-6.58-10.89-6.72-18.07-13.78-26.49l-15.16,6.86s11.14,19.76,18.72,28.14c4.37,4.82,11.22,7,17.33,8.58,4.41,1.13,8.88,2,13.35,2.83,1.74.32,3.63.44,5.13,1.48a5.74,5.74,0,0,1,2.14,3.45q.1.42.18.84C375.41,180.22,377.46,179.58,377.39,177.6Z" style="fill: rgb(255, 255, 255); opacity: 0.8; transform-origin: 347.881px 153.47px;" class="animable"></path></g><g id="elrpnyyoxctrg"><path d="M369.7,162.4c-.6-.13-1.2-.26-1.81-.41.05,3.46-1.57,9.42-2.16,11.23l1.9.36A38.11,38.11,0,0,0,369.7,162.4Z" style="fill: rgb(64, 123, 255); opacity: 0.3; transform-origin: 367.715px 167.785px;" class="animable"></path></g><g id="elytocs7thofh"><path d="M377,166.61a3.36,3.36,0,0,0-2.69-3.28l-1-.19a4.58,4.58,0,0,0,1.63,2.9,5.09,5.09,0,0,0,2,1.14C377,167,377,166.8,377,166.61Z" style="fill: rgb(64, 123, 255); opacity: 0.3; transform-origin: 375.155px 165.16px;" class="animable"></path></g><path d="M311.05,87.54c.4,1.52-1.3,3.11-2.65,1.8a30.83,30.83,0,0,0-4.12-3.69c-1.39-.87.46-2.39,2.65-1.8A5.94,5.94,0,0,1,311.05,87.54Z" style="fill: rgb(255, 255, 255); transform-origin: 307.454px 86.7717px;" id="elmceaceboidl" class="animable"></path><path d="M311.16,135.86c-.7.26.58,1.46.58,1.46s14-4.79,22.5-9.72a1.88,1.88,0,0,0-.68-1.58A216,216,0,0,1,311.16,135.86Z" style="fill: rgb(64, 123, 255); transform-origin: 322.598px 131.67px;" id="elcnsl34zz3zu" class="animable"></path><g id="eli3zg2socdf"><path d="M311.16,135.86c-.7.26.58,1.46.58,1.46s14-4.79,22.5-9.72a1.88,1.88,0,0,0-.68-1.58A216,216,0,0,1,311.16,135.86Z" style="fill: rgb(255, 255, 255); opacity: 0.5; transform-origin: 322.598px 131.67px;" class="animable"></path></g><path d="M321.46,94.56c2.76,1.4,5.35,2.87,8,4.5,1.29.82,2.57,1.65,3.84,2.55s2.53,1.82,3.8,2.86l.47.39.59.54a12.74,12.74,0,0,1,1,1c.32.35.59.69.85,1s.54.68.77,1a43.8,43.8,0,0,1,2.58,4,59.05,59.05,0,0,1,4,8.35,2.52,2.52,0,0,1-4.19,2.62l-.05-.06c-2-2.13-3.93-4.37-5.87-6.46s-3.91-4.21-5.54-5.14c-2.27-1.41-4.8-2.82-7.31-4.2l-7.56-4.2h0a5,5,0,0,1,4.68-8.84Z" style="fill: rgb(64, 123, 255); transform-origin: 330.851px 109.024px;" id="el5sc6boglgio" class="animable"></path><g id="eleu9ahnqly8i"><path d="M321.46,94.56c2.76,1.4,5.35,2.87,8,4.5,1.29.82,2.57,1.65,3.84,2.55s2.53,1.82,3.8,2.86l.47.39.59.54a12.74,12.74,0,0,1,1,1c.32.35.59.69.85,1s.54.68.77,1a43.8,43.8,0,0,1,2.58,4,59.05,59.05,0,0,1,4,8.35,2.52,2.52,0,0,1-4.19,2.62l-.05-.06c-2-2.13-3.93-4.37-5.87-6.46s-3.91-4.21-5.54-5.14c-2.27-1.41-4.8-2.82-7.31-4.2l-7.56-4.2h0a5,5,0,0,1,4.68-8.84Z" style="fill: rgb(255, 255, 255); opacity: 0.8; transform-origin: 330.851px 109.024px;" class="animable"></path></g><path d="M349.73,125.74l-.85-2.13s-.47-2.72-2.16-3.48l-5,.79.17.44h0c.46,1,.11,2.83-.34,4.29s.31,1.65.95,1.36c.36-.16.71-.81,1.09-1.5a8.46,8.46,0,0,0,.63,1l1.23,1.69a1.72,1.72,0,0,0,2.3.44l1.36-.87A1.7,1.7,0,0,0,349.73,125.74Z" style="fill: rgb(64, 123, 255); transform-origin: 345.632px 124.516px;" id="elujhnvk3rep" class="animable"></path><g id="elg1betz8sirw"><path d="M349.73,125.74l-.85-2.13s-.47-2.72-2.16-3.48l-5,.79.17.44h0c.46,1,.11,2.83-.34,4.29s.31,1.65.95,1.36c.36-.16.71-.81,1.09-1.5a8.46,8.46,0,0,0,.63,1l1.23,1.69a1.72,1.72,0,0,0,2.3.44l1.36-.87A1.7,1.7,0,0,0,349.73,125.74Z" style="fill: rgb(255, 255, 255); opacity: 0.8; transform-origin: 345.632px 124.516px;" class="animable"></path></g><g id="eldrpqk4idty9"><path d="M317.24,106.06l-1.22.1-7.49,18.08a4,4,0,0,0,1.22-.1s9.76-3.64,12.71-5C320.48,115.05,317.24,106.06,317.24,106.06Z" style="fill: rgb(64, 123, 255); opacity: 0.3; transform-origin: 315.495px 115.155px;" class="animable"></path></g><path d="M303.57,110.8a43.41,43.41,0,0,0,5,13.44c3.66-1.26,9.76-3.64,12.72-5A135.36,135.36,0,0,1,316,106.16C312.87,106.37,306,109,303.57,110.8Z" style="fill: rgb(255, 255, 255); transform-origin: 312.43px 115.2px;" id="el2gu11x2ibkg" class="animable"></path><g id="elcq5dbm0becd"><path d="M311,114.71a2.58,2.58,0,1,1-1.73-3.21A2.58,2.58,0,0,1,311,114.71Z" style="fill: rgb(64, 123, 255); opacity: 0.3; transform-origin: 308.528px 113.971px;" class="animable"></path></g><g id="el4tz46qweq9k"><path d="M312.91,111.27a.85.85,0,1,1-.56-1A.84.84,0,0,1,312.91,111.27Z" style="fill: rgb(64, 123, 255); opacity: 0.6; transform-origin: 312.083px 111.077px;" class="animable"></path></g><g id="eljicxg4etfjr"><path d="M315.15,110.4a.85.85,0,1,1-1.62-.49.84.84,0,0,1,1.05-.56A.85.85,0,0,1,315.15,110.4Z" style="fill: rgb(64, 123, 255); opacity: 0.6; transform-origin: 314.325px 110.197px;" class="animable"></path></g><g id="elnk1v8enxdyd"><polygon points="318.29 118.19 309.04 121.84 308.49 120.02 317.73 116.37 318.29 118.19" style="fill: rgb(64, 123, 255); opacity: 0.5; transform-origin: 313.39px 119.105px;" class="animable"></polygon></g></g><g id="freepik--Rocket--inject-20" class="animable" style="transform-origin: 191.359px 313.79px;"><g id="el0x6o54304aqh"><path d="M267.26,257.17a94,94,0,0,1-1.68,17.35q-1.77,7.71-5.5,11.28a12.3,12.3,0,0,1-8.81,3.57q-7.71,0-11.77-8.41a23.79,23.79,0,0,1-1.21-3.11,144.31,144.31,0,0,0-15.92,16l-5.31,6.26a38.62,38.62,0,0,0,9.77,7.19q9.34,4.83,24.52,4.84c1.78,0,3.5-.05,5.17-.15a143.39,143.39,0,0,0,15.1-29l14.85-38.72Z" style="opacity: 0.2; transform-origin: 251.765px 278.205px;" class="animable"></path></g><path d="M133.39,310l17.5,17.5,49-46.17C183,274.88,150.16,293.19,133.39,310Z" style="fill: rgb(38, 50, 56); transform-origin: 166.64px 303.752px;" id="elku2dmu6c7q" class="animable"></path><path d="M194.42,371c-5.59-5.6-17.5-17.5-17.5-17.5l46.17-49C229.5,321.35,211.19,354.22,194.42,371Z" style="fill: rgb(38, 50, 56); transform-origin: 200.66px 337.75px;" id="eluwk9q0614fi" class="animable"></path><path d="M261.4,260.7l19.09-36.81L243.68,243a144.22,144.22,0,0,0-32.44,23l-62.75,59.07,30.83,30.83,59.07-62.75A144.22,144.22,0,0,0,261.4,260.7Z" style="fill: rgb(64, 123, 255); transform-origin: 214.49px 289.895px;" id="elmsxv6eudas" class="animable"></path><g id="el9tw14ydlgf7"><path d="M261.4,260.7l19.09-36.81L243.68,243a144.22,144.22,0,0,0-32.44,23l-62.75,59.07,30.83,30.83,59.07-62.75A144.22,144.22,0,0,0,261.4,260.7Z" style="fill: rgb(255, 255, 255); opacity: 0.6; transform-origin: 214.49px 289.895px;" class="animable"></path></g><circle cx="222.2" cy="282.18" r="12.9" style="fill: rgb(255, 255, 255); transform-origin: 222.2px 282.18px;" id="elkrlo2y3vkc" class="animable"></circle><circle cx="222.2" cy="282.18" r="8.29" style="fill: rgb(64, 123, 255); transform-origin: 222.2px 282.18px;" id="el0pecho4fayy" class="animable"></circle><g id="el69r8jg78qes"><polygon points="189.75 344.82 159.56 314.63 184.28 291.37 213.01 320.11 189.75 344.82" style="fill: rgb(64, 123, 255); opacity: 0.3; transform-origin: 186.285px 318.095px;" class="animable"></polygon></g><path d="M140.22,337.62c-22.6,1.83-30.09,16.3-32.65,35.53-1.3,9.81-1.88,19.74-10.11,25.48a2.77,2.77,0,0,0,1.63,5.06c30.34-.95,44.49-15.8,46.27-22a43.06,43.06,0,0,1-2.49,9.47,2.76,2.76,0,0,0,4,3.39c8.51-5.33,19.19-15.15,19.9-31.08C160.51,354.6,140.22,337.62,140.22,337.62Z" style="fill: rgb(64, 123, 255); transform-origin: 131.509px 370.655px;" id="elwe5nrmmhlwl" class="animable"></path><g id="elxy0p3uo6xzb"><path d="M140.22,337.62c-22.6,1.83-30.09,16.3-32.65,35.53-1.3,9.81-1.88,19.74-10.11,25.48a2.77,2.77,0,0,0,1.63,5.06c30.34-.95,44.49-15.8,46.27-22a43.06,43.06,0,0,1-2.49,9.47,2.76,2.76,0,0,0,4,3.39c8.51-5.33,19.19-15.15,19.9-31.08C160.51,354.6,140.22,337.62,140.22,337.62Z" style="fill: rgb(255, 255, 255); opacity: 0.2; transform-origin: 131.509px 370.655px;" class="animable"></path></g><polygon points="170.28 370.3 134.08 334.1 153.36 329.93 174.45 351.02 170.28 370.3" style="fill: rgb(64, 123, 255); transform-origin: 154.265px 350.115px;" id="elb21wbc67z7a" class="animable"></polygon></g><defs>     <filter id="active" height="200%">         <feMorphology in="SourceAlpha" result="DILATED" operator="dilate" radius="2"></feMorphology>                <feFlood flood-color="#32DFEC" flood-opacity="1" result="PINK"></feFlood>        <feComposite in="PINK" in2="DILATED" operator="in" result="OUTLINE"></feComposite>        <feMerge>            <feMergeNode in="OUTLINE"></feMergeNode>            <feMergeNode in="SourceGraphic"></feMergeNode>        </feMerge>    </filter>    <filter id="hover" height="200%">        <feMorphology in="SourceAlpha" result="DILATED" operator="dilate" radius="2"></feMorphology>                <feFlood flood-color="#ff0000" flood-opacity="0.5" result="PINK"></feFlood>        <feComposite in="PINK" in2="DILATED" operator="in" result="OUTLINE"></feComposite>        <feMerge>            <feMergeNode in="OUTLINE"></feMergeNode>            <feMergeNode in="SourceGraphic"></feMergeNode>        </feMerge>            <feColorMatrix type="matrix" values="0   0   0   0   0                0   1   0   0   0                0   0   0   0   0                0   0   0   1   0 "></feColorMatrix>    </filter></defs></svg>