<!-- Generated by IcoMoon.io -->
<svg version="1.1" xmlns="http://www.w3.org/2000/svg" width="24" height="24" viewBox="0 0 24 24">
<title>call-s</title>
<path fill="none" stroke="#0d10f3" stroke-linejoin="round" stroke-linecap="round" stroke-miterlimit="4" stroke-width="1.4824" d="M17.831 14.708c0.275 0.175 0.722 0.454 0.619 1.048-0.386 1.236-1.508 2.082-2.784 2.096-1.856 0-4.124-1.467-6.117-3.529s-3.437-4.333-3.437-6.219c0.015-1.297 0.846-2.438 2.062-2.83 0.584-0.070 0.825 0.349 1.031 0.629l1.409 2.166c0.278 0.457 0.157 1.054-0.275 1.363-0.584 0.489-1.237 0.769 0.997 3.040s2.509 1.642 2.99 1.013c0.303-0.439 0.891-0.562 1.34-0.28l2.165 1.502z"></path>
</svg>
