<!-- Generated by IcoMoon.io -->
<svg version="1.1" xmlns="http://www.w3.org/2000/svg" width="24" height="24" viewBox="0 0 24 24">
<title>cart</title>
<path fill="none" stroke="#0d10f3" stroke-linejoin="round" stroke-linecap="round" stroke-miterlimit="4" stroke-width="1.44" d="M5.568 6.528l1.728 5.184"></path>
<path fill="none" stroke="#0d10f3" stroke-linejoin="round" stroke-linecap="round" stroke-miterlimit="4" stroke-width="1.44" d="M0.96 1.92h3.019l1.589 4.608h17.28l-3.019 9.216h-11.266c-0.834 0-1.565 0.975-1.565 1.809s0.731 1.647 1.565 1.647h9.717"></path>
<path fill="none" stroke="#0d10f3" stroke-linejoin="round" stroke-linecap="round" stroke-miterlimit="4" stroke-width="1.44" d="M10.017 20.71c0 0.834-0.676 1.51-1.51 1.51s-1.51-0.676-1.51-1.51c0-0.834 0.676-1.51 1.51-1.51s1.51 0.676 1.51 1.51z"></path>
<path fill="none" stroke="#0d10f3" stroke-linejoin="round" stroke-linecap="round" stroke-miterlimit="4" stroke-width="1.44" d="M19.829 20.71c0 0.834-0.676 1.51-1.51 1.51s-1.51-0.676-1.51-1.51c0-0.834 0.676-1.51 1.51-1.51s1.51 0.676 1.51 1.51z"></path>
</svg>
