<!-- Generated by IcoMoon.io -->
<svg version="1.1" xmlns="http://www.w3.org/2000/svg" width="24" height="24" viewBox="0 0 24 24">
<title>cloud-s</title>
<path fill="none" stroke="#0d10f3" stroke-linejoin="round" stroke-linecap="round" stroke-miterlimit="4" stroke-width="1.4824" d="M4.941 18.776c-2.183 0-3.953-1.77-3.953-3.953 0-1.861 1.286-3.421 3.018-3.842-0.035-0.197-0.053-0.399-0.053-0.605 0-1.91 1.549-3.459 3.459-3.459 1.061 0 2.011 0.478 2.646 1.231 0.537-1.853 2.246-3.207 4.272-3.207 2.456 0 4.447 1.991 4.447 4.447 0 0.175-0.010 0.348-0.030 0.518 2.238 0.232 3.983 2.124 3.983 4.423 0 2.456-1.991 4.447-4.447 4.447h-13.341z"></path>
<path fill="none" stroke="#5d60f7" stroke-linejoin="round" stroke-linecap="round" stroke-miterlimit="4" stroke-width="1.4824" d="M17.799 12.171c0.612-0.762 0.978-1.729 0.978-2.782 0-2.456-1.991-4.447-4.447-4.447-1.848 0-3.432 1.127-4.104 2.731-0.221 0.528-0.343 1.108-0.343 1.716"></path>
</svg>
