<!-- Generated by IcoMoon.io -->
<svg version="1.1" xmlns="http://www.w3.org/2000/svg" width="24" height="24" viewBox="0 0 24 24">
<title>company-s-grey</title>
<path fill="none" stroke="#c0c0cd" stroke-linejoin="round" stroke-linecap="round" stroke-miterlimit="4" stroke-width="1.4824" d="M20.044 9.674l-6.424-1.889c-0.524-0.154-1.073 0.146-1.227 0.669-0.027 0.091-0.040 0.184-0.040 0.279v12.020c0 0.546 0.442 0.988 0.988 0.988h6.424c0.546 0 0.988-0.442 0.988-0.988v-10.131c0-0.438-0.289-0.824-0.709-0.948z"></path>
<path fill="#fff" stroke="#c0c0cd" stroke-linejoin="round" stroke-linecap="round" stroke-miterlimit="4" stroke-width="1.4824" d="M3.855 2.876l7.906-0.791c0.543-0.054 1.027 0.342 1.082 0.885 0.003 0.033 0.005 0.065 0.005 0.098v17.684c0 0.546-0.442 0.988-0.988 0.988h-7.906c-0.546 0-0.988-0.442-0.988-0.988v-16.894c0-0.508 0.385-0.933 0.89-0.983z"></path>
<path fill="none" stroke="#e0e0e6" stroke-linejoin="round" stroke-linecap="round" stroke-miterlimit="4" stroke-width="1.4824" d="M6.424 7.412l2.965-0.296"></path>
<path fill="none" stroke="#e0e0e6" stroke-linejoin="round" stroke-linecap="round" stroke-miterlimit="4" stroke-width="1.4824" d="M6.424 11.365l2.965-0.296"></path>
<path fill="none" stroke="#e0e0e6" stroke-linejoin="round" stroke-linecap="round" stroke-miterlimit="4" stroke-width="1.4824" d="M6.424 15.318l2.965-0.296"></path>
<path fill="none" stroke="#e0e0e6" stroke-linejoin="round" stroke-linecap="round" stroke-miterlimit="4" stroke-width="1.4824" d="M16.306 12.353v0.988"></path>
<path fill="none" stroke="#e0e0e6" stroke-linejoin="round" stroke-linecap="round" stroke-miterlimit="4" stroke-width="1.4824" d="M16.306 15.318v0.988"></path>
</svg>
