<!-- Generated by IcoMoon.io -->
<svg version="1.1" xmlns="http://www.w3.org/2000/svg" width="24" height="24" viewBox="0 0 24 24">
<title>company-s</title>
<path fill="none" stroke="#0d10f3" stroke-linejoin="miter" stroke-linecap="butt" stroke-miterlimit="4" stroke-width="1.4824" d="M19.828 10.405c0.109 0.029 0.184 0.127 0.184 0.239v10.109c0 0.136-0.111 0.247-0.247 0.247h-7.412c-0.136 0-0.247-0.111-0.247-0.247v-12.059c0-0.021 0.003-0.042 0.008-0.063 0.035-0.132 0.17-0.211 0.302-0.176l7.412 1.95z"></path>
<path fill="none" stroke="#0d10f3" stroke-linejoin="miter" stroke-linecap="butt" stroke-miterlimit="4" stroke-width="1.4824" d="M3.928 3.613c-0.126 0.013-0.222 0.119-0.222 0.246v16.894c0 0.136 0.111 0.247 0.247 0.247h7.906c0.136 0 0.247-0.111 0.247-0.247v-17.684c0-0.012 0-0.012-0.001-0.025-0.014-0.136-0.135-0.235-0.27-0.221l-7.906 0.791z"></path>
<path fill="none" stroke="#5d60f7" stroke-linejoin="round" stroke-linecap="round" stroke-miterlimit="4" stroke-width="1.4824" d="M6.424 7.412l2.965-0.296"></path>
<path fill="none" stroke="#5d60f7" stroke-linejoin="round" stroke-linecap="round" stroke-miterlimit="4" stroke-width="1.4824" d="M6.424 11.365l2.965-0.296"></path>
<path fill="none" stroke="#5d60f7" stroke-linejoin="round" stroke-linecap="round" stroke-miterlimit="4" stroke-width="1.4824" d="M6.424 15.318l2.965-0.296"></path>
<path fill="none" stroke="#5d60f7" stroke-linejoin="round" stroke-linecap="round" stroke-miterlimit="4" stroke-width="1.4824" d="M16.306 12.353v0.988"></path>
<path fill="none" stroke="#5d60f7" stroke-linejoin="round" stroke-linecap="round" stroke-miterlimit="4" stroke-width="1.4824" d="M16.306 15.318v0.988"></path>
</svg>
