<!-- Generated by IcoMoon.io -->
<svg version="1.1" xmlns="http://www.w3.org/2000/svg" width="24" height="24" viewBox="0 0 24 24">
<title>edit</title>
<path fill="#0d10f3" d="M18.848 5.209c0.268 0.265 0.294 0.681 0.078 0.976l-0.072 0.085-11.022 11.146c-1.042 1.060-1.042 2.783 0 3.843 0.29 0.295 0.286 0.77-0.009 1.061s-0.77 0.286-1.061-0.009c-0.97-0.986-1.357-2.338-1.163-3.617l0.019-0.106-0.026 0.006c-0.153 0.027-0.309 0.045-0.465 0.054l-0.236 0.007c-1.104 0-2.163-0.446-2.942-1.238-0.29-0.295-0.286-0.77 0.009-1.061s0.77-0.287 1.061 0.009c0.498 0.506 1.171 0.79 1.872 0.79 0.638 0 1.252-0.234 1.733-0.657l0.149-0.142 11.015-11.14c0.291-0.295 0.766-0.297 1.061-0.006z"></path>
<path fill="#0d10f3" d="M16.736 1.328c1.587-1.612 3.859-1.358 5.542 0.351 0.657 0.667 1.11 1.445 1.301 2.253 0.095 0.403-0.155 0.807-0.558 0.902s-0.807-0.155-0.902-0.558c-0.124-0.528-0.438-1.066-0.91-1.545-1.094-1.11-2.354-1.292-3.284-0.465l-0.119 0.114-14.64 14.884-1.161 5.016 4.911-1.176 6.947-7.022 5.705-5.83c0.29-0.296 0.765-0.301 1.061-0.011s0.301 0.765 0.011 1.061l-5.708 5.833-7.101 7.177c-0.074 0.075-0.162 0.133-0.259 0.171l-0.1 0.031-6.297 1.508c-0.508 0.122-0.97-0.298-0.922-0.798l0.017-0.101 1.483-6.403c0.023-0.101 0.067-0.196 0.129-0.278l0.067-0.078 14.787-15.035z"></path>
</svg>
