<!-- Generated by IcoMoon.io -->
<svg version="1.1" xmlns="http://www.w3.org/2000/svg" width="24" height="24" viewBox="0 0 24 24">
<title>employee</title>
<path fill="none" stroke="currentColor" stroke-width="1.3846" stroke-miterlimit="4" stroke-linecap="round" stroke-linejoin="round" d="M8.526 14.955c-0.778 0.26-1.615 0.392-2.505 0.392-1.95 0-3.693-0.651-5.039-1.882-0.030-0.027-0.055-0.079-0.059-0.1 0.001-0.058 0.015-0.098 0.020-0.105 0.245-0.216 0.466-0.331 0.508-0.35l2.765-1.57-0.49-0.725c-0.605-0.897-0.922-2.039-0.922-2.702v-1.925c0-1.443 1.535-2.756 3.221-2.756 1.661 0 3.175 1.314 3.175 2.756 0 0.383 0 0.671 0 0.862"></path>
<path fill="none" stroke="currentColor" stroke-width="1.3846" stroke-miterlimit="4" stroke-linecap="round" stroke-linejoin="round" d="M15.327 14.955c0.778 0.26 1.615 0.392 2.505 0.392 1.95 0 3.693-0.651 5.039-1.882 0.030-0.027 0.055-0.079 0.059-0.1-0.001-0.058-0.015-0.098-0.020-0.105-0.245-0.216-0.466-0.331-0.508-0.35l-2.765-1.57 0.491-0.725c0.605-0.897 0.922-2.039 0.922-2.702v-1.925c0-1.443-1.535-2.756-3.221-2.756-1.661 0-3.175 1.314-3.175 2.756 0 0.383 0 0.671 0 0.862"></path>
<path fill="none" stroke="currentColor" stroke-width="1.3846" stroke-miterlimit="4" stroke-linecap="round" stroke-linejoin="round" d="M11.906 20.251c-2.325 0-4.403-0.756-6.009-2.186-0.036-0.032-0.066-0.092-0.070-0.116 0.001-0.067 0.018-0.113 0.024-0.123 0.292-0.251 0.556-0.384 0.606-0.407l3.297-1.824-0.585-0.842c-0.722-1.042-1.1-2.369-1.1-3.14v-2.237c0-1.677 1.831-3.203 3.841-3.203 1.981 0 3.787 1.526 3.787 3.203v2.237c0 0.794-0.326 2.123-1.043 3.165l-0.574 0.833 3.332 1.885c0.15 0.073 0.314 0.159 0.486 0.297 0.039 0.032 0.074 0.093 0.078 0.118 0.001 0.067-0.015 0.114-0.021 0.126-1.653 1.461-3.696 2.215-6.050 2.215z"></path>
</svg>
