<!-- Generated by IcoMoon.io -->
<svg version="1.1" xmlns="http://www.w3.org/2000/svg" width="24" height="24" viewBox="0 0 24 24">
<title>employee-m-grey</title>
<path fill="none" stroke="#e0e0e6" stroke-linejoin="round" stroke-linecap="round" stroke-miterlimit="4" stroke-width="1.44" d="M8.402 14.836c-0.762 0.255-1.581 0.384-2.452 0.384-1.909 0-3.614-0.637-4.932-1.842-0.030-0.027-0.054-0.077-0.057-0.098 0.001-0.056 0.014-0.095 0.019-0.103 0.24-0.212 0.456-0.324 0.497-0.343l2.707-1.536-0.48-0.71c-0.593-0.878-0.903-1.995-0.903-2.645v-1.884c0-1.412 1.503-2.698 3.153-2.698 1.626 0 3.108 1.286 3.108 2.698 0 0.375 0 0.656 0 0.844"></path>
<path fill="none" stroke="#e0e0e6" stroke-linejoin="round" stroke-linecap="round" stroke-miterlimit="4" stroke-width="1.44" d="M15.059 14.836c0.762 0.255 1.581 0.384 2.452 0.384 1.909 0 3.614-0.637 4.932-1.842 0.030-0.027 0.054-0.077 0.057-0.098-0.001-0.056-0.014-0.095-0.019-0.103-0.24-0.212-0.456-0.324-0.497-0.343l-2.707-1.536 0.48-0.71c0.593-0.878 0.903-1.995 0.903-2.645v-1.884c0-1.412-1.503-2.698-3.153-2.698-1.626 0-3.108 1.286-3.108 2.698 0 0.375 0 0.656 0 0.844"></path>
<path fill="none" stroke="#c0c0cd" stroke-linejoin="round" stroke-linecap="round" stroke-miterlimit="4" stroke-width="1.44" d="M11.71 20.019c-2.276 0-4.31-0.74-5.882-2.14-0.035-0.031-0.065-0.090-0.069-0.114 0.001-0.066 0.017-0.111 0.023-0.12 0.286-0.246 0.544-0.376 0.593-0.398l3.228-1.785-0.573-0.825c-0.707-1.020-1.077-2.318-1.077-3.073v-2.189c0-1.641 1.792-3.135 3.76-3.135 1.939 0 3.706 1.494 3.706 3.135v2.189c0 0.777-0.32 2.078-1.021 3.098l-0.561 0.815 3.262 1.845c0.147 0.072 0.307 0.155 0.476 0.29 0.038 0.031 0.073 0.091 0.077 0.116 0.001 0.066-0.015 0.112-0.020 0.123-1.618 1.43-3.618 2.168-5.922 2.168z"></path>
</svg>
