<!-- Generated by IcoMoon.io -->
<svg version="1.1" xmlns="http://www.w3.org/2000/svg" width="24" height="24" viewBox="0 0 24 24">
<title>offboarding_laufend-s</title>
<path fill="none" stroke="#4c4d5b" stroke-linejoin="miter" stroke-linecap="butt" stroke-miterlimit="4" stroke-width="1.1504" d="M20 12c0 4.418-3.582 8-8 8s-8-3.582-8-8c0-4.418 3.582-8 8-8s8 3.582 8 8z"></path>
<path fill="none" stroke="#9e9e9e" stroke-linejoin="round" stroke-linecap="round" stroke-miterlimit="4" stroke-width="1.26" d="M13.563 14.7l-3.694 1.844-1.235-0.713 2.613-2.653"></path>
<path fill="none" stroke="#9e9e9e" stroke-linejoin="round" stroke-linecap="round" stroke-miterlimit="4" stroke-width="1.26" d="M14.904 10.971l-0.034-3.088-1.235-0.713-0.79 3.008"></path>
<path fill="none" stroke="#9e9e9e" stroke-linejoin="round" stroke-linecap="round" stroke-miterlimit="4" stroke-width="1.26" d="M8.654 7.795l0.87 1.639 6.119 2.396c1.207 0.481 1.436 1.371 0.686 2.67"></path>
<path fill="none" stroke="#9e9e9e" stroke-linejoin="round" stroke-linecap="round" stroke-miterlimit="4" stroke-width="1.26" d="M8.634 7.768l-1.702 3.011 1.732 0.147 5.257 3.888c1.044 0.764 1.847 0.66 2.409-0.314"></path>
</svg>
