<!-- Generated by IcoMoon.io -->
<svg version="1.1" xmlns="http://www.w3.org/2000/svg" width="24" height="24" viewBox="0 0 24 24">
<title>onboarding_laufen-s</title>
<path fill="none" stroke="#4c4d5b" stroke-linejoin="miter" stroke-linecap="butt" stroke-miterlimit="4" stroke-width="1.1504" d="M20 12c0 4.418-3.582 8-8 8s-8-3.582-8-8c0-4.418 3.582-8 8-8s8 3.582 8 8z"></path>
<path fill="none" stroke="#9e9e9e" stroke-linejoin="round" stroke-linecap="round" stroke-miterlimit="4" stroke-width="1.26" d="M15.316 11.827l-0.25 4.121-1.235 0.713-0.991-3.589"></path>
<path fill="none" stroke="#9e9e9e" stroke-linejoin="round" stroke-linecap="round" stroke-miterlimit="4" stroke-width="1.26" d="M12.757 8.801l-2.691-1.514-1.235 0.713 2.21 2.188"></path>
<path fill="none" stroke="#9e9e9e" stroke-linejoin="round" stroke-linecap="round" stroke-miterlimit="4" stroke-width="1.26" d="M6.882 12.625l1.855 0.066 5.134-4.101c1.021-0.805 1.906-0.558 2.655 0.74"></path>
<path fill="none" stroke="#9e9e9e" stroke-linejoin="round" stroke-linecap="round" stroke-miterlimit="4" stroke-width="1.26" d="M6.848 12.629l1.756 2.98 0.994-1.426 5.996-2.609c1.184-0.522 1.495-1.27 0.933-2.244"></path>
</svg>
