<?xml version="1.0" encoding="UTF-8"?>
<svg width="24px" height="12px" viewBox="0 0 24 12" version="1.1" xmlns="http://www.w3.org/2000/svg" xmlns:xlink="http://www.w3.org/1999/xlink">
    <title>icon/opportunitie/blue</title>
    <g id="elements-library" stroke="none" stroke-width="1" fill="none" fill-rule="evenodd" stroke-linecap="round">
        <g id="00.16-icons" transform="translate(-293.000000, -2070.000000)" stroke="#0D10F3" stroke-width="1.5">
            <g id="Group" transform="translate(293.000000, 2064.000000)">
                <g id="Group-4" transform="translate(1.000000, 7.000000)">
                    <line x1="9" y1="5" x2="0" y2="5" id="Path-6"></line>
                    <path d="M13.5,7.08780056 L13.5,8 C13.5,9.1045695 12.6045695,10 11.5,10 L9.5,10 L9.5,10 L9.5,0 L11.5,0 C12.6045695,0 13.5,0.8954305 13.5,2 L13.5,3.04153447 L13.5,3.04153447 M17.5,7 L13.5,7 M13.5,3 L17.5,3 M21.5,9 L19.5,9 C18.3954305,9 17.5,8.1045695 17.5,7 M17.5,3 C17.5,1.8954305 18.3954305,1 19.5,1 L21.5,1 L21.5,6.03332401" id="Combined-Shape" stroke-linejoin="round"></path>
                </g>
            </g>
        </g>
    </g>
</svg>