<!-- Generated by IcoMoon.io -->
<svg version="1.1" xmlns="http://www.w3.org/2000/svg" width="24" height="24" viewBox="0 0 24 24">
<title>print-m</title>
<path fill="none" stroke="#5d60f7" stroke-linejoin="round" stroke-linecap="round" stroke-miterlimit="4" stroke-width="1.5" d="M4.5 12.5h1"></path>
<path fill="none" stroke="#0d10f3" stroke-linejoin="round" stroke-linecap="round" stroke-miterlimit="4" stroke-width="1.5" d="M6 7v-3c0-0.552 0.448-1 1-1h10c0.552 0 1 0.448 1 1v5c0 0.552-0.448 1-1 1h-10"></path>
<path fill="none" stroke="#0d10f3" stroke-linejoin="round" stroke-linecap="round" stroke-miterlimit="4" stroke-width="1.5" d="M7 17h10c0.552 0 1 0.448 1 1v2c0 0.552-0.448 1-1 1h-10c-0.552 0-1-0.448-1-1v-2c0-0.552 0.448-1 1-1z"></path>
<path fill="none" stroke="#0d10f3" stroke-linejoin="round" stroke-linecap="round" stroke-miterlimit="4" stroke-width="1.5" d="M5 10h14c1.657 0 3 1.343 3 3v6c0 1.105-0.895 2-2 2h-16c-1.105 0-2-0.895-2-2v-6c0-1.657 1.343-3 3-3z"></path>
</svg>
