<!-- Generated by IcoMoon.io -->
<svg version="1.1" xmlns="http://www.w3.org/2000/svg" width="24" height="24" viewBox="0 0 24 24">
<title>settings-s</title>
<path fill="none" stroke="#0d10f3" stroke-linejoin="round" stroke-linecap="round" stroke-miterlimit="4" stroke-width="1.4824" d="M9.513 20.13c-0.676-0.196-1.326-0.476-1.937-0.834l-0.946 0.63-0.414-0.287c-0.445-0.308-0.852-0.646-1.208-1.006-0.362-0.36-0.7-0.766-1.008-1.209l-0.287-0.414 0.659-0.99c-0.328-0.594-0.587-1.24-0.772-1.926l-1.144-0.23-0.090-0.496c-0.096-0.531-0.144-1.057-0.143-1.564-0.001-0.512 0.047-1.039 0.144-1.569l0.090-0.493 1.173-0.238c0.19-0.668 0.459-1.31 0.803-1.911l-0.642-0.965 0.287-0.414c0.31-0.446 0.647-0.852 1.006-1.209 0.364-0.366 0.771-0.704 1.21-1.008l0.414-0.286 0.971 0.646c0.611-0.345 1.267-0.615 1.953-0.803l0.222-1.101 0.496-0.089c1.054-0.19 2.075-0.19 3.129 0l0.496 0.089 0.222 1.101c0.704 0.193 1.376 0.472 1.997 0.83l0.897-0.595 0.414 0.288c0.44 0.306 0.845 0.643 1.206 1.004 0.366 0.366 0.704 0.772 1.008 1.212l0.286 0.414-0.6 0.901c0.36 0.634 0.64 1.318 0.831 2.037l1.026 0.206 0.090 0.495c0.096 0.529 0.144 1.055 0.143 1.567 0 0.51-0.048 1.037-0.142 1.564l-0.089 0.497-1.059 0.213c-0.2 0.71-0.49 1.391-0.862 2.023l0.584 0.878-0.288 0.414c-0.307 0.442-0.644 0.847-1.006 1.209-0.366 0.366-0.773 0.704-1.211 1.007l-0.414 0.286-0.918-0.611c-0.625 0.347-1.3 0.615-2.011 0.799l-0.217 1.071-0.496 0.089c-0.527 0.094-1.050 0.142-1.556 0.142h-0.015c-0.512 0-1.036-0.049-1.56-0.144l-0.494-0.090-0.228-1.13z"></path>
<path fill="none" stroke="#5d60f7" stroke-linejoin="round" stroke-linecap="round" stroke-miterlimit="4" stroke-width="1.4824" d="M14.824 11.859c0 1.637-1.327 2.965-2.965 2.965s-2.965-1.327-2.965-2.965c0-1.637 1.327-2.965 2.965-2.965s2.965 1.327 2.965 2.965z"></path>
</svg>
